<svg id="Grupo_151302" data-name="Grupo 151302" xmlns="http://www.w3.org/2000/svg" xmlns:xlink="http://www.w3.org/1999/xlink" width="397" height="229.483" viewBox="0 0 397 229.483">
  <defs>
    <clipPath id="clip-path">
      <rect id="Rectángulo_42130" data-name="Rectángulo 42130" width="397" height="229.484" fill="none"/>
    </clipPath>
    <clipPath id="clip-path-2">
      <path id="Trazado_208875" data-name="Trazado 208875" d="M195,166.645a37.418,37.418,0,1,0,37.418-37.417A37.418,37.418,0,0,0,195,166.645" transform="translate(-194.999 -129.228)" fill="none"/>
    </clipPath>
  </defs>
  <g id="Grupo_151297" data-name="Grupo 151297">
    <g id="Grupo_151296" data-name="Grupo 151296" clip-path="url(#clip-path)">
      <path id="Trazado_208857" data-name="Trazado 208857" d="M28.553,202.873H203.329l189.776-.292c3.8-8.56-4.1-18.165-12.574-21.448s-18.071-3.282-25.91-7.973c-14.19-8.492-17.253-28.512-28.171-41.228-11.9-13.859-31.809-17.57-44.1-31.056-10.972-12.044-13.888-29.533-20.289-44.753C248.278,23.341,215.295.131,181.005,0s-67.789,23.344-79.872,56.852c-4.917,13.638-7.2,29.646-18.188,38.626-6.493,5.306-14.909,7.092-22.91,9.172s-16.374,4.914-21.662,11.52-5.723,18.085,1.148,22.845c-7.095,9.447-18.781,22.913-18.827,34.918a56.845,56.845,0,0,0,7.859,28.94" transform="translate(-8.834 0)" fill="#fff"/>
      <path id="Trazado_208858" data-name="Trazado 208858" d="M397,362.3c0-4.553-88.871-8.244-198.5-8.244S0,357.751,0,362.3c0,2.037,17.788,3.9,47.262,5.34-7.623,1.367-12.4,3.325-12.4,5.5,0,4.132,17.225,7.481,38.473,7.481s38.473-3.349,38.473-7.481c0-1.271-1.635-2.467-4.51-3.516,27.242.586,58.17.918,90.962.92,5.451,4.143,38.214,7.328,77.825,7.328,43.424,0,78.626-3.828,78.626-8.55,0-.632-.636-1.248-1.832-1.84C380.471,366.071,397,364.268,397,362.3" transform="translate(0 -151.142)" fill="#a6afb4"/>
      <path id="Trazado_208859" data-name="Trazado 208859" d="M382.744,224.016,154.7,225.993c-2.766.024-4.995-2.925-4.995-6.586V97.5c0-3.661,2.229-7,4.995-7.467L382.744,51.785c4.471-.75,8.122,2.448,8.122,7.149v156.5a8.421,8.421,0,0,1-8.122,8.581" transform="translate(-63.906 -22.059)" fill="#1d2630"/>
      <path id="Trazado_208860" data-name="Trazado 208860" d="M375.706,223.187l-230.708,2c-2.8.024-5.053-2.959-5.053-6.663V95.19c0-3.7,2.255-7.085,5.053-7.554L375.706,48.945c4.523-.759,8.217,2.477,8.217,7.232V214.506a8.518,8.518,0,0,1-8.217,8.681" transform="translate(-59.74 -20.847)" fill="#1d2630"/>
      <path id="Trazado_208861" data-name="Trazado 208861" d="M375.8,224.016l-228.045,1.977c-2.766.024-4.995-2.925-4.995-6.586V97.5c0-3.661,2.229-7,4.995-7.467L375.8,51.785c4.471-.75,8.122,2.448,8.122,7.149v156.5a8.421,8.421,0,0,1-8.122,8.581" transform="translate(-60.941 -22.059)" fill="#b8c6cc"/>
      <path id="Trazado_208862" data-name="Trazado 208862" d="M147.752,115.769c-2.766.464-4.995,3.806-4.995,7.467V245.146c0,3.662,2.229,6.61,4.995,6.586l2.327-.02c7.739-46.407,16.282-92.783,20.309-139.739Z" transform="translate(-60.94 -47.799)" fill="#d3dee2"/>
      <path id="Trazado_208863" data-name="Trazado 208863" d="M269.835,166.645a37.418,37.418,0,1,1-37.418-37.418,37.417,37.417,0,0,1,37.418,37.418" transform="translate(-83.241 -55.165)" fill="#fff"/>
      <path id="Trazado_208864" data-name="Trazado 208864" d="M261.4,143.283c6.727,9.654,5.076,23.933.675,34.693-5.5,12.825-18.321,20.153-31.756,21.374a44.944,44.944,0,0,1-21.727-3.866,37.411,37.411,0,1,0,52.808-52.2" transform="translate(-89.043 -61.165)" fill="#d3dee2"/>
      <path id="Trazado_208865" data-name="Trazado 208865" d="M238.291,204.136c-16.284,0-29.532-16.914-29.532-37.7s13.248-37.7,29.532-37.7,29.531,16.914,29.531,37.7-13.248,37.7-29.531,37.7m0-74.835c-15.968,0-28.959,16.657-28.959,37.131s12.991,37.131,28.959,37.131,28.958-16.657,28.958-37.131S254.258,129.3,238.291,129.3" transform="translate(-89.115 -54.952)" fill="#b8c6cc"/>
      <path id="Trazado_208866" data-name="Trazado 208866" d="M243.947,204.136c-12.1,0-21.937-16.914-21.937-37.7s9.841-37.7,21.937-37.7,21.937,16.914,21.937,37.7-9.841,37.7-21.937,37.7m0-74.835c-11.78,0-21.364,16.657-21.364,37.131s9.584,37.131,21.364,37.131,21.364-16.657,21.364-37.131S255.727,129.3,243.947,129.3" transform="translate(-94.772 -54.952)" fill="#b8c6cc"/>
      <path id="Trazado_208867" data-name="Trazado 208867" d="M250.039,204.136c-7.586,0-13.758-16.914-13.758-37.7s6.172-37.7,13.758-37.7,13.758,16.914,13.758,37.7-6.172,37.7-13.758,37.7m0-74.835c-7.271,0-13.185,16.657-13.185,37.131s5.915,37.131,13.185,37.131,13.185-16.657,13.185-37.131S257.31,129.3,250.039,129.3" transform="translate(-100.864 -54.952)" fill="#b8c6cc"/>
      <path id="Trazado_208868" data-name="Trazado 208868" d="M255.8,204.136c-3.767,0-6.018-19.17-6.018-37.7s2.251-37.7,6.018-37.7,6.018,19.17,6.018,37.7-2.251,37.7-6.018,37.7m0-74.835c-2.629,0-5.445,14.92-5.445,37.131s2.815,37.131,5.445,37.131,5.445-14.92,5.445-37.131S258.434,129.3,255.8,129.3" transform="translate(-106.629 -54.952)" fill="#b8c6cc"/>
    </g>
  </g>
  <g id="Grupo_151299" data-name="Grupo 151299" transform="translate(111.758 74.063)">
    <g id="Grupo_151298" data-name="Grupo 151298" clip-path="url(#clip-path-2)">
      <path id="Trazado_208869" data-name="Trazado 208869" d="M195,189.885l-.225-.527a114.94,114.94,0,0,1,78.163-3.89l-.171.547A114.362,114.362,0,0,0,195,189.885" transform="translate(-194.903 -151.077)" fill="#b8c6cc"/>
      <path id="Trazado_208870" data-name="Trazado 208870" d="M193.508,172.558l-.292-.493a92.4,92.4,0,0,1,73.543-8.6l-.171.547a91.822,91.822,0,0,0-73.08,8.544" transform="translate(-194.238 -142.126)" fill="#b8c6cc"/>
      <path id="Trazado_208871" data-name="Trazado 208871" d="M201.949,149.67l-.314-.48a73.74,73.74,0,0,1,62.706-7.984l-.183.543a73.154,73.154,0,0,0-62.209,7.921" transform="translate(-197.832 -132.774)" fill="#b8c6cc"/>
      <path id="Trazado_208872" data-name="Trazado 208872" d="M273.368,214.457a134.54,134.54,0,0,0-77.345-.722l-.161-.55a135.137,135.137,0,0,1,77.678.724Z" transform="translate(-195.367 -162.786)" fill="#b8c6cc"/>
      <path id="Trazado_208873" data-name="Trazado 208873" d="M270.627,237.747a181.884,181.884,0,0,0-63.413-.4l-.1-.565a182.508,182.508,0,0,1,63.612.4Z" transform="translate(-200.172 -174.032)" fill="#b8c6cc"/>
      <path id="Trazado_208874" data-name="Trazado 208874" d="M244.776,249.841a189.038,189.038,0,0,1-29.789-2.361l.091-.566a188.429,188.429,0,0,0,50.948,1.153l.064.57a188.973,188.973,0,0,1-21.314,1.205" transform="translate(-203.531 -179.466)" fill="#b8c6cc"/>
    </g>
  </g>
  <g id="Grupo_151301" data-name="Grupo 151301">
    <g id="Grupo_151300" data-name="Grupo 151300" clip-path="url(#clip-path)">
      <path id="Trazado_208876" data-name="Trazado 208876" d="M414.992,52.243,329.03,66.66,234.966,226.035l180.026-1.561a8.421,8.421,0,0,0,8.122-8.581V59.392c0-4.7-3.651-7.9-8.122-7.149" transform="translate(-100.303 -22.255)" fill="#a6afb4"/>
      <path id="Trazado_208877" data-name="Trazado 208877" d="M356.023,180.584a1.3,1.3,0,0,1-1.279-1.341v-17.35a1.636,1.636,0,0,1,1.363-1.615l31.59-4.365a1.315,1.315,0,0,1,1.527,1.339v18.018a1.693,1.693,0,0,1-1.455,1.645l-31.59,3.661a1.454,1.454,0,0,1-.156.009M387.9,156.471a.917.917,0,0,0-.124.009l-31.59,4.365a1.083,1.083,0,0,0-.869,1.048v17.35a.715.715,0,0,0,.8.763l31.59-3.66a1.106,1.106,0,0,0,.947-1.076V157.252a.741.741,0,0,0-.751-.781" transform="translate(-151.434 -66.55)" fill="#d3dee2"/>
      <rect id="Rectángulo_42131" data-name="Rectángulo 42131" width="0.573" height="20.001" transform="translate(216.865 92.23)" fill="#d3dee2"/>
      <rect id="Rectángulo_42132" data-name="Rectángulo 42132" width="30.64" height="0.573" transform="translate(207.038 98.352) rotate(-7.418)" fill="#d3dee2"/>
      <rect id="Rectángulo_42133" data-name="Rectángulo 42133" width="30.64" height="0.573" transform="translate(207.19 105.528) rotate(-7.418)" fill="#d3dee2"/>
      <path id="Trazado_208878" data-name="Trazado 208878" d="M422.585,213.279a1.835,1.835,0,0,1-1.308-.54,1.932,1.932,0,0,1-.558-1.381l.038-25.288a2.141,2.141,0,0,1,1.931-2.119l47.083-3.385a1.952,1.952,0,0,1,1.534.558,1.931,1.931,0,0,1,.56,1.38l-.04,26.26a2.191,2.191,0,0,1-2.063,2.156Zm47.338-32.147c-.037,0-.073,0-.11,0l-47.083,3.385a1.558,1.558,0,0,0-1.4,1.549l-.038,25.288a1.367,1.367,0,0,0,.391.975,1.264,1.264,0,0,0,.9.372l.068,0,47.081-2.357a1.612,1.612,0,0,0,1.519-1.585l.04-26.26a1.348,1.348,0,0,0-1.37-1.37" transform="translate(-179.597 -77.078)" fill="#d3dee2"/>
      <path id="Trazado_208879" data-name="Trazado 208879" d="M143.423,95.876a9.156,9.156,0,0,0-.666,3.412v4.051L383.919,65.926v-5.2a7.529,7.529,0,0,0-1.657-4.853Z" transform="translate(-60.94 -23.851)" fill="#fff"/>
      <path id="Trazado_208880" data-name="Trazado 208880" d="M142.758,332.735v4.42c0,3.661,2.229,6.61,4.995,6.586L375.8,341.765a8.421,8.421,0,0,0,8.122-8.581V327.51Z" transform="translate(-60.941 -139.808)" fill="#00a0b3"/>
      <path id="Trazado_208881" data-name="Trazado 208881" d="M476.392,111.312l-31.589,3.66a1,1,0,0,1-1.116-1.047V96.574a1.36,1.36,0,0,1,1.116-1.331l31.589-4.365a1.031,1.031,0,0,1,1.2,1.056V109.95a1.4,1.4,0,0,1-1.2,1.361" transform="translate(-189.401 -38.789)" fill="#fff"/>
      <path id="Trazado_208882" data-name="Trazado 208882" d="M409.795,135.021l-31.589,3.66a1,1,0,0,1-1.116-1.047V120.283a1.36,1.36,0,0,1,1.116-1.331l31.589-4.365a1.031,1.031,0,0,1,1.2,1.056v18.017a1.4,1.4,0,0,1-1.2,1.361" transform="translate(-160.972 -48.91)" fill="#d3dee2"/>
      <path id="Trazado_208883" data-name="Trazado 208883" d="M476.365,106.536,450.9,109.811v-.329l25.461-3.286Z" transform="translate(-192.483 -45.333)" fill="#a6afb4"/>
      <path id="Trazado_208884" data-name="Trazado 208884" d="M476.365,113.33,450.9,116.5v-.33l25.461-3.177Z" transform="translate(-192.483 -48.234)" fill="#a6afb4"/>
      <path id="Trazado_208885" data-name="Trazado 208885" d="M476.365,120.124,450.9,123.183v-.329l25.461-3.068Z" transform="translate(-192.483 -51.134)" fill="#a6afb4"/>
      <path id="Trazado_208886" data-name="Trazado 208886" d="M456.259,150.629l-30.787,2.85a1.01,1.01,0,0,1-1.088-1.061V135.285A1.3,1.3,0,0,1,425.471,134l30.787-3.537a1.038,1.038,0,0,1,1.169,1.072v17.783a1.331,1.331,0,0,1-1.169,1.314" transform="translate(-181.161 -55.688)" fill="#fff"/>
      <path id="Trazado_208887" data-name="Trazado 208887" d="M455.876,146.988l-24.8,2.6v-.325l24.8-2.6Z" transform="translate(-184.017 -62.604)" fill="#a6afb4"/>
      <path id="Trazado_208888" data-name="Trazado 208888" d="M455.876,153.693l-24.8,2.489v-.325l24.8-2.5Z" transform="translate(-184.017 -65.466)" fill="#a6afb4"/>
      <path id="Trazado_208889" data-name="Trazado 208889" d="M455.876,160.4l-24.8,2.384v-.325l24.8-2.393Z" transform="translate(-184.017 -68.328)" fill="#a6afb4"/>
      <path id="Trazado_208890" data-name="Trazado 208890" d="M501.855,185.822l-32.618,2.216a1.083,1.083,0,0,1-1.151-1.117V169.295a1.311,1.311,0,0,1,1.151-1.3l32.618-2.944a1.116,1.116,0,0,1,1.24,1.13V184.5a1.348,1.348,0,0,1-1.24,1.326" transform="translate(-199.817 -70.455)" fill="#fff"/>
      <path id="Trazado_208891" data-name="Trazado 208891" d="M501.183,182.041l-26.269,2.1v-.334l26.269-2.11Z" transform="translate(-202.732 -77.563)" fill="#a6afb4"/>
      <path id="Trazado_208892" data-name="Trazado 208892" d="M501.183,188.944l-26.269,1.988V190.6l26.269-2Z" transform="translate(-202.732 -80.51)" fill="#a6afb4"/>
      <path id="Trazado_208893" data-name="Trazado 208893" d="M501.183,195.847l-26.269,1.876v-.334l26.269-1.886Z" transform="translate(-202.732 -83.456)" fill="#a6afb4"/>
      <path id="Trazado_208894" data-name="Trazado 208894" d="M477.592,95.974V91.933a1.032,1.032,0,0,0-1.2-1.056L444.8,95.243a1.36,1.36,0,0,0-1.116,1.331v3.891Z" transform="translate(-189.401 -38.789)" fill="#d3dee2"/>
      <path id="Trazado_208895" data-name="Trazado 208895" d="M497.685,95.564l-2.548.342v-2.6l2.548-.35Z" transform="translate(-211.365 -39.683)" fill="#a6afb4"/>
      <path id="Trazado_208896" data-name="Trazado 208896" d="M457.428,135.923v-4.391a1.038,1.038,0,0,0-1.169-1.072L425.471,134a1.3,1.3,0,0,0-1.088,1.287v4.231Z" transform="translate(-181.161 -55.688)" fill="#d3dee2"/>
      <path id="Trazado_208897" data-name="Trazado 208897" d="M477.728,135.416l-2.485.275v-2.563l2.485-.282Z" transform="translate(-202.872 -56.709)" fill="#a6afb4"/>
      <path id="Trazado_208898" data-name="Trazado 208898" d="M503.095,170.579v-4.4a1.116,1.116,0,0,0-1.24-1.13L469.236,168a1.311,1.311,0,0,0-1.152,1.3v4.233Z" transform="translate(-199.816 -70.455)" fill="#d3dee2"/>
      <path id="Trazado_208899" data-name="Trazado 208899" d="M524.329,170.748l-2.634.225v-2.639l2.634-.233Z" transform="translate(-222.702 -71.759)" fill="#a6afb4"/>
      <path id="Trazado_208900" data-name="Trazado 208900" d="M321.233,357.968H30.385a4,4,0,0,1-4-4v-1.758H325.228v1.758a4,4,0,0,1-4,4" transform="translate(-11.265 -150.354)" fill="#1d2630"/>
      <path id="Trazado_208901" data-name="Trazado 208901" d="M325.22,354.132c0-.053.008-.106.008-.16v-1.758H26.39v1.758c0,.054.006.107.008.16Z" transform="translate(-11.265 -150.354)" fill="#f4e7b0"/>
      <path id="Trazado_208902" data-name="Trazado 208902" d="M568.286,93.749a41.018,41.018,0,1,0-42.333,40.985l-4.368,11.5q6.9-6.058,13.685-12.254a41.027,41.027,0,0,0,33.016-40.232" transform="translate(-207.571 -22.51)" fill="#fff5db"/>
      <path id="Trazado_208903" data-name="Trazado 208903" d="M509.4,121.946c-3.7-16.638-12.236-34.02-9.7-50.646a41.007,41.007,0,0,0,11.35,68.042,75.155,75.155,0,0,0-1.655-17.4" transform="translate(-207.571 -30.437)" fill="#fff5db"/>
      <path id="Trazado_208904" data-name="Trazado 208904" d="M604.845,101.795a40.906,40.906,0,0,0-13.285-30.216c2.061,14.729-7.844,27.948-15.226,40.743-4.957,9.152-4.587,19.319-4.29,29.657a41.024,41.024,0,0,0,32.8-40.184" transform="translate(-244.13 -30.556)" fill="#fff5db"/>
      <path id="Trazado_208905" data-name="Trazado 208905" d="M554.166,51.324a30.832,30.832,0,1,0-44.291,27.742,9.8,9.8,0,0,1,5.505,8.82v6.121h15.907V87.888a9.747,9.747,0,0,1,5.449-8.795,30.827,30.827,0,0,0,17.43-27.769" transform="translate(-210.24 -8.748)" fill="#f4e7b0"/>
      <path id="Trazado_208906" data-name="Trazado 208906" d="M559.94,35.126c5.888,10.169,6.246,24.044.1,33.7a40.981,40.981,0,0,1-31.283,19.241,9.822,9.822,0,0,1,2.1,6.065v6.121h15.907v-6.12a9.747,9.747,0,0,1,5.448-8.794,30.825,30.825,0,0,0,7.727-50.214" transform="translate(-225.717 -14.995)" fill="#eaa180"/>
      <path id="Trazado_208907" data-name="Trazado 208907" d="M544.086,167.983h-5.669a3.428,3.428,0,0,1-3.428-3.428V147.868h12.526v16.687a3.428,3.428,0,0,1-3.428,3.428" transform="translate(-228.376 -63.122)" fill="#1d2630"/>
      <rect id="Rectángulo_42134" data-name="Rectángulo 42134" width="18.011" height="22.932" transform="translate(303.869 78.444)" fill="#106887"/>
      <rect id="Rectángulo_42135" data-name="Rectángulo 42135" width="4.585" height="22.932" transform="translate(306.032 78.444)" fill="#00a0b3"/>
      <path id="Trazado_208908" data-name="Trazado 208908" d="M531.391,25.531a28.577,28.577,0,0,0-29.039,45.789c-2.968-6.643-2.347-14.585.859-21.117s8.8-11.707,15.159-15.232a64.2,64.2,0,0,1,20.664-6.692Z" transform="translate(-211.707 -10.55)" fill="#fff"/>
      <path id="Trazado_208909" data-name="Trazado 208909" d="M529.689,144.228a.215.215,0,0,1-.032-.428l18.385-2.743a.211.211,0,0,1,.245.181.216.216,0,0,1-.181.244l-18.385,2.743-.032,0" transform="translate(-226.022 -60.214)" fill="#1d2630"/>
      <path id="Trazado_208910" data-name="Trazado 208910" d="M529.689,149.661a.215.215,0,0,1-.032-.428l18.385-2.743a.212.212,0,0,1,.245.181.215.215,0,0,1-.181.244l-18.385,2.743-.032,0" transform="translate(-226.022 -62.533)" fill="#1d2630"/>
      <path id="Trazado_208911" data-name="Trazado 208911" d="M529.689,155.094a.215.215,0,0,1-.032-.428l18.385-2.743a.211.211,0,0,1,.245.181.216.216,0,0,1-.181.244l-18.385,2.743-.032,0" transform="translate(-226.022 -64.852)" fill="#1d2630"/>
      <path id="Trazado_208912" data-name="Trazado 208912" d="M529.689,160.526a.215.215,0,0,1-.032-.428l18.385-2.743a.211.211,0,0,1,.245.181.216.216,0,0,1-.181.244l-18.385,2.743-.032,0" transform="translate(-226.022 -67.171)" fill="#1d2630"/>
      <path id="Trazado_208913" data-name="Trazado 208913" d="M529.689,165.959a.215.215,0,0,1-.032-.428l18.385-2.743a.211.211,0,0,1,.245.181.216.216,0,0,1-.181.245l-18.385,2.742-.032,0" transform="translate(-226.022 -69.49)" fill="#1d2630"/>
      <path id="Trazado_208914" data-name="Trazado 208914" d="M112.139,60.356l1.136.38a9.275,9.275,0,0,0,.63-1.06l-.891-.787a8.032,8.032,0,0,0,.537-1.573l1.193-.115a9.132,9.132,0,0,0,.145-1.2l-1.135-.358c0-.046,0-.091,0-.136a8.094,8.094,0,0,0-.153-1.565l1.043-.59a9.25,9.25,0,0,0-.351-1.136l-1.179.134a8.058,8.058,0,0,0-.858-1.527l.712-.962a9.222,9.222,0,0,0-.771-.879l-1.026.6a8.161,8.161,0,0,0-1.434-1.063L110,47.352a9.113,9.113,0,0,0-1.052-.476l-.692.97a8.037,8.037,0,0,0-1.764-.382l-.237-1.166c-.191-.012-.382-.02-.576-.02s-.385.008-.575.02l-.237,1.166a8.042,8.042,0,0,0-1.765.382l-.692-.97a9.113,9.113,0,0,0-1.052.476l.259,1.167a8.12,8.12,0,0,0-1.434,1.063l-1.026-.6a9.223,9.223,0,0,0-.771.879l.711.962a8.089,8.089,0,0,0-.858,1.527l-1.179-.134a9.249,9.249,0,0,0-.351,1.136l1.042.59A8.139,8.139,0,0,0,97.6,55.5c0,.045,0,.09,0,.136L96.466,56a9.329,9.329,0,0,0,.145,1.2l1.194.115a8,8,0,0,0,.537,1.573l-.891.787a9.114,9.114,0,0,0,.63,1.06l1.136-.38a8.12,8.12,0,0,0,1.1,1.192l-.495,1.085a9.25,9.25,0,0,0,1.017.726l.884-.81a8.019,8.019,0,0,0,1.461.641l-.01,1.193a9.219,9.219,0,0,0,1.233.257l.476-1.1c.261.025.526.039.793.039s.532-.014.793-.039l.476,1.1a9.227,9.227,0,0,0,1.233-.257l-.011-1.193a8.007,8.007,0,0,0,1.462-.641l.883.81a9.257,9.257,0,0,0,1.018-.726l-.495-1.085a8.152,8.152,0,0,0,1.1-1.192" transform="translate(-41.18 -19.755)" fill="#fff5db"/>
      <path id="Trazado_208915" data-name="Trazado 208915" d="M79.219,72.82a12.144,12.144,0,0,0,.191-1.588l-1.5-.472c0-.06,0-.119,0-.179a10.7,10.7,0,0,0-.2-2.064l1.375-.778a12.2,12.2,0,0,0-.463-1.5l-1.555.177A10.642,10.642,0,0,0,75.941,64.4l.939-1.269a12.307,12.307,0,0,0-1.018-1.159l-1.353.8a10.673,10.673,0,0,0-1.892-1.4l.342-1.54a12.021,12.021,0,0,0-1.388-.629l-.912,1.279a10.591,10.591,0,0,0-2.327-.5l-.313-1.539c-.252-.015-.5-.026-.759-.026s-.508.011-.759.026l-.313,1.539a10.579,10.579,0,0,0-2.327.5L62.946,59.2a12.029,12.029,0,0,0-1.389.629l.342,1.54a10.693,10.693,0,0,0-1.892,1.4l-1.353-.8a12.3,12.3,0,0,0-1.017,1.159l.939,1.269a10.614,10.614,0,0,0-1.132,2.015l-1.555-.177a12.1,12.1,0,0,0-.463,1.5l1.375.778a10.7,10.7,0,0,0-.2,2.064c0,.06,0,.119,0,.179l-1.5.472A12.244,12.244,0,0,0,55.3,72.82l1.574.151a10.573,10.573,0,0,0,.708,2.075l-1.175,1.039a12.18,12.18,0,0,0,.832,1.4l1.5-.5a10.689,10.689,0,0,0,1.452,1.572l-.653,1.432a12.2,12.2,0,0,0,1.342.958l1.166-1.068a10.553,10.553,0,0,0,1.928.845l-.014,1.573a12.091,12.091,0,0,0,1.627.339l.628-1.445c.344.034.693.052,1.047.052s.7-.018,1.046-.052l.629,1.445a12.1,12.1,0,0,0,1.626-.339l-.014-1.573a10.553,10.553,0,0,0,1.928-.845l1.166,1.068a12.2,12.2,0,0,0,1.342-.958l-.653-1.432a10.724,10.724,0,0,0,1.452-1.572l1.5.5a12.228,12.228,0,0,0,.832-1.4l-1.174-1.039a10.61,10.61,0,0,0,.708-2.075ZM67.238,75.913a5.391,5.391,0,1,1,5.391-5.391,5.391,5.391,0,0,1-5.391,5.391" transform="translate(-23.524 -24.935)" fill="#fff5db"/>
      <path id="Trazado_208916" data-name="Trazado 208916" d="M122.212,99.46c0-.23-.009-.459-.017-.687l2.928-.619c-.036-.57-.093-1.133-.174-1.689l-2.995,0c-.077-.455-.17-.9-.281-1.347l2.732-1.213c-.153-.548-.324-1.088-.52-1.616l-2.93.626q-.256-.641-.559-1.258l2.422-1.755q-.4-.754-.851-1.469l-2.729,1.219c-.256-.382-.528-.75-.812-1.11l2.008-2.224c-.362-.436-.743-.855-1.139-1.26l-2.419,1.762q-.493-.48-1.02-.922l1.5-2.587c-.443-.351-.9-.687-1.371-1l-2,2.228q-.581-.367-1.19-.69L113.717,81q-.758-.377-1.551-.689L110.675,82.9c-.429-.158-.867-.3-1.311-.421l.316-2.981c-.545-.139-1.1-.252-1.661-.347L107.1,82q-.676-.1-1.367-.141l-.309-2.977c-.282-.011-.565-.021-.849-.021s-.567.01-.849.021l-.309,2.977q-.691.045-1.368.141l-.921-2.846c-.562.095-1.116.207-1.661.347l.316,2.981c-.444.125-.882.263-1.311.421l-1.491-2.589q-.792.314-1.551.689l.928,2.846q-.61.322-1.19.69l-2-2.228c-.472.315-.928.65-1.371,1l1.5,2.586c-.352.294-.691.6-1.02.922l-2.419-1.762c-.4.4-.778.824-1.139,1.26l2.008,2.224c-.284.36-.557.728-.812,1.11l-2.729-1.219q-.455.716-.851,1.469l2.422,1.755c-.2.41-.388.83-.559,1.258l-2.931-.626c-.2.528-.367,1.068-.52,1.616l2.732,1.213c-.112.442-.2.892-.281,1.347l-2.995,0q-.122.834-.174,1.689l2.928.619c-.009.228-.017.457-.017.687s.009.459.017.687l-2.928.619q.053.855.174,1.69l2.995,0c.077.454.17.9.281,1.347l-2.732,1.213c.153.548.324,1.088.52,1.616L88.188,106c.171.428.356.848.559,1.258l-2.422,1.755q.4.754.851,1.469l2.729-1.219c.256.382.528.75.812,1.11L88.709,112.6c.362.436.743.855,1.139,1.26l2.419-1.762c.328.32.667.629,1.02.922l-1.5,2.587c.443.351.9.687,1.371,1l2-2.228q.581.366,1.19.689l-.928,2.846q.758.377,1.551.69l1.491-2.59c.429.158.867.3,1.311.421l-.316,2.981c.545.139,1.1.252,1.661.347l.921-2.846q.677.1,1.368.141l.309,2.977c.282.011.565.021.849.021s.567-.01.849-.021l.309-2.977q.691-.045,1.367-.141l.922,2.846c.561-.095,1.116-.207,1.661-.347l-.316-2.981c.444-.125.882-.263,1.311-.421l1.491,2.59q.792-.315,1.551-.69l-.928-2.846q.61-.322,1.19-.689l2,2.228c.472-.315.928-.65,1.371-1l-1.5-2.587c.352-.293.692-.6,1.02-.922l2.419,1.762c.4-.4.777-.824,1.139-1.26l-2.007-2.224c.284-.36.556-.728.812-1.11l2.729,1.219q.455-.716.851-1.469l-2.422-1.755q.3-.616.559-1.258l2.93.626c.2-.528.367-1.068.52-1.616l-2.732-1.213c.112-.442.2-.892.281-1.347l2.995,0c.081-.557.138-1.12.174-1.69l-2.928-.619c.009-.228.017-.457.017-.687m-17.641,14.113A14.113,14.113,0,1,1,118.684,99.46a14.113,14.113,0,0,1-14.113,14.113" transform="translate(-35.866 -33.665)" fill="#fff5db"/>
      <path id="Trazado_208917" data-name="Trazado 208917" d="M66.586,142.783a7.328,7.328,0,1,0,7.328,7.328,7.337,7.337,0,0,0-7.328-7.328" transform="translate(-25.296 -60.951)" fill="#fff5db"/>
      <path id="Trazado_208918" data-name="Trazado 208918" d="M75.582,147.4a14.83,14.83,0,0,0,.233-1.929l-1.821-.574c0-.073.005-.145.005-.218a13.02,13.02,0,0,0-.245-2.509l1.672-.946a14.645,14.645,0,0,0-.563-1.821l-1.89.215a12.917,12.917,0,0,0-1.376-2.45l1.142-1.542a14.838,14.838,0,0,0-1.237-1.409l-1.645.969a12.982,12.982,0,0,0-2.3-1.7l.415-1.872a14.638,14.638,0,0,0-1.688-.764L65.175,132.4a12.9,12.9,0,0,0-2.829-.612l-.381-1.871c-.306-.018-.613-.031-.923-.031s-.617.013-.923.031l-.381,1.871a12.9,12.9,0,0,0-2.829.612L55.8,130.841a14.639,14.639,0,0,0-1.688.764l.415,1.872a12.982,12.982,0,0,0-2.3,1.7l-1.645-.969a14.837,14.837,0,0,0-1.237,1.409l1.142,1.542a12.917,12.917,0,0,0-1.376,2.45l-1.89-.215a14.548,14.548,0,0,0-.563,1.821l1.672.946a13.02,13.02,0,0,0-.245,2.509c0,.073,0,.145.006.218l-1.821.574A14.732,14.732,0,0,0,46.5,147.4l1.914.185a12.89,12.89,0,0,0,.861,2.522l-1.428,1.264a14.761,14.761,0,0,0,1.011,1.7l1.822-.609a13.022,13.022,0,0,0,1.765,1.91l-.793,1.741a14.832,14.832,0,0,0,1.632,1.165l1.417-1.3A12.91,12.91,0,0,0,57.046,157l-.016,1.912a14.642,14.642,0,0,0,1.977.413l.764-1.757c.418.041.842.062,1.272.062s.853-.022,1.272-.062l.764,1.757a14.642,14.642,0,0,0,1.977-.413L65.038,157a12.916,12.916,0,0,0,2.344-1.027l1.417,1.3a14.91,14.91,0,0,0,1.632-1.165l-.793-1.741a13.022,13.022,0,0,0,1.765-1.91l1.822.609a14.844,14.844,0,0,0,1.011-1.7L72.807,150.1a12.889,12.889,0,0,0,.861-2.522Zm-14.539,5.757a8.55,8.55,0,1,1,8.55-8.55,8.559,8.559,0,0,1-8.55,8.55" transform="translate(-19.752 -55.444)" fill="#fff5db"/>
      <path id="Trazado_208919" data-name="Trazado 208919" d="M341.559,296.512h-1.193l-9.311-97.667h1.193Z" transform="translate(-141.321 -84.883)" fill="#1d2630"/>
      <path id="Trazado_208920" data-name="Trazado 208920" d="M390.147,296.512h-1.193l-9.311-97.667h1.193Z" transform="translate(-162.062 -84.883)" fill="#1d2630"/>
      <path id="Trazado_208921" data-name="Trazado 208921" d="M363.772,296.512h1.193l9.311-97.667h-1.193Z" transform="translate(-155.287 -84.883)" fill="#1d2630"/>
      <path id="Trazado_208922" data-name="Trazado 208922" d="M315.184,296.512h1.193l9.311-97.667h-1.193Z" transform="translate(-134.546 -84.883)" fill="#1d2630"/>
      <path id="Trazado_208923" data-name="Trazado 208923" d="M364.866,260.14H328.593L323.031,201.8H359.3Z" transform="translate(-137.896 -86.143)" fill="#1d2630"/>
      <path id="Trazado_208924" data-name="Trazado 208924" d="M367.009,260.14H330.737L325.174,201.8h36.273Z" transform="translate(-138.811 -86.143)" fill="#b8c6cc"/>
      <path id="Trazado_208925" data-name="Trazado 208925" d="M363.963,205.417l-.363-3.806H325.175l.363,3.806Z" transform="translate(-138.811 -86.064)" fill="#fff"/>
      <path id="Trazado_208926" data-name="Trazado 208926" d="M363.7,202.695l-.1-1.084H325.175l.1,1.084Z" transform="translate(-138.811 -86.064)" fill="#00a0b3"/>
      <rect id="Rectángulo_42136" data-name="Rectángulo 42136" width="18.154" height="0.43" transform="translate(198.884 136.014) rotate(-38.673)" fill="#fff"/>
      <path id="Trazado_208927" data-name="Trazado 208927" d="M359.19,234.372l-.3-.31,3.256-3.123.3.31Z" transform="translate(-153.204 -98.583)" fill="#fff"/>
      <path id="Trazado_208928" data-name="Trazado 208928" d="M407.129,353.551c-.615-.326-2.529,1.676-3.144,1.35a89.056,89.056,0,0,0-3-10.659c1.766-.449,3.214.368,5.04-.144a57.684,57.684,0,0,0,1.1,9.454" transform="translate(-171.173 -146.889)" fill="#edc6a4"/>
      <path id="Trazado_208929" data-name="Trazado 208929" d="M406.513,350.06a56.954,56.954,0,0,0,.874,5.939c-.614-.326-2.529,1.676-3.144,1.35a50.154,50.154,0,0,0-1.7-6.54,7.4,7.4,0,0,0,3.971-.749" transform="translate(-171.838 -149.434)" fill="#fff"/>
      <path id="Trazado_208930" data-name="Trazado 208930" d="M387.193,291.409c.863,2.609,5.191,16.518,6.054,19.127,2.827,1.884,4.87-.361,6.629-1.367-.736-2.787-4.9-20.085-6.7-22.374l0,0a14.62,14.62,0,0,1-1.459-3.843c-1.165-5.444.561-10.925,2.449-16.082a40.283,40.283,0,0,0,2.648-9.3,13.7,13.7,0,0,0-1.181-7.587H380.655c-1.162,6.151.441,21.835,3.659,32.461.908,3,1.894,5.979,2.88,8.96" transform="translate(-162.333 -106.716)" fill="#106887"/>
      <path id="Trazado_208931" data-name="Trazado 208931" d="M398.259,262.892c.017-.148.024-.3.036-.448-4.377,1.2-9.6,1.1-10.63,4.714-1.372,3.979-2.679,7.957-4,11.912a86.347,86.347,0,0,0,2.094,8.7c.908,3,1.894,5.979,2.88,8.96.863,2.609,5.191,16.518,6.054,19.127a4.731,4.731,0,0,0,.845.446c.438-6.783.3-13.69.7-20.378a16.134,16.134,0,0,0-1.616-3.81l0,0a14.6,14.6,0,0,1-1.459-3.843c-1.166-5.443.561-10.925,2.448-16.081a40.3,40.3,0,0,0,2.649-9.3" transform="translate(-163.78 -112.032)" fill="#1d2630"/>
      <path id="Trazado_208932" data-name="Trazado 208932" d="M408.564,352.817a1.558,1.558,0,0,0,.791-.835c.183-.667-.473-1.307-.426-2a7.749,7.749,0,0,1-6.721,2.2q.172.827.345,1.654a8.63,8.63,0,0,0,6.01-1.023" transform="translate(-171.695 -149.402)" fill="#1d2630"/>
      <path id="Trazado_208933" data-name="Trazado 208933" d="M399.286,366.021c-.365-.509.037-1.932.442-2.406,1.364-1.594,2.316-2.662,2.213-4.657-.032-.609-.307-1,.35-1.225.364-.122,1.013-.4,1.354-.229a3.444,3.444,0,0,0,1.061.44.975.975,0,0,0,.939-.723c.527.356.52,1.248,1.1,2.945.252.745-.675,1.381-1.06,2.072-.586,1.052-.336,1.857-1.194,2.758a5.65,5.65,0,0,1-3.956,1.484c-.573-.015-.942-.037-1.244-.459" transform="translate(-170.387 -152.491)" fill="#1d2630"/>
      <path id="Trazado_208934" data-name="Trazado 208934" d="M392.184,358.292c-.968,3.027-2.286,6.048-2.231,9.209l-4.163-.21a74.416,74.416,0,0,0,1.48-8.985,29.806,29.806,0,0,0,4.913-.013" transform="translate(-164.687 -152.948)" fill="#edc6a4"/>
      <path id="Trazado_208935" data-name="Trazado 208935" d="M391.466,361.758a17.525,17.525,0,0,0-1.04,5.652l-4.163-.21c.437-1.906.787-3.83,1.07-5.766a6.971,6.971,0,0,0,4.132.324" transform="translate(-164.889 -154.289)" fill="#fff"/>
      <path id="Trazado_208936" data-name="Trazado 208936" d="M386.826,296.966c.05,3.131-.638,15.916-.992,18.915l7.8,1.435c0-.922,2.4-20.84,2.016-24.453-.473-2.758-.021-4.853.309-7.586a72.426,72.426,0,0,1,2.013-8.98c1.7-6.967,3.1-11.913,4.124-15.638,1.521-5.521,1.894-5.856.562-11.441l-.537-.251H386.85c-.245,8.217.285,16.336-.024,24.387-.1,2.58-.812,6.077-.774,8.67.038,2.65-.377,4.165.149,6.788.487,2.431.377,5.7.625,8.153" transform="translate(-164.705 -106.279)" fill="#106887"/>
      <path id="Trazado_208937" data-name="Trazado 208937" d="M387.5,285.731l-.287-.014a138.053,138.053,0,0,1,4.051-26.884l.278.07a137.731,137.731,0,0,0-4.042,26.828" transform="translate(-165.294 -110.491)" fill="#fff"/>
      <path id="Trazado_208938" data-name="Trazado 208938" d="M385.335,364.643a45.172,45.172,0,0,1,8.187,1.377l.194-2.732a66.082,66.082,0,0,1-7.817-.907q-.282,1.131-.565,2.262" transform="translate(-164.492 -154.694)" fill="#1d2630"/>
      <path id="Trazado_208939" data-name="Trazado 208939" d="M383.876,255.122a4.365,4.365,0,0,0-2.585.455,1.516,1.516,0,0,0-.359,2.278c6.591-.24,13.338-.46,19.669,1.545l.129-3.772-16.854-.506" transform="translate(-162.45 -108.903)" fill="#1d2630"/>
      <path id="Trazado_208940" data-name="Trazado 208940" d="M384.732,367.5a1.8,1.8,0,0,0-1.642.83c-1.008,1.146-.829,2.388-1.8,3.834s-2.2,2.253-1.849,3.755a7.411,7.411,0,0,0,6.751-1.107c.873-.607.7-1.473,1.433-2.213.863-.877.519-2.278.7-3.624a.739.739,0,0,0-.521-.867c-.433-.148.452,1.854-1.1.656-.562-.434-1.474-1.248-1.971-1.265" transform="translate(-161.949 -156.879)" fill="#1d2630"/>
      <path id="Trazado_208941" data-name="Trazado 208941" d="M356.852,164.609a10.91,10.91,0,0,0-.965-2.926,59.176,59.176,0,0,1-3.327-7.515,3.7,3.7,0,0,0,.508-.494c.613-.717.345-1.89.878-2.668a.826.826,0,0,0,.229-.491.415.415,0,0,0-.272-.335.686.686,0,0,0-.443,0,1.048,1.048,0,0,0-.694.708,3.1,3.1,0,0,1-.1.391.354.354,0,0,1-.3.238.43.43,0,0,1-.271-.127,4.634,4.634,0,0,1-.856-1.522c-.64-1.8-1.858-3.895-2.621-5.584-.205-.079-.431.109-.5.335a1.468,1.468,0,0,0,.027.7c.108.526.717,1.495.825,2.021a1.614,1.614,0,0,1,.046.575.492.492,0,0,1-.324.418c-.216.05-.414-.132-.571-.3l-2.768-2.957c-.206-.219-.557-.437-.74-.2s.042.868.243,1.069a11.618,11.618,0,0,1,2.4,3.392c-1.07-.387-2.156-1.037-3.225-1.423-.156.2-.267.572-.089.744a5.472,5.472,0,0,0,1,.672c.764.327,1.748.967,1.911,1.85a1.656,1.656,0,0,0-.215.3c-.53-.187-1.167-.558-1.658-.679a1.156,1.156,0,0,0-.586-.041.462.462,0,0,0-.346.458c.025.256.587.465.814.544,1.645.569,1.639,1.755,2.623,2.838a2.926,2.926,0,0,0,1.194.959c.858,3.206,1.871,6.818,2.58,9.951.3,1.313.856,2.829,2.255,3.281a2.663,2.663,0,0,0,2.9-1.075,3.947,3.947,0,0,0,.43-3.106" transform="translate(-146.787 -61.584)" fill="#edc6a4"/>
      <path id="Trazado_208942" data-name="Trazado 208942" d="M352.027,157.81c.153.252.275.559.546.675a.848.848,0,0,0,.937-.379,2.468,2.468,0,0,0,.33-2.027,7.327,7.327,0,0,0-.861-1.929c-.143-.25-.371-.54-.65-.468-.257.067-.331.385-.4.641a2.4,2.4,0,0,1-1.244,1.481c-.244.119-.551.25-.571.52a.482.482,0,0,0,.275.425,2.594,2.594,0,0,0,.5.171,2.072,2.072,0,0,1,1.139.891" transform="translate(-149.454 -65.599)" fill="#dba983"/>
      <path id="Trazado_208943" data-name="Trazado 208943" d="M358.357,168.971q-2.013.291-4,.752.192.949.383,1.9,2.076-.7,4.214-1.2l-.6-1.446" transform="translate(-151.27 -72.131)" fill="#dba983"/>
      <path id="Trazado_208944" data-name="Trazado 208944" d="M373.944,185.414c-7.639-1.607-11.169-8.795-14.652-15.605-1.238.492-3.838.877-5.076,1.37a34.429,34.429,0,0,0,5.175,14.479c2.868,4.286,7.435,7.665,12.527,8.169q1.014-4.206,2.026-8.412" transform="translate(-151.208 -72.488)" fill="#dc8456"/>
      <path id="Trazado_208945" data-name="Trazado 208945" d="M355.359,171.584a10.053,10.053,0,0,0-1.143.353,34.429,34.429,0,0,0,5.175,14.478c2.867,4.286,7.435,7.665,12.527,8.169q.305-1.268.611-2.536c-8.98-2.469-18.114-10.627-17.17-20.464" transform="translate(-151.208 -73.246)" fill="#c1633a"/>
      <path id="Trazado_208946" data-name="Trazado 208946" d="M403.05,201.232a7.066,7.066,0,0,1-.284,6.007c-.838,1.9-2.082,3.639-2.85,5.566-2.33,5.849.8,12.221,1.349,19.029-7.119-.487-14.777-.939-21.9-.787.515-3.719-.2-3.79.045-7.535.4-6.092.638-17.876,2.34-25.753,3.316-1.806,6.343-1.738,10.234-1.7a17.421,17.421,0,0,1,6.171,1.393c2.1.88,3.925,1.869,4.894,3.783" transform="translate(-161.941 -83.688)" fill="#dc8456"/>
      <path id="Trazado_208947" data-name="Trazado 208947" d="M415.481,210.294a7.066,7.066,0,0,0,.284-6.007,5.728,5.728,0,0,0-.729-1.087c-7.369,9.021-5.888,20.382-5.525,31.4,1.506.092,3,.19,4.47.291-.553-6.807-3.679-13.179-1.349-19.029.768-1.928,2.012-3.663,2.85-5.566" transform="translate(-174.656 -86.742)" fill="#c1633a"/>
      <path id="Trazado_208948" data-name="Trazado 208948" d="M400.86,256.049a130.44,130.44,0,0,0-21.251-.218l-.02-.285a130.758,130.758,0,0,1,21.3.218Z" transform="translate(-162.039 -108.946)" fill="#1d2630"/>
      <path id="Trazado_208949" data-name="Trazado 208949" d="M394.868,202.284h0c-.343,0-.7-.009-1.084-.027a6.463,6.463,0,0,1-4.372-1.436,2.786,2.786,0,0,1-.816-2.756,2.728,2.728,0,0,1,1.53-1.592,6.27,6.27,0,0,1,2.121-.444A16.344,16.344,0,0,1,400,197.15c.966.419,1.5.935,1.621,1.577.219,1.123-.9,1.968-1.253,2.2a9.587,9.587,0,0,1-5.5,1.356m-1.048-6.027c-.505,0-1.028.02-1.553.058a6.01,6.01,0,0,0-2.024.42,2.438,2.438,0,0,0-1.374,1.417,2.553,2.553,0,0,0,.744,2.464,6.217,6.217,0,0,0,4.184,1.354c.382.018.732.027,1.071.027a9.322,9.322,0,0,0,5.338-1.308c.312-.207,1.316-.958,1.13-1.907-.105-.543-.581-.99-1.453-1.37a15.152,15.152,0,0,0-6.062-1.157" transform="translate(-165.84 -83.656)" fill="#1d2630"/>
      <path id="Trazado_208950" data-name="Trazado 208950" d="M401.37,193.906a1.429,1.429,0,0,0-.888-.828,7.875,7.875,0,0,0-2.009-.531c-.089-.451-.148-.911-.2-1.366a44.444,44.444,0,0,1-.25-4.684h-4.608a27.361,27.361,0,0,1-.955,6.039c-.152.022-.307.033-.458.058a2.022,2.022,0,0,0-1.516.769,1.622,1.622,0,0,0-.011,1.346,3.872,3.872,0,0,0,1.676,1.935,5.872,5.872,0,0,0,2.467.75,7.871,7.871,0,0,0,6.2-2.2,1.43,1.43,0,0,0,.555-1.287" transform="translate(-166.626 -79.612)" fill="#edc6a4"/>
      <path id="Trazado_208951" data-name="Trazado 208951" d="M403.625,193.906a1.429,1.429,0,0,0-.888-.828,7.872,7.872,0,0,0-2.009-.53c-.089-.452-.148-.911-.2-1.366a44.453,44.453,0,0,1-.25-4.684H395.81a11.661,11.661,0,0,0,3.569,10.717,7.792,7.792,0,0,0,3.691-2.021,1.429,1.429,0,0,0,.555-1.287" transform="translate(-168.882 -79.612)" fill="#dba983"/>
      <path id="Trazado_208952" data-name="Trazado 208952" d="M400.385,192c-.041-.272-.077-.545-.106-.817a44.453,44.453,0,0,1-.25-4.684h-4.608a26.874,26.874,0,0,1-.391,3.485A7.065,7.065,0,0,0,400.385,192" transform="translate(-168.631 -79.612)" fill="#1d2630"/>
      <path id="Trazado_208953" data-name="Trazado 208953" d="M420.45,222.333a81.371,81.371,0,0,1-2.384-8.656c-.216-1.584-.373-3.174-.452-4.768a10.641,10.641,0,0,0-.657-3.948,3.565,3.565,0,0,0-3.217-2.22,3.419,3.419,0,0,0-2.246,1.179c-1.627,1.767-1.734,4.416-1.212,6.752.393,1.755,1.842,5.456,1.836,5.46.138.411,1.031,6.151,2.227,8.876a5,5,0,0,0,2.892,2.72c1.369.554,3-1.021,3.548-2.322a4.367,4.367,0,0,0-.334-3.072" transform="translate(-175.023 -86.544)" fill="#dc8456"/>
      <rect id="Rectángulo_42137" data-name="Rectángulo 42137" width="26.617" height="0.835" transform="translate(227.381 127.5)" fill="#1d2630"/>
      <path id="Trazado_208954" data-name="Trazado 208954" d="M425.828,211.664H402.837a.629.629,0,0,1-.625-.7l1.38-12.482a.63.63,0,0,1,.625-.56h22.991a.629.629,0,0,1,.625.7l-1.38,12.482a.63.63,0,0,1-.625.56" transform="translate(-171.695 -84.49)" fill="#fff"/>
      <path id="Trazado_208955" data-name="Trazado 208955" d="M425.828,212.756H402.837a.629.629,0,0,1-.625-.7l1.38-12.482a.629.629,0,0,1,.625-.559h22.991a.629.629,0,0,1,.625.7l-1.38,12.482a.63.63,0,0,1-.625.56" transform="translate(-171.695 -84.957)" fill="#00a0b3"/>
      <path id="Trazado_208956" data-name="Trazado 208956" d="M415.572,212.2a17.38,17.38,0,0,0-4.063,6.093h11.575c-.05-2.714-.936-7.085-4.432-4.215-1.036.851-1.456-3.038-3.079-1.879" transform="translate(-175.665 -90.49)" fill="#1d2630"/>
      <path id="Trazado_208957" data-name="Trazado 208957" d="M414.693,214.105c.348-.05.522.08.568.324s-.045.565-.017.81a4.4,4.4,0,0,0,.733,1.7,18.573,18.573,0,0,1-.2-2.45,10.342,10.342,0,0,1,.342-1.483.654.654,0,0,1,.583.459,2.123,2.123,0,0,1,.06.754,5.248,5.248,0,0,0,.692,2.658,14.021,14.021,0,0,0-.22-1.7,22.668,22.668,0,0,1-.036-2.576c.386-.2.752.089.864.5.128.475.142.748.277,1.365a6.735,6.735,0,0,0,.492,1.648c.134.293.282.586.605.668a.9.9,0,0,0,.72-.037,2.265,2.265,0,0,0,.422-.6,10.618,10.618,0,0,0,1.286-2.247,2.372,2.372,0,0,1,.292-.667.475.475,0,0,1,.517-.126c.24.108.281.414.266.661a9.08,9.08,0,0,1-1.338,3.467c.526-.349.464-.652.791-1.153a1.609,1.609,0,0,1,.523-.385.714.714,0,0,1,.622.119c-.554.687-.391,1.737-.918,2.444a3.149,3.149,0,0,1-.8.677c-.287.193-.186.174-.472.366a.752.752,0,0,0-.295.3c.523,2.7,1.863,5.345,1.788,7.9a5.811,5.811,0,0,1-.6,2.7,2.8,2.8,0,0,1-2.291,1.487,3.143,3.143,0,0,1-2.831-2.53,10.875,10.875,0,0,1,.133-3.951,22.319,22.319,0,0,0,.115-4.508c-.161-.693-.269-1.371-.669-1.581-.228-.12-.326-.332-.553-.455a3,3,0,0,1-.692-.7,6.339,6.339,0,0,1-.983-1.794c-.336-.73.024-.957.227-2.069" transform="translate(-176.869 -90.728)" fill="#edc6a4"/>
      <path id="Trazado_208958" data-name="Trazado 208958" d="M422.789,224.5a16.582,16.582,0,0,1-4.4-.527.478.478,0,0,0,.04.027c.4.21.508.888.669,1.582.05.67.066,1.342.057,2.012,1.311-.526,2.68-.967,4.051-1.415-.16-.557-.305-1.116-.415-1.679" transform="translate(-178.602 -95.612)" fill="#dba983"/>
      <path id="Trazado_208959" data-name="Trazado 208959" d="M394.994,179.383c2.339-1.4,4.3-3.569,6.809-3.694l-.275-1.541c-.825-2.361-5.393-2.4-7.482-.542a4.161,4.161,0,0,0-1.264,2.851,5.262,5.262,0,0,1,2.212,2.926" transform="translate(-167.671 -73.546)" fill="#dba983"/>
      <path id="Trazado_208960" data-name="Trazado 208960" d="M401.991,179.391l-.209-1.168c-2.511.125-4.469,2.29-6.809,3.694a5.259,5.259,0,0,0-2.212-2.926,13.024,13.024,0,0,0,.9,5.254c.93,2.52,6.415,3.584,7.136,2.926s1.322-5.148,1.322-5.148l-.5-1.7Z" transform="translate(-167.651 -76.08)" fill="#edc6a4"/>
      <path id="Trazado_208961" data-name="Trazado 208961" d="M394.582,185.273c.048.161.293.248.258.411-.021.1-.132.142-.221.19s-.172.162-.11.241a1.6,1.6,0,0,1,.054-1.947,2.52,2.52,0,0,1,.465.751.636.636,0,0,0-.318.073.261.261,0,0,0-.128.28" transform="translate(-168.279 -78.618)" fill="#dba983"/>
      <path id="Trazado_208962" data-name="Trazado 208962" d="M402.821,170.962a3.133,3.133,0,0,0,1.294-.813c-2.75,1.1-5.885.1-8.808.563a3.717,3.717,0,0,0-2.647,1.441,3.51,3.51,0,0,0-.452,1.815c-.049.036-.1.07-.145.111a3.083,3.083,0,0,0-.783,2.5,7.263,7.263,0,0,0,1.918,4.5c.013-.162.028-.327.045-.491a1.457,1.457,0,0,1-.4-.55,2.4,2.4,0,0,1-.131-1.1,1.577,1.577,0,0,1,.232-.772.729.729,0,0,1,.7-.335.761.761,0,0,1,.5.406c.764-.768,1.951-1.051,2.722-1.833a4.368,4.368,0,0,0,1.011-2.036,15.307,15.307,0,0,0,1.649.149,4.648,4.648,0,0,0,2.579-.6,6.516,6.516,0,0,0,2.24-3.524,2.436,2.436,0,0,1-1.522.579" transform="translate(-167.026 -72.633)" fill="#1d2630"/>
      <path id="Trazado_208963" data-name="Trazado 208963" d="M397.887,173.676a3.6,3.6,0,0,0-1.453-.2,1.5,1.5,0,0,1-.908-.128,1.2,1.2,0,0,0-.263-.174c-.259-.088-.5.17-.648.4a1.962,1.962,0,0,0-.484,1.576,2.494,2.494,0,0,1,1.286-1.084c-.159.12-.034.405.16.449a.7.7,0,0,0,.547-.189,1.111,1.111,0,0,1,.519-.279,1.327,1.327,0,0,1,.5.1,3.567,3.567,0,0,0,.757.111l1.082.081a9.839,9.839,0,0,0,2.181,0,3.314,3.314,0,0,0,1.938-.919,4.023,4.023,0,0,1-1.857.534c-.345-.016-.679-.12-1.021-.166a1.355,1.355,0,0,0-.993.182c0-.134-.16-.214-.293-.207s-.259.068-.392.082a1.455,1.455,0,0,1-.656-.171" transform="translate(-168.228 -73.918)" fill="#106887"/>
      <path id="Trazado_208964" data-name="Trazado 208964" d="M547.288,370.965a2.081,2.081,0,1,1-2.081,2.082,2.081,2.081,0,0,1,2.081-2.082" transform="translate(-232.739 -158.358)" fill="#1d2630"/>
      <path id="Trazado_208965" data-name="Trazado 208965" d="M480.94,370.965a2.081,2.081,0,1,1-2.082,2.082,2.081,2.081,0,0,1,2.082-2.082" transform="translate(-204.415 -158.358)" fill="#1d2630"/>
      <path id="Trazado_208966" data-name="Trazado 208966" d="M504.141,347.4a7.155,7.155,0,0,1-3.654-1.687l-19.167,1.549v-.488a.9.9,0,0,1,.829-.9c2.453-.2,9.674-.8,12.451-1.122a7.173,7.173,0,0,0,4.757-2.181h.437v-11.51h.441V314.551h1.659v16.511h.44v11.51h.437a7.173,7.173,0,0,0,4.757,2.181c2.777.327,10,.923,12.451,1.122a.9.9,0,0,1,.83.9v.488l-17.312-1.4a10.784,10.784,0,0,0,.995.749,3.088,3.088,0,0,1,.785.656,1.6,1.6,0,0,1,.228.437h1.022v3.865H503.1v-3.865h1.076c-.012-.1-.02-.2-.034-.305" transform="translate(-205.466 -134.276)" fill="#1d2630"/>
      <path id="Trazado_208967" data-name="Trazado 208967" d="M513.143,292.478H493.1a6.757,6.757,0,0,1-4.349-5.354c-.25-2.494.953-5.048,2.345-7.376s3.019-4.608,3.754-7.115c.81-2.763.561-5.822,2.487-8.19a7.162,7.162,0,0,1,7.561-2.15l2.176.1,4.6-.1c2.692-.922,5.83.032,7.075,2.15,1.392,2.368.879,4.293.637,8.19a41.785,41.785,0,0,0-.253,7.115c.29,2.958.754,4.987-.06,7.48-.778,2.386-3.357,4.27-5.923,5.249" transform="translate(-208.622 -111.818)" fill="#dc8456"/>
      <path id="Trazado_208968" data-name="Trazado 208968" d="M513.415,290.4H495.484a6.25,6.25,0,0,1-3.89-4.989c-.224-2.324.852-4.7,2.1-6.874s2.7-4.3,3.358-6.632c.724-2.575.5-5.427,2.224-7.633a6.244,6.244,0,0,1,6.763-2l1.946.1,4.113-.1a5.324,5.324,0,0,1,6.328,2c1.245,2.207.786,4,.569,7.633a40.588,40.588,0,0,0-.226,6.632c.259,2.756.674,4.647-.053,6.971-.7,2.224-3,3.98-5.3,4.892" transform="translate(-209.84 -111.818)" fill="#1d2630"/>
      <path id="Trazado_208969" data-name="Trazado 208969" d="M502.154,241.688q2.351-2.4,4.567-4.924a2.206,2.206,0,0,1,.714-.613,1.8,1.8,0,0,1,1.865.564,4.687,4.687,0,0,1,.787,5.6,10.349,10.349,0,0,1-2.749,2.676c-.247.194-.488.395-.73.594a8.684,8.684,0,0,0-4.455-3.9" transform="translate(-214.36 -100.767)" fill="#e0cc75"/>
      <path id="Trazado_208970" data-name="Trazado 208970" d="M490.956,252.125a9.244,9.244,0,0,1,1.886-2.12c1.48-1.364,3.244-2.883,4.653-4.321a8.253,8.253,0,0,1,4.134,4.016,38.479,38.479,0,0,0-3.623,3.387,18.236,18.236,0,0,1-2.114,2.074,4.649,4.649,0,0,1-2.713,1.061,2.7,2.7,0,0,1-2.455-1.37,2.973,2.973,0,0,1,.233-2.727" transform="translate(-209.38 -104.878)" fill="#edc6a4"/>
      <path id="Trazado_208971" data-name="Trazado 208971" d="M501.59,246.052c.124-.123.249-.245.368-.367a8.249,8.249,0,0,1,4.134,4.015,38.486,38.486,0,0,0-3.624,3.387c-.5.532-.987,1.081-1.524,1.574a9.023,9.023,0,0,0,.646-8.609" transform="translate(-213.844 -104.878)" fill="#1d2630"/>
      <path id="Trazado_208972" data-name="Trazado 208972" d="M497.171,219.44a.534.534,0,0,0-.5-.176,1.45,1.45,0,0,0-1.238.981,5.306,5.306,0,0,1-.169.578c-.918-.632-.6-.957-.7-1.423.47-.339,1.021-.748,1.506-1.065.814-.535.57-.957.5-1.511a18.583,18.583,0,0,1-3.846,1.921,1.687,1.687,0,0,0-.462.219.576.576,0,0,0-.224.344,1.118,1.118,0,0,1-.587.586.559.559,0,0,0-.326.516,1.684,1.684,0,0,1-.606,1.272.791.791,0,0,0-.277.759q.38,2.107.761,4.214a27.3,27.3,0,0,1-.863,7.042,16.942,16.942,0,0,0-.273,7.554,3.6,3.6,0,0,0,1.6,2.415,2.511,2.511,0,0,0,2.746-.5,4.57,4.57,0,0,0,1.312-2.7,14.022,14.022,0,0,0,.022-3.089c-.216-3.232-.79-6.472-1.005-9.7l.087-1.12a2.264,2.264,0,0,0,.872-1.275,5.71,5.71,0,0,0-.151-1.711,3.23,3.23,0,0,1,.368-1.184,5.159,5.159,0,0,0,.8-1.074,6.951,6.951,0,0,1,.312-.938c.089-.151.218-.276.3-.429a.489.489,0,0,0,.03-.5" transform="translate(-208.978 -92.558)" fill="#edc6a4"/>
      <path id="Trazado_208973" data-name="Trazado 208973" d="M495.737,234.181l.087-1.12a2.734,2.734,0,0,0,.783-.988,3.687,3.687,0,0,1-2.307,1.273c1.146,5.731,1.075,11.1-1.791,16.262-.054.122-.117.239-.18.356a2.174,2.174,0,0,0,.335.213,2.508,2.508,0,0,0,2.745-.5,4.57,4.57,0,0,0,1.312-2.7,13.985,13.985,0,0,0,.021-3.089c-.216-3.232-.789-6.472-1.005-9.7" transform="translate(-210.166 -99.068)" fill="#dba983"/>
      <path id="Trazado_208974" data-name="Trazado 208974" d="M493.432,228.32a2.218,2.218,0,0,0-.768-1.522,2.556,2.556,0,0,0,1.135.224.979.979,0,0,0-.059.634.549.549,0,0,0,.459.4.385.385,0,0,0,.409-.394.608.608,0,0,0,.958-.54,1.3,1.3,0,0,0,.566-1.436,3.48,3.48,0,0,1,.122,2.135,2.44,2.44,0,0,1-1.371,1.592,1.383,1.383,0,0,1-.735.1.826.826,0,0,1-.6-.407,1.962,1.962,0,0,1-.115-.791" transform="translate(-210.309 -96.342)" fill="#dba983"/>
      <path id="Trazado_208975" data-name="Trazado 208975" d="M470.775,288.581c6.381-3.35,13.831-4.447,20.031-8.1h5.985a5.288,5.288,0,0,1,2.8,3.137c.7,2.18,1.237,2.726.617,4.932a8.493,8.493,0,0,1-2.746,3.877c-1.137.835-4.727,1.547-6.138,1.534-3.033-.027-10.947,2-15.752,3.368a5.5,5.5,0,0,1-5.389-1.331c-2.526-2.513-2.346-4.733.591-7.413" transform="translate(-199.96 -119.73)" fill="#1d2630"/>
      <path id="Trazado_208976" data-name="Trazado 208976" d="M483.753,363.571a19.31,19.31,0,0,0,5.6-.276,43.173,43.173,0,0,0-1.411,9.229l-5.231.276a42.043,42.043,0,0,0,1.038-9.229" transform="translate(-206.062 -155.084)" fill="#edc6a4"/>
      <path id="Trazado_208977" data-name="Trazado 208977" d="M470.042,376.429a32.03,32.03,0,0,0,4.921-1.676,6.264,6.264,0,0,0,1.328-1c1.719.732,2.78,1.45,4.223,1.981a12.007,12.007,0,0,0,1.255.609c-.111,1.1-.324,2.411-.509,3.507l-12.881.014-1.8-.116c.2-1.6,1.825-2.735,3.458-3.321" transform="translate(-199.176 -159.549)" fill="#fff"/>
      <rect id="Rectángulo_42138" data-name="Rectángulo 42138" width="15.073" height="0.902" transform="translate(267.254 219.916)" fill="#1d2630"/>
      <path id="Trazado_208978" data-name="Trazado 208978" d="M481.484,303.6a14.377,14.377,0,0,1,2.616-4.366c2.533-3.164,5.429-6.029,7.883-9.254a24.2,24.2,0,0,0,4.712-9.5h13.234a17.357,17.357,0,0,1-2.974,13.738c-4.287,5.793-10.869,7.586-16.783,11.705,2.517,8.8.628,15.518-1,22.38a22.661,22.661,0,0,1-6.582.324,149.787,149.787,0,0,0-1.346-18.067,16.472,16.472,0,0,1,.236-6.961" transform="translate(-205.328 -119.73)" fill="#106887"/>
      <path id="Trazado_208979" data-name="Trazado 208979" d="M492.27,330.406l-.284-.033,2.37-20.641a5.314,5.314,0,0,1,3.366-4.827l.915-.584a50.068,50.068,0,0,0,9.721-7.365c3.412-3.6,5.2-7.931,4.916-11.873l.285-.021c.294,4.022-1.526,8.429-4.993,12.091a50.285,50.285,0,0,1-9.775,7.409l-.916.585a6.73,6.73,0,0,0-2.847,2.765,6.818,6.818,0,0,0-.389,1.852Z" transform="translate(-210.02 -121.688)" fill="#fff"/>
      <path id="Trazado_208980" data-name="Trazado 208980" d="M481.708,314.2a14.376,14.376,0,0,1,2.616-4.366c1.242-1.551,2.572-3.031,3.893-4.517,2.068,1.868,5.129,2.3,6.783,5.192a6.946,6.946,0,0,1,.963,2.686,58.151,58.151,0,0,0-5.567,3.328,31.545,31.545,0,0,1,1.011,5.015c-.1.037-.186.083-.284.116.1-.033.188-.079.284-.116q.154,1.31.194,2.568c-2.084-4.5-5.317-8.6-10.08-9.222.055-.229.113-.458.187-.684" transform="translate(-205.552 -130.334)" fill="#1d2630"/>
      <path id="Trazado_208981" data-name="Trazado 208981" d="M500.5,322.128a17.33,17.33,0,0,0,5.33,5.9c-.977,1.232-2.4,3.251-3.375,4.483-2.2-2.548-4.345-4.812-6.536-6.916a13.028,13.028,0,0,1,4.58-3.462" transform="translate(-211.699 -137.51)" fill="#edc6a4"/>
      <path id="Trazado_208982" data-name="Trazado 208982" d="M480.593,298.738a32.943,32.943,0,0,1,2.953,3.686c.453.649,4.967,7.792,4.893,7.824a13.041,13.041,0,0,0-4.58,3.462,105.229,105.229,0,0,0-13.691-10.983,4.525,4.525,0,0,1-1.676-1.645,5.169,5.169,0,0,1-.665-3.928,4.27,4.27,0,0,1,2.053-2.373c.189-.1.382-.2.573-.3.786-.413,2.67-.023,3.513.136a9.461,9.461,0,0,1,3.027,1.131,16.694,16.694,0,0,1,3.6,2.99" transform="translate(-199.637 -125.63)" fill="#106887"/>
      <path id="Trazado_208983" data-name="Trazado 208983" d="M512.94,337.024a22.721,22.721,0,0,1-6.742,9.169,1.432,1.432,0,0,1-.66.352c-.491.07-.9-.348-1.221-.727a35.456,35.456,0,0,0,7.906-10.839.864.864,0,0,1,.961.732,2.351,2.351,0,0,1-.245,1.312" transform="translate(-215.284 -142.988)" fill="#1d2630"/>
      <path id="Trazado_208984" data-name="Trazado 208984" d="M506.959,330.846a6.586,6.586,0,0,0-2.364,1.057c-.981.6-2.083,1.421-2.053,2.573a7.328,7.328,0,0,0,.649,1.921,5.428,5.428,0,0,1-.062,2.8,9.964,9.964,0,0,0-.4,2.79,2.644,2.644,0,0,0,1.4,2.3,26.553,26.553,0,0,0,7.931-11.027c-1.444-1.307-3.176-2.706-5.1-2.405" transform="translate(-214.525 -141.214)" fill="#fff"/>
      <path id="Trazado_208985" data-name="Trazado 208985" d="M510.9,232.983a7.75,7.75,0,0,0-5.3,4.318c-.869,2.262-2.2,3.968-2.6,7.731a9.037,9.037,0,0,0,.827,4.576c1.208,2.746-.579,9.295-2.192,12.21,5.3.078,12.563.468,17.86.547,1.1-7.871,6.132-17.343,5.632-25.485a2.706,2.706,0,0,0-1.67-2.356,24.575,24.575,0,0,0-12.56-1.542" transform="translate(-214.139 -99.342)" fill="#f4e7b0"/>
      <path id="Trazado_208986" data-name="Trazado 208986" d="M525.156,237.278c-4.68-1.336-9.434,2.3-10.972,6.409-1.146,4.012.573,9.17-2.292,12.036a40.151,40.151,0,0,1-9.064,7.938c5.226.1,12.1.46,17.177.535,1.1-7.871,5.973-17.334,5.633-25.485a2.687,2.687,0,0,0-.481-1.431" transform="translate(-214.647 -101.169)" fill="#e0cc75"/>
      <path id="Trazado_208987" data-name="Trazado 208987" d="M516.533,248.738a7.1,7.1,0,0,0,.86,3.94,3.793,3.793,0,0,1,.39,3.534c-.57,1.586-2.379,2.277-3.964,2.848a61.2,61.2,0,0,0-7.3,3.177,2.42,2.42,0,0,0-.834.6.845.845,0,0,0-.1.963c.29.424.93.332,1.425.192l10.231-2.9a4.6,4.6,0,0,0,4.073-3.768,74.371,74.371,0,0,0,3.379-12.279,5.81,5.81,0,0,0-.073-2.863,2.217,2.217,0,0,0-2.177-1.563s-5.8,5.614-5.913,8.118" transform="translate(-215.779 -102.711)" fill="#1d2630"/>
      <path id="Trazado_208988" data-name="Trazado 208988" d="M465.464,273.3h0Z" transform="translate(-198.629 -116.666)" fill="#a6afb4"/>
      <path id="Trazado_208989" data-name="Trazado 208989" d="M529.608,242.5c.2-.945.423-1.9.7-2.875.382-1.356,1.422-3.228,2.847-3.81a3.562,3.562,0,0,1,3.531.645,5.3,5.3,0,0,1,1.451,3.5,9.457,9.457,0,0,1-.716,3.3c-.21.571-.441,1.136-.682,1.7a10.688,10.688,0,0,0-7.128-2.46" transform="translate(-226.08 -100.573)" fill="#f4e7b0"/>
      <path id="Trazado_208990" data-name="Trazado 208990" d="M492.837,262.75a2.319,2.319,0,0,1,1.177-.542,2.908,2.908,0,0,1,1.237.308,12.062,12.062,0,0,0,1.6.5c3.942-1.8,7.409-3.752,11.378-5.548a6.742,6.742,0,0,0,2.01-1.206c.721-.714.761-1.94,1.023-2.872.554-1.969.892-3.838,1.3-5.74a10.686,10.686,0,0,1,7.129,2.46,69.977,69.977,0,0,1-3.891,7.445,11.809,11.809,0,0,1-2.661,3.472,12.593,12.593,0,0,1-3.573,1.8,71.7,71.7,0,0,1-11.442,3.149,3.594,3.594,0,0,1-.674.336,8.387,8.387,0,0,1-1.939.381c-.525.06-1.175.058-1.438-.385l-2.478.037-1.911.029a11.281,11.281,0,0,1,3.149-3.624" transform="translate(-209.039 -105.714)" fill="#edc6a4"/>
      <path id="Trazado_208991" data-name="Trazado 208991" d="M519.444,250.96c-3.672,11.573-16.136,14.276-27.573,16.454a4.006,4.006,0,0,0-1.035.366l1.253-.019,2.479-.037c.262.444.913.445,1.438.385a8.382,8.382,0,0,0,1.938-.381,3.574,3.574,0,0,0,.674-.336,71.68,71.68,0,0,0,11.442-3.149,12.6,12.6,0,0,0,3.574-1.8,11.817,11.817,0,0,0,2.66-3.472,69.844,69.844,0,0,0,3.891-7.445q-.359-.3-.742-.562" transform="translate(-209.529 -107.13)" fill="#dba983"/>
      <path id="Trazado_208992" data-name="Trazado 208992" d="M515.7,209.027c-.013-.022.045-.023.032,0Z" transform="translate(-220.142 -89.223)" fill="#edc6a4"/>
      <path id="Trazado_208993" data-name="Trazado 208993" d="M512.335,229.966a4.234,4.234,0,0,1,1.743-.907c.4-.127.652-.4,1.058-.5a17.954,17.954,0,0,0,1.375-6.6l3.4-.157.649.516a21.937,21.937,0,0,0,.57,6.036,10.67,10.67,0,0,1,2.448.787c-.1.661-.742,1.083-1.333,1.4-2.7,1.429-5.778,2.44-8.783,1.906a2.114,2.114,0,0,1-1.592-.9,1.354,1.354,0,0,1,.464-1.585" transform="translate(-218.458 -94.684)" fill="#edc6a4"/>
      <path id="Trazado_208994" data-name="Trazado 208994" d="M512.836,236.481c-.411,0,.062-.883.575-1.595a3.175,3.175,0,0,0-1.076.664,1.354,1.354,0,0,0-.464,1.585,2.114,2.114,0,0,0,1.592.9,11.753,11.753,0,0,0,5.965-.657,9.463,9.463,0,0,1-6.591-.893" transform="translate(-218.458 -100.268)" fill="#dba983"/>
      <path id="Trazado_208995" data-name="Trazado 208995" d="M517.216,230.324a8.275,8.275,0,0,0,5.894-2.5,21.872,21.872,0,0,1-.464-5.5L522,221.8l-3.4.157a17.955,17.955,0,0,1-1.375,6.6,2.1,2.1,0,0,0-.579.263c.007.6.065,1.5.572,1.5" transform="translate(-220.546 -94.684)" fill="#dba983"/>
      <path id="Trazado_208996" data-name="Trazado 208996" d="M522.3,221.806l.649.516a21.833,21.833,0,0,0,.026,2.381,11.09,11.09,0,0,1-5.625,4.25,17.955,17.955,0,0,0,1.55-6.99l3.4-.157" transform="translate(-220.847 -94.685)" fill="#1d2630"/>
      <path id="Trazado_208997" data-name="Trazado 208997" d="M526.721,203.007a2.951,2.951,0,0,0-.241.238c-.19.162-.47.162-.692.277a.98.98,0,0,0-.467.7,2.914,2.914,0,0,0,.011.867,11.376,11.376,0,0,1,2.4,2.245,5.855,5.855,0,0,1,1.711,2.98,5.17,5.17,0,0,0,1.51-4.074,4.266,4.266,0,0,0-2.493-3.473,1.055,1.055,0,0,0-.615-.1.442.442,0,0,0-.369.443c-.236-.125-.531-.248-.754-.1" transform="translate(-224.237 -86.508)" fill="#1d2630"/>
      <path id="Trazado_208998" data-name="Trazado 208998" d="M512.432,207.64c.825-1.511,2.832-2.367,4.526-2.671a6.085,6.085,0,0,1,5.735,2.235,6.471,6.471,0,0,1,.907,6.125,6.912,6.912,0,0,1-4.63,4.164,3.714,3.714,0,0,1-3.8-.811c-1.047-1.243-.718-3.317-1.921-4.411-.436-.4-1.061-.652-1.251-1.21a2.638,2.638,0,0,1-.27-1.4,12.259,12.259,0,0,1,.7-2.02" transform="translate(-218.433 -87.461)" fill="#1d2630"/>
      <path id="Trazado_208999" data-name="Trazado 208999" d="M512.688,214.647c0,.771-.05.393-.181,1.153a3.455,3.455,0,0,0,.278,1.722,16.467,16.467,0,0,0,1.682,3.055,2.131,2.131,0,0,0,1.087.906,3.034,3.034,0,0,0,1.664-.248,8.673,8.673,0,0,0,4.957-6.973,5.077,5.077,0,0,0-.644-3.333,5.563,5.563,0,0,0-3.137-2.016,7.16,7.16,0,0,0-2.756-.348,3.789,3.789,0,0,0-2.467,1.171,5.017,5.017,0,0,0-.911,3.643,4.585,4.585,0,0,1,.428,1.268" transform="translate(-218.633 -89.021)" fill="#edc6a4"/>
      <path id="Trazado_209000" data-name="Trazado 209000" d="M521.97,210.929a5.559,5.559,0,0,0-3.137-2.016,7.16,7.16,0,0,0-2.756-.348,3.789,3.789,0,0,0-2.467,1.171,3.031,3.031,0,0,0-.416.676c1.289,2.31,3.789,2.927,4.842,4.506a5.433,5.433,0,0,1-.962,6.511,3.07,3.07,0,0,0,.583-.194,8.674,8.674,0,0,0,4.957-6.973,5.074,5.074,0,0,0-.644-3.333" transform="translate(-219.073 -89.021)" fill="#dba983"/>
      <path id="Trazado_209001" data-name="Trazado 209001" d="M527.2,206.156a6.858,6.858,0,0,1,3.479,4.883,4.778,4.778,0,0,0-.229-2.43c-.33-.816-.99-.931-1.425-1.469-.66-.816-1.376-.672-1.824-.984" transform="translate(-225.053 -88.004)" fill="#00a0b3"/>
      <path id="Trazado_209002" data-name="Trazado 209002" d="M523.7,211.331a3.446,3.446,0,0,0-.671-.793,4.872,4.872,0,0,0-.6-1.719,5.345,5.345,0,0,0-8.435-.837.867.867,0,0,0-.12,1.407,8.049,8.049,0,0,0,1.159,1.153,2.473,2.473,0,0,0,.667.907,25.5,25.5,0,0,0,2.393,1.705,4.713,4.713,0,0,1,1.852,2.22,1.4,1.4,0,0,1-.275,1.527,6.35,6.35,0,0,0-.542.357.947.947,0,0,0-.111,1.065,2.778,2.778,0,0,0,.75.852c-.338-.34-.7-.766-.606-1.234.093-.449.56-.7.893-1.011a2.068,2.068,0,0,0,.613-1.312,7.051,7.051,0,0,1,.537,2.458c1.091-.492,1.277-1.506,1.932-2.507a5.57,5.57,0,0,0,1.009-2.225,3.107,3.107,0,0,0-.442-2.012m-5.094,1.121c.217.075.438.138.657.2.244.387.485.775.694,1.178a11.634,11.634,0,0,1-1.351-1.382" transform="translate(-219.233 -88.059)" fill="#1d2630"/>
      <path id="Trazado_209003" data-name="Trazado 209003" d="M519.134,209.921a4.323,4.323,0,0,0,3.153,2.477l-.962-.876a2.225,2.225,0,0,0,1.443.269l-.258-.316a2.071,2.071,0,0,1,2.1.7,1.657,1.657,0,0,0-.6-1.544.993.993,0,0,1,.673.112l.026-.365.622.167-.479-.826a2.266,2.266,0,0,1,1.005.252,3.816,3.816,0,0,0-1.613-1.867.822.822,0,0,1,.057.872,2.409,2.409,0,0,1-.592.7c-.177.162-.413.335-.632.238-.1-.043-.172-.136-.277-.155-.178-.033-.313.155-.389.32s-.181.361-.363.364c-.15,0-.261-.132-.378-.226s-.325-.138-.393,0a.756.756,0,0,0-.033.16.374.374,0,0,1-.45.21,5.084,5.084,0,0,1-.509-.2.43.43,0,0,0-.5.111Z" transform="translate(-221.609 -88.836)" fill="#106887"/>
      <path id="Trazado_209004" data-name="Trazado 209004" d="M565.4,345.081h1.33l-6.571-61.831h-1.33Z" transform="translate(-238.551 -120.914)" fill="#1d2630"/>
      <path id="Trazado_209005" data-name="Trazado 209005" d="M558.446,342.92h1.283l-6.342-59.671H552.1Z" transform="translate(-235.683 -120.914)" fill="#1d2630"/>
      <path id="Trazado_209006" data-name="Trazado 209006" d="M435.107,345.081h-1.33l6.571-61.831h1.33Z" transform="translate(-185.171 -120.914)" fill="#1d2630"/>
      <path id="Trazado_209007" data-name="Trazado 209007" d="M442.262,342.92h-1.283l6.342-59.671H448.6Z" transform="translate(-188.245 -120.914)" fill="#1d2630"/>
      <rect id="Rectángulo_42139" data-name="Rectángulo 42139" width="0.547" height="22.439" transform="matrix(0.599, -0.801, 0.801, 0.599, 304.398, 162.853)" fill="#1d2630"/>
      <rect id="Rectángulo_42140" data-name="Rectángulo 42140" width="22.439" height="0.547" transform="translate(254.041 175.871) rotate(-36.87)" fill="#1d2630"/>
      <rect id="Rectángulo_42141" data-name="Rectángulo 42141" width="96.656" height="2.581" transform="translate(239.865 161.016)" fill="#fffdf5"/>
      <path id="Trazado_209008" data-name="Trazado 209008" d="M457.249,268.665h22.188a.679.679,0,0,0,.67-.786L478.1,255.271a.678.678,0,0,0-.67-.572H455.243a.68.68,0,0,0-.671.786l2.007,12.608a.68.68,0,0,0,.671.572" transform="translate(-194.045 -108.726)" fill="#fff"/>
      <path id="Trazado_209009" data-name="Trazado 209009" d="M457.249,269.73h22.188a.679.679,0,0,0,.67-.786L478.1,256.337a.679.679,0,0,0-.67-.573H455.243a.68.68,0,0,0-.671.786l2.007,12.609a.68.68,0,0,0,.671.572" transform="translate(-194.045 -109.181)" fill="#00a0b3"/>
      <rect id="Rectángulo_42142" data-name="Rectángulo 42142" width="29.396" height="0.607" transform="translate(263.16 160.57)" fill="#00a0b3"/>
      <path id="Trazado_209010" data-name="Trazado 209010" d="M536.953,248.972a13.566,13.566,0,0,0-7.313-2.23l0-.287a13.843,13.843,0,0,1,7.468,2.278Z" transform="translate(-226.093 -105.207)" fill="#fff"/>
      <path id="Trazado_209011" data-name="Trazado 209011" d="M514.111,238.534a3.936,3.936,0,0,1-2.321-.628,2.344,2.344,0,0,1-.928-1.621,1.636,1.636,0,0,1,.4-1.3.143.143,0,0,1,.211.194,1.356,1.356,0,0,0-.322,1.073,2.049,2.049,0,0,0,.811,1.417,4.174,4.174,0,0,0,2.893.539,22.708,22.708,0,0,0,7.647-2.393,2.976,2.976,0,0,0,1.053-.7.962.962,0,0,0,.158-1.073.143.143,0,0,1,.242-.154,1.237,1.237,0,0,1-.179,1.409,3.188,3.188,0,0,1-1.15.779,22.973,22.973,0,0,1-7.746,2.421c-.231.02-.49.036-.765.036" transform="translate(-218.073 -99.814)" fill="#fff"/>
      <path id="Trazado_209012" data-name="Trazado 209012" d="M490.386,310.249a43.934,43.934,0,0,0-15.667-15.73l.146-.248A44.227,44.227,0,0,1,490.634,310.1Z" transform="translate(-202.649 -125.619)" fill="#fff"/>
      <path id="Trazado_209013" data-name="Trazado 209013" d="M206.181,85.5l9.341,5.476a23.783,23.783,0,0,1,2.413-2.962l-7.762-7.527a34.75,34.75,0,0,0-3.992,5.012" transform="translate(-88.015 -34.36)" fill="#fff"/>
      <path id="Trazado_209014" data-name="Trazado 209014" d="M238.97,61.92a34.4,34.4,0,0,0-22.179,8.648l7.037,8.21a23.642,23.642,0,0,1,15.142-6.039Z" transform="translate(-92.544 -26.432)" fill="#fff"/>
      <path id="Trazado_209015" data-name="Trazado 209015" d="M255.327,56.247a46.665,46.665,0,1,0,7.908,65.519,46.665,46.665,0,0,0-7.908-65.519M201.313,125.09a40.839,40.839,0,0,1-6.92-57.339c13.922-17.744,39.356-20.535,57.338-6.92,17.484,13.237,20.816,39.521,6.921,57.338a40.8,40.8,0,0,1-57.339,6.921" transform="translate(-76.777 -19.762)" fill="#a6afb4"/>
      <path id="Trazado_209016" data-name="Trazado 209016" d="M252.995,56.247a46.665,46.665,0,1,0,7.908,65.519,46.665,46.665,0,0,0-7.908-65.519m-54.524,69.492a41.663,41.663,0,0,1-7.06-58.5c14.2-18.1,40.151-20.95,58.5-7.06,17.836,13.5,21.236,40.319,7.06,58.5a41.62,41.62,0,0,1-58.5,7.06" transform="translate(-75.781 -19.762)" fill="#1d2630"/>
      <rect id="Rectángulo_42143" data-name="Rectángulo 42143" width="22.799" height="3.054" transform="translate(107.049 123.439) rotate(-51.883)" fill="#1d2630"/>
      <rect id="Rectángulo_42144" data-name="Rectángulo 42144" width="53.741" height="5.496" transform="translate(73.669 164.004) rotate(-51.881)" fill="#dc8456"/>
      <rect id="Rectángulo_42145" data-name="Rectángulo 42145" width="50.622" height="0.43" transform="translate(75.966 162.885) rotate(-51.925)" fill="#fff"/>
      <path id="Trazado_209017" data-name="Trazado 209017" d="M164.752,231.388c-.75,1.448-.3,3.245-.818,4.792-.448,1.346-1.569,2.348-2.273,3.579a7.937,7.937,0,0,1-1.494,2.357,4.356,4.356,0,0,1-2.429.791,7.8,7.8,0,0,0-2.539.463l9.553-11.983" transform="translate(-66.252 -98.775)" fill="#1d2630"/>
      <path id="Trazado_209018" data-name="Trazado 209018" d="M165.282,234.44a1.1,1.1,0,0,0-.527.24,6.9,6.9,0,0,0-.692.569,4.8,4.8,0,0,1,.344-.819,2.934,2.934,0,0,0-2.324,1.09c-.606.648-1.063,1.426-1.69,2.054a2.74,2.74,0,0,1-2.378.927q-.071,1.257-.144,2.514a2.261,2.261,0,0,1,1.6-.116,7.605,7.605,0,0,0,1.612.305,1.442,1.442,0,0,0,1.358-.751,3.305,3.305,0,0,0,.154-.741,5,5,0,0,0,.476-.262,3.058,3.058,0,0,0,1.118-1.166,6.551,6.551,0,0,0,.433-1.606,2.558,2.558,0,0,1,.733-1.464c.151-.127.346-.259.342-.457a.378.378,0,0,0-.418-.316" transform="translate(-67.392 -100.069)" fill="#eaa180"/>
      <path id="Trazado_209019" data-name="Trazado 209019" d="M114.37,201.705a3.114,3.114,0,0,0-1.972,1.8,7.446,7.446,0,0,0-.532,2.692,22.691,22.691,0,0,0,2.2,11.264,18.389,18.389,0,0,0,7.93,8.2c5.148,2.642,11.823,2.507,17.6,2.889.406-1.379-.023-3.506.382-4.885-4.8-.19-9.784-.977-13.664-3.817s-5.638-7.19-6.565-11.908a17.331,17.331,0,0,0-1.3-4.428,3.957,3.957,0,0,0-4.081-1.808" transform="translate(-47.738 -86.069)" fill="#106887"/>
      <path id="Trazado_209020" data-name="Trazado 209020" d="M126.315,219.849c-3.88-2.84-5.638-7.19-6.565-11.908a17.353,17.353,0,0,0-1.3-4.428,3.957,3.957,0,0,0-4.081-1.808,3.112,3.112,0,0,0-1.972,1.8,7.442,7.442,0,0,0-.533,2.691,22.7,22.7,0,0,0,2.2,11.264,18.383,18.383,0,0,0,7.93,8.2,18.932,18.932,0,0,0,3.609,1.373,21.186,21.186,0,0,0,1.215-6.836c-.171-.115-.343-.228-.511-.351" transform="translate(-47.739 -86.069)" fill="#1d2630"/>
      <path id="Trazado_209021" data-name="Trazado 209021" d="M123.687,197c-1.813-1.981-2.548-5.195-2.833-7.865l-4.53-.5a48.193,48.193,0,0,1,.217,11.3c2.524-1.194,4.622-1.745,7.146-2.94" transform="translate(-49.657 -80.527)" fill="#eaa180"/>
      <path id="Trazado_209022" data-name="Trazado 209022" d="M121.614,193.035a21.76,21.76,0,0,1-.761-3.9l-4.53-.5c.072.523.133,1.047.187,1.571a6.86,6.86,0,0,0,5.1,2.825" transform="translate(-49.657 -80.526)" fill="#1d2630"/>
      <path id="Trazado_209023" data-name="Trazado 209023" d="M108.945,177.269a5.565,5.565,0,0,1,.2-2.805,4.156,4.156,0,0,1,1.772-1.964,7.213,7.213,0,0,1,2.539-.85c1.126-.181,2.455-.419,3.361.272,1.178.9,1.711,1.13,1.92,2.4a3,3,0,0,0,.3.788,1.3,1.3,0,0,0,.464.487c.5.311.7.811.927,1.761a10.341,10.341,0,0,1,.278,1.483,3.112,3.112,0,0,0,.259.946,1.387,1.387,0,0,1,.073,1.029,1.619,1.619,0,0,1-.765.726,9.17,9.17,0,0,1-7.052.609,5.98,5.98,0,0,1-3.532-2.431,6.36,6.36,0,0,1-.747-2.455" transform="translate(-46.471 -73.192)" fill="#eaa180"/>
      <path id="Trazado_209024" data-name="Trazado 209024" d="M118.272,173.144a7.96,7.96,0,0,0-1.452-1.221c-.907-.691-2.236-.453-3.361-.272a7.209,7.209,0,0,0-2.539.85,4.15,4.15,0,0,0-1.772,1.964,5.558,5.558,0,0,0-.2,2.805,6.366,6.366,0,0,0,.747,2.455,5.983,5.983,0,0,0,3.531,2.431,9.779,9.779,0,0,0,4.849.21,11.126,11.126,0,0,1,.2-9.221" transform="translate(-46.471 -73.193)" fill="#dc8456"/>
      <path id="Trazado_209025" data-name="Trazado 209025" d="M112.713,193.877c-.805-2.564-2.043-5.267-1.209-7.823.5-1.526,1.7-2.818,1.845-4.417a6.378,6.378,0,0,0-1.693-4.213c-.127-.168-.257-.336-.386-.5.184-.195.364-.393.528-.6a8.877,8.877,0,0,0,1.7-7.347c-.207-.861.042-.54-1.069-2.08-2.768,1.153-4.623,1.814-7.392,2.966a8.486,8.486,0,0,0-1.807.935s-.406.247-.483.424a4.236,4.236,0,0,0-.985,3.148,15.335,15.335,0,0,0-.262,3.851c.156,2.638.993,5.233.825,7.871-.178,2.8-1.466,5.386-2.247,8.078a22.756,22.756,0,0,0-.364,11.18c.477,2.165,1.368,4.384,3.172,5.672a11.421,11.421,0,0,0,5.36,1.586,3.563,3.563,0,0,0,2.906-.491,3.284,3.284,0,0,0,.7-1.145,24.908,24.908,0,0,0,.852-17.086" transform="translate(-42.343 -71.241)" fill="#1d2630"/>
      <path id="Trazado_209026" data-name="Trazado 209026" d="M112.909,171.314a5.693,5.693,0,0,0,2.517-1.662,4.7,4.7,0,0,1,.071,3.528,5.309,5.309,0,0,0-.51-1.8,3.483,3.483,0,0,1-.32,1.343q-.148-.44-.3-.88a1.675,1.675,0,0,0-.666.782.694.694,0,0,0-.865-.191,2.024,2.024,0,0,0-.7.652c.119-.237-.178-.51-.441-.475a1.1,1.1,0,0,0-.632.45,1.153,1.153,0,0,1-.626.462,3.719,3.719,0,0,1-.472-.009c-.485.018-.838.448-1.125.839.038-.122-.1-.238-.232-.227a.591.591,0,0,0-.324.19l-1.334,1.233q.2-.989.409-1.978a1.689,1.689,0,0,0,1.677-1.006,1.716,1.716,0,0,0,1.349-.173l2.528-1.08" transform="translate(-45.654 -72.421)" fill="#106887"/>
      <path id="Trazado_209027" data-name="Trazado 209027" d="M149.171,374.5a12.554,12.554,0,0,1-4.211-1.41c-1.862-1.153-2.753-3.431-3.206-5.573-1.448.126-3.1.436-4.543.561.751,1.93,1.708,4.028,1.688,6.041,3.407,1.2,7.281,1.969,10.272.382" transform="translate(-58.573 -156.884)" fill="#edc6a4"/>
      <path id="Trazado_209028" data-name="Trazado 209028" d="M153.671,380.155a2.316,2.316,0,0,0-.912-.307c-.765-.146-1.59-.277-2.419-.436-2.991,1.588-6.865.816-10.273-.382a5.578,5.578,0,0,1-.087.962,2,2,0,0,0,.639,1.855,2.694,2.694,0,0,0,1.988.269c3.629-.344,7.523.955,10.816-.61a1.034,1.034,0,0,0,.585-.516.765.765,0,0,0-.338-.836" transform="translate(-59.742 -161.801)" fill="#dc8456"/>
      <path id="Trazado_209029" data-name="Trazado 209029" d="M121.788,259.185H107.143a15.043,15.043,0,0,0-1,3.328,24.827,24.827,0,0,0,.837,11.257c1.134,3.867,5.29,7.805,9.035,19.638.881,2.785,1.169,6.008,2.043,9.771,1.828,7.867,5.233,14.692,5.666,22.881a19.88,19.88,0,0,1,7.067-1.251c-2.878-11.362-3.76-21.74-5.153-32.672-.888-6.974-2.751-14.34-2.981-21.788a72.52,72.52,0,0,0-.869-11.162" transform="translate(-45.176 -110.641)" fill="#00a0b3"/>
      <path id="Trazado_209030" data-name="Trazado 209030" d="M122.658,270.347a72.45,72.45,0,0,0-.869-11.162H107.143a15.074,15.074,0,0,0-1,3.328,24.828,24.828,0,0,0,.837,11.257c1.135,3.867,5.29,7.805,9.035,19.638.825,2.608,1.135,5.606,1.888,9.066.554-9.27,2.946-16.547,4.168-24.944a30.424,30.424,0,0,0,.585-7.182" transform="translate(-45.176 -110.641)" fill="#1d2630"/>
      <path id="Trazado_209031" data-name="Trazado 209031" d="M135.587,350.977a273.62,273.62,0,0,0-6.712-30.78l.276-.077a273.769,273.769,0,0,1,6.719,30.813Z" transform="translate(-55.014 -136.653)" fill="#fff"/>
      <path id="Trazado_209032" data-name="Trazado 209032" d="M141.106,324.808c-2.878-11.361-3.761-21.74-5.153-32.672-.889-6.974-2.752-14.34-2.983-21.788a72.383,72.383,0,0,0-.869-11.162h-2.113c1.788,22.087,7.731,43.668,9.115,65.613a5.722,5.722,0,0,1,2,.01" transform="translate(-55.489 -110.641)" fill="#106887"/>
      <path id="Trazado_209033" data-name="Trazado 209033" d="M99.707,377.609a8.583,8.583,0,0,1-1.871-4.737c-.2-2.341,1.135-4.517,1.885-6.744-1.371-.324-3.208-1-4.58-1.323a19.95,19.95,0,0,1-2.927,8.236,7.869,7.869,0,0,0,2.317,3.317,7.25,7.25,0,0,0,5.176,1.253" transform="translate(-39.364 -155.728)" fill="#edc6a4"/>
      <path id="Trazado_209034" data-name="Trazado 209034" d="M100.287,384.987a6.316,6.316,0,0,1-1.386-1.243,7.25,7.25,0,0,1-5.176-1.253,7.874,7.874,0,0,1-2.317-3.317c-.116.193-.229.388-.352.577a2.813,2.813,0,0,0-.7,1.988c.167.808,1.019,1.242,1.6,1.831.7.707,1.035,1.7,1.714,2.428a4.572,4.572,0,0,0,3.062,1.294,13.618,13.618,0,0,0,3.378-.346c.453-.085.993-.248,1.107-.695.138-.544-.457-.958-.927-1.264" transform="translate(-38.558 -161.862)" fill="#dc8456"/>
      <path id="Trazado_209035" data-name="Trazado 209035" d="M104.391,255.851c.281,2.455-2.737,7.927-2.646,10.382a176.776,176.776,0,0,1-6.7,57.012c1.946,1.808,4.4,1.8,6.535,2.225,5.541-16.627,12.695-34.411,15.532-51.706.944-5.754.4-9.778-.152-16.59Z" transform="translate(-40.574 -109.218)" fill="#00a0b3"/>
      <path id="Trazado_209036" data-name="Trazado 209036" d="M97.737,328.877l-.271-.1a168.54,168.54,0,0,0,9.507-47.6l.049-1c.2-4.084.4-8.306,1.627-12.26l.273.085c-1.216,3.919-1.419,8.123-1.614,12.189l-.049,1a168.821,168.821,0,0,1-9.522,47.681" transform="translate(-41.606 -114.37)" fill="#fff"/>
      <path id="Trazado_209037" data-name="Trazado 209037" d="M119.9,258.079l-1.03-.108c-1.167,23.081-7.43,46.446-16.935,67.972.877.166,1.755.267,2.585.432,5.541-16.627,12.695-34.411,15.532-51.705.945-5.754.4-9.778-.152-16.591" transform="translate(-43.515 -110.123)" fill="#106887"/>
      <path id="Trazado_209038" data-name="Trazado 209038" d="M106.04,235.271c4.621,2.441,11.2,5.037,17.382,2.534-.295-9.176-1.618-12.411.9-18.059.888-1.993,2.058-3.985,2-6.146-.105-3.9-4.1-6.8-4.864-10.63-.267-1.334-.3-2.993-1.57-3.621a3.859,3.859,0,0,0-2.041-.19l-4.653.409c-1.505.132-3.184.35-4.118,1.472-.965,1.159-.746,2.809-.479,4.262a76.219,76.219,0,0,1,1.725,15.3,26.63,26.63,0,0,1-4.279,14.666" transform="translate(-45.266 -84.998)" fill="#106887"/>
      <path id="Trazado_209039" data-name="Trazado 209039" d="M112.449,246.294l-.259-.122c3.7-7.855,5.089-17.187,3.708-24.962l.282-.05c1.391,7.832,0,17.227-3.73,25.134" transform="translate(-47.892 -94.409)" fill="#1d2630"/>
      <path id="Trazado_209040" data-name="Trazado 209040" d="M136.138,213.629c-.105-3.9-4.1-6.8-4.864-10.63-.266-1.334-.3-2.993-1.569-3.621a2.225,2.225,0,0,0-.665-.2c.912,4.219,6.6,10.031,5.5,13.366-3.725,11.367-2.18,16.564-2.566,25.723.422-.124.844-.267,1.264-.436-.295-9.176-1.619-12.411.9-18.059.888-1.993,2.058-3.985,2-6.146" transform="translate(-55.085 -85.027)" fill="#00a0b3"/>
      <path id="Trazado_209041" data-name="Trazado 209041" d="M113.155,210.674c-.367-2.19,1.082-4.378,3-5.5a13.657,13.657,0,0,1,6.432-1.455,2.3,2.3,0,0,1,1.941.555,2.166,2.166,0,0,1-.054,2.184,12.737,12.737,0,0,1-6.217,6.339,4.261,4.261,0,0,1-3.158.425,3.235,3.235,0,0,1-1.944-2.551" transform="translate(-48.279 -86.963)" fill="#1d2630"/>
      <path id="Trazado_209042" data-name="Trazado 209042" d="M184.23,172.245l1.016-.62c.154-.094.362-.187.5-.072a.305.305,0,0,1,.067.336.98.98,0,0,1-.206.3,6.506,6.506,0,0,0-1.448,2.878,7.314,7.314,0,0,1,.069-2.821" transform="translate(-78.563 -73.21)" fill="#dc8456"/>
      <path id="Trazado_209043" data-name="Trazado 209043" d="M182.334,171.5a.4.4,0,0,1-.105-.16,2.867,2.867,0,0,1,.143-2.3,7.767,7.767,0,0,1,1.4-1.9,10.432,10.432,0,0,0,1.479-1.851c.394.294.075.863-.1,1.257a6.29,6.29,0,0,1-.7,1.087,8.424,8.424,0,0,0-1.566,3.342,1,1,0,0,1-.147.438.306.306,0,0,1-.41.09" transform="translate(-77.713 -70.555)" fill="#dc8456"/>
      <path id="Trazado_209044" data-name="Trazado 209044" d="M175.473,163.378c.752.274-.422,2.248-.609,3.569-.271,1.915.167,2.584-.284,4.867A2.07,2.07,0,0,1,172.8,173.4a12.018,12.018,0,0,0-5.354,2.805c-1.956,1.557-3.985,3.291-6.468,3.591.11-2.06.528-4.163,2.277-5.258s4.347-2.033,6.125-3.081c3.224-1.9,4.585-5.838,6.089-8.083" transform="translate(-68.72 -69.743)" fill="#eaa180"/>
      <path id="Trazado_209045" data-name="Trazado 209045" d="M145.735,179.169a13.118,13.118,0,0,0,2.075,3.29c-8.919,7.614-19.322,13.329-30.087,17.982a5.583,5.583,0,0,1-3.009.664,3.54,3.54,0,0,1-2.616-2.343,6.58,6.58,0,0,1-.1-3.632,5.952,5.952,0,0,1,1.328-2.848,8.125,8.125,0,0,1,3.9-1.9,156.457,156.457,0,0,0,28.514-11.212" transform="translate(-47.722 -76.484)" fill="#106887"/>
      <path id="Trazado_209046" data-name="Trazado 209046" d="M146.484,179.378c-.037-.07-.075-.145-.109-.209a156.457,156.457,0,0,1-28.514,11.212,8.123,8.123,0,0,0-3.9,1.9,4.494,4.494,0,0,0-.675.991q2.637-.941,5.36-1.782c9.765-2.713,19.527-5.943,27.834-12.113" transform="translate(-48.361 -76.484)" fill="#00a0b3"/>
      <path id="Trazado_209047" data-name="Trazado 209047" d="M278.732,358.671l-.078-.159a18.517,18.517,0,0,1-1.55-5.213c-.174-.884-.264-1.99-.4-2.968h-4.168c.343,1.2.77,2.382,1.014,3.593a6.8,6.8,0,0,1-.058,3.324c1.861.776,3.555,2.112,5.242,1.423" transform="translate(-116.339 -149.55)" fill="#fffdf5"/>
      <path id="Trazado_209048" data-name="Trazado 209048" d="M268.591,362.074a3.973,3.973,0,0,1-.685,1.24,3.7,3.7,0,0,1-2.181,1.328,7.676,7.676,0,0,0-2.734.952c-.792.556-1.453,1.152-1.184,2.268,1.321.557,3.839.254,5.707.154a4.759,4.759,0,0,0,1.907-.364,3.854,3.854,0,0,1,.961-.469,4.4,4.4,0,0,1,1.8.4,5.533,5.533,0,0,0,3.042-.3,8.866,8.866,0,0,0-1.015-3.919c-1.687.688-3.752-.512-5.613-1.288" transform="translate(-111.734 -154.563)" fill="#1d2630"/>
      <path id="Trazado_209049" data-name="Trazado 209049" d="M260.537,243.669H244.824c.432,9.844,1.578,22.25,3.021,29.68a150.931,150.931,0,0,0,6.578,24.931q2.255,5.932,4.51,11.862h7.583c-11.625-50.975-4.729-53.152-5.979-66.473" transform="translate(-104.511 -104.018)" fill="#1d2630"/>
      <path id="Trazado_209050" data-name="Trazado 209050" d="M276.656,356.875a8.813,8.813,0,0,1-.63-3.555,18.29,18.29,0,0,1-8.839,1.237,21.582,21.582,0,0,0,1.033,3.389,16.371,16.371,0,0,0,8.436-1.071" transform="translate(-114.058 -150.826)" fill="#106887"/>
      <path id="Trazado_209051" data-name="Trazado 209051" d="M247.479,365.774l-.062-.159a15.263,15.263,0,0,1-.915-5.213c-.056-.884.017-1.99.016-2.968h-4.671c.195,1.2.487,2.382.57,3.593a6.378,6.378,0,0,1-.589,3.325c1.963.775,3.651,2.111,5.651,1.422" transform="translate(-103.232 -152.582)" fill="#fffdf5"/>
      <path id="Trazado_209052" data-name="Trazado 209052" d="M234.952,369.178a4.837,4.837,0,0,1-.965,1.24,5.126,5.126,0,0,1-2.654,1.328,10.614,10.614,0,0,0-3.214.952c-.975.556-1.809,1.152-1.684,2.268,1.393.557,4.262.254,6.372.154a6.368,6.368,0,0,0,2.2-.364,5.4,5.4,0,0,1,1.151-.469,4.977,4.977,0,0,1,1.95.4,7.189,7.189,0,0,0,3.457-.3,7.408,7.408,0,0,0-.521-3.919c-2,.688-4.125-.512-6.087-1.288" transform="translate(-96.656 -157.595)" fill="#1d2630"/>
      <path id="Trazado_209053" data-name="Trazado 209053" d="M233.181,243.669c-2.542,22.954-.635,48.485,1.8,70.519h7.97c-.517-13.97-.814-26.253,1.621-39.924,2.149-12.068,3.591-16.944,5.5-24.53.546-2.174,1.1-4.1,1.427-6.066Z" transform="translate(-99.027 -104.018)" fill="#1d2630"/>
      <path id="Trazado_209054" data-name="Trazado 209054" d="M253.079,283.473l-.285-.022a64.249,64.249,0,0,1,3.877-17.545c.281-.751.577-1.5.872-2.248a37.944,37.944,0,0,0,2.441-7.764l.283.046a38.12,38.12,0,0,1-2.457,7.823c-.3.747-.59,1.494-.87,2.243a63.966,63.966,0,0,0-3.86,17.467" transform="translate(-107.913 -109.236)" fill="#fff"/>
      <path id="Trazado_209055" data-name="Trazado 209055" d="M245.132,363.931a18.2,18.2,0,0,1-.2-3.855,29.659,29.659,0,0,1-8.957.506,10.323,10.323,0,0,1,.227,3.827,23.435,23.435,0,0,0,8.931-.479" transform="translate(-100.733 -153.71)" fill="#106887"/>
      <path id="Trazado_209056" data-name="Trazado 209056" d="M246,226.449a14.856,14.856,0,0,1-2.55-5.562l11-11.191a6.661,6.661,0,0,0,1.827-2.577c.432-1.424-.129-2.939-.681-4.321l-2.517-6.292c-.92-2.3-1.858-4.725-1.563-7.186s2.288-4.909,4.764-4.79a5.048,5.048,0,0,1,3.84,2.552,14.9,14.9,0,0,1,1.593,4.5q1.505,6.35,3.011,12.7a11.164,11.164,0,0,1,.445,4.178,10.146,10.146,0,0,1-2.617,4.811A53.506,53.506,0,0,1,246,226.449" transform="translate(-103.924 -78.771)" fill="#106887"/>
      <path id="Trazado_209057" data-name="Trazado 209057" d="M242,226.949a14.856,14.856,0,0,1-2.55-5.562l11-11.191a6.661,6.661,0,0,0,1.827-2.577c.432-1.424-.129-2.939-.681-4.321l-2.517-6.292c-.92-2.3-1.858-4.725-1.563-7.186s2.288-4.909,4.764-4.79a5.048,5.048,0,0,1,3.84,2.552,14.9,14.9,0,0,1,1.593,4.5q1.505,6.35,3.011,12.7a11.165,11.165,0,0,1,.445,4.178,10.146,10.146,0,0,1-2.617,4.811A53.513,53.513,0,0,1,242,226.949" transform="translate(-102.216 -78.984)" fill="#1d2630"/>
      <path id="Trazado_209058" data-name="Trazado 209058" d="M257.107,155.141c-1.273-1.563-3.52-1.895-6-1.513l-2.061.534a15.352,15.352,0,0,0-1.069,2.557c-.071.283.27,1.212.115,1.488-1.374,2.443-1.4,5.341-1.81,7.116a1.607,1.607,0,0,0-.054.715c.115.5.664.77,1.161.918a8.572,8.572,0,0,0,10.745-6.078,6.574,6.574,0,0,0-1.025-5.738" transform="translate(-105.099 -65.519)" fill="#edc6a4"/>
      <path id="Trazado_209059" data-name="Trazado 209059" d="M246.727,174.06a2.234,2.234,0,0,0,.883.454,8.5,8.5,0,0,0,9.428-3.278c-3.459-.268-7.7.551-10.31,2.824" transform="translate(-105.323 -73.076)" fill="#dba983"/>
      <path id="Trazado_209060" data-name="Trazado 209060" d="M250.058,172.234a28.357,28.357,0,0,1-2.562,6.255l10.039,1.19a39.773,39.773,0,0,1-.592-9.323c-1.6-3.967-3.126-1.961-5.575-.045a3.711,3.711,0,0,0-1.311,1.923" transform="translate(-105.651 -71.745)" fill="#edc6a4"/>
      <path id="Trazado_209061" data-name="Trazado 209061" d="M251.8,157.552a4.566,4.566,0,0,1,.779,2.758,7.056,7.056,0,0,0,.462,2.859,6.178,6.178,0,0,0,1.41,1.687l2.672,2.515a14.072,14.072,0,0,0,1.713-5.985,7.306,7.306,0,0,0-.383-3.059,6.7,6.7,0,0,0-2.3-2.827,6.492,6.492,0,0,0-3.416-1.4,2.664,2.664,0,0,0-1.588.33,1.447,1.447,0,0,0-.7,1.388c.119.738.883,1.158,1.357,1.736" transform="translate(-106.905 -65.779)" fill="#dba983"/>
      <path id="Trazado_209062" data-name="Trazado 209062" d="M259.669,156.933a4.7,4.7,0,0,0-2.243-5.545c-2.172-1.186-4.956-.54-7.2-1.572l.033.582a1.278,1.278,0,0,1-.958-1.1,4.6,4.6,0,0,0-.436,1.972l-.155-.8a2.916,2.916,0,0,0,.63,2.68,5.6,5.6,0,0,0,2.376,1.557c.276.1.557.2.838.284a8.778,8.778,0,0,0-.534,1.756,4.888,4.888,0,0,1-.543,1.224.692.692,0,0,0-.128.3.683.683,0,0,0,.06.276,7.154,7.154,0,0,1,.325,1.217,9.292,9.292,0,0,1,.43-1.186,4.649,4.649,0,0,1,.552-.873,5.549,5.549,0,0,0,.3.7,14.515,14.515,0,0,0,2.154,2.816,9.849,9.849,0,0,1,1.981,2.928,11.324,11.324,0,0,1,1.606-2.66,5.872,5.872,0,0,0,1.24-2.82,3.544,3.544,0,0,0-.323-1.727" transform="translate(-106.12 -63.732)" fill="#1d2630"/>
      <path id="Trazado_209063" data-name="Trazado 209063" d="M254.391,164.834a2.929,2.929,0,0,1,.4-1.032,1,1,0,0,1,.955-.446,1.186,1.186,0,0,1,.789.957,2.858,2.858,0,0,1-1.284,3.037,1.133,1.133,0,0,1-.753.194.531.531,0,0,1-.457-.552Z" transform="translate(-108.444 -69.728)" fill="#edc6a4"/>
      <path id="Trazado_209064" data-name="Trazado 209064" d="M251.594,154.05a.273.273,0,0,0,.147,0,.109.109,0,0,0,.075-.115c-.011-.051-.065-.078-.112-.1a2.655,2.655,0,0,1-1.429-1.663,2.418,2.418,0,0,0,.339,1.179,1.526,1.526,0,0,0,.98.7" transform="translate(-106.838 -64.958)" fill="#106887"/>
      <path id="Trazado_209065" data-name="Trazado 209065" d="M255.407,154.535c.33-.1.625-.383.965-.327.273.045.473.3.744.356a2.944,2.944,0,0,0,.624-.036,1.147,1.147,0,0,1,.8.374,2.915,2.915,0,0,1,.5.761.513.513,0,0,1,.743-.072,1.546,1.546,0,0,1,.424.722,1.386,1.386,0,0,0,.446.706,6,6,0,0,0-.532-1.735,2.023,2.023,0,0,0-1.386-1.082c-.242-.037-.491-.014-.734-.045a4.964,4.964,0,0,1-.839-.232c-1.557-.485-3.3-.26-4.79-.914a3.01,3.01,0,0,0,1.509,1.632c0-.192-.007-.383-.011-.575a1.926,1.926,0,0,0,1.538.466" transform="translate(-107.733 -65.318)" fill="#106887"/>
      <path id="Trazado_209066" data-name="Trazado 209066" d="M249.743,180.629c3.316-.291,6.7-.578,9.943.156a6.248,6.248,0,0,1-.449-2.776,19.721,19.721,0,0,0-5.077.248,8.168,8.168,0,0,0-4.417,2.371" transform="translate(-106.611 -75.967)" fill="#00a0b3"/>
      <path id="Trazado_209067" data-name="Trazado 209067" d="M255.178,255.654l-23.1,1.26q.057-2.177.113-4.353a225,225,0,0,1,23.739.4l-.753,2.694" transform="translate(-99.07 -107.751)" fill="#00a0b3"/>
      <path id="Trazado_209068" data-name="Trazado 209068" d="M255.747,222.73c2.341-7.837-1.635-15.873-.509-33.69.109-1.726-1.537-6.923-3.155-7.532-3.713-1.4-7.651-.909-11.478.142l-.063.025a11.115,11.115,0,0,0-6.983,9.2c-.411,5.72-1.443,21.884-2.341,29.975-.119,1.07.742,2.256.611,3Z" transform="translate(-98.698 -77.115)" fill="#106887"/>
      <path id="Trazado_209069" data-name="Trazado 209069" d="M248.609,237.8l-.232-.169a1.414,1.414,0,0,0-.043-1.679l-.059-.072.042-.083a2.946,2.946,0,0,0-.355-2.433c-.095-.218-.188-.435-.268-.648-.781-2.076-.253-4.324.258-6.5l.112-.482a53.109,53.109,0,0,0,1.138-16.961l.285-.026a53.379,53.379,0,0,1-1.145,17.052l-.112.483c-.5,2.132-1.018,4.337-.269,6.331.079.209.171.421.263.635a3.259,3.259,0,0,1,.387,2.6,1.712,1.712,0,0,1,0,1.955" transform="translate(-105.567 -89.111)" fill="#1d2630"/>
      <path id="Trazado_209070" data-name="Trazado 209070" d="M242.07,203.532a2.859,2.859,0,0,0,1.534-1.068,19.34,19.34,0,0,0,4.274-8.255c.36-1.512.438-3.347-.735-4.367a4.879,4.879,0,0,0-3.035-.84,32.756,32.756,0,0,0-4.488-.013c-1.894.168-3.952.814-4.892,2.466a4.7,4.7,0,0,0-.288,3.592,10.828,10.828,0,0,0,1.735,3.248,32.018,32.018,0,0,0,3.5,4.082,2.973,2.973,0,0,0,2.4,1.156" transform="translate(-99.983 -80.644)" fill="#1d2630"/>
      <path id="Trazado_209071" data-name="Trazado 209071" d="M194.984,169.367a3.3,3.3,0,0,1-.751-1.743,10.641,10.641,0,0,0,.083-1.111c-.007-.526-.136-1.043-.164-1.567a4.145,4.145,0,0,1,.239-1.627.514.514,0,0,0,.025-.45.308.308,0,0,0-.3-.116.638.638,0,0,0-.3.148,1.662,1.662,0,0,0-.57.958,3.26,3.26,0,0,1-.176.787,1.236,1.236,0,0,1-.194.274,4.421,4.421,0,0,0-1-1.628c-.342-.332-.874-1.156-1.183-1.519a4.538,4.538,0,0,0-.788-.734c-.19-.094-.37.142-.411.35-.928-.64-1.04-.208-.848.208-.321-.066-.693-.28-.852.007s1.3,1.818,1.524,2.056c-.119-.05-1.519-1.262-1.647-1.263s-.2.25-.256.368c-.1.214.261.589.432.751a5.255,5.255,0,0,1,1.152,1.6c.624,1.967.676,2.211.719,2.366a5.047,5.047,0,0,0,.88,2.1c.914,1.3,1.9,1.444,3,2.6q1.388-.768,2.828-1.434a9.727,9.727,0,0,1-1.437-1.372" transform="translate(-79.996 -68.735)" fill="#edc6a4"/>
      <path id="Trazado_209072" data-name="Trazado 209072" d="M199.378,176.128a9.756,9.756,0,0,1-1.437-1.372,3.67,3.67,0,0,1-.611-1.114,3.459,3.459,0,0,0-3.007,2.173,21.589,21.589,0,0,1,2.227,1.746q1.387-.769,2.828-1.434" transform="translate(-82.953 -74.124)" fill="#dba983"/>
      <path id="Trazado_209073" data-name="Trazado 209073" d="M194.374,168.252a2.69,2.69,0,0,1-.14-.629,10.622,10.622,0,0,0,.083-1.11c-.007-.526-.136-1.043-.164-1.568a4.141,4.141,0,0,1,.239-1.626.518.518,0,0,0,.025-.451.307.307,0,0,0-.3-.115.637.637,0,0,0-.3.147,1.662,1.662,0,0,0-.57.958,3.254,3.254,0,0,1-.176.787,1.22,1.22,0,0,1-.194.274,4.4,4.4,0,0,0-1-1.628c-.342-.332-.874-1.157-1.183-1.519a4.539,4.539,0,0,0-.788-.734c-.19-.094-.37.142-.411.35-.927-.64-1.039-.208-.848.208-.321-.066-.692-.279-.852.007s1.3,1.818,1.523,2.056c-.119-.05-1.518-1.263-1.647-1.264s-.2.25-.256.368c-.1.214.261.59.432.751a5.254,5.254,0,0,1,1.151,1.6c.624,1.967.676,2.211.72,2.367a5.045,5.045,0,0,0,.88,2.095,4.572,4.572,0,0,0,.77.849,3.46,3.46,0,0,1,3.007-2.173" transform="translate(-79.997 -68.735)" fill="#edc6a4"/>
      <path id="Trazado_209074" data-name="Trazado 209074" d="M197.749,174.113a.856.856,0,0,0-.479.008,3.256,3.256,0,0,0-2.513,3.188,10.824,10.824,0,0,1,2.047,1.577,2.64,2.64,0,0,1,.458-2.153c.414-.634.971-1.164,1.423-1.772-.421-.092-.531-.7-.937-.848" transform="translate(-83.138 -74.312)" fill="#00a0b3"/>
      <path id="Trazado_209075" data-name="Trazado 209075" d="M231.529,188.031c-.772,1.754-1.663,3.638-3.369,4.512a7.839,7.839,0,0,1-4.978.267,48.909,48.909,0,0,1-26.858-14.1c-.1-1.374,1-3.941,2.29-4.02s3.467,1.6,4.682,2.036a67.65,67.65,0,0,0,23.445,4.314c1.914-.007,4.176.076,5.235,1.671,1.03,1.551.3,3.618-.448,5.322" transform="translate(-83.804 -74.57)" fill="#106887"/>
      <path id="Trazado_209076" data-name="Trazado 209076" d="M227.207,193.3c-4.416,0-8.35-1.513-12.765-3.212l-1.225-.47a76.011,76.011,0,0,1-16.682-9.47l.167-.233a75.763,75.763,0,0,0,16.617,9.435l1.226.471c5.484,2.109,10.221,3.931,16.046,2.89l.05.282a19.415,19.415,0,0,1-3.434.307" transform="translate(-83.897 -76.801)" fill="#1d2630"/>
    </g>
  </g>
</svg>
