<svg xmlns="http://www.w3.org/2000/svg" width="22.084" height="22.129" viewBox="0 0 22.084 22.129">
  <g id="Grupo_80216" data-name="Grupo 80216" transform="translate(-256.511 -3479.143)">
    <g id="Grupo_80213" data-name="Grupo 80213" transform="translate(256.511 3479.143)">
      <path id="Trazado_190764" data-name="Trazado 190764" d="M312.129,291.421a1.837,1.837,0,1,1-1.836-1.836,1.836,1.836,0,0,1,1.836,1.836" transform="translate(-308.456 -280.172)" fill="#9f321d"/>
      <path id="Trazado_190765" data-name="Trazado 190765" d="M312.129,276.762a1.837,1.837,0,1,1-1.836-1.836,1.836,1.836,0,0,1,1.836,1.836" transform="translate(-308.456 -274.926)" fill="#9f321d"/>
      <path id="Trazado_190766" data-name="Trazado 190766" d="M327.179,291.421a1.837,1.837,0,1,1-1.836-1.836,1.836,1.836,0,0,1,1.836,1.836" transform="translate(-313.842 -280.172)" fill="#9f321d"/>
      <path id="Trazado_190767" data-name="Trazado 190767" d="M327.179,276.762a1.837,1.837,0,1,1-1.836-1.836,1.836,1.836,0,0,1,1.836,1.836" transform="translate(-313.842 -274.926)" fill="#9f321d"/>
      <path id="Trazado_190768" data-name="Trazado 190768" d="M340.8,291.421a1.837,1.837,0,1,1-1.836-1.836,1.836,1.836,0,0,1,1.836,1.836" transform="translate(-318.718 -280.172)" fill="#9f321d"/>
      <path id="Trazado_190769" data-name="Trazado 190769" d="M340.8,276.762a1.837,1.837,0,1,1-1.836-1.836,1.836,1.836,0,0,1,1.836,1.836" transform="translate(-318.718 -274.926)" fill="#9f321d"/>
    </g>
    <g id="Grupo_80214" data-name="Grupo 80214" transform="translate(256.511 3497.598)">
      <path id="Trazado_190764-2" data-name="Trazado 190764" d="M312.129,291.421a1.837,1.837,0,1,1-1.836-1.836,1.836,1.836,0,0,1,1.836,1.836" transform="translate(-308.456 -289.585)" fill="#9f321d"/>
      <path id="Trazado_190766-2" data-name="Trazado 190766" d="M327.179,291.421a1.837,1.837,0,1,1-1.836-1.836,1.836,1.836,0,0,1,1.836,1.836" transform="translate(-313.842 -289.585)" fill="#9f321d"/>
      <path id="Trazado_190768-2" data-name="Trazado 190768" d="M340.8,291.421a1.837,1.837,0,1,1-1.836-1.836,1.836,1.836,0,0,1,1.836,1.836" transform="translate(-318.718 -289.585)" fill="#9f321d"/>
    </g>
  </g>
</svg>
