<svg xmlns="http://www.w3.org/2000/svg" xmlns:xlink="http://www.w3.org/1999/xlink" width="295" height="137.752" viewBox="0 0 295 137.752">
  <defs>
    <clipPath id="clip-path">
      <rect id="Rectángulo_42153" data-name="Rectángulo 42153" width="295" height="137.752" fill="none"/>
    </clipPath>
    <linearGradient id="linear-gradient" x1="0.109" y1="0.685" x2="0.872" y2="0.685" gradientUnits="objectBoundingBox">
      <stop offset="0" stop-color="#f3e6e3"/>
      <stop offset="1" stop-color="#fff5db"/>
    </linearGradient>
  </defs>
  <g id="Grupo_151304" data-name="Grupo 151304" transform="translate(0 0.002)">
    <g id="Grupo_151303" data-name="Grupo 151303" transform="translate(0 -0.002)" clip-path="url(#clip-path)">
      <path id="Trazado_209077" data-name="Trazado 209077" d="M156.131,425.152s-16.154-41.793,7.478-66.748c30.482-32.187,69.872-5.283,84.652-6.067s15.613-31.668,59.774-35.357c34.146-2.852,90.224-3.077,78.26,47.381-9.1,38.363,41.511,18.492,31.657,60.872Z" transform="translate(-137.299 -287.789)" fill="url(#linear-gradient)"/>
      <path id="Trazado_209078" data-name="Trazado 209078" d="M294.712,1536.238H.288A.288.288,0,0,1,0,1535.95v-.244a.288.288,0,0,1,.288-.288H294.712a.288.288,0,0,1,.288.287v.244a.288.288,0,0,1-.288.288" transform="translate(0 -1398.486)" fill="#2e3552"/>
      <path id="Trazado_209079" data-name="Trazado 209079" d="M586.878,935.01l.982.8s2.687-.963,3.293,2.229c0,0,.161,1.361-.7,1.363a17.261,17.261,0,0,0-1.727-.113,2.208,2.208,0,0,1-2.411-1.6l-.584-.839Z" transform="translate(-533.494 -851.623)" fill="#ea8e50"/>
      <path id="Trazado_209080" data-name="Trazado 209080" d="M299.106,744.362a2.007,2.007,0,0,0,.72-1.423s-9.073-7.428-9.993-8.033a111.908,111.908,0,0,1-10.432-9.947c-1.549-1.791-3.468-1.1-5.664-.466l-1.808.519a3.024,3.024,0,0,0-.96,5.164c5.045,4.179,13.438,8.88,15.009,9.867,3.9,2.452,11.53,5.366,11.53,5.366a4.835,4.835,0,0,0,1.6-1.047" transform="translate(-245.834 -659.263)" fill="#1e3d70"/>
      <path id="Trazado_209081" data-name="Trazado 209081" d="M683.844,1465.936a6.839,6.839,0,0,0,5.576.778s2.72-.62,3.317.737c0,0-4.172,2.12-5.228,2.7a12.639,12.639,0,0,0-2.213,1.659,1.094,1.094,0,0,1-1.584-.122c-.184-.226-.394-.494-.624-.806-.643-.872-2.142-3.688-2.142-3.688Z" transform="translate(-620.217 -1335.2)" fill="#233862"/>
      <path id="Trazado_209082" data-name="Trazado 209082" d="M381.233,1054.753s-1.341,3.091-4.436,2.523a86.358,86.358,0,0,1-10.647-10.633,24.06,24.06,0,0,1-3.309-5.171c-2.873-6.651-10.626-16.571-15.556-21.6l12.333-4.462s3.951,7.947,9.207,17.708c3.788,7.033,8.253,15.008,12.407,21.633" transform="translate(-316.314 -924.855)" fill="#2b478b"/>
      <path id="Trazado_209083" data-name="Trazado 209083" d="M390.49,592.412a14.863,14.863,0,0,0,.072-2.269.849.849,0,0,1,.489-.81l3.642-1.69a.831.831,0,0,0,.431-1.038l-1.257-3.457a.809.809,0,0,0-.954-.509l-3.592.882a.832.832,0,0,1-.908-.376,14.8,14.8,0,0,0-3.051-3.558.839.839,0,0,1-.207-1.01l.993-2.021a.841.841,0,0,0-.3-1.082l-3.08-1.952a.834.834,0,0,0-1.111.2l-2.162,2.84a14.88,14.88,0,0,0-4.817-.41.822.822,0,0,1-.812-.472L372.5,572.74a.852.852,0,0,0-1.064-.442l-3.4,1.235a.862.862,0,0,0-.542,1.016l.737,3a.835.835,0,0,1-.355.9,14.807,14.807,0,0,0-2.64,2.174.847.847,0,0,1-.984.171l-3.279-1.611a.845.845,0,0,0-1.086.306l-1.944,3.068a.848.848,0,0,0,.2,1.128l3.193,2.43a.832.832,0,0,1,.3.879,14.824,14.824,0,0,0-.419,2.243q-.066.612-.082,1.217a.868.868,0,0,1-.5.766l-3.5,1.624a.826.826,0,0,0-.429,1.032l1.242,3.415a.864.864,0,0,0,1.018.544l2.847-.7a.842.842,0,0,1,.949.429,14.8,14.8,0,0,0,2.7,3.686.853.853,0,0,1,.166.98l-1.453,2.957a.866.866,0,0,0,.314,1.113l3.061,1.94a.835.835,0,0,0,1.112-.2l2.12-2.786a.861.861,0,0,1,.928-.3,14.811,14.811,0,0,0,2.557.507q.709.077,1.409.085a.842.842,0,0,1,.753.487l1.383,2.981a.86.86,0,0,0,1.075.446l3.4-1.237a.847.847,0,0,0,.533-1l-.588-2.4a.845.845,0,0,1,.428-.95,14.8,14.8,0,0,0,4.536-3.668.836.836,0,0,1,1.012-.215l2.653,1.3a.842.842,0,0,0,1.083-.305l1.943-3.065a.853.853,0,0,0-.2-1.135l-3.063-2.331a.841.841,0,0,1-.315-.83q.116-.6.184-1.222m-11.524,5.8a8.052,8.052,0,0,1-9.611-12.1,7.778,7.778,0,0,1,3.3-2.652,8.052,8.052,0,0,1,9.754,11.98,7.866,7.866,0,0,1-3.44,2.767" transform="translate(-324.853 -521.212)" fill="#afafaf"/>
      <path id="Trazado_209084" data-name="Trazado 209084" d="M368.827,1033.121l-2.676,13.522a24.052,24.052,0,0,1-3.309-5.171c-2.873-6.651-10.626-16.571-15.556-21.6l12.333-4.462s3.95,7.947,9.207,17.708" transform="translate(-316.315 -924.855)" fill="#233862"/>
      <path id="Trazado_209085" data-name="Trazado 209085" d="M430.46,1472.244s-.134,2.467,2.856,2.8c0,0,1.8.037,1.81,1.607h-8.787a6.758,6.758,0,0,1-.314-1.99,15.542,15.542,0,0,1,1.01-3.765Z" transform="translate(-388.029 -1339.714)" fill="#233862"/>
      <path id="Trazado_209086" data-name="Trazado 209086" d="M317.857,1009.823s5.494,6.037,8.982,16.914c1.9,5.918-3.478,20.8-4.526,25.967a16.482,16.482,0,0,1-6.072-.647,119.609,119.609,0,0,1,1.255-18.907c.807-4.606-7.234-9.851-10.748-18.172-2.39-5.662.518-5.565,4.092-5.7Z" transform="translate(-278.596 -919.266)" fill="#2b478b"/>
      <path id="Trazado_209087" data-name="Trazado 209087" d="M273.964,637.292c-3.057,1.726-9.315.134-9.315.134a8.718,8.718,0,0,0,1.387-7.585l2.4,1.219,2.578,1.309a21.368,21.368,0,0,1,.283,2.311c.03.382.056.809.074,1.276a8.018,8.018,0,0,1,2.593,1.336" transform="translate(-241.047 -573.67)" fill="#ffb07b"/>
      <path id="Trazado_209088" data-name="Trazado 209088" d="M261.653,725.047c0,.537-.619.795-.75.821-1.233.225-4.676,1.565-7.777,1.872a24.862,24.862,0,0,1-7.7-.521c-.353-.071-1.181-.294-1.24-.632-.074-.369-10.274-20.795-2.344-29.569.186-.206,1.752.165,3.183.5a5.876,5.876,0,0,0,3.618-.3l1.342.706c1.649.918,4.768,4.182,5.133,6.743.185,1.3.93,2.267,1.146,3.412q.12.636.245,1.241.244,1.187.5,2.26c.466,1.937.959,3.6,1.442,5.045.514,1.529,1.019,2.8,1.47,3.866.585,1.38,1.079,2.411,1.387,3.2a3.942,3.942,0,0,1,.343,1.346" transform="translate(-217.526 -634.801)" fill="#2a4e96"/>
      <path id="Trazado_209089" data-name="Trazado 209089" d="M292.956,794.5a40.078,40.078,0,0,1-19.386-19.811s11.7,4.316,14.585,5.439q.244,1.187.5,2.26c.466,1.937.959,3.6,1.442,5.045.514,1.529,1.019,2.8,1.47,3.866.585,1.38,1.079,2.411,1.387,3.2" transform="translate(-249.172 -705.599)" fill="#1e3d70"/>
      <path id="Trazado_209090" data-name="Trazado 209090" d="M578.78,951.929l1.244.456a2.661,2.661,0,0,1,4.043,1.1s.561,1.252-.327,1.524-.565.016-1.814.432a2.378,2.378,0,0,1-2.95-.776l-.846-.621Z" transform="translate(-526.572 -866.961)" fill="#ffb07b"/>
      <path id="Trazado_209091" data-name="Trazado 209091" d="M282.674,752.567c.46-1.2.67-1.744.67-1.744s-9.4-7.664-10.36-8.321c-.653-.448-7.152-5.306-10.32-9.092a6.631,6.631,0,0,0-6.447-2.234l-1.974.414a2.935,2.935,0,0,0-1.309,5.1c5.207,4.464,13.989,9.641,15.626,10.718,4.065,2.673,13.056,6.419,13.056,6.419a2.314,2.314,0,0,0,1.058-1.261" transform="translate(-229.441 -665.839)" fill="#2a4e96"/>
      <path id="Trazado_209092" data-name="Trazado 209092" d="M288.521,647.129a6.434,6.434,0,0,1-4.961-2.313,23.9,23.9,0,0,0,2.1-1.307l2.578,1.309a21.381,21.381,0,0,1,.283,2.311" transform="translate(-258.271 -586.119)" fill="#ea8e50"/>
      <path id="Trazado_209093" data-name="Trazado 209093" d="M260.972,571.173s-4.555,3.269-6.547.4-3.921-4.377-1.1-6.586,4.155-1.511,5.053-.715,3.725,5.976,2.591,6.9" transform="translate(-229.441 -513.249)" fill="#ffb07b"/>
      <path id="Trazado_209094" data-name="Trazado 209094" d="M216.888,523.9a7.337,7.337,0,0,0-.531-1.878s-.286,1.184-2.45,1.021-5.594.213-6.737,2.679c-.073.157-.138.318-.2.484a5.7,5.7,0,0,1-.257-1.366,4.209,4.209,0,0,0,0,2.389h0c-.006.039-.011.078-.017.116a4.817,4.817,0,0,0-.879,1.659,1.5,1.5,0,0,1,.809-.719c-.01,1.919.768,3.794,2.134,4.353,2,.816,1.981.194,3.99,1.526,0,0,.539-.668.171-1.118s-1.756-1.1-.98-1.756,1.062.082,1.347-.367-1.143-1.756.694-2.98,3.062-2.94,2.9-4.042" transform="translate(-187.467 -475.469)" fill="#233862"/>
      <path id="Trazado_209095" data-name="Trazado 209095" d="M2710.757,1477.321s.246,3.958,1.011,4.014c.1.008,3.883.008,3.883.008h4.833a1.593,1.593,0,0,0-1.448-1.437c-1.411-.246-3.773-1.238-4.628-3.1-.9-1.962-3.651.518-3.651.518" transform="translate(-2469.004 -1344.409)" fill="#163560"/>
      <path id="Trazado_209096" data-name="Trazado 209096" d="M2465.574,1013.311a33.216,33.216,0,0,0,2.308,3.682c2.539,3.574,5.3,6.522,5.784,9.308a13.79,13.79,0,0,0,.447,1.783c.2.638.449,1.309.737,2a63.7,63.7,0,0,0,4.3,8.193c2.781,4.6,5.4,8.43,5.4,8.43l4.8-.228c-.192-.536-2.284-6.881-5.082-14.636l-3.51-9.725q-.233-.647-.464-1.286c-.357-.988-.707-1.961-1.05-2.908l-4.72-13.079s-10.5-4.436-11.592-1.562c-.9,2.37-.167,4.692,2.653,10.025" transform="translate(-2242.94 -912.927)" fill="#636363"/>
      <path id="Trazado_209097" data-name="Trazado 209097" d="M2580.4,1434.35s-1.757,1.628-1.414,2.785,1.928,1.928,2.142,3.342,1.071,2.185,1.842,2.185h3.677s.568-.995-.8-1.295-1.888-1.961-1.8-3.5a27.59,27.59,0,0,0-.129-3.6l-2.913-.685Z" transform="translate(-2348.945 -1305.728)" fill="#233862"/>
      <path id="Trazado_209098" data-name="Trazado 209098" d="M2481.371,1024.572s11.051,17.925,11.051,19.35c0,3.154-8.349,21.316-8.349,21.316s-4.432-2.341-4.254-3.985c0,0,2.659-12.749,3.432-14.8s-13.966-9.77-14.739-19.1Z" transform="translate(-2248.362 -933.198)" fill="#afafaf"/>
      <path id="Trazado_209099" data-name="Trazado 209099" d="M2664.738,921.219a12.907,12.907,0,0,0,2.917,1.3c.638,0,3.142-.484,3.84-.127a8.163,8.163,0,0,1,2.2,2.26c.426.843-1.716.471-2.729-.247a.639.639,0,0,0-.506-.1,5.016,5.016,0,0,1-2.14.118,38.072,38.072,0,0,0-4.434-.553Z" transform="translate(-2426.312 -839.062)" fill="#e49963"/>
      <path id="Trazado_209100" data-name="Trazado 209100" d="M2479.039,699.38s2.362,16.791,6.274,18.295a86.23,86.23,0,0,0,12.984,2.593s.618-.5.468-2.543c0,0-8.937-3.281-10.207-5.066-1.89-2.656,1.173-10.849-1.2-13.343s-6.365-3.566-8.321.064" transform="translate(-2257.952 -634.872)" fill="#ed7d2b"/>
      <path id="Trazado_209101" data-name="Trazado 209101" d="M2496.883,637.045c-3.158.816-8.393-2.109-8.393-2.109a7.75,7.75,0,0,0,2.786-4.367c.038-.151.072-.306.1-.465l1.622-.344,2.412,2.161a20.747,20.747,0,0,1-.357,2.44q-.078.4-.182.865a7.439,7.439,0,0,1,2.008,1.82" transform="translate(-2266.56 -573.595)" fill="#e49963"/>
      <path id="Trazado_209102" data-name="Trazado 209102" d="M2450.135,690.233c.452,6.084-.143,15.336.37,16.938.443,1.383,5.489.561,7.5.1.746-.171,1.648-.415,2.581-.7,2.6-.806,5.436-1.956,5.74-2.809a.735.735,0,0,0,.028-.1.78.78,0,0,0-.005-.358,6.082,6.082,0,0,1-.538-1.984c-.052-1.2-.044-2.62-.089-4.144,0-.172,0-.359-.024-.53v-.062c0-.033,0-.065,0-.1-.044-1.7-.133-3.486-.236-5.257-.065-1.113-.141-2.214-.228-3.27a43.724,43.724,0,0,0-.937-6.681,10.725,10.725,0,0,0-3.447-5.32l-.96-.824a5.551,5.551,0,0,1-3.483-.464c-1.24-.589-1.668-1.011-1.884-.852-2.863,2.209-4.923,8.978-4.388,16.415" transform="translate(-2231.548 -613.694)" fill="#f99746"/>
      <path id="Trazado_209103" data-name="Trazado 209103" d="M2492.624,801.583c2.6-.805,5.436-1.956,5.74-2.81a.772.772,0,0,0,.028-.1c0-.119,0-.239-.006-.358a6.088,6.088,0,0,1-.538-1.984c-.052-1.2-.044-2.62-.089-4.144,0-.172,0-.359-.023-.529V791.6l0-.1-10.516-13.4s-7.069,14.72,5.407,23.48" transform="translate(-2263.583 -708.709)" fill="#ed7d2b"/>
      <path id="Trazado_209104" data-name="Trazado 209104" d="M2523.867,631.92a20.745,20.745,0,0,1-.357,2.44,6.4,6.4,0,0,1-3.78-3.791c.038-.151.072-.306.1-.465l1.622-.344Z" transform="translate(-2295.013 -573.595)" fill="#d68d5d"/>
      <path id="Trazado_209105" data-name="Trazado 209105" d="M2522.7,575.953s-5.136-.857-4.553-4.048.313-5.45,3.617-5.037,3.717,1.746,3.781,2.858-1.494,6.368-2.845,6.227" transform="translate(-2293.526 -516.268)" fill="#e49963"/>
      <rect id="Rectángulo_42147" data-name="Rectángulo 42147" width="12.471" height="0.476" transform="matrix(0.309, -0.951, 0.951, 0.309, 249.388, 86.983)" fill="#4a75cb"/>
      <rect id="Rectángulo_42148" data-name="Rectángulo 42148" width="0.783" height="13.087" transform="matrix(0.021, -1, 1, 0.021, 236.758, 86.851)" fill="#4a75cb"/>
      <path id="Trazado_209106" data-name="Trazado 209106" d="M2657.689,956.562a28.982,28.982,0,0,0,5.781.992,4.611,4.611,0,0,0,3.086-1.258c.2-.391.615-1.086-.458-.957s-2.538.356-2.584.15.875-.187.875-.187.278-.4-.072-.419-1.372-.292-1.752-.1-.73.891-1.007.861-3.518-1.46-3.518-1.46Z" transform="translate(-2420.669 -869.086)" fill="#e49963"/>
      <path id="Trazado_209107" data-name="Trazado 209107" d="M2490.729,711.078s.5,16.949,4.219,18.875a86.236,86.236,0,0,0,12.619,4.009s.67-.43.745-2.476c0,0-8.521-4.246-9.587-6.16-1.585-2.848,2.362-10.654.281-13.394s-5.933-4.246-8.277-.854" transform="translate(-2268.599 -645.881)" fill="#f99746"/>
      <path id="Trazado_209108" data-name="Trazado 209108" d="M2508.672,551.25a2.429,2.429,0,0,1,.616-1.722s-.235-1.1.2-1.278.525.742.724.6a4.439,4.439,0,0,0,1.465-1.845c.38-1.013,3.857.214,4.262.4s1.708-.487,1.961-1.03a7.613,7.613,0,0,1-1.049-1.013c-.326-.434-2.605-3.365-5.789-2.533s-3.618,2.352-3.437,3.654-.256,4.336,1.048,4.773" transform="translate(-2283.955 -494.277)" fill="#2b478b"/>
      <path id="Trazado_209109" data-name="Trazado 209109" d="M1316.043,370.864l-9.951-6a2.575,2.575,0,0,1-1.217-2.4q.153-1.844.152-3.727a43.227,43.227,0,0,0-.52-6.832,2.54,2.54,0,0,1,1.2-2.6l10.395-6.275a2.494,2.494,0,0,0,.951-3.258l-4.893-9.964a2.466,2.466,0,0,0-3.042-1.23l-10.509,3.816a2.476,2.476,0,0,1-2.852-.837,44.891,44.891,0,0,0-10.319-9.685,2.556,2.556,0,0,1-.951-2.966l2.333-6.389a2.583,2.583,0,0,0-1.268-3.169l-9.9-4.842a2.257,2.257,0,0,0-.621-.215,2.478,2.478,0,0,0-2.637,1.166l-4.487,7.428-1.09,1.813a44.42,44.42,0,0,0-6.262-.444,45.065,45.065,0,0,0-8.341.773,2.476,2.476,0,0,1-2.6-1.154l-5.045-8.379a2.566,2.566,0,0,0-3.334-.976l-7.618,3.739-2.18,1.078a2.6,2.6,0,0,0-1.306,3.22l3.182,8.785a2.473,2.473,0,0,1-.76,2.814,44.541,44.541,0,0,0-6.706,6.769,7.735,7.735,0,0,0-.507.621,1.364,1.364,0,0,1-.177.2,2.534,2.534,0,0,1-2.738.634l-10.382-3.765a1.857,1.857,0,0,0-.355-.1,2.577,2.577,0,0,0-2.8,1.369l-4.842,9.862a2.564,2.564,0,0,0,.976,3.321l10.382,6.249a2.478,2.478,0,0,1,1.179,2.548,45.319,45.319,0,0,0-.52,6.87q0,1.864.152,3.689a2.611,2.611,0,0,1-1.255,2.447l-9.989,6.034a2.492,2.492,0,0,0-.951,3.233l4.855,9.85a2.605,2.605,0,0,0,3.233,1.306l8.316-3.017a2.559,2.559,0,0,1,3,.976,44.771,44.771,0,0,0,9.292,10.2,2.543,2.543,0,0,1,.811,2.877l-3.4,9.355a2.63,2.63,0,0,0,1.306,3.245l9.824,4.83a2.514,2.514,0,0,0,3.27-.963l.266-.431,5.21-8.633a2.571,2.571,0,0,1,2.675-1.2h.013a44.527,44.527,0,0,0,7.859.7c1.432,0,2.839-.076,4.247-.2a2.521,2.521,0,0,1,2.421,1.2l5.121,8.506a2.609,2.609,0,0,0,3.385,1l9.812-4.83a2.812,2.812,0,0,0,.723-.532,2.6,2.6,0,0,0,.558-2.637l-2.561-7.01a2.594,2.594,0,0,1,.444-2.51,2.775,2.775,0,0,1,.532-.482,44.61,44.61,0,0,0,12.448-12.5,2.511,2.511,0,0,1,2.535-1.09,2.564,2.564,0,0,1,.418.114l8.4,3.055a2.553,2.553,0,0,0,3.156-1.268l.114-.228,4.728-9.609a2.6,2.6,0,0,0-1-3.359m-78.556-18.951a29.865,29.865,0,0,1,2-5.185,23.46,23.46,0,0,1,9.039-9.038c.355-.177.71-.342,1.065-.507,21.727-9.761,42.682,11.574,32.147,33.314a24.324,24.324,0,0,1-7.416,8.24,15.852,15.852,0,0,1-2.028,1.192,27.581,27.581,0,0,1-8.988,2.662,24.065,24.065,0,0,1-25.822-30.677" transform="translate(-1096.411 -277.114)" fill="#afafaf"/>
      <path id="Trazado_209110" data-name="Trazado 209110" d="M2217.92,1275.547l-2.221-1.338a.574.574,0,0,1-.272-.535q.034-.412.034-.832a9.631,9.631,0,0,0-.116-1.525.567.567,0,0,1,.269-.58l2.32-1.4a.557.557,0,0,0,.212-.727l-1.092-2.224a.55.55,0,0,0-.679-.275l-2.345.852a.553.553,0,0,1-.636-.187,10.023,10.023,0,0,0-2.3-2.161.571.571,0,0,1-.212-.662l.521-1.426a.576.576,0,0,0-.283-.707l-2.209-1.081a.506.506,0,0,0-.139-.048.553.553,0,0,0-.588.26l-1,1.658-.243.4a9.909,9.909,0,0,0-1.4-.1,10.039,10.039,0,0,0-1.862.173.552.552,0,0,1-.58-.258l-1.126-1.87a.573.573,0,0,0-.744-.218l-1.7.834-.487.241a.58.58,0,0,0-.291.719l.71,1.961a.552.552,0,0,1-.17.628,9.955,9.955,0,0,0-1.5,1.511,1.746,1.746,0,0,0-.113.139.3.3,0,0,1-.039.045.566.566,0,0,1-.611.141l-2.317-.84a.427.427,0,0,0-.079-.023.575.575,0,0,0-.625.306l-1.081,2.2a.572.572,0,0,0,.218.741l2.317,1.395a.553.553,0,0,1,.263.569,10.1,10.1,0,0,0-.116,1.533q0,.416.034.823a.582.582,0,0,1-.28.546l-2.229,1.347a.556.556,0,0,0-.212.722l1.083,2.2a.582.582,0,0,0,.722.292l1.856-.673a.571.571,0,0,1,.671.218,9.989,9.989,0,0,0,2.074,2.277.568.568,0,0,1,.181.642l-.758,2.088a.587.587,0,0,0,.291.724l2.193,1.078a.561.561,0,0,0,.73-.215l.059-.1,1.163-1.927a.573.573,0,0,1,.6-.269h0a9.93,9.93,0,0,0,1.754.155c.32,0,.634-.017.948-.045a.563.563,0,0,1,.541.269l1.143,1.9a.582.582,0,0,0,.756.224l2.19-1.078a.625.625,0,0,0,.161-.119.58.58,0,0,0,.125-.588l-.572-1.565a.579.579,0,0,1,.1-.56.626.626,0,0,1,.119-.107,9.957,9.957,0,0,0,2.778-2.79.561.561,0,0,1,.566-.243.589.589,0,0,1,.093.026l1.876.682a.57.57,0,0,0,.7-.283l.026-.051,1.055-2.144a.58.58,0,0,0-.224-.75m-17.532-4.229a6.658,6.658,0,0,1,.447-1.157,5.235,5.235,0,0,1,2.017-2.017c.079-.04.158-.076.238-.113a5.409,5.409,0,0,1,5.52,9.274,3.508,3.508,0,0,1-.453.266,6.156,6.156,0,0,1-2.006.594,5.371,5.371,0,0,1-5.763-6.846" transform="translate(-1997.297 -1148.249)" fill="#9f321d"/>
      <path id="Trazado_209111" data-name="Trazado 209111" d="M2907.115,735.421l-3.328-2.006a.862.862,0,0,1-.407-.8q.051-.617.051-1.247a14.469,14.469,0,0,0-.174-2.285.85.85,0,0,1,.4-.869l3.477-2.1a.834.834,0,0,0,.318-1.09l-1.636-3.333a.825.825,0,0,0-1.018-.411l-3.515,1.276a.828.828,0,0,1-.954-.28,15.016,15.016,0,0,0-3.451-3.239.855.855,0,0,1-.318-.992l.78-2.137a.864.864,0,0,0-.424-1.06l-3.312-1.62a.763.763,0,0,0-.208-.072.829.829,0,0,0-.882.39l-1.5,2.485-.365.606a14.844,14.844,0,0,0-2.095-.148,15.086,15.086,0,0,0-2.79.259.828.828,0,0,1-.869-.386l-1.687-2.8a.859.859,0,0,0-1.115-.326l-2.548,1.251-.729.36a.869.869,0,0,0-.437,1.077l1.064,2.938a.827.827,0,0,1-.254.941,14.909,14.909,0,0,0-2.243,2.264,2.647,2.647,0,0,0-.169.208.456.456,0,0,1-.059.068.847.847,0,0,1-.916.212l-3.472-1.259a.636.636,0,0,0-.119-.034.862.862,0,0,0-.937.458l-1.62,3.3a.857.857,0,0,0,.326,1.111l3.473,2.091a.83.83,0,0,1,.394.852,15.146,15.146,0,0,0-.174,2.3q0,.623.051,1.234a.874.874,0,0,1-.42.818l-3.341,2.018a.833.833,0,0,0-.318,1.081l1.624,3.294a.871.871,0,0,0,1.081.437l2.781-1.009a.856.856,0,0,1,1,.326,14.981,14.981,0,0,0,3.108,3.413.851.851,0,0,1,.271.962l-1.136,3.129a.88.88,0,0,0,.437,1.085l3.286,1.615a.841.841,0,0,0,1.094-.322l.089-.144,1.743-2.887a.86.86,0,0,1,.895-.4h0a14.89,14.89,0,0,0,2.629.233c.479,0,.95-.025,1.42-.068a.843.843,0,0,1,.81.4l1.713,2.845a.873.873,0,0,0,1.132.335l3.281-1.615a.948.948,0,0,0,.242-.178.869.869,0,0,0,.186-.882l-.856-2.345a.868.868,0,0,1,.149-.839.921.921,0,0,1,.178-.161,14.92,14.92,0,0,0,4.164-4.181.837.837,0,0,1,.988-.327l2.811,1.022a.854.854,0,0,0,1.056-.424l.038-.076,1.581-3.214a.869.869,0,0,0-.335-1.124m-26.275-6.339a9.966,9.966,0,0,1,.67-1.734,7.844,7.844,0,0,1,3.023-3.023c.119-.059.238-.114.356-.17a8.107,8.107,0,0,1,8.272,13.9,5.287,5.287,0,0,1-.678.4,9.225,9.225,0,0,1-3.006.891,8.049,8.049,0,0,1-8.637-10.261" transform="translate(-2613.646 -649.539)" fill="#f3e6e3"/>
      <path id="Trazado_209112" data-name="Trazado 209112" d="M1135.885,51.376l-3.525-1.635a.862.862,0,0,1-.491-.753q-.016-.619-.084-1.245a14.464,14.464,0,0,0-.419-2.253.849.849,0,0,1,.307-.908l3.23-2.461a.834.834,0,0,0,.2-1.118l-1.986-3.137a.825.825,0,0,0-1.056-.3l-3.357,1.648a.829.829,0,0,1-.979-.175,15.013,15.013,0,0,0-3.78-2.848.855.855,0,0,1-.423-.952l.545-2.209a.864.864,0,0,0-.536-1.008l-3.467-1.253a.757.757,0,0,0-.214-.049.829.829,0,0,0-.835.483l-1.224,2.632-.3.642a14.86,14.86,0,0,0-2.1.078,15.075,15.075,0,0,0-2.746.558.828.828,0,0,1-.906-.29l-1.98-2.6a.858.858,0,0,0-1.144-.2l-2.4,1.518-.686.437a.87.87,0,0,0-.318,1.118l1.375,2.806a.828.828,0,0,1-.152.963,14.9,14.9,0,0,0-1.986,2.493,2.675,2.675,0,0,0-.146.225.464.464,0,0,1-.052.074.847.847,0,0,1-.888.309l-3.588-.878a.617.617,0,0,0-.122-.021.862.862,0,0,0-.882.556l-1.255,3.454a.858.858,0,0,0,.444,1.069l3.678,1.7a.829.829,0,0,1,.484.8,15.181,15.181,0,0,0,.075,2.3q.067.62.184,1.221a.874.874,0,0,1-.329.859l-3.1,2.367a.834.834,0,0,0-.2,1.109l1.97,3.1a.871.871,0,0,0,1.122.318l2.656-1.3a.856.856,0,0,1,1.034.216,14.977,14.977,0,0,0,3.458,3.058.85.85,0,0,1,.374.928l-.792,3.233a.88.88,0,0,0,.551,1.032l3.441,1.252a.841.841,0,0,0,1.053-.438l.073-.153,1.421-3.058a.86.86,0,0,1,.846-.5h0a14.886,14.886,0,0,0,2.639-.052c.476-.052.941-.128,1.4-.221a.844.844,0,0,1,.849.313l2.009,2.644a.873.873,0,0,0,1.162.211l3.088-1.96a.939.939,0,0,0,.221-.2.869.869,0,0,0,.091-.9l-1.1-2.239a.868.868,0,0,1,.057-.851.93.93,0,0,1,.159-.179,14.921,14.921,0,0,0,3.689-4.605.839.839,0,0,1,.8-.454.848.848,0,0,1,.143.023l2.9.713a.854.854,0,0,0,1-.535l.03-.08,1.226-3.366a.869.869,0,0,0-.454-1.081m-26.805-3.47a9.956,9.956,0,0,1,.479-1.8,7.845,7.845,0,0,1,2.68-3.331c.112-.072.224-.139.336-.207A8.107,8.107,0,0,1,1122.3,55.5a5.3,5.3,0,0,1-.631.469,9.224,9.224,0,0,1-2.893,1.209,8.049,8.049,0,0,1-9.692-9.27" transform="translate(-999.595 -27.976)" fill="#f3e6e3"/>
      <path id="Trazado_209113" data-name="Trazado 209113" d="M1701.359,1308.709a.728.728,0,0,1,.13.779.007.007,0,0,1,0,0,4.841,4.841,0,0,1-1.53,1.678c-.092.074-.174.142-.245.2l-.055.049-.042.038c-.672.62-.419.762-1.627,2.02-1.377,1.433-2.326,1.459-2.6,1.328-.228-.111.236-.871.749-1.726l.075-.125c.068-.114.136-.229.2-.343.6-1.028.448-1.51.3-3.041-.116-1.243-1.934-6.947-1.934-6.947l2.639-.455s.795,4.541,1.671,5.241c.468.373.993.377,1.443.654.032.019.063.039.094.059a3.463,3.463,0,0,1,.722.58" transform="translate(-1543.644 -1186.043)" fill="#e49963"/>
      <path id="Trazado_209114" data-name="Trazado 209114" d="M1706.888,1368.91a.728.728,0,0,1,.13.779.007.007,0,0,1,0,0,5.613,5.613,0,0,1-1.532,1.673c-.091.076-.172.145-.243.21l-.055.049-.042.038c-.672.62-.419.762-1.627,2.02-1.377,1.433-2.326,1.459-2.6,1.328-.228-.111.236-.871.749-1.726a5.867,5.867,0,0,0,2.455-1.809c.829-1.058,1.383-2.418,1.947-3.206l.094.059a3.467,3.467,0,0,1,.722.58" transform="translate(-1549.173 -1246.244)" fill="#c65447"/>
      <path id="Trazado_209115" data-name="Trazado 209115" d="M1448.883,1298.856c-.163.815-1.324.679-2.622.362s-.989.06-2.836-.145-2.406-.893-2.462-1.167c-.05-.244.862-.33,1.841-.442l.37-.044a7.991,7.991,0,0,0,2.918-1.437,11.723,11.723,0,0,0,2.37-2.815l2.533.2s-1.329,2.018-1.843,2.9a3.063,3.063,0,0,0-.249,1.726,3.254,3.254,0,0,1-.019.866" transform="translate(-1312.452 -1177.839)" fill="#e49963"/>
      <path id="Trazado_209116" data-name="Trazado 209116" d="M1446.261,1343.1c-1.3-.317-.989.06-2.836-.145s-2.406-.893-2.462-1.168c-.05-.244.862-.329,1.841-.442l.009.019a5.206,5.206,0,0,0,2.645.822c1.253.031,2.58-.328,3.445-.314a3.25,3.25,0,0,1-.019.866c-.163.815-1.324.679-2.622.362" transform="translate(-1312.452 -1221.716)" fill="#c65447"/>
      <path id="Trazado_209117" data-name="Trazado 209117" d="M1549.572,921.952s-.6-1.478-1.267-1.539-2.776-.392-2.927-.091a2.087,2.087,0,0,0,.452,1.78,16.137,16.137,0,0,0,3.258,1.026Z" transform="translate(-1407.505 -838.132)" fill="#e49963"/>
      <path id="Trazado_209118" data-name="Trazado 209118" d="M1638.618,1133.913l5.458,14.689a5,5,0,0,0,1.642-.15,7.083,7.083,0,0,0,1.587-.773s-1.354-14.1-3.836-17.038-4.852,3.272-4.852,3.272" transform="translate(-1492.482 -1029.089)" fill="#aa413e"/>
      <path id="Trazado_209119" data-name="Trazado 209119" d="M1541.809,1064.5s-15.684-5.3-19.181-4.175-14,22.023-14,22.023a2.03,2.03,0,0,0,.884.558,8.34,8.34,0,0,0,2.058.211s9.478-8.124,10.606-10.493,1.579-4.626,2.708-4.4,14.555,5.529,17.6,2.37a8.8,8.8,0,0,0,2.25-7.264Z" transform="translate(-1374.084 -965.615)" fill="#c65447"/>
      <path id="Trazado_209120" data-name="Trazado 209120" d="M1758.049,695.88a8.915,8.915,0,0,1-.668-3.073,9.432,9.432,0,0,0,1.1,3.4c3.262,2.141,9.513,9.292,9.39,10.647,0,0,2.2-3.735,2.24-3.757,0,0,4.062-5.165-.752-8.124-2.447-1.5-2.435-3.434-2.332-5.11s-.668-8.894-5.569-7.005a3.194,3.194,0,0,0-1.139-.3.96.96,0,0,1,.434.206,3.8,3.8,0,0,0-2.058.394c-1.8,1.021-3.4,10.182-.643,12.724" transform="translate(-1599.908 -621.67)" fill="#b5453c"/>
      <path id="Trazado_209121" data-name="Trazado 209121" d="M1780.2,787.619a4.518,4.518,0,0,0,2.772.506,3.6,3.6,0,0,0,1.846-1.77c-.477-.095-.614-.75-.6-3.565l-.216.042-3.624.718s.083,1.141.085,2.215c0,.9-.052,1.758-.259,1.854" transform="translate(-1621.439 -712.978)" fill="#e49963"/>
      <path id="Trazado_209122" data-name="Trazado 209122" d="M1782.155,783.983s.083,1.141.085,2.215c2.028-.057,3.1-1.907,3.539-2.933Z" transform="translate(-1623.217 -713.411)" fill="#d68d5d"/>
      <path id="Trazado_209123" data-name="Trazado 209123" d="M1762.843,702.791a10.66,10.66,0,0,0,1.318-3.115c.182-1.025-.34-4.825-4.158-4.278a5.189,5.189,0,0,0-2.152.814c-.829.56-2.025,1.769-.688,5.084l.347,1.12Z" transform="translate(-1599.907 -633.332)" fill="#b5453c"/>
      <path id="Trazado_209124" data-name="Trazado 209124" d="M1758.241,720.032s4.8.079,4.8-2.91.625-4.992-2.439-5.168-3.66.963-3.9,1.96.293,6.02,1.541,6.118" transform="translate(-1599.98 -648.443)" fill="#e49963"/>
      <path id="Trazado_209125" data-name="Trazado 209125" d="M1776.551,705.116s1.314,3.506,3.33,4.025a3.971,3.971,0,0,0,2.891-.022,5.711,5.711,0,0,1-1.867-3.373s-3.362-2.3-4.353-.63" transform="translate(-1618.113 -641.679)" fill="#b5453c"/>
      <path id="Trazado_209126" data-name="Trazado 209126" d="M1755.391,708.672a4.239,4.239,0,0,0-1.22,1.544c-.239.761-.347,2.328-.8,2.275,0,0-.99-2.383.122-3.732,1.18-1.43,1.9-.087,1.9-.087" transform="translate(-1596.627 -644.95)" fill="#b5453c"/>
      <path id="Trazado_209127" data-name="Trazado 209127" d="M1609.827,836.917c.473-1.984-1.137-5.835-2.817-9.023a24.939,24.939,0,0,0-3.25-5.149c-4.021,2.387-4.385.4-4.385.4s-3.653.485-4.687,2.266c-1.431,2.462-2.989,9.851-4.52,9.742-.7-.05-7.774-2.708-7.774-2.708a3.1,3.1,0,0,0-.952,2.458,73.846,73.846,0,0,0,6.444,3.83c1.562.789,2.973,1.341,3.636,1.185,1.345-.317,3.446-3.435,4.581-5.27l.007-.012c1.449,8.2-.521,10.069.476,10.934,1.053.913,2.558-.435,5.868,1,2.171.942,5.184,2.3,7.212,2.54,1.063.125,1.857-.06,2.116-.779.752-2.088-2.858-7.632-1.956-11.415" transform="translate(-1440.379 -749.368)" fill="#fecd4d"/>
      <path id="Trazado_209128" data-name="Trazado 209128" d="M1768.1,779.926s-.089.38-1.034.321c0,0-.793-.049-.769-.466a2.552,2.552,0,0,1,1.8.145" transform="translate(-1608.777 -710.148)" fill="#fff"/>
      <path id="Trazado_209129" data-name="Trazado 209129" d="M1824.749,938.729c-.259.718-1.052.9-2.116.779-1.4-.612-7.468-2.961-7.4-4.553.1-2.357,1.166-2.432.414-5.341-.6-2.336,5-6.679,5.893-7.623,1.681,3.188,1.727,3.339,1.254,5.323-.9,3.783,2.708,9.327,1.956,11.415" transform="translate(-1653.345 -839.765)" fill="#d2a735"/>
      <path id="Trazado_209130" data-name="Trazado 209130" d="M1662.206,952.1c-1.135,1.835-3.236,4.954-4.582,5.27-.663.156-2.074-.4-3.636-1.185a9.448,9.448,0,0,0,3.323.182c1.166-.113,1.5-1.542,3.347-3.686,1.2-1.39,1.489-1.04,1.548-.581" transform="translate(-1506.481 -866.819)" fill="#d2a735"/>
      <path id="Trazado_209131" data-name="Trazado 209131" d="M1774.722,1000.391a2.892,2.892,0,0,0-1.975-.6c-.959.188-1.429.846-1.392,1.147a1.71,1.71,0,0,0,1.279,1.222,13.836,13.836,0,0,0,2.821-.451Z" transform="translate(-1613.379 -910.599)" fill="#e49963"/>
      <path id="Trazado_209132" data-name="Trazado 209132" d="M1807.257,822.767s3.911.241,5.264,2.129c1.906,2.658,5.216,13.509,4.313,15.992l-11.9-.05a3.519,3.519,0,0,1,.113-2c.4-.652,6.921-1.705,7.222-2.006s-3.761-5.867-3.761-6.77-1.252-7.294-1.252-7.294" transform="translate(-1643.875 -749.39)" fill="#fecd4d"/>
      <path id="Trazado_209133" data-name="Trazado 209133" d="M1621.427,964.864h-14.382l2.6,9.055h14.4Z" transform="translate(-1463.724 -878.814)" fill="#1c468a"/>
      <rect id="Rectángulo_42149" data-name="Rectángulo 42149" width="18.831" height="0.353" transform="translate(145.967 94.752)" fill="#163560"/>
      <path id="Trazado_209134" data-name="Trazado 209134" d="M1688.363,1008.1a.826.826,0,0,0-.741-.576.42.42,0,0,0-.411.576.826.826,0,0,0,.742.577.419.419,0,0,0,.411-.577" transform="translate(-1536.719 -917.667)" fill="#163560"/>
      <path id="Trazado_209135" data-name="Trazado 209135" d="M910.78,1237.277v3.838a1.445,1.445,0,0,1-1.441,1.441H886.651a1.445,1.445,0,0,1-1.441-1.441v-3.838a1.445,1.445,0,0,1,1.441-1.44h22.689a1.445,1.445,0,0,1,1.441,1.44" transform="translate(-806.265 -1125.621)" fill="#f99746"/>
      <path id="Trazado_209136" data-name="Trazado 209136" d="M910.78,1286.6v.7a1.445,1.445,0,0,1-1.441,1.441H886.651a1.445,1.445,0,0,1-1.441-1.441v-.756h25.157a1.507,1.507,0,0,1,.413.058" transform="translate(-806.265 -1171.805)" fill="#ed7d2b"/>
      <path id="Trazado_209137" data-name="Trazado 209137" d="M887.939,1310.821l-1.023,3.874h0l-4.258,16.123h-.448l2.461-13.377c0-.013.006-.026.008-.041l1.217-6.616Z" transform="translate(-803.531 -1193.886)" fill="#e8c6a7"/>
      <path id="Trazado_209138" data-name="Trazado 209138" d="M913.157,1310.821l-1.023,3.874h0a4.43,4.43,0,0,0-2.237,2.706l1.217-6.616Z" transform="translate(-828.749 -1193.886)" fill="#c69d7b"/>
      <path id="Trazado_209139" data-name="Trazado 209139" d="M1113.406,1330.819h-.448l-3.469-13.134v0l-.789-2.987h0l-1.023-3.874,2.043-.035.7,3.782.521,2.833c0,.014.006.027.008.041Z" transform="translate(-1008.89 -1193.886)" fill="#e8c6a7"/>
      <path id="Trazado_209140" data-name="Trazado 209140" d="M1094.245,1367.9s0,0-.007,0-.007-.013.007,0" transform="translate(-996.646 -1245.894)" fill="#e8c6a7"/>
      <path id="Trazado_209141" data-name="Trazado 209141" d="M1110.416,1314.57a5.639,5.639,0,0,0-.927,3.114l-.789-2.987h0l-1.023-3.874,2.043-.035Z" transform="translate(-1008.89 -1193.887)" fill="#c69d7b"/>
      <path id="Trazado_209142" data-name="Trazado 209142" d="M844.706,384.7c.527-.55.885-.343.885-.343s6.227,4.781,6.821,5.129,8.693.582,8.693.582,3.244-.037,4.031,1.629a3.312,3.312,0,0,1-.5,3.609,3.352,3.352,0,0,1-3.595,1.159c-2.969-.866-8.874-2.635-9.979-3.311-2.459-1.5-6.9-7.51-6.9-7.51a2.4,2.4,0,0,1,.548-.943" transform="translate(-768.874 -350.047)" fill="#636363"/>
      <path id="Trazado_209143" data-name="Trazado 209143" d="M567.307,123.944l-3.109-1.873a.8.8,0,0,1-.38-.749q.047-.576.047-1.164a13.5,13.5,0,0,0-.162-2.135.794.794,0,0,1,.376-.812l3.248-1.96a.779.779,0,0,0,.3-1.018L566.1,111.12a.771.771,0,0,0-.951-.384l-3.283,1.192a.774.774,0,0,1-.891-.261,14.02,14.02,0,0,0-3.224-3.026.8.8,0,0,1-.3-.927l.729-2a.807.807,0,0,0-.4-.99l-3.093-1.513a.707.707,0,0,0-.194-.067.774.774,0,0,0-.824.364l-1.4,2.321-.341.566a13.863,13.863,0,0,0-1.956-.139,14.081,14.081,0,0,0-2.606.242.773.773,0,0,1-.812-.36l-1.576-2.618a.8.8,0,0,0-1.041-.305l-2.38,1.168-.681.337a.812.812,0,0,0-.408,1.006l.994,2.745a.773.773,0,0,1-.238.879,13.915,13.915,0,0,0-2.1,2.115,2.4,2.4,0,0,0-.158.194.437.437,0,0,1-.056.063.792.792,0,0,1-.856.2l-3.243-1.176a.587.587,0,0,0-.111-.032.805.805,0,0,0-.875.428l-1.513,3.081a.8.8,0,0,0,.3,1.038l3.244,1.953a.774.774,0,0,1,.368.8,14.165,14.165,0,0,0-.162,2.147q0,.582.048,1.153a.816.816,0,0,1-.392.764L532.6,123.96a.779.779,0,0,0-.3,1.01l1.517,3.077a.814.814,0,0,0,1.01.408l2.6-.943a.8.8,0,0,1,.939.305,13.978,13.978,0,0,0,2.9,3.188.8.8,0,0,1,.253.9l-1.061,2.923a.822.822,0,0,0,.408,1.014l3.07,1.509a.786.786,0,0,0,1.022-.3l.083-.135,1.628-2.7a.8.8,0,0,1,.836-.376h0a13.93,13.93,0,0,0,2.456.218c.448,0,.887-.024,1.327-.063a.788.788,0,0,1,.756.376l1.6,2.658a.815.815,0,0,0,1.057.313l3.065-1.509a.884.884,0,0,0,.226-.166.811.811,0,0,0,.174-.824l-.8-2.19a.811.811,0,0,1,.138-.784.873.873,0,0,1,.167-.15,13.937,13.937,0,0,0,3.889-3.905.784.784,0,0,1,.792-.341.8.8,0,0,1,.131.036l2.626.955a.8.8,0,0,0,.986-.4l.036-.071,1.477-3a.812.812,0,0,0-.313-1.05m-24.543-5.921a9.315,9.315,0,0,1,.626-1.62,7.33,7.33,0,0,1,2.824-2.824c.111-.055.222-.107.333-.158a7.573,7.573,0,0,1,7.727,12.983,4.95,4.95,0,0,1-.634.372,8.614,8.614,0,0,1-2.808.832,7.519,7.519,0,0,1-8.067-9.584" transform="translate(-484.763 -93.934)" fill="#9f321d"/>
      <path id="Trazado_209144" data-name="Trazado 209144" d="M747.093,362.69a10.3,10.3,0,0,0-.354-2.968c-.363-.669-1.195-1.5-1.669-1.237s-.619,2.508-.474,2.909a17.8,17.8,0,0,0,1.221,1.906Z" transform="translate(-678.142 -326.468)" fill="#ffb27d"/>
      <path id="Trazado_209145" data-name="Trazado 209145" d="M1014.109,1194.981c.512-.439.205-2.9.205-2.9s-2.639-2.111-3-.495-2.508,2.342-3.728,2.54a1.32,1.32,0,0,0-1.175.851Z" transform="translate(-916.655 -1084.766)" fill="#2c3a64"/>
      <path id="Trazado_209146" data-name="Trazado 209146" d="M989.063,756.734c-2.444.379-3.337-.2-3.337-.2A111.488,111.488,0,0,0,984,742.467c-1.341-8.216-3.16-17.829-4.31-23.756-.661-3.409-1.1-5.6-1.1-5.6l2-.039,9.96-.2S989.8,723.9,990,729.345a10.175,10.175,0,0,0,.332,2.72c1.7,4.125-1.271,24.669-1.271,24.669" transform="translate(-891.314 -649.3)" fill="#35488b"/>
      <path id="Trazado_209147" data-name="Trazado 209147" d="M1001.252,729.346c-1.353,2.532-4.743,9.054-6,13.123-1.341-8.216-3.161-17.829-4.31-23.756a17.115,17.115,0,0,1,.9-5.637l9.96-.2s-.745,11.023-.541,16.468" transform="translate(-902.563 -649.301)" fill="#2c3a64"/>
      <path id="Trazado_209148" data-name="Trazado 209148" d="M920.044,1194.981c.512-.439.205-2.9.205-2.9s-2.639-2.111-3-.495-2.507,2.342-3.728,2.54a1.321,1.321,0,0,0-1.175.851Z" transform="translate(-830.979 -1084.766)" fill="#2c3a64"/>
      <path id="Trazado_209149" data-name="Trazado 209149" d="M930.035,712.837s3.913,36.2,3.138,43.505c0,0,.836.655,3.3.5,0,0,4.47-20.857,3.523-24.232-.658-2.347,1.963-18.919,1.963-18.919Z" transform="translate(-847.092 -649.264)" fill="#35488b"/>
      <path id="Trazado_209150" data-name="Trazado 209150" d="M962.026,359.186s-4.975,2.485-7.444,1.352a7.553,7.553,0,0,1,2.2-1.9c-.025-.442-.039-.842-.046-1.2-.022-1.177.037-1.84.037-1.84l2.146-1.561,1.456-1.059a9.419,9.419,0,0,0-.059,1.817,7.182,7.182,0,0,0,1.712,4.387" transform="translate(-869.451 -321.502)" fill="#ffb27d"/>
      <path id="Trazado_209151" data-name="Trazado 209151" d="M982.241,365.617a5.182,5.182,0,0,1-3.579,2.643c-.022-1.177.037-1.84.037-1.84l2.146-1.561a4.831,4.831,0,0,1,1.4.758" transform="translate(-891.377 -332.32)" fill="#ed975d"/>
      <path id="Trazado_209152" data-name="Trazado 209152" d="M967.814,305.8s4.453,1.586,5.4-1.2,2.156-4.462-.647-5.593-3.719-.255-4.261.6-1.624,5.711-.49,6.2" transform="translate(-881.048 -271.847)" fill="#ffb27d"/>
      <path id="Trazado_209153" data-name="Trazado 209153" d="M933.071,434.342c-.7,1.452-16.131,1.388-16.894.364-.31-.416-.666-4.582-.869-9.426-.112-2.683-.179-5.575-.166-8.151.023-4.2.258-7.57.851-7.827,3.308-1.435,5.352-2.348,9.673-2.216a3.583,3.583,0,0,1,3.119,2.01,26.084,26.084,0,0,1,2.623,10.451c.174,6.928,2.54,12.965,1.662,14.8" transform="translate(-833.526 -370.769)" fill="#afafaf"/>
      <path id="Trazado_209154" data-name="Trazado 209154" d="M920.136,487.75s-.5,7.245-4.827,11c-.112-2.683-.179-5.575-.166-8.151,1.292-1.728,3-2.972,4.993-2.853" transform="translate(-833.526 -444.244)" fill="#636363"/>
      <path id="Trazado_209155" data-name="Trazado 209155" d="M770.414,397.2s-4.747.03-6.236,1.413c-1.067.992-7.927,6.4-8.362,6.325s-4.852-8.888-4.852-8.888-2.177.184-2.54,1.127c0,0,2.053,11.007,6.484,13.4,0,0,11.2-2.125,14.523-5.829,1.712-1.908.984-7.547.984-7.547" transform="translate(-681.677 -360.724)" fill="#afafaf"/>
      <path id="Trazado_209156" data-name="Trazado 209156" d="M975.063,282.153s.263,2.66,1.062,3.387a2.653,2.653,0,0,1,.675,1.871c.087.145.914-.282,1.06-.037.335.563-.188.973-.519,1.109s.843,2.42,1.706,2.5c1.49.145,3.792-3.976,3.987-5.184.254-1.58-.64-4.043-3.2-3.922-4.031.191-4.848-.684-4.767.272" transform="translate(-888.099 -256.574)" fill="#2b478b"/>
      <rect id="Rectángulo_42150" data-name="Rectángulo 42150" width="4.758" height="29.641" transform="translate(202.503 13.93)" fill="#fecd4d"/>
      <rect id="Rectángulo_42151" data-name="Rectángulo 42151" width="4.758" height="37.903" transform="translate(210.512 5.668)" fill="#fecd4d"/>
      <rect id="Rectángulo_42152" data-name="Rectángulo 42152" width="4.758" height="22.473" transform="translate(219.018 21.098)" fill="#fecd4d"/>
      <path id="Trazado_209157" data-name="Trazado 209157" d="M2365.461,0h-4.03a.417.417,0,0,0,0,.834h4.03a.417.417,0,0,0,0-.834" transform="translate(-2150.453 0.002)" fill="#afcdfb"/>
      <path id="Trazado_209158" data-name="Trazado 209158" d="M2362.349,17.841a.417.417,0,1,0,0-.834h-.918a.417.417,0,1,0,0,.834Z" transform="translate(-2150.452 -15.49)" fill="#afcdfb"/>
      <path id="Trazado_209159" data-name="Trazado 209159" d="M2459.693,186.966h-4.03a.417.417,0,0,0,0,.834h4.03a.417.417,0,1,0,0-.834" transform="translate(-2236.281 -170.292)" fill="#afcdfb"/>
      <path id="Trazado_209160" data-name="Trazado 209160" d="M2455.664,204.809h.918a.417.417,0,1,0,0-.834h-.918a.417.417,0,0,0,0,.834" transform="translate(-2236.281 -185.784)" fill="#afcdfb"/>
    </g>
  </g>
</svg>
