<svg xmlns="http://www.w3.org/2000/svg" width="63" height="63" viewBox="0 0 63 63">
  <g id="Grupo_151435" data-name="Grupo 151435" transform="translate(-285 -1251)">
    <circle id="Elipse_4902" data-name="Elipse 4902" cx="31.5" cy="31.5" r="31.5" transform="translate(285 1251)" fill="#9f321d"/>
    <g id="empleado_1_" data-name="empleado (1)" transform="translate(227.936 1254.24)">
      <path id="Trazado_209687" data-name="Trazado 209687" d="M161,16.385v-3.5A12.763,12.763,0,0,0,149.077.014,12.531,12.531,0,0,0,135.941,12.53v3.855c0,6.487-1.078,10.279-1.622,11.779a.952.952,0,0,0,.452,1.166c1.921,1.022,7.154,3.636,11.772,4.405H150.4c4.618-.77,9.851-3.384,11.772-4.405a.952.952,0,0,0,.452-1.166C162.079,26.664,161,22.872,161,16.385Z" transform="translate(-60.238 0)" fill="#5c414b"/>
      <path id="Trazado_209688" data-name="Trazado 209688" d="M135.944,34.6v3.855c0,6.486-1.078,10.278-1.622,11.779a.956.956,0,0,0,.457,1.168,46.43,46.43,0,0,0,10.8,4.215V36.526L143.655,34.6a11.872,11.872,0,0,1-3.212-9.614A12.5,12.5,0,0,0,135.944,34.6Z" transform="translate(-60.242 -22.068)" fill="#503441"/>
      <rect id="Rectángulo_42337" data-name="Rectángulo 42337" width="9.639" height="12.531" transform="translate(83.414 26.988)" fill="#e6af78"/>
      <path id="Trazado_209689" data-name="Trazado 209689" d="M139.414,291.314l-5.132-2.282-6.857,2.892-1.126,1.689a.964.964,0,0,1-1.6,0l-1.126-1.689-6.752-2.892-5.132,2.282a5.783,5.783,0,0,0-3.431,5.444l.506,18.3h33.577l.506-18.3A5.783,5.783,0,0,0,139.414,291.314Z" transform="translate(-37.265 -255.297)" fill="#ffdc64"/>
      <g id="Grupo_151432" data-name="Grupo 151432" transform="translate(70.988 37.321)">
        <path id="Trazado_209690" data-name="Trazado 209690" d="M114.7,325.808l-4.842-6.053a5.77,5.77,0,0,0-1.605,4.14l.506,18.3H114.7Z" transform="translate(-108.253 -319.755)" fill="#fff082"/>
        <path id="Trazado_209691" data-name="Trazado 209691" d="M349.388,325.808l4.842-6.053a5.769,5.769,0,0,1,1.6,4.14l-.506,18.3h-5.941V325.808Z" transform="translate(-321.243 -319.755)" fill="#fff082"/>
      </g>
      <path id="Trazado_209692" data-name="Trazado 209692" d="M214.709,234.025a11.528,11.528,0,0,0,9.639,0v-2.8h-9.639Z" transform="translate(-131.295 -204.237)" fill="#d29b6e"/>
      <path id="Trazado_209693" data-name="Trazado 209693" d="M170.3,107.738a8.693,8.693,0,0,0,.41-2.412c.142-5.547-7.627-4.248-14.01-8.448a.972.972,0,0,0-1.341.238,20.2,20.2,0,0,1-2.823,3.217,1.925,1.925,0,0,1-1.307.51h-.7a1.884,1.884,0,0,0-.324.034,2.039,2.039,0,0,0-1.57,2.035v.7a2.024,2.024,0,0,0,1.488,2,1.911,1.911,0,0,0,.587.046.939.939,0,0,1,.984.783,9.621,9.621,0,0,0,18.363,1.938C170.135,108.207,170.289,107.779,170.3,107.738Z" transform="translate(-72.94 -85.422)" fill="#f0c087"/>
      <path id="Trazado_209694" data-name="Trazado 209694" d="M155.39,107.506V99.887a20.241,20.241,0,0,1-2.852,3.253,1.925,1.925,0,0,1-1.307.51h-.7a1.888,1.888,0,0,0-.323.034,2.038,2.038,0,0,0-1.57,2.033v.7a2.025,2.025,0,0,0,1.488,2,1.908,1.908,0,0,0,.587.046.939.939,0,0,1,.984.783,9.6,9.6,0,0,0,11.382,7.7A9.642,9.642,0,0,1,155.39,107.506Z" transform="translate(-72.94 -88.229)" fill="#e6af78"/>
      <path id="Trazado_209695" data-name="Trazado 209695" d="M109.438,497.411H67.028a.964.964,0,0,1,0-1.928h42.41a.964.964,0,1,1,0,1.928Z" transform="translate(0 -437.651)" fill="#c39772"/>
      <g id="Grupo_151433" data-name="Grupo 151433" transform="translate(79.558 31.715)">
        <path id="Trazado_209696" data-name="Trazado 209696" d="M183.535,277.459l-1.859-3.717,2.095-1.789a.964.964,0,0,1,1.409.17l3.244,4.511-2.008,1.506A1.928,1.928,0,0,1,183.535,277.459Z" transform="translate(-181.676 -271.722)" fill="#fff082"/>
        <path id="Trazado_209697" data-name="Trazado 209697" d="M277.4,277.459l1.859-3.717-2.095-1.789a.964.964,0,0,0-1.409.17l-3.244,4.511,2.008,1.506A1.928,1.928,0,0,0,277.4,277.459Z" transform="translate(-261.912 -271.722)" fill="#fff082"/>
      </g>
      <path id="Trazado_209698" data-name="Trazado 209698" d="M165.475,371.482H144.05a1.928,1.928,0,0,1-1.924-1.814l-.737-12.53a1.928,1.928,0,0,1,1.924-2.041h22.9a1.928,1.928,0,0,1,1.924,2.041l-.737,12.53A1.928,1.928,0,0,1,165.475,371.482Z" transform="translate(-66.53 -313.65)" fill="#afafaf"/>
      <circle id="Elipse_4909" data-name="Elipse 4909" cx="2.41" cy="2.41" r="2.41" transform="translate(85.823 47.711)" fill="#fff"/>
    </g>
  </g>
</svg>
