<svg id="Grupo_151438" data-name="Grupo 151438" xmlns="http://www.w3.org/2000/svg" xmlns:xlink="http://www.w3.org/1999/xlink" width="397" height="255.048" viewBox="0 0 397 255.048">
  <defs>
    <clipPath id="clip-path">
      <rect id="Rectángulo_42424" data-name="Rectángulo 42424" width="397" height="255.048" fill="none"/>
    </clipPath>
  </defs>
  <g id="Grupo_151438-2" data-name="Grupo 151438" clip-path="url(#clip-path)">
    <path id="Trazado_209712" data-name="Trazado 209712" d="M158.131,386.606H23.8a2.626,2.626,0,1,0,0,5.252H158.131Z" transform="translate(-8.179 -149.331)" fill="#edc6a4"/>
    <path id="Trazado_209713" data-name="Trazado 209713" d="M401.154,338.882H20.18a2.626,2.626,0,1,0,0,5.252h271c-2.4.91-3.755,1.939-3.755,3.031,0,3.681,15.374,6.666,34.34,6.666,18.142,0,32.988-2.732,34.244-6.191a38.425,38.425,0,0,0,6.56.535c7.14,0,12.928-1.718,12.928-3.838a1.146,1.146,0,0,0-.034-.2h25.689a2.626,2.626,0,1,0,0-5.252" transform="translate(-6.78 -130.897)" fill="#edc6a4"/>
    <path id="Trazado_209714" data-name="Trazado 209714" d="M182.39,353.582c-26.15,0-47.347,1.708-47.347,3.815s21.2,3.816,47.347,3.816,47.348-1.708,47.348-3.816-21.2-3.815-47.348-3.815" transform="translate(-52.162 -136.575)" fill="#edc6a4"/>
    <path id="Trazado_209715" data-name="Trazado 209715" d="M83.542,396.48c-13.722,0-24.846,2.261-24.846,5.05s11.124,5.05,24.846,5.05,24.846-2.261,24.846-5.05-11.124-5.05-24.846-5.05" transform="translate(-22.672 -153.145)" fill="#edc6a4"/>
    <path id="Trazado_209716" data-name="Trazado 209716" d="M388.1,207.767c5.924-7.914,7.148-19.309,2.555-28.133a26.77,26.77,0,0,0-16.131-12.946,13.052,13.052,0,0,1-9.354-13.346,31.46,31.46,0,0,0-2.8-15.537,31.787,31.787,0,0,0-22.424-17.446c-12.134-2.325-26.127,2.292-36.185-4.884-6.946-4.956-9.158-13.62-10.737-21.538-1.769-8.87-3.139-17.072-6.73-25.484-7.333-17.177-18.7-32.944-33.811-43.941C229.823,8.019,203.715,1.5,177.223.169,151.9-1.108,124.831,4.7,106.251,23.083A70.188,70.188,0,0,0,89.167,50.6c-3.433,10.258-1.7,22.318-8.933,31.2-5.629,6.912-14.917,9.326-23.285,12.4C30.055,104.08,6.571,126.4,1.056,154.515c-3.681,18.771,2.463,39.438,15.2,53.252Z" transform="translate(0 0)" fill="#fff"/>
    <path id="Trazado_209717" data-name="Trazado 209717" d="M382.592,43.473l1.217.407a9.929,9.929,0,0,0,.675-1.135l-.954-.843a8.6,8.6,0,0,0,.575-1.685l1.278-.123a9.884,9.884,0,0,0,.155-1.289l-1.216-.383c0-.048,0-.1,0-.145a8.654,8.654,0,0,0-.164-1.676l1.117-.632a9.907,9.907,0,0,0-.376-1.216l-1.262.144a8.609,8.609,0,0,0-.919-1.636l.762-1.03a9.945,9.945,0,0,0-.826-.941l-1.1.647a8.658,8.658,0,0,0-1.536-1.138l.277-1.25a9.926,9.926,0,0,0-1.127-.511l-.741,1.038a8.6,8.6,0,0,0-1.889-.408l-.254-1.25c-.2-.012-.409-.021-.616-.021s-.412.009-.617.021l-.254,1.25a8.606,8.606,0,0,0-1.889.408l-.741-1.038a9.868,9.868,0,0,0-1.127.511l.277,1.25a8.68,8.68,0,0,0-1.536,1.138l-1.1-.647a10.032,10.032,0,0,0-.826.941l.762,1.03a8.611,8.611,0,0,0-.919,1.636l-1.262-.144a9.8,9.8,0,0,0-.376,1.216l1.116.632a8.657,8.657,0,0,0-.164,1.676c0,.048,0,.1,0,.145l-1.216.384a9.882,9.882,0,0,0,.155,1.288l1.278.123a8.6,8.6,0,0,0,.574,1.685l-.953.843a9.759,9.759,0,0,0,.675,1.135l1.216-.407a8.726,8.726,0,0,0,1.178,1.276l-.53,1.162a9.914,9.914,0,0,0,1.09.778l.946-.867a8.617,8.617,0,0,0,1.566.686l-.012,1.277a9.884,9.884,0,0,0,1.321.275l.51-1.173c.279.027.563.042.849.042s.57-.015.849-.042l.511,1.173a9.874,9.874,0,0,0,1.32-.275l-.011-1.277a8.631,8.631,0,0,0,1.565-.686l.946.867a9.914,9.914,0,0,0,1.09-.778l-.53-1.162a8.726,8.726,0,0,0,1.178-1.276" transform="translate(-141.298 -10.969)" fill="#a4b0bc"/>
    <path id="Trazado_209718" data-name="Trazado 209718" d="M350.271,55.96a13.01,13.01,0,0,0,.2-1.7l-1.6-.506c0-.064,0-.128,0-.192a11.46,11.46,0,0,0-.216-2.211l1.473-.833a12.859,12.859,0,0,0-.5-1.6l-1.665.19a11.416,11.416,0,0,0-1.212-2.157l1.005-1.359a13.013,13.013,0,0,0-1.089-1.242l-1.449.854a11.449,11.449,0,0,0-2.026-1.5l.366-1.65a13.021,13.021,0,0,0-1.486-.673l-.978,1.37a11.33,11.33,0,0,0-2.492-.539l-.335-1.647c-.269-.017-.54-.028-.813-.028s-.544.012-.813.028l-.336,1.647a11.33,11.33,0,0,0-2.492.539l-.977-1.37a12.926,12.926,0,0,0-1.486.673l.365,1.65a11.447,11.447,0,0,0-2.025,1.5l-1.449-.854a12.943,12.943,0,0,0-1.09,1.242l1.005,1.359a11.414,11.414,0,0,0-1.212,2.157l-1.665-.19a12.864,12.864,0,0,0-.5,1.6l1.473.833a11.46,11.46,0,0,0-.216,2.211c0,.064,0,.128,0,.192l-1.6.506a12.9,12.9,0,0,0,.2,1.7l1.686.163a11.329,11.329,0,0,0,.758,2.222l-1.258,1.113a12.869,12.869,0,0,0,.891,1.5l1.6-.537a11.514,11.514,0,0,0,1.555,1.683l-.7,1.533a13.117,13.117,0,0,0,1.437,1.026l1.248-1.143a11.363,11.363,0,0,0,2.065.9l-.015,1.685a13.044,13.044,0,0,0,1.742.363l.673-1.548q.553.054,1.121.055t1.12-.055l.673,1.548A13.044,13.044,0,0,0,341,66.106l-.015-1.685a11.344,11.344,0,0,0,2.065-.9L344.3,64.66a13.064,13.064,0,0,0,1.437-1.026l-.7-1.533a11.445,11.445,0,0,0,1.555-1.683l1.606.537a13.007,13.007,0,0,0,.89-1.5l-1.258-1.113a11.331,11.331,0,0,0,.759-2.222Zm-12.83,3.313a5.773,5.773,0,1,1,5.773-5.773,5.773,5.773,0,0,1-5.773,5.773" transform="translate(-125.322 -15.656)" fill="#a4b0bc"/>
    <path id="Trazado_209719" data-name="Trazado 209719" d="M394.26,83.039c0-.247-.009-.492-.018-.736l3.136-.662q-.057-.915-.186-1.809l-3.207,0c-.083-.487-.182-.968-.3-1.442l2.926-1.3c-.164-.587-.347-1.165-.557-1.73l-3.138.671c-.184-.458-.382-.908-.6-1.347l2.594-1.88Q394.485,72,394,71.235l-2.923,1.3c-.274-.408-.566-.8-.87-1.188l2.15-2.383c-.387-.467-.8-.916-1.219-1.348l-2.591,1.886q-.528-.514-1.092-.988l1.6-2.77c-.475-.376-.963-.736-1.469-1.073l-2.143,2.386q-.621-.393-1.274-.738l.994-3.047q-.812-.4-1.661-.739l-1.6,2.773c-.46-.169-.929-.317-1.4-.45l.339-3.193c-.584-.149-1.178-.269-1.779-.371l-.987,3.048q-.724-.1-1.464-.15l-.331-3.188c-.3-.012-.6-.023-.91-.023s-.608.011-.91.023l-.331,3.188q-.74.048-1.465.15l-.986-3.048c-.6.1-1.2.223-1.779.371l.339,3.192c-.476.134-.945.282-1.4.451l-1.6-2.773q-.849.337-1.661.739l.994,3.047q-.653.344-1.274.738l-2.143-2.386c-.506.337-.994.7-1.469,1.073l1.6,2.77q-.566.472-1.092.988L359.6,67.62c-.423.433-.832.881-1.219,1.348l2.15,2.383c-.3.385-.6.78-.87,1.188l-2.923-1.3q-.487.766-.911,1.573l2.593,1.88q-.325.659-.6,1.347l-3.138-.671c-.21.565-.393,1.143-.557,1.73l2.926,1.3c-.12.474-.218.956-.3,1.442l-3.207,0q-.13.894-.186,1.809l3.136.662c-.01.245-.018.49-.018.736s.009.491.018.736l-3.136.663q.057.914.186,1.809l3.207,0c.083.487.182.969.3,1.443l-2.926,1.3c.164.586.347,1.164.557,1.73l3.138-.671q.274.687.6,1.347l-2.593,1.88q.423.807.911,1.574l2.923-1.305c.274.409.566.8.87,1.189l-2.15,2.382c.387.467.8.916,1.219,1.349l2.591-1.887c.352.342.715.673,1.092.988l-1.6,2.77c.475.377.963.736,1.469,1.073l2.143-2.386q.621.392,1.274.738l-.994,3.047q.812.4,1.661.738l1.6-2.773c.46.169.929.317,1.4.451l-.339,3.192c.584.149,1.178.27,1.779.371l.986-3.048q.724.1,1.465.151l.331,3.187c.3.012.6.023.91.023s.608-.011.91-.023l.331-3.187q.74-.048,1.464-.151l.987,3.048c.6-.1,1.2-.223,1.779-.371l-.339-3.192c.476-.134.945-.282,1.4-.451l1.6,2.773q.849-.336,1.661-.738l-.994-3.047q.653-.345,1.274-.738l2.143,2.386c.505-.337.994-.7,1.469-1.073l-1.6-2.77c.377-.314.741-.645,1.092-.988l2.591,1.887c.423-.433.832-.882,1.219-1.349l-2.15-2.382c.3-.385.6-.78.87-1.189L394,94.844q.487-.767.911-1.574l-2.594-1.88c.217-.439.415-.889.6-1.347l3.138.671c.21-.566.393-1.144.557-1.73l-2.926-1.3c.12-.474.219-.956.3-1.443l3.207,0q.13-.893.186-1.809l-3.136-.663c.009-.245.018-.489.018-.736M375.369,98.152a15.113,15.113,0,1,1,15.113-15.113,15.113,15.113,0,0,1-15.113,15.113" transform="translate(-136.49 -23.555)" fill="#a4b0bc"/>
    <path id="Trazado_209720" data-name="Trazado 209720" d="M347,130.756a15.785,15.785,0,0,0,.249-2.066l-1.95-.615c0-.078.006-.155.006-.233a13.9,13.9,0,0,0-.263-2.687l1.791-1.013a15.784,15.784,0,0,0-.6-1.95l-2.025.23a13.86,13.86,0,0,0-1.473-2.623l1.222-1.652a15.953,15.953,0,0,0-1.324-1.509l-1.761,1.037a13.918,13.918,0,0,0-2.463-1.826l.445-2a15.672,15.672,0,0,0-1.807-.818l-1.188,1.665a13.809,13.809,0,0,0-3.029-.655l-.408-2c-.328-.02-.657-.034-.989-.034s-.661.014-.989.034l-.408,2a13.809,13.809,0,0,0-3.029.655l-1.188-1.665a15.672,15.672,0,0,0-1.807.818l.445,2a13.918,13.918,0,0,0-2.463,1.826l-1.761-1.037a15.949,15.949,0,0,0-1.324,1.509l1.222,1.652a13.824,13.824,0,0,0-1.473,2.623l-2.025-.23a15.79,15.79,0,0,0-.6,1.95l1.79,1.013a13.94,13.94,0,0,0-.262,2.687c0,.079,0,.155.006.233l-1.95.615a15.885,15.885,0,0,0,.249,2.066l2.05.2a13.768,13.768,0,0,0,.922,2.7l-1.529,1.353a15.837,15.837,0,0,0,1.083,1.82l1.951-.652a13.95,13.95,0,0,0,1.89,2.046l-.849,1.864a15.821,15.821,0,0,0,1.747,1.247l1.517-1.39a13.833,13.833,0,0,0,2.51,1.1l-.018,2.047a15.676,15.676,0,0,0,2.117.442l.818-1.881c.448.044.9.067,1.362.067s.914-.023,1.362-.067l.818,1.881a15.676,15.676,0,0,0,2.117-.442l-.018-2.047a13.825,13.825,0,0,0,2.51-1.1l1.517,1.39a15.768,15.768,0,0,0,1.747-1.247l-.849-1.864a13.915,13.915,0,0,0,1.89-2.046l1.952.652a15.837,15.837,0,0,0,1.083-1.82l-1.529-1.353a13.77,13.77,0,0,0,.922-2.7Zm-15.569,6.164a9.155,9.155,0,1,1,9.156-9.155,9.165,9.165,0,0,1-9.156,9.155" transform="translate(-121.909 -43.261)" fill="#a4b0bc"/>
    <path id="Trazado_209721" data-name="Trazado 209721" d="M503.459,101.145V98.5h-5.954v5.954h2.9v6.308h9.617v-9.617Zm-5.494,2.849V98.96H503v2.185H500.4v2.849Zm5.034,0h-2.134v-2.389H503Zm6.562,6.308h-8.7v-5.848h2.595v-2.849h6.1Z" transform="translate(-192.167 -38.047)" fill="#a4b0bc"/>
    <path id="Trazado_209722" data-name="Trazado 209722" d="M417.929,52.328h-14.5v-14.5h14.5Zm-14.04-.46h13.58V38.288h-13.58Z" transform="translate(-155.829 -14.611)" fill="#a4b0bc"/>
    <path id="Trazado_209723" data-name="Trazado 209723" d="M457.992,56.11a5.826,5.826,0,1,1,5.826-5.826,5.832,5.832,0,0,1-5.826,5.826m0-11.192a5.366,5.366,0,1,0,5.366,5.365,5.372,5.372,0,0,0-5.366-5.365" transform="translate(-174.654 -17.172)" fill="#a4b0bc"/>
    <path id="Trazado_209724" data-name="Trazado 209724" d="M430.339,92.809a3.537,3.537,0,1,1,3.537-3.536,3.541,3.541,0,0,1-3.537,3.536m0-6.613a3.076,3.076,0,1,0,3.077,3.077,3.08,3.08,0,0,0-3.077-3.077" transform="translate(-164.857 -33.116)" fill="#a4b0bc"/>
    <path id="Trazado_209725" data-name="Trazado 209725" d="M451.747,116.974a2.316,2.316,0,1,1,2.316-2.316,2.318,2.318,0,0,1-2.316,2.316m0-4.172a1.856,1.856,0,1,0,1.855,1.855,1.857,1.857,0,0,0-1.855-1.855" transform="translate(-173.598 -43.393)" fill="#a4b0bc"/>
    <path id="Trazado_209726" data-name="Trazado 209726" d="M484.964,55.832a.965.965,0,0,0-.9.635h-5.33L463.788,68.136a12.176,12.176,0,0,0-19.464-1.966L434.54,47.107h-3.962a.962.962,0,1,0,.1.46h3.575l9.735,18.967a12.172,12.172,0,0,0,.309,16.073L438.6,86.987l-7.469-.178a.968.968,0,1,0-.037.46l7.658.182,5.865-4.5a12.206,12.206,0,0,0,19.416-14.416l14.859-11.6h5.123a.965.965,0,1,0,.954-1.095" transform="translate(-165.61 -17.99)" fill="#a4b0bc"/>
    <path id="Trazado_209727" data-name="Trazado 209727" d="M165.93,77.173H150.208V71.131H165.93Zm-15.261-.46h14.8V71.591h-14.8Z" transform="translate(-58.02 -27.475)" fill="#a4b0bc"/>
    <path id="Trazado_209728" data-name="Trazado 209728" d="M152.867,86.267H116.39V80.225h36.477Zm-36.017-.46h35.556V80.685H116.85Z" transform="translate(-44.957 -30.988)" fill="#a4b0bc"/>
    <path id="Trazado_209729" data-name="Trazado 209729" d="M152.867,95.361H116.39V89.319h36.477ZM116.85,94.9h35.556V89.779H116.85Z" transform="translate(-44.957 -34.5)" fill="#a4b0bc"/>
    <path id="Trazado_209730" data-name="Trazado 209730" d="M152.867,104.456H116.39V98.414h36.477ZM116.85,104h35.556V98.874H116.85Z" transform="translate(-44.957 -38.014)" fill="#a4b0bc"/>
    <path id="Trazado_209731" data-name="Trazado 209731" d="M143.71,113.55H116.39v-6.042h27.32Zm-26.86-.46h26.4v-5.121h-26.4Z" transform="translate(-44.957 -41.526)" fill="#a4b0bc"/>
    <path id="Trazado_209732" data-name="Trazado 209732" d="M152.867,122.644H116.39V116.6h36.477Zm-36.017-.46h35.556v-5.121H116.85Z" transform="translate(-44.957 -45.039)" fill="#a4b0bc"/>
    <path id="Trazado_209733" data-name="Trazado 209733" d="M147.984,131.738H116.391V125.7h31.593Zm-31.133-.46h30.673v-5.121H116.851Z" transform="translate(-44.957 -48.551)" fill="#a4b0bc"/>
    <rect id="Rectángulo_42339" data-name="Rectángulo 42339" width="3.052" height="3.052" transform="translate(103.33 45.09)" fill="#a4b0bc"/>
    <rect id="Rectángulo_42340" data-name="Rectángulo 42340" width="3.052" height="3.052" transform="translate(89.9 50.66)" fill="#a4b0bc"/>
    <rect id="Rectángulo_42341" data-name="Rectángulo 42341" width="3.052" height="3.052" transform="translate(98.371 61.953)" fill="#a4b0bc"/>
    <rect id="Rectángulo_42342" data-name="Rectángulo 42342" width="3.052" height="3.052" transform="translate(94.708 72.941)" fill="#a4b0bc"/>
    <rect id="Rectángulo_42343" data-name="Rectángulo 42343" width="18.55" height="1.138" transform="translate(114.531 33.435)" fill="#daa520"/>
    <rect id="Rectángulo_42344" data-name="Rectángulo 42344" width="24.914" height="1.138" transform="translate(114.531 36.469)" fill="#a4b0bc"/>
    <rect id="Rectángulo_42345" data-name="Rectángulo 42345" width="15.908" height="1.138" transform="translate(143.507 36.469)" fill="#a4b0bc"/>
    <path id="Trazado_209734" data-name="Trazado 209734" d="M227.862,64.366v.759h-1.625v-.759H200.511V65.5H238.83V64.366Z" transform="translate(-77.45 -24.862)" fill="#a4b0bc"/>
    <rect id="Rectángulo_42346" data-name="Rectángulo 42346" width="6.499" height="1.138" transform="translate(114.531 39.503)" fill="#91bfbf"/>
    <rect id="Rectángulo_42347" data-name="Rectángulo 42347" width="6.093" height="1.138" transform="translate(162.87 39.504)" fill="#a4b0bc"/>
    <rect id="Rectángulo_42348" data-name="Rectángulo 42348" width="50.378" height="1.138" transform="translate(114.531 42.538)" fill="#a4b0bc"/>
    <rect id="Rectángulo_42349" data-name="Rectángulo 42349" width="36.694" height="1.138" transform="translate(114.531 45.573)" fill="#a4b0bc"/>
    <rect id="Rectángulo_42350" data-name="Rectángulo 42350" width="15.301" height="1.138" transform="translate(153.662 45.573)" fill="#a4b0bc"/>
    <rect id="Rectángulo_42351" data-name="Rectángulo 42351" width="18.55" height="1.138" transform="translate(114.531 48.607)" fill="#daa520"/>
    <rect id="Rectángulo_42352" data-name="Rectángulo 42352" width="25.862" height="1.138" transform="translate(114.531 51.642)" fill="#a4b0bc"/>
    <rect id="Rectángulo_42353" data-name="Rectángulo 42353" width="25.997" height="1.138" transform="translate(142.966 51.642)" fill="#a4b0bc"/>
    <rect id="Rectángulo_42354" data-name="Rectángulo 42354" width="34.798" height="1.138" transform="translate(114.531 54.676)" fill="#a4b0bc"/>
    <rect id="Rectángulo_42355" data-name="Rectángulo 42355" width="11.124" height="1.138" transform="translate(151.496 54.676)" fill="#91bfbf"/>
    <rect id="Rectángulo_42356" data-name="Rectángulo 42356" width="54.432" height="1.138" transform="translate(114.531 57.71)" fill="#a4b0bc"/>
    <rect id="Rectángulo_42357" data-name="Rectángulo 42357" width="19.362" height="1.138" transform="translate(114.532 60.745)" fill="#a4b0bc"/>
    <rect id="Rectángulo_42358" data-name="Rectángulo 42358" width="12.232" height="1.138" transform="translate(154.204 60.745)" fill="#a4b0bc"/>
    <rect id="Rectángulo_42359" data-name="Rectángulo 42359" width="15.165" height="1.138" transform="translate(136.873 60.745)" fill="#a4b0bc"/>
    <rect id="Rectángulo_42360" data-name="Rectángulo 42360" width="18.55" height="1.138" transform="translate(114.531 63.78)" fill="#daa520"/>
    <rect id="Rectángulo_42361" data-name="Rectángulo 42361" width="27.487" height="1.138" transform="translate(114.531 66.814)" fill="#a4b0bc"/>
    <rect id="Rectángulo_42362" data-name="Rectángulo 42362" width="13.54" height="1.138" transform="translate(145.673 66.814)" fill="#a4b0bc"/>
    <rect id="Rectángulo_42363" data-name="Rectángulo 42363" width="8.666" height="1.138" transform="translate(160.297 66.814)" fill="#a4b0bc"/>
    <rect id="Rectángulo_42364" data-name="Rectángulo 42364" width="13.134" height="1.138" transform="translate(114.531 69.849)" fill="#a4b0bc"/>
    <rect id="Rectángulo_42365" data-name="Rectángulo 42365" width="33.724" height="1.138" transform="translate(131.185 69.849)" fill="#a4b0bc"/>
    <rect id="Rectángulo_42366" data-name="Rectángulo 42366" width="15.436" height="1.138" transform="translate(153.527 72.883)" fill="#a4b0bc"/>
    <rect id="Rectángulo_42367" data-name="Rectángulo 42367" width="37.506" height="1.138" transform="translate(114.532 72.883)" fill="#a4b0bc"/>
    <rect id="Rectángulo_42368" data-name="Rectángulo 42368" width="23.695" height="1.138" transform="translate(114.531 75.918)" fill="#a4b0bc"/>
    <rect id="Rectángulo_42369" data-name="Rectángulo 42369" width="10.155" height="1.138" transform="translate(141.882 75.918)" fill="#91bfbf"/>
    <rect id="Rectángulo_42370" data-name="Rectángulo 42370" width="5.888" height="1.138" transform="translate(153.527 75.918)" fill="#a4b0bc"/>
    <rect id="Rectángulo_42371" data-name="Rectángulo 42371" width="18.55" height="1.138" transform="translate(114.531 78.953)" fill="#daa520"/>
    <rect id="Rectángulo_42372" data-name="Rectángulo 42372" width="27.487" height="1.138" transform="translate(114.531 81.987)" fill="#a4b0bc"/>
    <rect id="Rectángulo_42373" data-name="Rectángulo 42373" width="23.018" height="1.138" transform="translate(145.945 81.987)" fill="#a4b0bc"/>
    <rect id="Rectángulo_42374" data-name="Rectángulo 42374" width="4.739" height="1.138" transform="translate(114.531 85.021)" fill="#a4b0bc"/>
    <rect id="Rectángulo_42375" data-name="Rectángulo 42375" width="6.905" height="1.138" transform="translate(122.114 85.021)" fill="#a4b0bc"/>
    <rect id="Rectángulo_42376" data-name="Rectángulo 42376" width="32.725" height="1.138" transform="translate(131.727 85.021)" fill="#a4b0bc"/>
    <rect id="Rectángulo_42377" data-name="Rectángulo 42377" width="11.238" height="1.138" transform="translate(114.532 88.056)" fill="#a4b0bc"/>
    <rect id="Rectángulo_42378" data-name="Rectángulo 42378" width="21.394" height="1.138" transform="translate(127.53 88.056)" fill="#a4b0bc"/>
    <rect id="Rectángulo_42379" data-name="Rectángulo 42379" width="16.519" height="1.138" transform="translate(152.444 88.056)" fill="#a4b0bc"/>
    <rect id="Rectángulo_42380" data-name="Rectángulo 42380" width="17.873" height="1.138" transform="translate(114.531 91.09)" fill="#a4b0bc"/>
    <rect id="Rectángulo_42381" data-name="Rectángulo 42381" width="25.591" height="1.138" transform="translate(137.956 91.09)" fill="#a4b0bc"/>
    <rect id="Rectángulo_42382" data-name="Rectángulo 42382" width="3.791" height="1.138" transform="translate(165.172 91.09)" fill="#91bfbf"/>
    <path id="Trazado_209735" data-name="Trazado 209735" d="M398.281,398.455H302.236l5.352-15.379h85.34Z" transform="translate(-116.742 -147.967)" fill="#2f3044"/>
    <path id="Trazado_209736" data-name="Trazado 209736" d="M398.935,335.2H306.922l.149,43.6h91.715Z" transform="translate(-118.552 -129.474)" fill="#a4b0bc"/>
    <rect id="Rectángulo_42383" data-name="Rectángulo 42383" width="12.209" height="43.601" transform="translate(196.279 205.723)" fill="#fff"/>
    <path id="Trazado_209737" data-name="Trazado 209737" d="M396.138,376.268H313.107a1.677,1.677,0,0,1-1.673-1.665l-.126-26.6a1.672,1.672,0,0,1,1.672-1.68h83.284a1.673,1.673,0,0,1,1.672,1.68l-.126,26.6a1.676,1.676,0,0,1-1.672,1.665M312.98,346.782A1.212,1.212,0,0,0,311.768,348l.126,26.6a1.215,1.215,0,0,0,1.213,1.207h83.031a1.215,1.215,0,0,0,1.212-1.207l.126-26.6a1.212,1.212,0,0,0-1.212-1.218Z" transform="translate(-120.246 -133.771)" fill="#2f3044"/>
    <path id="Trazado_209738" data-name="Trazado 209738" d="M398.935,335.2H306.922l.149,5.55h91.715Z" transform="translate(-118.552 -129.474)" fill="#2f3044"/>
    <path id="Trazado_209739" data-name="Trazado 209739" d="M352.473,349.525a.916.916,0,1,1-.916-.916.916.916,0,0,1,.916.916" transform="translate(-135.439 -134.654)" fill="#fff"/>
    <path id="Trazado_209740" data-name="Trazado 209740" d="M359.27,349.525a.916.916,0,1,1-.916-.916.916.916,0,0,1,.916.916" transform="translate(-138.065 -134.654)" fill="#fff"/>
    <path id="Trazado_209741" data-name="Trazado 209741" d="M352.473,355.492a.916.916,0,1,1-.916-.916.916.916,0,0,1,.916.916" transform="translate(-135.439 -136.959)" fill="#fff"/>
    <path id="Trazado_209742" data-name="Trazado 209742" d="M359.27,355.492a.916.916,0,1,1-.916-.916.916.916,0,0,1,.916.916" transform="translate(-138.065 -136.959)" fill="#fff"/>
    <path id="Trazado_209743" data-name="Trazado 209743" d="M352.473,361.46a.916.916,0,1,1-.916-.916.916.916,0,0,1,.916.916" transform="translate(-135.439 -139.264)" fill="#fff"/>
    <path id="Trazado_209744" data-name="Trazado 209744" d="M359.27,361.46a.916.916,0,1,1-.916-.916.916.916,0,0,1,.916.916" transform="translate(-138.065 -139.264)" fill="#fff"/>
    <path id="Trazado_209745" data-name="Trazado 209745" d="M400.224,335.2H301.256l.16,2.891h98.647Z" transform="translate(-116.363 -129.474)" fill="#a4b0bc"/>
    <path id="Trazado_209746" data-name="Trazado 209746" d="M400.224,318.865H301.256l15.234-25.95h68.5Z" transform="translate(-116.363 -113.142)" fill="#2f3044"/>
    <path id="Trazado_209747" data-name="Trazado 209747" d="M332.488,318.277l-.589-.175,7.671-25.794.589.176-.173.582Z" transform="translate(-128.2 -112.907)" fill="#a4b0bc"/>
    <path id="Trazado_209748" data-name="Trazado 209748" d="M428.819,318.277l-7.671-25.793.589-.176.173.584,7.5,25.21Z" transform="translate(-162.673 -112.907)" fill="#a4b0bc"/>
    <path id="Trazado_209749" data-name="Trazado 209749" d="M111.373,319.254h1.256l6.557-119.877H117.93Z" transform="translate(-43.019 -77.012)" fill="#2f3044"/>
    <path id="Trazado_209750" data-name="Trazado 209750" d="M33.163,319.254h1.256l6.557-119.877H39.72Z" transform="translate(-12.81 -77.012)" fill="#2f3044"/>
    <path id="Trazado_209751" data-name="Trazado 209751" d="M52.262,319.254H51.006L44.449,199.377h1.256Z" transform="translate(-17.169 -77.012)" fill="#2f3044"/>
    <path id="Trazado_209752" data-name="Trazado 209752" d="M130.473,319.254h-1.256L122.66,199.377h1.256Z" transform="translate(-47.379 -77.012)" fill="#2f3044"/>
    <path id="Trazado_209753" data-name="Trazado 209753" d="M98.906,280.812H45.627l-4.275-78.158H94.631Z" transform="translate(-15.973 -78.277)" fill="#ad801c"/>
    <path id="Trazado_209754" data-name="Trazado 209754" d="M53.265,212.166l.819,62.527s20.908,2.747,29.455,1.526a98.884,98.884,0,0,1,14.8-1.069l-6.715-61.808Z" transform="translate(-20.574 -81.951)" fill="#2f3044"/>
    <path id="Trazado_209755" data-name="Trazado 209755" d="M53.265,212.166H95.079s-.505,50.8,5.757,58.985A34.806,34.806,0,0,0,86.8,272.665c-7.373,2.424-28.684,1.212-28.684,1.212s-3.737-10.1-3.838-17.069-1.01-44.642-1.01-44.642" transform="translate(-20.574 -81.951)" fill="#f2ebdd"/>
    <path id="Trazado_209756" data-name="Trazado 209756" d="M438.012,208.671H269.742a4.928,4.928,0,0,1-4.928-4.929V109.924A4.928,4.928,0,0,1,269.742,105H438.012a4.929,4.929,0,0,1,4.929,4.928v93.818a4.929,4.929,0,0,1-4.929,4.929" transform="translate(-102.287 -40.556)" fill="#fff"/>
    <path id="Trazado_209757" data-name="Trazado 209757" d="M437.739,208.832H269.469a5.369,5.369,0,0,1-5.362-5.362V109.652a5.368,5.368,0,0,1,5.362-5.362h168.27a5.367,5.367,0,0,1,5.361,5.362V203.47a5.368,5.368,0,0,1-5.361,5.362M269.469,105.157a4.5,4.5,0,0,0-4.5,4.5V203.47a4.5,4.5,0,0,0,4.5,4.5h168.27a4.5,4.5,0,0,0,4.494-4.5V109.652a4.5,4.5,0,0,0-4.494-4.5Z" transform="translate(-102.014 -40.283)" fill="#a4b0bc"/>
    <rect id="Rectángulo_42384" data-name="Rectángulo 42384" width="174.878" height="92.89" transform="translate(164.151 69.659)" fill="#a4b0bc"/>
    <rect id="Rectángulo_42385" data-name="Rectángulo 42385" width="173.951" height="5.799" transform="translate(164.356 71.693)" fill="#faebd7"/>
    <path id="Trazado_209758" data-name="Trazado 209758" d="M291.3,159.471H275.35a1.078,1.078,0,0,1-1.078-1.078V132.962a1.078,1.078,0,0,1,1.078-1.078H291.3a1.078,1.078,0,0,1,1.078,1.078v25.431a1.078,1.078,0,0,1-1.078,1.078" transform="translate(-105.941 -50.942)" fill="#faebd7"/>
    <path id="Trazado_209759" data-name="Trazado 209759" d="M292.376,135.87v-2.91a1.078,1.078,0,0,0-1.078-1.078H275.35a1.078,1.078,0,0,0-1.078,1.078v2.91Z" transform="translate(-105.941 -50.941)" fill="#fff"/>
    <path id="Trazado_209760" data-name="Trazado 209760" d="M291.3,208.459H275.35a1.078,1.078,0,0,1-1.078-1.078V181.949a1.077,1.077,0,0,1,1.078-1.077H291.3a1.077,1.077,0,0,1,1.078,1.077v25.432a1.078,1.078,0,0,1-1.078,1.078" transform="translate(-105.941 -69.864)" fill="#faebd7"/>
    <path id="Trazado_209761" data-name="Trazado 209761" d="M292.376,184.858v-2.91a1.078,1.078,0,0,0-1.078-1.078H275.35a1.078,1.078,0,0,0-1.078,1.078v2.91Z" transform="translate(-105.941 -69.863)" fill="#fff"/>
    <rect id="Rectángulo_42386" data-name="Rectángulo 42386" width="112.613" height="72.989" transform="translate(194.653 82)" fill="#faebd7"/>
    <rect id="Rectángulo_42387" data-name="Rectángulo 42387" width="45.781" height="2.922" transform="translate(201.146 93.346)" fill="#fff"/>
    <rect id="Rectángulo_42388" data-name="Rectángulo 42388" width="45.979" height="0.65" transform="translate(201.047 98.715)" fill="#2f3044"/>
    <rect id="Rectángulo_42389" data-name="Rectángulo 42389" width="45.979" height="0.65" transform="translate(201.047 102.087)" fill="#2f3044"/>
    <rect id="Rectángulo_42390" data-name="Rectángulo 42390" width="45.781" height="2.922" transform="translate(201.146 108.405)" fill="#fff"/>
    <rect id="Rectángulo_42391" data-name="Rectángulo 42391" width="45.979" height="0.65" transform="translate(201.047 113.775)" fill="#2f3044"/>
    <rect id="Rectángulo_42392" data-name="Rectángulo 42392" width="45.979" height="0.65" transform="translate(201.047 117.146)" fill="#2f3044"/>
    <rect id="Rectángulo_42393" data-name="Rectángulo 42393" width="45.781" height="2.922" transform="translate(201.146 123.465)" fill="#fff"/>
    <rect id="Rectángulo_42394" data-name="Rectángulo 42394" width="45.979" height="0.65" transform="translate(201.047 128.834)" fill="#2f3044"/>
    <rect id="Rectángulo_42395" data-name="Rectángulo 42395" width="45.979" height="0.65" transform="translate(201.047 132.205)" fill="#2f3044"/>
    <rect id="Rectángulo_42396" data-name="Rectángulo 42396" width="45.781" height="2.922" transform="translate(201.146 138.525)" fill="#fff"/>
    <rect id="Rectángulo_42397" data-name="Rectángulo 42397" width="45.979" height="0.65" transform="translate(201.047 143.894)" fill="#2f3044"/>
    <rect id="Rectángulo_42398" data-name="Rectángulo 42398" width="45.979" height="0.65" transform="translate(201.047 147.265)" fill="#2f3044"/>
    <rect id="Rectángulo_42399" data-name="Rectángulo 42399" width="12.304" height="2.922" transform="translate(290.731 93.346)" fill="#fff"/>
    <rect id="Rectángulo_42400" data-name="Rectángulo 42400" width="12.357" height="0.65" transform="translate(290.705 98.715)" fill="#2f3044"/>
    <rect id="Rectángulo_42401" data-name="Rectángulo 42401" width="12.357" height="0.65" transform="translate(290.705 102.087)" fill="#2f3044"/>
    <rect id="Rectángulo_42402" data-name="Rectángulo 42402" width="12.304" height="2.922" transform="translate(290.731 108.405)" fill="#fff"/>
    <rect id="Rectángulo_42403" data-name="Rectángulo 42403" width="12.357" height="0.65" transform="translate(290.705 113.775)" fill="#2f3044"/>
    <rect id="Rectángulo_42404" data-name="Rectángulo 42404" width="12.357" height="0.65" transform="translate(290.705 117.146)" fill="#2f3044"/>
    <rect id="Rectángulo_42405" data-name="Rectángulo 42405" width="12.304" height="2.922" transform="translate(290.731 123.465)" fill="#fff"/>
    <rect id="Rectángulo_42406" data-name="Rectángulo 42406" width="12.357" height="0.65" transform="translate(290.705 128.834)" fill="#2f3044"/>
    <rect id="Rectángulo_42407" data-name="Rectángulo 42407" width="12.357" height="0.65" transform="translate(290.705 132.205)" fill="#2f3044"/>
    <rect id="Rectángulo_42408" data-name="Rectángulo 42408" width="12.304" height="2.922" transform="translate(290.731 138.525)" fill="#fff"/>
    <rect id="Rectángulo_42409" data-name="Rectángulo 42409" width="12.357" height="0.65" transform="translate(290.705 143.894)" fill="#2f3044"/>
    <rect id="Rectángulo_42410" data-name="Rectángulo 42410" width="12.357" height="0.65" transform="translate(290.705 147.265)" fill="#2f3044"/>
    <rect id="Rectángulo_42411" data-name="Rectángulo 42411" width="112.613" height="4.309" transform="translate(194.653 82)" fill="#3e6665"/>
    <path id="Trazado_209762" data-name="Trazado 209762" d="M161.6,222.595h-27.35a1.157,1.157,0,0,1-1.158-1.157V175.664a1.157,1.157,0,0,1,1.158-1.157H161.6a1.157,1.157,0,0,1,1.157,1.157v45.774a1.157,1.157,0,0,1-1.157,1.157" transform="translate(-51.407 -67.405)" fill="#a4b0bc"/>
    <path id="Trazado_209763" data-name="Trazado 209763" d="M133.089,245.938v3.091a1.157,1.157,0,0,0,1.157,1.157H161.6a1.157,1.157,0,0,0,1.157-1.157v-3.091Z" transform="translate(-51.407 -94.996)" fill="#edc6a4"/>
    <path id="Trazado_209764" data-name="Trazado 209764" d="M162.753,178.048v-2.384a1.157,1.157,0,0,0-1.157-1.157h-27.35a1.157,1.157,0,0,0-1.157,1.157v2.384Z" transform="translate(-51.407 -67.405)" fill="#edc6a4"/>
    <path id="Trazado_209765" data-name="Trazado 209765" d="M147.533,204.931h-9.592V193.94h9.592Zm-8.979-.614h8.365v-9.764h-8.365Z" transform="translate(-53.281 -74.911)" fill="#faebd7"/>
    <path id="Trazado_209766" data-name="Trazado 209766" d="M137.94,188.66h9.592v-5.04H137.94Zm.643-4.426,3.823,1.83-3.852,1.844v-3.674Zm.711,0h6.935l-3.467,1.66Zm3.468,2,3.786,1.812h-7.572Zm.356-.17,3.8-1.82v3.639Z" transform="translate(-53.281 -70.925)" fill="#faebd7"/>
    <path id="Trazado_209767" data-name="Trazado 209767" d="M222.767,208.172h-27.35a1.157,1.157,0,0,1-1.157-1.157V161.241a1.157,1.157,0,0,1,1.157-1.157h27.35a1.157,1.157,0,0,1,1.157,1.157v45.774a1.157,1.157,0,0,1-1.157,1.157" transform="translate(-75.035 -61.834)" fill="#a4b0bc"/>
    <path id="Trazado_209768" data-name="Trazado 209768" d="M194.26,231.515v3.091a1.157,1.157,0,0,0,1.157,1.157h27.35a1.157,1.157,0,0,0,1.157-1.157v-3.091Z" transform="translate(-75.035 -89.425)" fill="#edc6a4"/>
    <path id="Trazado_209769" data-name="Trazado 209769" d="M223.924,163.625v-2.384a1.157,1.157,0,0,0-1.157-1.157h-27.35a1.157,1.157,0,0,0-1.157,1.157v2.384Z" transform="translate(-75.035 -61.834)" fill="#edc6a4"/>
    <path id="Trazado_209770" data-name="Trazado 209770" d="M213.781,182.359H228.41v-11.3H213.781Zm14.015-5.191h-8.773v-5.417h-.307v5.5h.077v.225h9v4.27h-13.4V171.677h13.4Z" transform="translate(-82.575 -66.075)" fill="#faebd7"/>
    <path id="Trazado_209771" data-name="Trazado 209771" d="M226.778,202.873H209.555v-11.3h17.223Zm-16.61-.614h16V192.191h-16Z" transform="translate(-80.943 -73.999)" fill="#faebd7"/>
    <path id="Trazado_209772" data-name="Trazado 209772" d="M216.868,199.057h-4.122v-4.122h4.122Zm-3.816-.307h3.509v-3.509h-3.509Z" transform="translate(-82.176 -75.296)" fill="#faebd7"/>
    <path id="Trazado_209773" data-name="Trazado 209773" d="M210.922,226.58h16.384v-5.04H210.922Zm8.447-4.426h3.356v3.813h-3.356Zm-7.833,0h7.526v3.813h-7.526Zm15.156,3.812h-3.66v-3.813h3.66Z" transform="translate(-81.471 -85.572)" fill="#faebd7"/>
    <path id="Trazado_209774" data-name="Trazado 209774" d="M187.457,191.761h-27.35a1.157,1.157,0,0,1-1.157-1.157V144.83a1.157,1.157,0,0,1,1.157-1.157h27.35a1.157,1.157,0,0,1,1.157,1.157V190.6a1.157,1.157,0,0,1-1.157,1.157" transform="translate(-61.396 -55.495)" fill="#faebd7"/>
    <path id="Trazado_209775" data-name="Trazado 209775" d="M158.95,215.1v3.091a1.157,1.157,0,0,0,1.157,1.157h27.35a1.157,1.157,0,0,0,1.157-1.157V215.1Z" transform="translate(-61.396 -83.086)" fill="#edc6a4"/>
    <path id="Trazado_209776" data-name="Trazado 209776" d="M188.614,147.214V144.83a1.157,1.157,0,0,0-1.157-1.157h-27.35a1.157,1.157,0,0,0-1.157,1.157v2.384Z" transform="translate(-61.396 -55.495)" fill="#edc6a4"/>
    <path id="Trazado_209777" data-name="Trazado 209777" d="M163.013,164.621h24.32v-11.3h-24.32Zm23.706-.614H163.627V153.939h23.093Z" transform="translate(-62.966 -59.223)" fill="#a4b0bc"/>
    <path id="Trazado_209778" data-name="Trazado 209778" d="M178.8,184.638h14.628v-11.3H178.8ZM186.495,179l6.323-4.708v9.518Zm5.845,5.025h-12.6l6.366-4.739Zm-6.226-5.316-6.247-4.753H192.5Zm-.384.286-6.313,4.7v-9.5Z" transform="translate(-69.065 -66.955)" fill="#a4b0bc"/>
    <path id="Trazado_209779" data-name="Trazado 209779" d="M163.013,184.638h8.524v-11.3h-8.524Zm.614-10.683h7.3v10.069h-7.3Z" transform="translate(-62.966 -66.955)" fill="#a4b0bc"/>
    <path id="Trazado_209780" data-name="Trazado 209780" d="M97.212,239.739A14.85,14.85,0,1,0,75.88,253.1a4.72,4.72,0,0,1,2.651,4.248V260.3h7.662V257.35a4.7,4.7,0,0,1,2.624-4.236,14.847,14.847,0,0,0,8.4-13.375" transform="translate(-26.077 -86.866)" fill="#daa520"/>
    <path id="Trazado_209781" data-name="Trazado 209781" d="M71.012,258.273a14.914,14.914,0,0,0,6.219,5.668,4.721,4.721,0,0,1,2.652,4.248v2.948h7.661V268.19a4.7,4.7,0,0,1,2.624-4.235,14.915,14.915,0,0,0,6.247-5.682c-9.055-7.34-17.482-6.837-25.4,0" transform="translate(-27.429 -97.707)" fill="#ffd255"/>
    <path id="Trazado_209782" data-name="Trazado 209782" d="M86.621,259.76h-.29v-2.747a4.539,4.539,0,0,1,2.527-4.078A13.779,13.779,0,0,0,96.6,240.6a13.695,13.695,0,0,0-14.23-13.685A13.7,13.7,0,0,0,70.233,245.8l-.269.11A13.986,13.986,0,1,1,96.891,240.6a14.071,14.071,0,0,1-7.906,12.6,4.247,4.247,0,0,0-2.364,3.816Z" transform="translate(-26.622 -87.533)" fill="#fff"/>
    <path id="Trazado_209783" data-name="Trazado 209783" d="M90.035,254.659a.108.108,0,0,1-.109-.109v-9.318a.109.109,0,0,1,.217,0v9.318a.108.108,0,0,1-.109.109" transform="translate(-34.735 -94.682)" fill="#2f3044"/>
    <path id="Trazado_209784" data-name="Trazado 209784" d="M93.5,254.659a.108.108,0,0,1-.109-.109v-9.318a.109.109,0,0,1,.217,0v9.318a.108.108,0,0,1-.109.109" transform="translate(-36.075 -94.682)" fill="#2f3044"/>
    <path id="Trazado_209785" data-name="Trazado 209785" d="M92.288,271.753a.108.108,0,0,1-.109-.109V261.056a1.213,1.213,0,0,0-.328-.918,1.412,1.412,0,0,0-1.029-.438h-.029a1.357,1.357,0,0,0-1.356,1.356v10.588a.109.109,0,1,1-.217,0V261.056a1.575,1.575,0,0,1,1.573-1.573h.03a1.63,1.63,0,0,1,1.187.506,1.422,1.422,0,0,1,.386,1.074v10.581a.108.108,0,0,1-.109.109" transform="translate(-34.463 -100.228)" fill="#2f3044"/>
    <path id="Trazado_209786" data-name="Trazado 209786" d="M90.322,262.188a.64.64,0,0,0,.581-.1,1.615,1.615,0,0,0,.4-.458,1.636,1.636,0,0,0,.312-.746.583.583,0,0,0-.957-.56,2.2,2.2,0,0,0-.7,1.21.647.647,0,0,0,.358.655" transform="translate(-34.749 -100.498)" fill="#fff"/>
    <path id="Trazado_209787" data-name="Trazado 209787" d="M91.819,295.336h-2.9l-.677-1.693H92.5Z" transform="translate(-34.084 -113.423)" fill="#2f3044"/>
    <path id="Trazado_209788" data-name="Trazado 209788" d="M91.639,288.405h-5.3a1.669,1.669,0,0,1-1.669-1.669v-8.344h8.634v8.344a1.669,1.669,0,0,1-1.669,1.669" transform="translate(-32.706 -107.532)" fill="#a4b0bc"/>
    <path id="Trazado_209789" data-name="Trazado 209789" d="M84.585,281.252a.109.109,0,0,1-.012-.217l8.706-.968a.107.107,0,0,1,.12.1.109.109,0,0,1-.1.12l-8.706.967h-.012" transform="translate(-32.63 -108.179)" fill="#2f3044"/>
    <path id="Trazado_209790" data-name="Trazado 209790" d="M84.585,283.695a.109.109,0,0,1-.012-.217l8.706-.968a.107.107,0,0,1,.12.1.108.108,0,0,1-.1.12l-8.706.968h-.012" transform="translate(-32.63 -109.122)" fill="#2f3044"/>
    <path id="Trazado_209791" data-name="Trazado 209791" d="M84.585,286.138a.109.109,0,0,1-.012-.217l8.706-.968a.107.107,0,0,1,.12.1.109.109,0,0,1-.1.12l-8.706.967h-.012" transform="translate(-32.63 -110.066)" fill="#2f3044"/>
    <path id="Trazado_209792" data-name="Trazado 209792" d="M84.585,288.582a.109.109,0,0,1-.012-.217l8.706-.968a.106.106,0,0,1,.12.1.108.108,0,0,1-.1.12l-8.706.968h-.012" transform="translate(-32.63 -111.01)" fill="#2f3044"/>
    <path id="Trazado_209793" data-name="Trazado 209793" d="M448.156,171.065a5.747,5.747,0,0,1,2.117,2.734l3.371-2.9a6.3,6.3,0,0,1-2.028-3.05,15.382,15.382,0,0,0-1.481-3.4,1.1,1.1,0,0,0-.531-.471,2.381,2.381,0,0,0-.614-.028,2.463,2.463,0,0,1-1.283-.6l-4.345-3.185c-.595,1.092.551,1.634,2.467,3.341a1.37,1.37,0,0,0-1.14,1,3.682,3.682,0,0,1,.023,1.221c-.107.327-.4.649-.261.964.077.174.271.275.355.446.117.238-.01.517-.023.781a1.813,1.813,0,0,0,.559,1.166,5.517,5.517,0,0,0,1.472,1.384c.427.238.912.358,1.342.593" transform="translate(-171.193 -61.866)" fill="#e2957d"/>
    <path id="Trazado_209794" data-name="Trazado 209794" d="M448.965,171.223a.727.727,0,0,0-.065-1.34.842.842,0,0,0-.167-.721,3.919,3.919,0,0,1-.427-.636.6.6,0,0,1,.117-.7.972.972,0,0,0,.6,1.044,2.557,2.557,0,0,0,1.286.129.443.443,0,0,1,.34.063c.152.137.047.38.02.582a1.321,1.321,0,0,0,.373.916,1.476,1.476,0,0,1,.415.9l-1.274,1.049a.79.79,0,0,1-.243.155c-.346.115-.715-.265-1.06-.148a.739.739,0,0,0,.085-1.295" transform="translate(-173.14 -64.824)" fill="#d37d66"/>
    <path id="Trazado_209795" data-name="Trazado 209795" d="M487.546,201.865a5.078,5.078,0,0,0,3.15-1.4,3.808,3.808,0,0,0,1.107-3.2c-.294-1.857-2.043-3.091-3.7-3.981-2.621-1.406-5.392-2.507-8.1-3.727a98.552,98.552,0,0,1-24.668-15.37c-1.09,1.118-2.629,2.6-3.719,3.719,7.994,9.354,16.933,17.494,28.526,21.149,2.573.811,4.721,3.057,7.408,2.818" transform="translate(-174.44 -67.279)" fill="#91bfbf"/>
    <path id="Trazado_209796" data-name="Trazado 209796" d="M481.362,189.158l.171-.431a76.377,76.377,0,0,1-23.83-15.049l-.315.34a76.845,76.845,0,0,0,23.973,15.14" transform="translate(-176.672 -67.085)" fill="#fff"/>
    <rect id="Rectángulo_42412" data-name="Rectángulo 42412" width="0.464" height="2.997" transform="matrix(0.82, -0.573, 0.573, 0.82, 291.477, 121.918)" fill="#2f3044"/>
    <path id="Trazado_209797" data-name="Trazado 209797" d="M437.209,217.984h22.912a.933.933,0,0,0,.915-1.115l-2.811-14.191a.933.933,0,0,0-.916-.752H434.4a.933.933,0,0,0-.915,1.115l2.811,14.191a.933.933,0,0,0,.916.752" transform="translate(-167.431 -77.997)" fill="#2f3044"/>
    <path id="Trazado_209798" data-name="Trazado 209798" d="M437.221,217.215l-2.464-12.439h23.515l2.464,12.439Z" transform="translate(-167.93 -79.097)" fill="#ffd255"/>
    <rect id="Rectángulo_42413" data-name="Rectángulo 42413" width="29.639" height="1.391" transform="translate(268.853 139.456)" fill="#2f3044"/>
    <path id="Trazado_209799" data-name="Trazado 209799" d="M502.2,379.26c3.107.389,6.611-.781,9.711-.342.993.141,1.949.471,2.932.667a5.039,5.039,0,0,0,2.958-.144,3.063,3.063,0,0,1,.13,1.688c-1.138.975-3.018.661-4.348.851-1.521.217-2.966-.9-4.5-.956-2.21-.084-4.521.951-6.563.1a2.955,2.955,0,0,1-.32-1.868" transform="translate(-193.973 -146.323)" fill="#2f3044"/>
    <path id="Trazado_209800" data-name="Trazado 209800" d="M502.2,378.245c3.107.389,6.611-.781,9.711-.342.993.141,1.949.471,2.932.667a5.039,5.039,0,0,0,2.958-.144,3.063,3.063,0,0,1,.13,1.688,4.874,4.874,0,0,1-4.348.851,29.7,29.7,0,0,0-4.5-.956c-2.21-.084-4.521.951-6.563.1a2.955,2.955,0,0,1-.32-1.868" transform="translate(-193.973 -145.93)" fill="#2f3044"/>
    <path id="Trazado_209801" data-name="Trazado 209801" d="M503.668,373.018c4.011-1.2,4.837-2.305,7.526-3.768l4.331-.484A5.844,5.844,0,0,0,516.8,371.3a7.256,7.256,0,0,1,1.065,2.333,3.2,3.2,0,0,1-.57,2.98c-.582.56-3.638.745-4.777.263-3.67-1.552-4.889.3-8.818-.382-.811-.14-1.544-.263-1.569-1.108a2.278,2.278,0,0,1,1.534-2.367" transform="translate(-193.954 -142.44)" fill="#3e6665"/>
    <path id="Trazado_209802" data-name="Trazado 209802" d="M510.008,373.983l-.16-.494a13.587,13.587,0,0,0,2.4-1.045c.364-.2.856-.525.909-.965l.516.063A2.008,2.008,0,0,1,512.5,372.9a13.957,13.957,0,0,1-2.492,1.086" transform="translate(-196.934 -143.488)" fill="#2f3044"/>
    <path id="Trazado_209803" data-name="Trazado 209803" d="M484.1,267.131l17.1-1.182c1.054,10.976,1.11,22.025,1.971,33.019s2.56,22.044,6.736,32.249c-2.052,1.222-5.732-.161-8.119-.192-9.874-20.736-15.025-41.08-17.684-63.893" transform="translate(-186.99 -102.726)" fill="#a4b0bc"/>
    <path id="Trazado_209804" data-name="Trazado 209804" d="M507.576,286.154l-.2-.092a2.813,2.813,0,0,1-1.765-1.693,4.8,4.8,0,0,1-.11-1.734c.1-1.6.233-3.215.4-4.8l.024-.237.238,0a4.73,4.73,0,0,0,3.076-1.89l.065.693a4.177,4.177,0,0,1-2.91,1.707c-.156,1.505-.281,3.037-.375,4.555a4.41,4.41,0,0,0,.087,1.547,2.157,2.157,0,0,0,1.282,1.281c.187-.27.406-.554.636-.851.783-1.012,1.8-2.4,1.778-3.539l.022,1.018c.026,1.32-.553,1.76-1.389,2.84-.277.358-.538.7-.735,1Z" transform="translate(-195.244 -106.497)" fill="#2f3044"/>
    <path id="Trazado_209805" data-name="Trazado 209805" d="M497.522,279.6a9.082,9.082,0,0,1,.409,5.336,18.4,18.4,0,0,1-1.972,5.042,2.976,2.976,0,0,1-.569.813,1.064,1.064,0,0,1-.911.3,30.9,30.9,0,0,0,3.044-11.49" transform="translate(-190.998 -108)" fill="#2f3044"/>
    <path id="Trazado_209806" data-name="Trazado 209806" d="M484.961,274.777a221.5,221.5,0,0,0,4.718,25.056c3.666-7.835,6.048-24.337-4.718-25.056" transform="translate(-187.322 -106.136)" fill="#2f3044"/>
    <path id="Trazado_209807" data-name="Trazado 209807" d="M508.552,343.77l.42-.194a181.074,181.074,0,0,1-14.1-45.369l-.457.079a181.522,181.522,0,0,0,14.138,45.484" transform="translate(-190.973 -115.186)" fill="#2f3044"/>
    <path id="Trazado_209808" data-name="Trazado 209808" d="M457.7,379.471c-.058.467.008,1.194-.426,1.376a6.115,6.115,0,0,1-1.766.241,33.66,33.66,0,0,1-11-1.8,4.475,4.475,0,0,1-1.811-.937,1.712,1.712,0,0,1-.468-1.871,82.363,82.363,0,0,0,13.33,2.3,3.331,3.331,0,0,1,2.135.7" transform="translate(-170.772 -145.418)" fill="#2f3044"/>
    <path id="Trazado_209809" data-name="Trazado 209809" d="M457.7,378.456c-.058.467.008,1.194-.426,1.376a6.114,6.114,0,0,1-1.766.241,33.66,33.66,0,0,1-11-1.8,4.474,4.474,0,0,1-1.811-.937,1.712,1.712,0,0,1-.468-1.871,82.363,82.363,0,0,0,13.33,2.3,3.331,3.331,0,0,1,2.135.7" transform="translate(-170.772 -145.026)" fill="#2f3044"/>
    <path id="Trazado_209810" data-name="Trazado 209810" d="M442.42,371.637a1.391,1.391,0,0,1,.815-.413c4.8-.35,5.539-1.221,9.012-3.812l5.829,2.235a5.774,5.774,0,0,0-.044,3.024,4.856,4.856,0,0,1-.239,2.99c-.351,1.2-2.224.975-3.465.827a49.914,49.914,0,0,1-10.076-1.909,3.8,3.8,0,0,1-1.793-1.036,1.451,1.451,0,0,1-.039-1.906" transform="translate(-170.758 -141.917)" fill="#3e6665"/>
    <path id="Trazado_209811" data-name="Trazado 209811" d="M450.117,372.475l-.16-.495a11.441,11.441,0,0,0,4.185-2.439.351.351,0,0,1,.4-.088l.155.072.013.2a.306.306,0,0,1-.191.278l-.163.062-.012-.011a11.983,11.983,0,0,1-4.228,2.418" transform="translate(-173.801 -142.694)" fill="#2f3044"/>
    <path id="Trazado_209812" data-name="Trazado 209812" d="M457.523,330.927a6.6,6.6,0,0,1-.517-4.244c2.1-20.774,4.231-41.732,10.647-61.6A49.354,49.354,0,0,0,484.6,269.43c.309,8.969-5.552,17.112-9.468,25.283a125.428,125.428,0,0,0-11.228,37.8c-2.291.444-5.126.382-6.38-1.585" transform="translate(-176.482 -102.391)" fill="#a4b0bc"/>
    <path id="Trazado_209813" data-name="Trazado 209813" d="M485.791,289.741a2.947,2.947,0,0,1-1.877-.988,4.619,4.619,0,0,1-1.772-2.758,4.781,4.781,0,0,1,.308-1.854l1.5-4.834.224.037c.792.131,1.537.325,2.257.513a13.68,13.68,0,0,0,3.485.594,7.352,7.352,0,0,0,.775-.041l1.352-.107-.018.3a11.4,11.4,0,0,1-4.941,8.651,2.52,2.52,0,0,1-1.142.481,1.461,1.461,0,0,1-.146.007m-1.483-9.845-1.362,4.4a4.311,4.311,0,0,0-.287,1.65,4.139,4.139,0,0,0,1.6,2.426,2.369,2.369,0,0,0,1.625.846,2.094,2.094,0,0,0,.9-.4,10.876,10.876,0,0,0,4.688-7.952l-.744.058a7.5,7.5,0,0,1-.822.044,14.08,14.08,0,0,1-3.617-.611c-.64-.167-1.3-.339-1.987-.465" transform="translate(-186.228 -107.885)" fill="#2f3044"/>
    <path id="Trazado_209814" data-name="Trazado 209814" d="M458.724,333.3c1.194-5.97,2.2-12.036,3.169-17.9,2.44-14.743,4.963-29.989,10.669-44.235l-.43-.173c-5.726,14.294-8.252,29.565-10.7,44.333-.97,5.862-1.973,11.924-3.166,17.887Z" transform="translate(-177.012 -104.672)" fill="#2f3044"/>
    <path id="Trazado_209815" data-name="Trazado 209815" d="M496.763,190.96a26.647,26.647,0,0,0,7.148.439,37.649,37.649,0,0,0,2.4,10.151,38.979,38.979,0,0,0-12.118,1.5c.629-3.921,1.939-8.169,2.568-12.091" transform="translate(-190.888 -73.76)" fill="#e2957d"/>
    <path id="Trazado_209816" data-name="Trazado 209816" d="M502.254,191.446c-.95,2.341-3.006,3.366-5.263,3.716.328-1.421.632-2.832.852-4.2a19.364,19.364,0,0,0,4.411.486" transform="translate(-191.968 -73.76)" fill="#2f3044"/>
    <path id="Trazado_209817" data-name="Trazado 209817" d="M507.119,174.562a7.137,7.137,0,0,0-4.065-4.974c-1.993-.988-2.439-.768-4.652-.994l-2.35,2.325a6.572,6.572,0,0,0-.684,1.58l-3.536,1.812a.9.9,0,0,0-.477.416.617.617,0,0,0,.083.534,13.13,13.13,0,0,0,.816,1.043,5.21,5.21,0,0,1,.593.659c-.025.141-.049.287-.074.441a25.253,25.253,0,0,0-.031,6.271,11.264,11.264,0,0,0,12.947-3.93,7.268,7.268,0,0,0,1.43-5.184" transform="translate(-189.78 -65.121)" fill="#e2957d"/>
    <path id="Trazado_209818" data-name="Trazado 209818" d="M505.259,182.555c.092-.12.274-.15.35-.281a.321.321,0,0,0-.167-.413.921.921,0,0,0-.489-.052,1.362,1.362,0,0,0-.6.141.472.472,0,0,0-.241.523c.041.122.15.218.167.346a.415.415,0,0,1-.266.385,2.672,2.672,0,0,0-.451.215.323.323,0,0,0-.1.436,6.733,6.733,0,0,0,1.163-.213c.238-.066.506-.177.572-.415.061-.221-.076-.49.064-.672" transform="translate(-194.447 -70.222)" fill="#d37d66"/>
    <path id="Trazado_209819" data-name="Trazado 209819" d="M510.186,170.4c-1.051-1.447-3.541-2.076-5.239-2.636a25.844,25.844,0,0,0-5.269-.959,4.9,4.9,0,0,0,.63,2.8,13.3,13.3,0,0,0,1.715,2.347,3.248,3.248,0,0,1,.846,1.408,2.894,2.894,0,0,1-.1,1.221c.166-.015-.778.959-.618,1.009.393.123,2.132-.218,2.339.139.522.9-.063,1.858-.919,2.454a1.946,1.946,0,0,1-.694.3,6.319,6.319,0,0,0,.317.77,6.255,6.255,0,0,0,2.733,3.142c1.865-1.2,4.2-3.214,4.846-5.336s.716-4.863-.587-6.657" transform="translate(-192.997 -64.43)" fill="#ad801c"/>
    <path id="Trazado_209820" data-name="Trazado 209820" d="M498.381,242.4a4.322,4.322,0,0,1-4.845,4.644,40.245,40.245,0,0,1-17.028-2.153,4.586,4.586,0,0,1-2.61-1.749c-.849-1.484.053-3.3.65-4.9,1.629-4.366.875-9.212,1.261-13.856a28.134,28.134,0,0,1,5.738-14.775,12.573,12.573,0,0,1,3.792-3.488c2.718-1.479,6-1.283,9.085-1.046a9.134,9.134,0,0,1,4.753,1.261c1.723,1.248,2.349,3.517,2.565,5.633.759,7.44-2.087,14.74-2.824,22.182-.272,2.742-.257,5.506-.536,8.247" transform="translate(-182.914 -79.149)" fill="#3e6665"/>
    <path id="Trazado_209821" data-name="Trazado 209821" d="M479.767,226.123c1.069-3.225,3.453-5.837,5.986-8.1s5.294-4.3,7.474-6.909a4.626,4.626,0,0,1,2.908,3.657,7.914,7.914,0,0,1-.877,4.75c-1.76,3.579-5.093,6.07-8.191,8.581s-6.22,5.41-7.239,9.266c-.674-3.729-1.253-7.647-.061-11.244" transform="translate(-185.049 -81.544)" fill="#2f3044"/>
    <path id="Trazado_209822" data-name="Trazado 209822" d="M480.642,254.594a.218.218,0,0,0,.068-.01.232.232,0,0,0,.155-.289c-.056-.184-.119-.369-.182-.555a3.671,3.671,0,0,1-.29-2.257,3.553,3.553,0,0,1,1.289-1.506c.235-.192.479-.39.7-.606,1.316-1.295,1.758-3.228,2.112-4.781.562-2.459,1.078-4.873,1.578-7.208s1.016-4.747,1.576-7.2a.232.232,0,0,0-.452-.1c-.562,2.459-1.078,4.873-1.578,7.208s-1.016,4.747-1.576,7.2c-.341,1.494-.765,3.353-1.985,4.553-.2.2-.439.392-.666.578a3.946,3.946,0,0,0-1.436,1.719,4.006,4.006,0,0,0,.292,2.551c.061.182.123.362.177.541a.233.233,0,0,0,.222.164" transform="translate(-185.342 -88.8)" fill="#2f3044"/>
    <rect id="Rectángulo_42414" data-name="Rectángulo 42414" width="0.463" height="8.964" transform="translate(291.671 164.249) rotate(-66.523)" fill="#2f3044"/>
    <path id="Trazado_209823" data-name="Trazado 209823" d="M504.465,202.746a3.042,3.042,0,0,1,1.462.395c.949.641.948,2.049,1.629,2.969a88.75,88.75,0,0,0-12.322-1.583,1.527,1.527,0,0,0,.006-1.188,30.827,30.827,0,0,1,9.225-.593" transform="translate(-191.29 -78.268)" fill="#fff"/>
    <path id="Trazado_209824" data-name="Trazado 209824" d="M438.105,219a7.584,7.584,0,0,1-.465-2.55,2.734,2.734,0,0,0,.02-.6.59.59,0,0,0-.324-.475.576.576,0,0,0-.644.25,1.91,1.91,0,0,0-.247.7c-.066.29-.146.578-.228.864-.459-.389-.942-.75-1.388-1.1-.031.047-.055.095-.083.141a2.657,2.657,0,0,0-.883.377.918.918,0,0,0-.4.845c.034.193.151.39.08.573-.081.212-.363.271-.489.46-.172.26.025.594.093.9a5.353,5.353,0,0,1,.009.957,2.057,2.057,0,0,0,.307.971,2.939,2.939,0,0,0,.474.995,10.377,10.377,0,0,1,.808,1c.164.287.248.614.4.91.551,1.085,1.847,1.522,3.017,1.858-.088-1.661.282-3.393.152-5.02a4.926,4.926,0,0,0-.211-2.048" transform="translate(-167.247 -83.18)" fill="#e2957d"/>
    <path id="Trazado_209825" data-name="Trazado 209825" d="M473.162,205a3.4,3.4,0,0,1,3.855.32,5.8,5.8,0,0,1,2.293,3.693c.114,2.265-.337,3.881-2.14,6.531a29.684,29.684,0,0,1-11.314,9.67c-3.145,1.585-3.753,3.051-6.946,3.156a10.7,10.7,0,0,1-3.007-.359,106.763,106.763,0,0,1-16.173-5.552,13.947,13.947,0,0,1,.25-2.862,1.473,1.473,0,0,1,1.576-1.178l16.533,1.449a2.709,2.709,0,0,0,3.083-1.56l6.93-9.664a11.59,11.59,0,0,1,2.732-2.994,3.935,3.935,0,0,1,3.856-.492Z" transform="translate(-169.85 -79.007)" fill="#91bfbf"/>
    <path id="Trazado_209826" data-name="Trazado 209826" d="M439.994,232.884c-.023.363-.269.162-.263.526a106.784,106.784,0,0,0,14.778,5.185,13.763,13.763,0,0,0,5.179.668,7.123,7.123,0,0,0,3.456-1.448c-5.5,2.531-16.208-1.8-23.15-4.931" transform="translate(-169.851 -89.954)" fill="#2f3044"/>
    <path id="Trazado_209827" data-name="Trazado 209827" d="M495.733,205.362a3.054,3.054,0,0,0-1.256-.3,2.567,2.567,0,0,0-.273.144Z" transform="translate(-190.892 -79.207)" fill="#91bfbf"/>
    <path id="Trazado_209828" data-name="Trazado 209828" d="M471.913,220.511l8.056-10.36a15.333,15.333,0,0,1,3.217-3.371,5.018,5.018,0,0,1,4.292-.864l.144-.441a5.473,5.473,0,0,0-4.7.924,15.69,15.69,0,0,0-3.32,3.467l-8.055,10.36Z" transform="translate(-182.14 -79.289)" fill="#fff"/>
    <path id="Trazado_209829" data-name="Trazado 209829" d="M563.85,182.83a31.137,31.137,0,0,0,5.716,8.162,20.737,20.737,0,0,0-7.726,4.868c-.327-3.565-.823-7.242-2.435-10.486a15.835,15.835,0,0,1,4.445-2.544" transform="translate(-216.076 -70.62)" fill="#e2957d"/>
    <path id="Trazado_209830" data-name="Trazado 209830" d="M559.405,185.6a15.979,15.979,0,0,1,3.534-2.182,8.417,8.417,0,0,1-2.115,6.1,19.7,19.7,0,0,0-1.42-3.917" transform="translate(-216.076 -70.848)" fill="#2f3044"/>
    <path id="Trazado_209831" data-name="Trazado 209831" d="M549.83,178.36a12.171,12.171,0,0,0,.953-2.282c.017-.67-.565-1.513-.727-2.15a3.394,3.394,0,0,1,1.709-3.5c1.784-1.111,4.325-1.7,6.06-.172,2.152,1.9,3.226,5.673,1.776,8.277-.995,1.785-3.4,3.366-5.244,4.242-.655.31-1.86-1.7-2.128-2.084-.32-.456-.72-1-1.046-1.567a4.508,4.508,0,0,1-1.045-.01c-.139-.02-.324-.3-.381-.43s.023-.2.073-.325" transform="translate(-212.342 -65.407)" fill="#e2957d"/>
    <path id="Trazado_209832" data-name="Trazado 209832" d="M556.6,182.581a13.216,13.216,0,0,0,2.551-2.651,5.656,5.656,0,0,0,1.062-3.466,5.037,5.037,0,0,0-2.59-3.932,6.854,6.854,0,0,0-4.76-.627,3.411,3.411,0,0,0-1.352.541,1.589,1.589,0,0,0-.684,1.239,2.015,2.015,0,0,0,.754,1.376,8.484,8.484,0,0,1,1.168,1.11,4.407,4.407,0,0,1,.52,2.97,5.91,5.91,0,0,0,.253,3.034,1.848,1.848,0,0,0,1.722,1.13,2.636,2.636,0,0,0,1.355-.725" transform="translate(-212.763 -66.336)" fill="#d37d66"/>
    <path id="Trazado_209833" data-name="Trazado 209833" d="M559.082,182.881c-.587-.042-1.215-.4-1.721-.1-.243.144-.4.414-.652.533s-.6.066-.816.251a.943.943,0,0,0-.181.848q.158,1.379.317,2.758a.642.642,0,0,0,.077.28c.155.238.511.17.786.1,1.853-.477,3.784.242,5.7.321a2.615,2.615,0,0,0,1.046-.121,1.112,1.112,0,0,0,.706-.734,1.688,1.688,0,0,0-.261-1.11q-.577-1.143-1.206-2.261a2.317,2.317,0,0,0-1-1.1c-.88-.367-1.84.408-2.791.339" transform="translate(-214.643 -70.471)" fill="#2f3044"/>
    <path id="Trazado_209834" data-name="Trazado 209834" d="M559.954,179.263a.748.748,0,0,0-.4-.5.53.53,0,0,0-.521.15,1.127,1.127,0,0,0-.263.5.633.633,0,0,0,.082.642c.171.158.5.159.554.386.037.167-.118.3-.228.435a.744.744,0,0,0-.186.51.5.5,0,0,0,.3.433.547.547,0,0,0,.587-.193,1.236,1.236,0,0,0,.235-.608,3.582,3.582,0,0,0-.158-1.751" transform="translate(-215.813 -69.04)" fill="#2f3044"/>
    <path id="Trazado_209835" data-name="Trazado 209835" d="M570.269,177.1a2.831,2.831,0,0,1-.674-2.111,18.235,18.235,0,0,0,.08-2.276,6.559,6.559,0,0,0-1.084-2.687,15.666,15.666,0,0,1-1.436-2.54,3.606,3.606,0,0,1-.031-2.84,3.034,3.034,0,0,1,2.941-1.563,4.323,4.323,0,0,1,2.977,1.72,7.661,7.661,0,0,1,1.366,3.229,9.9,9.9,0,0,0,.9,3.262c.8,1.323,2.414,2.051,3.043,3.463a5.328,5.328,0,0,1,.116,3.153,9.624,9.624,0,0,0-.315,3.172,3.541,3.541,0,0,1,.1,1.521,1.617,1.617,0,0,1-2.22.771,3.416,3.416,0,0,1-1.572-2.07c-.358-1.04-.566-2.24-1.444-2.9-.814-.614-2.014-.589-2.743-1.3" transform="translate(-218.951 -62.989)" fill="#2f3044"/>
    <path id="Trazado_209836" data-name="Trazado 209836" d="M549.318,168.867a55.487,55.487,0,0,1,5.68-2.732,7.382,7.382,0,0,1,3.705-.663,4.974,4.974,0,0,1,3.871,3.651,7.125,7.125,0,0,1-.661,5.653c-1.067,1.539-.9,1.845-1.463,2.244-.715-1.316-1.723-.615-3.49-1.24a4.531,4.531,0,0,0-.007-1.127,3,3,0,0,0-.377-1.361,1.1,1.1,0,0,0-1.221-.509c-.328.118-.746.843-.989,1.321-.269-.249-.548-.525-.84-.843-.673-.729-1.772-.852-2.61-1.384a3.519,3.519,0,0,1-1.6-3.01" transform="translate(-212.18 -63.897)" fill="#2f3044"/>
    <path id="Trazado_209837" data-name="Trazado 209837" d="M569.889,169.542a6.061,6.061,0,0,0-1.952-2.734,2.007,2.007,0,0,1,1.952,2.734" transform="translate(-219.372 -64.431)" fill="#91bfbf"/>
    <path id="Trazado_209838" data-name="Trazado 209838" d="M538.122,357.745a5.632,5.632,0,0,1,.964-.5c.55-.258,1.317-.609,1.813-.841a1.816,1.816,0,0,0,.345.5c3.107.993,6.327,1.791,9.085-1.337.031.134.245.518.281.647.186.676.214,1.594-.353,2.008a8.279,8.279,0,0,1-1.747.617c-1.671.21-2.38.04-4.05.25a30.052,30.052,0,0,1-3.948.441c-.693.015-2.739-.134-2.856-.818a1.034,1.034,0,0,1,.468-.96" transform="translate(-207.671 -137.339)" fill="#2f3044"/>
    <path id="Trazado_209839" data-name="Trazado 209839" d="M546.535,310.981a2.68,2.68,0,0,0,1.193-2.607c-.024-.605.02-1.2.054-1.806-1.2-12.7-2.225-25.284-3.333-37.922-.439-5.014-.837-17.147.946-25.055l15.37-.446c1.893,13.142-2.516,18.227-3.357,22.065-1.347,6.153-2.1,9.393-3.009,15.667-.21,1.441.408,9.5.225,10.942-.856,6.741-2.642,9.9-2.843,16.661a23.022,23.022,0,0,0,.525,3.952c-2.758,3.128-6.741,2.45-9.425,1.108a.925.925,0,0,1-.217-.369,21.053,21.053,0,0,0,3.87-2.192" transform="translate(-209.61 -93.918)" fill="#e2957d"/>
    <path id="Trazado_209840" data-name="Trazado 209840" d="M553.739,299.887a68.957,68.957,0,0,0,1.66-8.067c.19-1.445-.449-9.5-.232-10.942.944-6.274,1.717-9.514,3.109-15.667.868-3.838,5.423-8.923,3.467-22.065l-15.879.445c-1.841,7.908-1.431,20.041-.977,25.055.94,10.383,1.826,20.731,2.8,31.136a56.334,56.334,0,0,0,6.053.1" transform="translate(-210.32 -93.918)" fill="#2f3044"/>
    <path id="Trazado_209841" data-name="Trazado 209841" d="M553.338,362.873a5.033,5.033,0,0,1,.921-.5c.527-.258,1.263-.609,1.739-.841a2.094,2.094,0,0,0,.389.5c3.194.993,6.484,1.791,8.967-1.338.043.134.29.519.337.648.245.676.353,1.594-.176,2.008a7.63,7.63,0,0,1-1.694.617c-1.652.21-2.376.04-4.028.249a29.087,29.087,0,0,1-3.91.441c-.692.015-2.751-.134-2.927-.818a.948.948,0,0,1,.383-.96" transform="translate(-213.576 -139.32)" fill="#2f3044"/>
    <path id="Trazado_209842" data-name="Trazado 209842" d="M558.344,313.918a2.5,2.5,0,0,0,.964-2.607c-.077-.605-.085-1.2-.1-1.806-2.155-11.815-4.143-23.523-6.193-35.272-1.029-5.895-2.035-24.809-3.123-30.742l13.51-.891c6.926,15.481,1.819,21.332,1.315,25.171-.808,6.153-.779,9.77-1.143,16.043-.083,1.441,1.241,9.5,1.184,10.942-.265,6.741-1.774,9.9-1.383,16.661a24.07,24.07,0,0,0,.872,3.952c-2.483,3.128-6.526,2.451-9.328,1.108a1.041,1.041,0,0,1-.249-.369,18.779,18.779,0,0,0,3.678-2.192" transform="translate(-212.4 -93.708)" fill="#e2957d"/>
    <path id="Trazado_209843" data-name="Trazado 209843" d="M564.753,294.757c.057-1.445-1.267-9.5-1.184-10.942.364-6.274.336-9.89,1.143-16.042.5-3.839,5.611-9.69-1.315-25.171l-13.51.891c1.088,5.932,2.094,24.847,3.123,30.742,1.711,9.809,3.385,19.594,5.144,29.433,2.468.222,4.4.435,6.365-.7.36-2.468.1-4.851.233-8.208" transform="translate(-212.4 -93.707)" fill="#3e6665"/>
    <path id="Trazado_209844" data-name="Trazado 209844" d="M546.581,240.947a19.437,19.437,0,0,0,.576-3.819,44.051,44.051,0,0,0,16.076-1.8,17.756,17.756,0,0,0,.4,5.471c-1.637,1.369-4.046,1.377-6.145,1.761-6.145,1.124-7.385.222-10.9-1.611" transform="translate(-211.123 -90.897)" fill="#2f3044"/>
    <path id="Trazado_209845" data-name="Trazado 209845" d="M548.743,222.66c1.069-3.477,1.828-6.975,1.195-10.5-.408-2.272-1.394-4.534-.987-6.806.513-2.859,3.176-5.34,3.346-8.124h11.366l1.108.118a6.334,6.334,0,0,1,2.664.685c1.668,1.03,1.66,3.227,1.186,4.987-.913,3.387-2.864,6.488-3.871,9.853-.875,2.926.991,7.475-.757,8.948a32.667,32.667,0,0,1-15.25.838" transform="translate(-211.958 -76.182)" fill="#daa520"/>
    <path id="Trazado_209846" data-name="Trazado 209846" d="M549.141,216.863c.533-3.16.031-6.372.077-9.563s.749-6.566,3.255-8.958c1.556-1.486,3.736-2.52,4.915-4.236.212.041.427.068.641.1-1.884,3.244-5.141,5.781-6.887,8.923-2.246,4.942-1.734,10.511-1.263,16.147a1.529,1.529,0,0,1-.54-.406,2.439,2.439,0,0,1-.2-2.006" transform="translate(-212.067 -74.976)" fill="#2f3044"/>
    <path id="Trazado_209847" data-name="Trazado 209847" d="M569.782,212.277c-.471.88-.959,1.79-1.38,2.7a30.3,30.3,0,0,0-2.574,11.149h-.354a30.591,30.591,0,0,1,2.6-11.268c.425-.921.914-1.835,1.388-2.719a28.076,28.076,0,0,0,2.229-4.879.179.179,0,0,1,.217-.11.157.157,0,0,1,.123.194,28.336,28.336,0,0,1-2.25,4.931" transform="translate(-218.421 -80.012)" fill="#2f3044"/>
    <path id="Trazado_209848" data-name="Trazado 209848" d="M567.3,191.992q-1.666-.136-3.334-.264a4.514,4.514,0,0,0-2.044.158c-1.231.5-1.758,1.919-2.152,3.187,2.6-.118,6.295.573,10.678.47-.2-.8-.863-2.691-1.554-3.147a3.341,3.341,0,0,0-1.594-.4" transform="translate(-216.216 -74.041)" fill="#fff"/>
    <path id="Trazado_209849" data-name="Trazado 209849" d="M540.091,228.744l7.738-.419-5.843-20.29-7.96,3.35Z" transform="translate(-206.274 -80.356)" fill="#2f3044"/>
    <path id="Trazado_209850" data-name="Trazado 209850" d="M534.4,224.842a3.054,3.054,0,0,0,1.307.736c.21.075.422.15.633.222q.375.133.758.236l.144.04c.119.03.237.057.356.083.039.009.079.02.118.028v0a10.593,10.593,0,0,0,1.11.174.7.7,0,0,0,.338-.025.25.25,0,0,0,.163-.269c-.026-.1-.131-.16-.225-.206l-1.765-.866-.205-.644,1.344-.734a1.212,1.212,0,0,0,.633-.585.4.4,0,0,0-.138-.477.5.5,0,0,0-.281-.039,1.022,1.022,0,0,0,.444-.334.476.476,0,0,0,.021-.528c-.163-.226-.5-.194-.776-.138l-2.017.415-.047-.147,1.551-.665c.14-.06.3-.147.314-.3a.291.291,0,0,0-.217-.278.834.834,0,0,0-.377,0c-.568.086-1.132.2-1.692.327a5.561,5.561,0,0,1-.328-1.076,1.286,1.286,0,0,1,.052-.352c.109-.343.388-.614.488-.959a1.04,1.04,0,0,0-.708-1.246L534.5,219.1a1.694,1.694,0,0,0-.154.412,2.314,2.314,0,0,0,.188,1.051,5.594,5.594,0,0,1-.2,1.03.655.655,0,0,0-.024.089c-.052.193-.107.384-.158.572a2.8,2.8,0,0,0,.239,2.588m2.351-1.687-.06-.188c.22-.05.444-.088.67-.123a4.459,4.459,0,0,0-.61.311" transform="translate(-206.249 -83.908)" fill="#e2957d"/>
    <path id="Trazado_209851" data-name="Trazado 209851" d="M565.586,198.573a2.761,2.761,0,0,0-1.842.991,31.619,31.619,0,0,1-13.3,7.289,10.145,10.145,0,0,0-3.04,1.1,2.849,2.849,0,0,0-1.415,2.719c.233,1.3,1.618,2.043,2.9,2.34,3.339.774,6.827-.191,10.023-1.429a16.962,16.962,0,0,0,6.772-4.162c1.775-2,2.667-4.991,1.559-7.427a2.148,2.148,0,0,0-1.655-1.422" transform="translate(-210.881 -76.7)" fill="#ffd255"/>
    <path id="Trazado_209852" data-name="Trazado 209852" d="M556.572,183.148l6.793-2.383a.361.361,0,0,1,.465.237l.937,3.128a.361.361,0,0,1-.22.442l-6.881,2.556a.361.361,0,0,1-.475-.249l-.848-3.3a.361.361,0,0,1,.23-.431" transform="translate(-214.889 -69.815)" fill="#fff"/>
    <path id="Trazado_209853" data-name="Trazado 209853" d="M563.674,185.526c-.318-1.13-.664-2.253-1.026-3.37a2.02,2.02,0,0,0-.109-.665.9.9,0,0,0-.769-.616c-.346,0-.689.265-1.011.138-.175-.069-.309-.248-.5-.253-.364-.011-.514.609-.876.574a2.99,2.99,0,0,1-.291-.1.475.475,0,0,0-.475.248.821.821,0,0,0-.058.15c-.059,0-.117.015-.176.017a.713.713,0,0,0-.616,1.012l2.693,5.87,2.773-1.7a.909.909,0,0,0,.435-1.312" transform="translate(-215.421 -69.82)" fill="#e2957d"/>
    <path id="Trazado_209854" data-name="Trazado 209854" d="M559.125,188.678a5.259,5.259,0,0,1-.509,2.027,21.871,21.871,0,0,1,3.419,1.057,22.572,22.572,0,0,1,.886-2.136,5.584,5.584,0,0,0-3.795-.949" transform="translate(-215.772 -72.865)" fill="#3e6665"/>
    <path id="Trazado_209855" data-name="Trazado 209855" d="M545.5,206.819a4.234,4.234,0,0,0,2.808,3.209,4,4,0,0,0,4.093-1.1,7.65,7.65,0,0,0,1.429-3.236l3.594-13.562c-.929-.187-3.543-.547-4.042-1.352-2.283,3.732-3.816,6.665-6.158,10.427-1.059,1.7-2.091,3.64-1.724,5.61" transform="translate(-210.677 -73.691)" fill="#ffd255"/>
    <path id="Trazado_209856" data-name="Trazado 209856" d="M260.319,370.95a2.229,2.229,0,1,1-2.229,2.229,2.229,2.229,0,0,1,2.229-2.229" transform="translate(-99.69 -143.284)" fill="#1d2630"/>
    <path id="Trazado_209857" data-name="Trazado 209857" d="M193.971,370.95a2.229,2.229,0,1,1-2.229,2.229,2.229,2.229,0,0,1,2.229-2.229" transform="translate(-74.063 -143.284)" fill="#1d2630"/>
    <path id="Trazado_209858" data-name="Trazado 209858" d="M218.642,349.714a7.663,7.663,0,0,1-3.913-1.806L194.2,349.567v-.523a.966.966,0,0,1,.888-.964c2.627-.214,10.359-.852,13.333-1.2a7.682,7.682,0,0,0,5.095-2.335h.468V332.217h.472V314.536h1.777v17.681h.471v12.326h.468a7.682,7.682,0,0,0,5.095,2.335c2.974.35,10.707.988,13.333,1.2a.967.967,0,0,1,.889.964v.523l-18.539-1.5a11.545,11.545,0,0,0,1.065.8,3.308,3.308,0,0,1,.84.7,1.716,1.716,0,0,1,.244.468H221.2v4.138h-3.67v-4.138h1.152c-.013-.109-.021-.218-.037-.327" transform="translate(-75.013 -121.493)" fill="#1d2630"/>
    <path id="Trazado_209859" data-name="Trazado 209859" d="M227.758,294.629H206.29a7.236,7.236,0,0,1-4.658-5.733c-.268-2.67,1.021-5.406,2.511-7.9s3.233-4.935,4.02-7.62c.868-2.959.6-6.236,2.664-8.771a7.67,7.67,0,0,1,8.1-2.3l2.33.111,4.925-.111c2.883-.987,6.244.034,7.577,2.3,1.491,2.535.941,4.6.682,8.771a44.69,44.69,0,0,0-.271,7.62c.311,3.168.807,5.34-.064,8.01-.833,2.555-3.595,4.573-6.343,5.621" transform="translate(-77.869 -101.173)" fill="#dc8456"/>
    <path id="Trazado_209860" data-name="Trazado 209860" d="M227.848,292.4h-19.2a6.693,6.693,0,0,1-4.166-5.343c-.239-2.489.913-5.039,2.246-7.361s2.891-4.6,3.6-7.1c.776-2.758.536-5.811,2.382-8.174a6.687,6.687,0,0,1,7.242-2.146l2.084.1,4.4-.1a5.7,5.7,0,0,1,6.777,2.146c1.333,2.363.841,4.284.609,8.174a43.467,43.467,0,0,0-.242,7.1c.277,2.951.722,4.976-.057,7.465-.746,2.381-3.215,4.262-5.673,5.239" transform="translate(-78.97 -101.173)" fill="#1d2630"/>
    <path id="Trazado_209861" data-name="Trazado 209861" d="M215.038,242.072q2.518-2.568,4.891-5.273a2.37,2.37,0,0,1,.765-.656,1.931,1.931,0,0,1,2,.6,5.019,5.019,0,0,1,.843,6,11.082,11.082,0,0,1-2.943,2.866c-.265.207-.522.423-.782.636a9.3,9.3,0,0,0-4.771-4.178" transform="translate(-83.061 -91.173)" fill="#e0cc75"/>
    <path id="Trazado_209862" data-name="Trazado 209862" d="M203.873,252.567a9.9,9.9,0,0,1,2.019-2.27c1.585-1.461,3.474-3.087,4.984-4.627,2.065.762,3.323,2.405,4.426,4.3a41.211,41.211,0,0,0-3.88,3.627,19.532,19.532,0,0,1-2.264,2.221,4.978,4.978,0,0,1-2.905,1.137,2.894,2.894,0,0,1-2.629-1.467,3.184,3.184,0,0,1,.249-2.92" transform="translate(-78.555 -94.893)" fill="#edc6a4"/>
    <path id="Trazado_209863" data-name="Trazado 209863" d="M214.52,246.064c.133-.131.266-.263.394-.393,2.065.762,3.324,2.4,4.427,4.3a41.214,41.214,0,0,0-3.881,3.627c-.535.57-1.057,1.158-1.633,1.686a9.663,9.663,0,0,0,.692-9.22" transform="translate(-82.593 -94.893)" fill="#1d2630"/>
    <path id="Trazado_209864" data-name="Trazado 209864" d="M210.6,219.612a.572.572,0,0,0-.533-.188,1.553,1.553,0,0,0-1.326,1.051,5.691,5.691,0,0,1-.181.619c-.983-.677-.647-1.025-.749-1.524.5-.363,1.094-.8,1.612-1.141.872-.573.611-1.024.538-1.618a19.9,19.9,0,0,1-4.119,2.057,1.822,1.822,0,0,0-.495.234.62.62,0,0,0-.239.369,1.2,1.2,0,0,1-.628.628.6.6,0,0,0-.349.552,1.8,1.8,0,0,1-.649,1.362.847.847,0,0,0-.3.813L204,227.34a29.21,29.21,0,0,1-.924,7.541c-.538,2.666-.975,5.46-.292,8.09a3.86,3.86,0,0,0,1.715,2.586,2.689,2.689,0,0,0,2.94-.535,4.9,4.9,0,0,0,1.4-2.9,15.013,15.013,0,0,0,.023-3.308c-.231-3.461-.846-6.931-1.077-10.392l.093-1.2a2.424,2.424,0,0,0,.933-1.366,6.112,6.112,0,0,0-.162-1.832,3.459,3.459,0,0,1,.394-1.268,5.527,5.527,0,0,0,.856-1.15,7.446,7.446,0,0,1,.334-1c.1-.161.233-.3.327-.46a.523.523,0,0,0,.032-.535" transform="translate(-78.191 -83.745)" fill="#edc6a4"/>
    <path id="Trazado_209865" data-name="Trazado 209865" d="M208.863,234.315l.093-1.2a2.924,2.924,0,0,0,.84-1.058,3.952,3.952,0,0,1-2.472,1.363c1.227,6.137,1.151,11.891-1.918,17.415-.058.131-.125.257-.193.382a2.331,2.331,0,0,0,.358.228,2.686,2.686,0,0,0,2.94-.535,4.895,4.895,0,0,0,1.405-2.894,15.056,15.056,0,0,0,.023-3.309c-.231-3.461-.846-6.931-1.077-10.392" transform="translate(-79.266 -89.635)" fill="#dba983"/>
    <path id="Trazado_209866" data-name="Trazado 209866" d="M206.37,228.492a2.376,2.376,0,0,0-.822-1.629,2.746,2.746,0,0,0,1.216.24,1.046,1.046,0,0,0-.063.679.588.588,0,0,0,.491.431.413.413,0,0,0,.438-.422.651.651,0,0,0,1.026-.578,1.393,1.393,0,0,0,.606-1.537,3.726,3.726,0,0,1,.131,2.286,2.613,2.613,0,0,1-1.468,1.7,1.481,1.481,0,0,1-.787.111.885.885,0,0,1-.643-.436,2.1,2.1,0,0,1-.123-.848" transform="translate(-79.395 -87.169)" fill="#dba983"/>
    <path id="Trazado_209867" data-name="Trazado 209867" d="M183.826,289.141c6.833-3.588,14.811-4.762,21.45-8.679h6.409a5.663,5.663,0,0,1,3,3.36c.755,2.335,1.325,2.92.661,5.282a9.1,9.1,0,0,1-2.94,4.151c-1.218.894-5.061,1.656-6.573,1.643-3.248-.029-11.722,2.143-16.867,3.607a5.892,5.892,0,0,1-5.772-1.426c-2.705-2.691-2.513-5.068.633-7.938" transform="translate(-70.031 -108.332)" fill="#1d2630"/>
    <path id="Trazado_209868" data-name="Trazado 209868" d="M196.71,363.575a20.678,20.678,0,0,0,6-.3,46.232,46.232,0,0,0-1.511,9.883l-5.6.3a45.022,45.022,0,0,0,1.111-9.883" transform="translate(-75.552 -140.321)" fill="#edc6a4"/>
    <path id="Trazado_209869" data-name="Trazado 209869" d="M183.171,376.6c1.749-.628,3.666-.9,5.27-1.795a6.71,6.71,0,0,0,1.423-1.069c1.841.784,2.977,1.553,4.523,2.121a12.859,12.859,0,0,0,1.344.652c-.118,1.182-.347,2.582-.545,3.755l-13.794.015-1.923-.124c.215-1.715,1.954-2.929,3.7-3.557" transform="translate(-69.322 -144.362)" fill="#fff"/>
    <rect id="Rectángulo_42415" data-name="Rectángulo 42415" width="16.141" height="0.966" transform="translate(109.982 235.493)" fill="#1d2630"/>
    <path id="Trazado_209870" data-name="Trazado 209870" d="M194.4,305.22a15.4,15.4,0,0,1,2.8-4.675c2.712-3.388,5.813-6.456,8.441-9.909a25.907,25.907,0,0,0,5.045-10.173h14.173a18.587,18.587,0,0,1-3.185,14.712c-4.591,6.2-11.64,8.123-17.973,12.535,2.7,9.42.673,16.618-1.065,23.966a24.267,24.267,0,0,1-7.049.347,160.4,160.4,0,0,0-1.441-19.348c-.277-2.491-.531-5.073.252-7.454" transform="translate(-74.888 -108.332)" fill="#106887"/>
    <path id="Trazado_209871" data-name="Trazado 209871" d="M205.174,333.605l-.3-.035,2.538-22.1a5.691,5.691,0,0,1,3.6-5.169l.98-.625c3.645-2.321,7.413-4.721,10.41-7.887,3.654-3.859,5.573-8.494,5.264-12.715l.306-.023c.315,4.307-1.634,9.027-5.346,12.948-3.023,3.193-6.808,5.6-10.468,7.934l-.981.626a7.213,7.213,0,0,0-3.049,2.961,7.326,7.326,0,0,0-.416,1.983Z" transform="translate(-79.133 -110.103)" fill="#fff"/>
    <path id="Trazado_209872" data-name="Trazado 209872" d="M194.606,314.815a15.4,15.4,0,0,1,2.8-4.675c1.33-1.661,2.753-3.246,4.169-4.837,2.214,2,5.492,2.461,7.264,5.56a7.438,7.438,0,0,1,1.03,2.877,62.436,62.436,0,0,0-5.961,3.564,33.724,33.724,0,0,1,1.083,5.37c-.1.04-.2.09-.3.125.1-.035.2-.085.3-.125q.165,1.4.207,2.75c-2.232-4.824-5.694-9.208-10.794-9.876.059-.245.121-.491.2-.733" transform="translate(-75.091 -117.927)" fill="#1d2630"/>
    <path id="Trazado_209873" data-name="Trazado 209873" d="M213.709,322.113a18.558,18.558,0,0,0,5.708,6.313c-1.046,1.32-2.567,3.482-3.614,4.8-2.359-2.729-4.653-5.153-7-7.407a13.959,13.959,0,0,1,4.905-3.708" transform="translate(-80.653 -124.42)" fill="#edc6a4"/>
    <path id="Trazado_209874" data-name="Trazado 209874" d="M194.393,299.038a35.281,35.281,0,0,1,3.162,3.947c.485.695,5.319,8.344,5.239,8.378a13.966,13.966,0,0,0-4.9,3.708,112.688,112.688,0,0,0-14.661-11.762,4.845,4.845,0,0,1-1.8-1.761,5.535,5.535,0,0,1-.713-4.206,4.571,4.571,0,0,1,2.2-2.541c.2-.112.409-.214.614-.321.842-.442,2.859-.025,3.762.146a10.13,10.13,0,0,1,3.242,1.211,17.879,17.879,0,0,1,3.856,3.2" transform="translate(-69.738 -113.67)" fill="#106887"/>
    <path id="Trazado_209875" data-name="Trazado 209875" d="M226.435,337.155a24.331,24.331,0,0,1-7.219,9.819,1.533,1.533,0,0,1-.706.378c-.526.075-.966-.373-1.307-.779a37.97,37.97,0,0,0,8.467-11.608.925.925,0,0,1,1.029.784,2.518,2.518,0,0,1-.263,1.405" transform="translate(-83.897 -129.376)" fill="#1d2630"/>
    <path id="Trazado_209876" data-name="Trazado 209876" d="M220.156,330.835a7.053,7.053,0,0,0-2.532,1.132c-1.05.647-2.231,1.522-2.2,2.755a7.847,7.847,0,0,0,.695,2.057,5.812,5.812,0,0,1-.067,2.993,10.667,10.667,0,0,0-.427,2.988,2.831,2.831,0,0,0,1.5,2.46,28.435,28.435,0,0,0,8.493-11.809c-1.546-1.4-3.4-2.9-5.462-2.576" transform="translate(-83.21 -127.772)" fill="#fff"/>
    <path id="Trazado_209877" data-name="Trazado 209877" d="M224.439,232.987a8.3,8.3,0,0,0-5.675,4.625c-.93,2.422-2.358,4.249-2.782,8.279a9.678,9.678,0,0,0,.886,4.9c1.294,2.941-.62,9.954-2.348,13.076,5.673.083,13.453.5,19.126.586,1.176-8.429,6.566-18.572,6.032-27.292a2.9,2.9,0,0,0-1.788-2.522,26.324,26.324,0,0,0-13.45-1.652" transform="translate(-82.861 -89.883)" fill="#f4e7b0"/>
    <path id="Trazado_209878" data-name="Trazado 209878" d="M239.622,237.283c-5.011-1.431-10.1,2.468-11.75,6.863-1.227,4.3.614,9.82-2.455,12.889a42.982,42.982,0,0,1-9.706,8.5c5.6.106,12.96.492,18.394.573,1.176-8.429,6.4-18.563,6.032-27.292a2.877,2.877,0,0,0-.515-1.533" transform="translate(-83.321 -91.537)" fill="#e0cc75"/>
    <path id="Trazado_209879" data-name="Trazado 209879" d="M230.2,249.3a7.591,7.591,0,0,0,.921,4.219,4.062,4.062,0,0,1,.417,3.784c-.611,1.7-2.548,2.439-4.245,3.05a65.541,65.541,0,0,0-7.812,3.4,2.591,2.591,0,0,0-.894.641.9.9,0,0,0-.107,1.03c.311.455,1,.356,1.526.206l10.956-3.1a4.931,4.931,0,0,0,4.362-4.034,79.679,79.679,0,0,0,3.619-13.149,6.224,6.224,0,0,0-.079-3.066,2.374,2.374,0,0,0-2.331-1.674s-6.21,6.012-6.333,8.693" transform="translate(-84.345 -92.932)" fill="#1d2630"/>
    <path id="Trazado_209880" data-name="Trazado 209880" d="M178.359,273.284h0Z" transform="translate(-68.826 -105.559)" fill="#a6afb4"/>
    <path id="Trazado_209881" data-name="Trazado 209881" d="M242.492,242.979c.218-1.011.453-2.031.747-3.079.409-1.452,1.523-3.457,3.048-4.08a3.815,3.815,0,0,1,3.782.69,5.678,5.678,0,0,1,1.554,3.751,10.125,10.125,0,0,1-.767,3.535c-.225.612-.473,1.216-.73,1.817a11.445,11.445,0,0,0-7.634-2.635" transform="translate(-93.665 -90.997)" fill="#f4e7b0"/>
    <path id="Trazado_209882" data-name="Trazado 209882" d="M205.944,263.806a2.486,2.486,0,0,1,1.261-.581,3.114,3.114,0,0,1,1.325.33,12.917,12.917,0,0,0,1.717.532c4.222-1.932,7.935-4.018,12.184-5.942a7.221,7.221,0,0,0,2.153-1.291c.772-.765.815-2.077,1.1-3.076.593-2.109.955-4.11,1.393-6.147a11.444,11.444,0,0,1,7.634,2.635,74.835,74.835,0,0,1-4.167,7.972,12.655,12.655,0,0,1-2.85,3.718,13.487,13.487,0,0,1-3.827,1.932,76.773,76.773,0,0,1-12.253,3.372,3.848,3.848,0,0,1-.722.36,8.978,8.978,0,0,1-2.076.408c-.562.064-1.258.063-1.54-.412l-2.654.04-2.047.031a12.089,12.089,0,0,1,3.372-3.881" transform="translate(-78.246 -95.649)" fill="#edc6a4"/>
    <path id="Trazado_209883" data-name="Trazado 209883" d="M234.355,250.945c-3.932,12.393-17.28,15.288-29.527,17.62a4.29,4.29,0,0,0-1.108.392l1.342-.02,2.654-.04c.281.475.978.476,1.54.413a9.006,9.006,0,0,0,2.076-.409,3.829,3.829,0,0,0,.722-.36,76.761,76.761,0,0,0,12.253-3.372,13.5,13.5,0,0,0,3.827-1.932,12.653,12.653,0,0,0,2.849-3.718,74.775,74.775,0,0,0,4.167-7.972q-.385-.318-.794-.6" transform="translate(-78.689 -96.93)" fill="#dba983"/>
    <path id="Trazado_209884" data-name="Trazado 209884" d="M228.585,209.015c-.013-.024.048-.025.034,0Z" transform="translate(-88.293 -80.727)" fill="#edc6a4"/>
    <path id="Trazado_209885" data-name="Trazado 209885" d="M225.26,230.529a4.526,4.526,0,0,1,1.867-.971c.423-.136.7-.426,1.133-.53a19.231,19.231,0,0,0,1.472-7.07l3.641-.168.695.553a23.487,23.487,0,0,0,.611,6.464,11.427,11.427,0,0,1,2.622.844c-.106.708-.794,1.159-1.428,1.494-2.888,1.531-6.187,2.613-9.4,2.041a2.262,2.262,0,0,1-1.7-.96,1.45,1.45,0,0,1,.5-1.7" transform="translate(-86.769 -85.669)" fill="#edc6a4"/>
    <path id="Trazado_209886" data-name="Trazado 209886" d="M225.8,236.579c-.44,0,.067-.945.615-1.707a3.411,3.411,0,0,0-1.152.71,1.45,1.45,0,0,0-.5,1.7,2.262,2.262,0,0,0,1.7.96,12.586,12.586,0,0,0,6.388-.7,10.134,10.134,0,0,1-7.059-.957" transform="translate(-86.769 -90.722)" fill="#dba983"/>
    <path id="Trazado_209887" data-name="Trazado 209887" d="M230.141,230.913a8.863,8.863,0,0,0,6.312-2.675,23.423,23.423,0,0,1-.5-5.895l-.695-.553-3.641.168a19.231,19.231,0,0,1-1.472,7.07,2.253,2.253,0,0,0-.62.282c.007.646.07,1.6.613,1.6" transform="translate(-88.658 -85.669)" fill="#dba983"/>
    <path id="Trazado_209888" data-name="Trazado 209888" d="M235.534,221.791l.695.553a23.4,23.4,0,0,0,.028,2.549,11.876,11.876,0,0,1-6.023,4.551,19.229,19.229,0,0,0,1.66-7.485l3.641-.168" transform="translate(-88.93 -85.669)" fill="#1d2630"/>
    <path id="Trazado_209889" data-name="Trazado 209889" d="M239.707,203.017a3.165,3.165,0,0,0-.259.255c-.2.174-.5.173-.741.3a1.047,1.047,0,0,0-.5.749,3.081,3.081,0,0,0,.012.929,12.208,12.208,0,0,1,2.568,2.4,6.27,6.27,0,0,1,1.833,3.191,5.539,5.539,0,0,0,1.617-4.362,4.571,4.571,0,0,0-2.67-3.719,1.129,1.129,0,0,0-.659-.11.474.474,0,0,0-.395.474c-.252-.134-.569-.266-.806-.107" transform="translate(-91.998 -78.27)" fill="#1d2630"/>
    <path id="Trazado_209890" data-name="Trazado 209890" d="M225.368,207.82c.883-1.618,3.032-2.535,4.847-2.86a6.516,6.516,0,0,1,6.142,2.393,6.93,6.93,0,0,1,.971,6.56,7.4,7.4,0,0,1-4.958,4.459,3.976,3.976,0,0,1-4.069-.868c-1.121-1.331-.769-3.552-2.057-4.724-.466-.425-1.137-.7-1.339-1.3a2.825,2.825,0,0,1-.289-1.5,13.125,13.125,0,0,1,.752-2.163" transform="translate(-86.746 -79.133)" fill="#1d2630"/>
    <path id="Trazado_209891" data-name="Trazado 209891" d="M225.609,215.065c0,.826-.053.42-.194,1.235a3.693,3.693,0,0,0,.3,1.844,17.6,17.6,0,0,0,1.8,3.271,2.281,2.281,0,0,0,1.164.97,3.248,3.248,0,0,0,1.781-.265,9.288,9.288,0,0,0,5.308-7.467,5.437,5.437,0,0,0-.69-3.569,5.958,5.958,0,0,0-3.36-2.159,7.667,7.667,0,0,0-2.951-.373,4.057,4.057,0,0,0-2.642,1.254c-.661.748-1.342,2.974-.975,3.9a4.908,4.908,0,0,1,.458,1.358" transform="translate(-86.927 -80.545)" fill="#edc6a4"/>
    <path id="Trazado_209892" data-name="Trazado 209892" d="M235.476,211.084a5.952,5.952,0,0,0-3.36-2.159,7.667,7.667,0,0,0-2.951-.373,4.057,4.057,0,0,0-2.642,1.254,3.252,3.252,0,0,0-.446.724c1.38,2.474,4.057,3.135,5.185,4.826,1.223,2.445.813,5.421-1.03,6.972a3.288,3.288,0,0,0,.625-.207,9.289,9.289,0,0,0,5.308-7.467,5.433,5.433,0,0,0-.69-3.569" transform="translate(-87.325 -80.545)" fill="#dba983"/>
    <path id="Trazado_209893" data-name="Trazado 209893" d="M240.088,206.141a7.344,7.344,0,0,1,3.725,5.229,5.116,5.116,0,0,0-.245-2.6c-.354-.873-1.061-1-1.526-1.573-.706-.873-1.474-.72-1.954-1.054" transform="translate(-92.737 -79.624)" fill="#00a0b3"/>
    <path id="Trazado_209894" data-name="Trazado 209894" d="M237.307,211.674a3.691,3.691,0,0,0-.718-.849,5.217,5.217,0,0,0-.647-1.841,5.723,5.723,0,0,0-9.032-.9,1.182,1.182,0,0,0-.455.817,1.2,1.2,0,0,0,.327.69,8.613,8.613,0,0,0,1.241,1.235,2.647,2.647,0,0,0,.714.971,27.3,27.3,0,0,0,2.562,1.826A5.047,5.047,0,0,1,233.282,216a1.5,1.5,0,0,1-.295,1.635,6.8,6.8,0,0,0-.58.382,1.014,1.014,0,0,0-.119,1.141,2.965,2.965,0,0,0,.8.911c-.361-.363-.753-.82-.649-1.321.1-.481.6-.745.956-1.083a2.215,2.215,0,0,0,.656-1.4,7.55,7.55,0,0,1,.575,2.632c1.168-.527,1.368-1.613,2.069-2.685a5.964,5.964,0,0,0,1.081-2.383,3.327,3.327,0,0,0-.473-2.155m-5.455,1.2c.233.08.469.147.7.218.261.414.52.83.743,1.262a12.466,12.466,0,0,1-1.447-1.48" transform="translate(-87.47 -79.674)" fill="#1d2630"/>
    <path id="Trazado_209895" data-name="Trazado 209895" d="M232.018,210.036a4.627,4.627,0,0,0,3.377,2.652l-1.03-.938a2.38,2.38,0,0,0,1.545.288l-.277-.339a2.219,2.219,0,0,1,2.247.751,1.775,1.775,0,0,0-.645-1.654,1.063,1.063,0,0,1,.721.121l.028-.391.666.179-.513-.886a2.427,2.427,0,0,1,1.077.27,4.089,4.089,0,0,0-1.728-2,.88.88,0,0,1,.061.934,2.586,2.586,0,0,1-.634.751c-.189.172-.443.358-.677.255-.1-.046-.185-.145-.3-.166-.191-.035-.335.166-.416.342s-.194.386-.389.39c-.161,0-.279-.141-.4-.242s-.348-.147-.42,0a.846.846,0,0,0-.036.172.4.4,0,0,1-.482.225,5.563,5.563,0,0,1-.545-.217.461.461,0,0,0-.532.119Z" transform="translate(-89.62 -80.377)" fill="#106887"/>
    <path id="Trazado_209896" data-name="Trazado 209896" d="M278.745,349.449h1.424l-7.037-66.214h-1.424Z" transform="translate(-104.95 -109.403)" fill="#1d2630"/>
    <path id="Trazado_209897" data-name="Trazado 209897" d="M271.779,347.135h1.374l-6.791-63.9h-1.375Z" transform="translate(-102.354 -109.402)" fill="#1d2630"/>
    <path id="Trazado_209898" data-name="Trazado 209898" d="M148.085,349.449h-1.424l7.037-66.214h1.424Z" transform="translate(-56.65 -109.403)" fill="#1d2630"/>
    <path id="Trazado_209899" data-name="Trazado 209899" d="M155.237,347.135h-1.374l6.791-63.9h1.374Z" transform="translate(-59.431 -109.402)" fill="#1d2630"/>
    <rect id="Rectángulo_42416" data-name="Rectángulo 42416" width="0.586" height="24.03" transform="translate(149.758 174.386) rotate(-53.179)" fill="#1d2630"/>
    <rect id="Rectángulo_42417" data-name="Rectángulo 42417" width="24.03" height="0.586" transform="translate(95.832 188.327) rotate(-36.87)" fill="#1d2630"/>
    <rect id="Rectángulo_42418" data-name="Rectángulo 42418" width="103.506" height="2.764" transform="translate(80.651 172.419)" fill="#fffdf5"/>
    <path id="Trazado_209900" data-name="Trazado 209900" d="M170.323,269.64h23.761a.727.727,0,0,0,.718-.841l-2.149-13.5a.727.727,0,0,0-.717-.613H168.174a.727.727,0,0,0-.718.841l2.149,13.5a.727.727,0,0,0,.718.613" transform="translate(-64.678 -98.375)" fill="#fff"/>
    <path id="Trazado_209901" data-name="Trazado 209901" d="M170.323,270.706h23.761a.727.727,0,0,0,.718-.841l-2.149-13.5a.727.727,0,0,0-.717-.613H168.174a.727.727,0,0,0-.718.841l2.149,13.5a.727.727,0,0,0,.718.612" transform="translate(-64.678 -98.786)" fill="#00a0b3"/>
    <rect id="Rectángulo_42419" data-name="Rectángulo 42419" width="31.479" height="0.65" transform="translate(105.597 171.942)" fill="#00a0b3"/>
    <path id="Trazado_209902" data-name="Trazado 209902" d="M250.355,249.135a14.526,14.526,0,0,0-7.831-2.388l0-.307a14.825,14.825,0,0,1,8,2.44Z" transform="translate(-93.678 -95.19)" fill="#fff"/>
    <path id="Trazado_209903" data-name="Trazado 209903" d="M227.226,238.853a4.215,4.215,0,0,1-2.486-.673,2.51,2.51,0,0,1-.994-1.736,1.752,1.752,0,0,1,.425-1.388.153.153,0,0,1,.226.207,1.453,1.453,0,0,0-.345,1.15,2.192,2.192,0,0,0,.868,1.518,4.466,4.466,0,0,0,3.1.577,24.3,24.3,0,0,0,8.189-2.563,3.188,3.188,0,0,0,1.127-.753,1.03,1.03,0,0,0,.169-1.149.153.153,0,1,1,.259-.164,1.325,1.325,0,0,1-.191,1.509,3.415,3.415,0,0,1-1.232.835,24.614,24.614,0,0,1-8.295,2.592c-.247.021-.525.039-.819.039" transform="translate(-86.42 -90.311)" fill="#fff"/>
    <path id="Trazado_209904" data-name="Trazado 209904" d="M204.382,311.367A47.057,47.057,0,0,0,187.6,294.522l.155-.265a47.352,47.352,0,0,1,16.887,16.955Z" transform="translate(-72.464 -113.66)" fill="#fff"/>
    <path id="Trazado_209905" data-name="Trazado 209905" d="M157.112,148.874l8.675,5.085a22.2,22.2,0,0,1,2.241-2.751l-7.209-6.99a32.29,32.29,0,0,0-3.707,4.656" transform="translate(-60.686 -55.706)" fill="#fff"/>
    <path id="Trazado_209906" data-name="Trazado 209906" d="M186.912,128.112a31.949,31.949,0,0,0-20.6,8.031l6.536,7.625a21.96,21.96,0,0,1,14.063-5.609Z" transform="translate(-64.24 -49.485)" fill="#fff"/>
    <path id="Trazado_209907" data-name="Trazado 209907" d="M204.375,123.8a43.339,43.339,0,1,0,7.345,60.85,43.339,43.339,0,0,0-7.345-60.85M154.21,187.742a37.928,37.928,0,0,1-6.428-53.252c12.931-16.48,36.552-19.072,53.253-6.428,16.237,12.293,19.332,36.7,6.427,53.252a37.888,37.888,0,0,1-53.252,6.428" transform="translate(-51.867 -44.25)" fill="#a6afb4"/>
    <path id="Trazado_209908" data-name="Trazado 209908" d="M202.351,123.805a43.34,43.34,0,1,0,7.345,60.85,43.339,43.339,0,0,0-7.345-60.85m-50.638,64.54a38.694,38.694,0,0,1-6.557-54.328c13.192-16.813,37.29-19.457,54.328-6.558,16.565,12.542,19.723,37.446,6.557,54.328a38.653,38.653,0,0,1-54.328,6.557" transform="translate(-51.086 -44.25)" fill="#1d2630"/>
    <rect id="Rectángulo_42420" data-name="Rectángulo 42420" width="21.174" height="2.836" transform="matrix(0.617, -0.787, 0.787, 0.617, 86.101, 160.311)" fill="#1d2630"/>
    <rect id="Rectángulo_42421" data-name="Rectángulo 42421" width="49.911" height="5.104" transform="translate(55.1 197.985) rotate(-51.88)" fill="#dc8456"/>
    <rect id="Rectángulo_42422" data-name="Rectángulo 42422" width="47.015" height="0.399" transform="translate(57.235 196.949) rotate(-51.932)" fill="#fff"/>
    <path id="Trazado_209909" data-name="Trazado 209909" d="M121.769,275.087c-.7,1.345-.28,3.013-.76,4.45-.416,1.25-1.456,2.181-2.112,3.324a7.354,7.354,0,0,1-1.386,2.189,4.042,4.042,0,0,1-2.256.735,7.292,7.292,0,0,0-2.358.43l8.872-11.128" transform="translate(-43.608 -106.255)" fill="#1d2630"/>
    <path id="Trazado_209910" data-name="Trazado 209910" d="M122.1,277.735a1.023,1.023,0,0,0-.49.222,6.516,6.516,0,0,0-.643.528,4.449,4.449,0,0,1,.32-.76,2.725,2.725,0,0,0-2.158,1.011c-.563.6-.987,1.325-1.57,1.907a2.545,2.545,0,0,1-2.209.861q-.066,1.167-.134,2.335a2.1,2.1,0,0,1,1.489-.107,7.093,7.093,0,0,0,1.5.284,1.338,1.338,0,0,0,1.261-.7,3.043,3.043,0,0,0,.142-.689,4.63,4.63,0,0,0,.443-.244,2.839,2.839,0,0,0,1.038-1.083,6.032,6.032,0,0,0,.4-1.491,2.376,2.376,0,0,1,.681-1.359c.14-.118.321-.241.317-.424a.35.35,0,0,0-.388-.294" transform="translate(-44.503 -107.271)" fill="#eaa180"/>
    <path id="Trazado_209911" data-name="Trazado 209911" d="M77.644,249.348a2.893,2.893,0,0,0-1.831,1.669,6.905,6.905,0,0,0-.495,2.5,21.079,21.079,0,0,0,2.047,10.462,17.084,17.084,0,0,0,7.365,7.62c4.781,2.452,10.981,2.328,16.343,2.682.377-1.281-.022-3.255.355-4.537-4.462-.177-9.087-.907-12.691-3.545s-5.236-6.678-6.1-11.06a16.107,16.107,0,0,0-1.205-4.112,3.675,3.675,0,0,0-3.79-1.68" transform="translate(-29.08 -96.284)" fill="#106887"/>
    <path id="Trazado_209912" data-name="Trazado 209912" d="M88.737,266.2c-3.6-2.637-5.236-6.678-6.1-11.059a16.117,16.117,0,0,0-1.205-4.112,3.673,3.673,0,0,0-3.79-1.68,2.892,2.892,0,0,0-1.831,1.669,6.919,6.919,0,0,0-.5,2.5,21.084,21.084,0,0,0,2.047,10.461,17.081,17.081,0,0,0,7.365,7.62,17.493,17.493,0,0,0,3.352,1.275,19.649,19.649,0,0,0,1.128-6.348c-.159-.106-.319-.212-.474-.326" transform="translate(-29.08 -96.284)" fill="#1d2630"/>
    <path id="Trazado_209913" data-name="Trazado 209913" d="M86.02,245.778c-1.684-1.84-2.366-4.825-2.631-7.3l-4.207-.461a44.788,44.788,0,0,1,.2,10.5c2.344-1.11,4.293-1.622,6.637-2.731" transform="translate(-30.585 -91.935)" fill="#eaa180"/>
    <path id="Trazado_209914" data-name="Trazado 209914" d="M84.1,242.1a20.217,20.217,0,0,1-.706-3.622l-4.207-.461c.067.485.123.972.174,1.459A6.37,6.37,0,0,0,84.1,242.1" transform="translate(-30.585 -91.935)" fill="#1d2630"/>
    <path id="Trazado_209915" data-name="Trazado 209915" d="M72.788,228.509a5.168,5.168,0,0,1,.188-2.605,3.86,3.86,0,0,1,1.645-1.824,6.713,6.713,0,0,1,2.358-.79c1.045-.168,2.28-.389,3.121.253,1.094.835,1.59,1.05,1.784,2.233a2.781,2.781,0,0,0,.279.732,1.2,1.2,0,0,0,.431.452c.466.288.646.753.86,1.636a9.6,9.6,0,0,1,.258,1.377,2.91,2.91,0,0,0,.24.878,1.283,1.283,0,0,1,.068.956,1.5,1.5,0,0,1-.71.675,8.519,8.519,0,0,1-6.549.565,5.559,5.559,0,0,1-3.28-2.257,5.92,5.92,0,0,1-.694-2.281" transform="translate(-28.085 -86.18)" fill="#eaa180"/>
    <path id="Trazado_209916" data-name="Trazado 209916" d="M81.45,224.677a7.361,7.361,0,0,0-1.348-1.134c-.842-.642-2.077-.421-3.122-.253a6.706,6.706,0,0,0-2.357.79,3.853,3.853,0,0,0-1.645,1.824,5.162,5.162,0,0,0-.189,2.605,5.917,5.917,0,0,0,.695,2.281,5.557,5.557,0,0,0,3.279,2.257,9.09,9.09,0,0,0,4.5.195,10.331,10.331,0,0,1,.185-8.564" transform="translate(-28.085 -86.18)" fill="#dc8456"/>
    <path id="Trazado_209917" data-name="Trazado 209917" d="M76.881,244.215c-.748-2.381-1.9-4.891-1.123-7.265.462-1.417,1.582-2.618,1.714-4.1a5.925,5.925,0,0,0-1.572-3.913l-.359-.468c.171-.18.338-.365.491-.562a8.244,8.244,0,0,0,1.582-6.824c-.192-.8.039-.5-.992-1.931-2.57,1.07-4.294,1.685-6.865,2.755a7.875,7.875,0,0,0-1.679.868s-.377.23-.448.394a3.934,3.934,0,0,0-.914,2.924,14.236,14.236,0,0,0-.244,3.576c.144,2.45.922,4.86.767,7.31-.165,2.6-1.362,5-2.087,7.5a21.133,21.133,0,0,0-.338,10.383,8.523,8.523,0,0,0,2.946,5.268,10.6,10.6,0,0,0,4.978,1.472,3.307,3.307,0,0,0,2.7-.456,3.035,3.035,0,0,0,.654-1.063,23.129,23.129,0,0,0,.792-15.868" transform="translate(-24.845 -84.649)" fill="#1d2630"/>
    <path id="Trazado_209918" data-name="Trazado 209918" d="M76.586,223.089a5.287,5.287,0,0,0,2.337-1.544,4.363,4.363,0,0,1,.066,3.276,4.943,4.943,0,0,0-.474-1.671,3.227,3.227,0,0,1-.3,1.248l-.275-.818a1.552,1.552,0,0,0-.619.726.645.645,0,0,0-.8-.177,1.883,1.883,0,0,0-.654.6c.11-.22-.165-.473-.409-.441a1.02,1.02,0,0,0-.587.419,1.072,1.072,0,0,1-.582.429,3.5,3.5,0,0,1-.439-.008c-.45.017-.778.416-1.045.779.035-.113-.1-.221-.215-.21a.551.551,0,0,0-.3.176l-1.239,1.145.379-1.837a1.57,1.57,0,0,0,1.558-.934,1.594,1.594,0,0,0,1.252-.161l2.348-1" transform="translate(-27.443 -85.574)" fill="#106887"/>
    <path id="Trazado_209919" data-name="Trazado 209919" d="M108.405,399.629a11.667,11.667,0,0,1-3.911-1.31c-1.729-1.07-2.556-3.185-2.978-5.175-1.344.116-2.875.4-4.219.52.7,1.792,1.586,3.741,1.568,5.61,3.164,1.113,6.762,1.829,9.54.355" transform="translate(-37.582 -151.856)" fill="#edc6a4"/>
    <path id="Trazado_209920" data-name="Trazado 209920" d="M112.415,404.178a2.153,2.153,0,0,0-.847-.285c-.711-.136-1.477-.257-2.246-.4-2.778,1.474-6.376.758-9.54-.354a5.192,5.192,0,0,1-.082.894,1.857,1.857,0,0,0,.593,1.722,2.5,2.5,0,0,0,1.847.25c3.371-.32,6.987.887,10.045-.566a.964.964,0,0,0,.543-.479.71.71,0,0,0-.314-.776" transform="translate(-38.499 -155.715)" fill="#dc8456"/>
    <path id="Trazado_209921" data-name="Trazado 209921" d="M84.9,299.194H71.3a13.986,13.986,0,0,0-.927,3.091,23.056,23.056,0,0,0,.778,10.454c1.054,3.592,4.914,7.25,8.391,18.238.819,2.587,1.086,5.58,1.9,9.075,1.7,7.307,4.86,13.645,5.262,21.251a18.454,18.454,0,0,1,6.564-1.162c-2.673-10.551-3.493-20.19-4.786-30.344-.825-6.477-2.556-13.318-2.77-20.235a67.224,67.224,0,0,0-.807-10.367" transform="translate(-27.069 -115.567)" fill="#00a0b3"/>
    <path id="Trazado_209922" data-name="Trazado 209922" d="M85.709,309.561a67.371,67.371,0,0,0-.807-10.367H71.3a13.977,13.977,0,0,0-.928,3.091,23.056,23.056,0,0,0,.778,10.454c1.053,3.592,4.913,7.25,8.391,18.238.767,2.422,1.054,5.207,1.754,8.42.514-8.608,2.736-15.367,3.87-23.166a28.237,28.237,0,0,0,.543-6.67" transform="translate(-27.069 -115.567)" fill="#1d2630"/>
    <path id="Trazado_209923" data-name="Trazado 209923" d="M96.3,380.7a254.032,254.032,0,0,0-6.234-28.587l.257-.071a254.362,254.362,0,0,1,6.241,28.616Z" transform="translate(-34.789 -135.98)" fill="#fff"/>
    <path id="Trazado_209924" data-name="Trazado 209924" d="M101.358,360.14c-2.673-10.551-3.493-20.19-4.786-30.344-.825-6.476-2.556-13.318-2.77-20.236A67.3,67.3,0,0,0,93,299.194H91.033c1.66,20.514,7.179,40.555,8.465,60.937a5.309,5.309,0,0,1,1.86.009" transform="translate(-35.163 -115.567)" fill="#106887"/>
    <path id="Trazado_209925" data-name="Trazado 209925" d="M65.23,402.687a7.962,7.962,0,0,1-1.737-4.4c-.189-2.174,1.054-4.2,1.75-6.264-1.274-.3-2.98-.927-4.254-1.229a18.525,18.525,0,0,1-2.719,7.649,7.3,7.3,0,0,0,2.152,3.08,6.73,6.73,0,0,0,4.807,1.164" transform="translate(-22.508 -150.949)" fill="#edc6a4"/>
    <path id="Trazado_209926" data-name="Trazado 209926" d="M65.886,408.655A5.879,5.879,0,0,1,64.6,407.5a6.734,6.734,0,0,1-4.807-1.164,7.307,7.307,0,0,1-2.151-3.08c-.108.179-.212.361-.327.536a2.613,2.613,0,0,0-.652,1.846c.156.751.946,1.154,1.485,1.7.648.656.962,1.582,1.591,2.255a4.247,4.247,0,0,0,2.844,1.2,12.623,12.623,0,0,0,3.137-.322c.422-.079.923-.23,1.029-.645.128-.505-.424-.89-.861-1.174" transform="translate(-21.876 -155.762)" fill="#dc8456"/>
    <path id="Trazado_209927" data-name="Trazado 209927" d="M69.407,296.3c.261,2.281-2.542,7.362-2.458,9.642a164.171,164.171,0,0,1-6.22,52.95c1.808,1.679,4.085,1.672,6.069,2.066,5.146-15.442,11.79-31.959,14.425-48.02.876-5.344.374-9.082-.142-15.409Z" transform="translate(-23.457 -114.45)" fill="#00a0b3"/>
    <path id="Trazado_209928" data-name="Trazado 209928" d="M63.078,363.383l-.251-.088a156.516,156.516,0,0,0,8.829-44.208l.045-.931a45.759,45.759,0,0,1,1.51-11.387l.255.079a45.557,45.557,0,0,0-1.5,11.32l-.045.932a156.8,156.8,0,0,1-8.844,44.283" transform="translate(-24.268 -118.493)" fill="#fff"/>
    <path id="Trazado_209929" data-name="Trazado 209929" d="M83.389,298.242l-.957-.1c-1.084,21.437-6.9,43.135-15.728,63.128.814.155,1.63.248,2.4.4,5.146-15.442,11.79-31.959,14.425-48.021.877-5.344.375-9.081-.142-15.408" transform="translate(-25.766 -115.16)" fill="#106887"/>
    <path id="Trazado_209930" data-name="Trazado 209930" d="M70.263,280.676c4.292,2.268,10.4,4.678,16.144,2.354-.274-8.522-1.5-11.527.833-16.772.825-1.851,1.912-3.7,1.857-5.708-.1-3.62-3.806-6.314-4.517-9.872-.248-1.239-.274-2.78-1.458-3.363a3.585,3.585,0,0,0-1.9-.176l-4.321.379c-1.4.123-2.958.325-3.825,1.367-.9,1.077-.692,2.61-.445,3.959a70.764,70.764,0,0,1,1.6,14.211,24.729,24.729,0,0,1-3.975,13.621" transform="translate(-27.14 -95.443)" fill="#106887"/>
    <path id="Trazado_209931" data-name="Trazado 209931" d="M75.838,289.559l-.241-.114a40.148,40.148,0,0,0,3.443-23.183l.262-.047a40.425,40.425,0,0,1-3.465,23.344" transform="translate(-29.2 -102.828)" fill="#1d2630"/>
    <path id="Trazado_209932" data-name="Trazado 209932" d="M96.8,260.573c-.1-3.62-3.806-6.314-4.517-9.872-.248-1.239-.274-2.78-1.458-3.363a2.078,2.078,0,0,0-.617-.184c.848,3.919,6.126,9.316,5.111,12.413-3.46,10.557-2.025,15.384-2.383,23.89.392-.115.784-.247,1.173-.405-.274-8.522-1.5-11.527.833-16.772.825-1.851,1.911-3.7,1.857-5.708" transform="translate(-34.845 -95.466)" fill="#00a0b3"/>
    <path id="Trazado_209933" data-name="Trazado 209933" d="M76.438,257.55a5.256,5.256,0,0,1,2.787-5.105,12.685,12.685,0,0,1,5.973-1.351,2.137,2.137,0,0,1,1.8.516,2.012,2.012,0,0,1-.05,2.028,11.831,11.831,0,0,1-5.774,5.887,3.958,3.958,0,0,1-2.933.395,3,3,0,0,1-1.806-2.369" transform="translate(-29.504 -96.986)" fill="#1d2630"/>
    <path id="Trazado_209934" data-name="Trazado 209934" d="M138.086,223.839l.943-.576c.144-.088.336-.174.466-.067a.284.284,0,0,1,.063.312.92.92,0,0,1-.191.278,6.043,6.043,0,0,0-1.345,2.673,6.806,6.806,0,0,1,.064-2.621" transform="translate(-53.269 -86.193)" fill="#dc8456"/>
    <path id="Trazado_209935" data-name="Trazado 209935" d="M136.448,223.526a.365.365,0,0,1-.1-.149,2.661,2.661,0,0,1,.133-2.136,7.233,7.233,0,0,1,1.3-1.768,9.7,9.7,0,0,0,1.374-1.718c.366.273.069.8-.094,1.167a5.912,5.912,0,0,1-.646,1.01,7.816,7.816,0,0,0-1.455,3.1.916.916,0,0,1-.137.408.284.284,0,0,1-.381.083" transform="translate(-52.602 -84.11)" fill="#dc8456"/>
    <path id="Trazado_209936" data-name="Trazado 209936" d="M131.372,216.1c.7.255-.392,2.087-.565,3.315-.252,1.779.155,2.4-.263,4.52a1.923,1.923,0,0,1-1.65,1.476,11.164,11.164,0,0,0-4.973,2.6c-1.817,1.447-3.7,3.056-6.007,3.335.1-1.914.49-3.866,2.114-4.883s4.038-1.888,5.689-2.861c2.994-1.763,4.258-5.422,5.656-7.507" transform="translate(-45.545 -83.473)" fill="#eaa180"/>
    <path id="Trazado_209937" data-name="Trazado 209937" d="M106.776,229.8a12.19,12.19,0,0,0,1.927,3.055c-8.284,7.072-17.945,12.379-27.943,16.7a5.177,5.177,0,0,1-2.794.617A3.288,3.288,0,0,1,75.537,248a6.11,6.11,0,0,1-.095-3.374,5.532,5.532,0,0,1,1.233-2.645,7.553,7.553,0,0,1,3.619-1.765A145.3,145.3,0,0,0,106.776,229.8" transform="translate(-29.067 -88.762)" fill="#106887"/>
    <path id="Trazado_209938" data-name="Trazado 209938" d="M107.379,229.993l-.1-.194A145.285,145.285,0,0,1,80.8,240.212a7.554,7.554,0,0,0-3.618,1.765,4.146,4.146,0,0,0-.626.921q2.45-.875,4.978-1.655c9.069-2.519,18.135-5.519,25.85-11.25" transform="translate(-29.569 -88.762)" fill="#00a0b3"/>
    <path id="Trazado_209939" data-name="Trazado 209939" d="M369.776,311.933h23.761a.727.727,0,0,0,.718-.841l-2.149-13.5a.727.727,0,0,0-.717-.613H367.627a.727.727,0,0,0-.718.841l2.149,13.5a.727.727,0,0,0,.718.613" transform="translate(-141.719 -114.711)" fill="#fff"/>
    <path id="Trazado_209940" data-name="Trazado 209940" d="M369.776,313h23.761a.727.727,0,0,0,.718-.841l-2.149-13.5a.727.727,0,0,0-.717-.613H367.627a.727.727,0,0,0-.718.841l2.149,13.5a.727.727,0,0,0,.718.613" transform="translate(-141.719 -115.122)" fill="#00a0b3"/>
    <rect id="Rectángulo_42423" data-name="Rectángulo 42423" width="31.479" height="0.65" transform="translate(228.009 197.899)" fill="#00a0b3"/>
  </g>
</svg>
