<svg xmlns="http://www.w3.org/2000/svg" xmlns:xlink="http://www.w3.org/1999/xlink" width="295" height="186.31" viewBox="0 0 295 186.31">
  <defs>
    <linearGradient id="linear-gradient" x1="0.962" y1="0.542" x2="-0.073" y2="0.536" gradientUnits="objectBoundingBox">
      <stop offset="0" stop-color="#f3e6e3"/>
      <stop offset="1" stop-color="#fff"/>
    </linearGradient>
    <clipPath id="clip-path">
      <rect id="Rectángulo_42082" data-name="Rectángulo 42082" width="226.9" height="173.075" fill="none"/>
    </clipPath>
    <clipPath id="clip-path-4">
      <path id="Trazado_208433" data-name="Trazado 208433" d="M4.013,0a1.577,1.577,0,0,0-.685.161C-7.835,5.5,13.277,14.721,6,27.582S8.814,39.972,13,51.941c2.885,8.24-11.861,15.438-2.639,21.5S28.528,99.119,28.528,99.119c10.155,7.96,1.407-11.41,8.156-27.65s-13.7-7.488-2.84-27.629S21.164,36.924,22.5,17.632c.418-6.042-1.736-5.826-4.686-5.61-2.434.178-5.41.355-7.932-2.978C9.88,9.044,7.054,0,4.017,0Z" transform="translate(0)" fill="none"/>
    </clipPath>
    <clipPath id="clip-path-5">
      <rect id="Rectángulo_42059" data-name="Rectángulo 42059" width="62.375" height="111.562" fill="none"/>
    </clipPath>
    <clipPath id="clip-path-6">
      <path id="Trazado_208435" data-name="Trazado 208435" d="M162.19,326.613a3.378,3.378,0,0,1-2.763-2.187c-1.046-2.991,1.456-8.226,3.665-10.856a17.386,17.386,0,0,0,3.542-11.449c-.068-1.078-.179-2.069-.277-2.943-.26-2.317-.447-3.99.412-4.956.786-.883,2.506-1.283,5.577-1.3,6.167-.029,8.6-2.579,10.558-4.627a9.948,9.948,0,0,1,2.266-1.968c2.607-1.423,5.4-1.71,6.5-.668.836.793.442,2.15-.036,3.149a14.6,14.6,0,0,1-3.083,4.122c-1.415,1.444-2.532,2.584-1.966,4.8.111.434.239.873.368,1.313.9,3.076,1.749,5.981-2.96,8.1-1.106.5-2.119.895-3.013,1.246-3.725,1.462-6.186,2.428-8.824,8-.491,1.037-.923,2.015-1.34,2.961-1.99,4.51-3.291,7.458-6.91,7.458a8.711,8.711,0,0,1-1.72-.188m22.632-40.923a10.629,10.629,0,0,0-2.444,2.1c-1.861,1.949-4.177,4.374-10.035,4.4-3.34.016-5.17.477-6.117,1.542-1.075,1.208-.873,3.017-.592,5.521.1.866.207,1.848.274,2.908a16.966,16.966,0,0,1-3.373,10.936c-2.232,2.657-4.981,8.17-3.794,11.563a4.06,4.06,0,0,0,3.306,2.66,9.382,9.382,0,0,0,1.861.2c4.1,0,5.6-3.4,7.579-7.892.415-.942.845-1.915,1.332-2.943,2.514-5.308,4.742-6.182,8.432-7.63.9-.354,1.924-.755,3.046-1.259,5.286-2.376,4.263-5.877,3.36-8.966-.126-.432-.252-.863-.361-1.289-.465-1.817.428-2.728,1.78-4.108a15.408,15.408,0,0,0,3.22-4.317,5.265,5.265,0,0,0,.6-2.2v-.045a2.326,2.326,0,0,0-.717-1.742,3.669,3.669,0,0,0-2.557-.816,10.406,10.406,0,0,0-4.8,1.373" transform="translate(-158.454 -284.317)" fill="none"/>
    </clipPath>
    <linearGradient id="linear-gradient-2" x1="-0.765" y1="1.422" x2="-0.76" y2="1.422" gradientUnits="objectBoundingBox">
      <stop offset="0" stop-color="#40d5e6"/>
      <stop offset="1" stop-color="#57f"/>
    </linearGradient>
    <clipPath id="clip-path-7">
      <path id="Trazado_208436" data-name="Trazado 208436" d="M192.959,322.906c-1.065,3.729-3.3,9.284-10.392,14.453-6.464,4.712-7.381,20.811-7.417,21.494l.727.038c.009-.163.932-16.434,7.119-20.944,7.273-5.3,9.569-11.009,10.664-14.841,1.129-3.955,7.277-5.087,7.339-5.1l-.127-.717c-.271.048-6.658,1.222-7.912,5.616" transform="translate(-175.15 -317.29)" fill="none"/>
    </clipPath>
    <linearGradient id="linear-gradient-3" x1="-1.195" y1="1.337" x2="-1.188" y2="1.337" xlink:href="#linear-gradient-2"/>
    <clipPath id="clip-path-8">
      <path id="Trazado_208437" data-name="Trazado 208437" d="M141.467,106.032c-1.941,6.552-21.6,2.858-13.346,19.265s-10.435,5.487-4.853,19.8.485,29.629,6.552,25.734,3.408-21.924,9.717-24.066,7.339-4.641,1.092-10.465S157,124.7,151.416,112.939s.94-18.918-4.368-20.738a3.075,3.075,0,0,0-.993-.184c-3.468,0-2.8,7.984-4.588,14.016" transform="translate(-122.207 -92.016)" fill="none"/>
    </clipPath>
    <clipPath id="clip-path-10">
      <path id="Trazado_208439" data-name="Trazado 208439" d="M83.026,491.619l6.56,24.886h14.659l6.56-24.886Z" transform="translate(-83.026 -491.619)" fill="none"/>
    </clipPath>
    <linearGradient id="linear-gradient-4" x1="-0.527" y1="1" x2="-0.521" y2="1" gradientUnits="objectBoundingBox">
      <stop offset="0" stop-color="#ff9340"/>
      <stop offset="1" stop-color="#ffce45"/>
    </linearGradient>
    <clipPath id="clip-path-11">
      <path id="Trazado_208440" data-name="Trazado 208440" d="M83.026,491.619l6.56,24.886h6.778c0-22.175,14.441-24.886,14.441-24.886Z" transform="translate(-83.026 -491.619)" fill="none"/>
    </clipPath>
    <linearGradient id="linear-gradient-5" x1="-0.527" y1="1" x2="-0.521" y2="1" gradientUnits="objectBoundingBox">
      <stop offset="0" stop-color="#c97332"/>
      <stop offset="1" stop-color="#ffce45"/>
    </linearGradient>
  </defs>
  <g id="Grupo_151267" data-name="Grupo 151267" transform="translate(-915 -1155.484)">
    <g id="Grupo_151199" data-name="Grupo 151199" transform="translate(-4.923 -617.9)">
      <path id="Trazado_207751" data-name="Trazado 207751" d="M-465.144-9768.9l6.144-15.931h-10.807l-33.787,33.787-13.272,6.784,9.872,7.6,14.521-5.822Z" transform="translate(1673.923 11696.277)" fill="#848580"/>
      <g id="Grupo_150823" data-name="Grupo 150823" transform="translate(919.923 1773.385)">
        <path id="amg3" d="M187,0H-77.29L-108,31.767V181.4H187Z" transform="translate(108)" fill="url(#linear-gradient)"/>
      </g>
      <path id="Trazado_207750" data-name="Trazado 207750" d="M-437.328-9763.085v48.232h-48.1Z" transform="translate(1652.251 11674.547)" fill="#9f321d"/>
    </g>
    <g id="Grupo_151265" data-name="Grupo 151265" transform="translate(939.481 1163.305)">
      <rect id="Rectángulo_42080" data-name="Rectángulo 42080" width="17.009" height="51.66" transform="translate(100.986 89.748)" fill="#8f8f8f"/>
      <g id="Grupo_151260" data-name="Grupo 151260" transform="translate(6.146)">
        <g id="Grupo_151259" data-name="Grupo 151259" clip-path="url(#clip-path)">
          <path id="Trazado_208557" data-name="Trazado 208557" d="M43.943,114.787H175.869a7.47,7.47,0,0,0,7.47-7.47V18.646a7.47,7.47,0,0,0-7.47-7.47H43.943a7.47,7.47,0,0,0-7.47,7.47v88.667a7.47,7.47,0,0,0,7.47,7.47" transform="translate(-6.562 -0.153)" fill="#f0f0f0"/>
          <rect id="Rectángulo_42081" data-name="Rectángulo 42081" width="135.362" height="110.232" transform="translate(35.663)" fill="#fff"/>
        </g>
      </g>
      <rect id="Rectángulo_42083" data-name="Rectángulo 42083" width="135.363" height="11.885" transform="translate(41.809)" fill="#727997"/>
      <rect id="Rectángulo_42084" data-name="Rectángulo 42084" width="76.517" height="3.9" transform="translate(71.232 139.458)" fill="#ccc"/>
      <g id="Grupo_151262" data-name="Grupo 151262" transform="translate(6.146)">
        <g id="Grupo_151261" data-name="Grupo 151261" clip-path="url(#clip-path)">
          <path id="Trazado_208558" data-name="Trazado 208558" d="M65.73,8.239H49.654a1.615,1.615,0,0,1-1.615-1.615V5.363a1.615,1.615,0,0,1,1.615-1.615H65.73a1.615,1.615,0,0,1,1.615,1.615V6.625A1.615,1.615,0,0,1,65.73,8.24" transform="translate(-6.72 -0.051)" fill="#f5f7ff"/>
          <rect id="Rectángulo_42085" data-name="Rectángulo 42085" width="56.376" height="2.436" transform="translate(45.58 26.885)" fill="#e6e6e6"/>
          <rect id="Rectángulo_42086" data-name="Rectángulo 42086" width="64.447" height="2.436" transform="translate(45.58 31.272)" fill="#e6e6e6"/>
          <rect id="Rectángulo_42087" data-name="Rectángulo 42087" width="70.871" height="2.436" transform="translate(45.58 40.027)" fill="#e6e6e6"/>
          <rect id="Rectángulo_42088" data-name="Rectángulo 42088" width="59.773" height="2.436" transform="translate(45.58 21.982)" fill="#fecd4d"/>
          <rect id="Rectángulo_42089" data-name="Rectángulo 42089" width="52.564" height="2.436" transform="translate(45.58 44.415)" fill="#e6e6e6"/>
          <rect id="Rectángulo_42090" data-name="Rectángulo 42090" width="33.33" height="2.436" transform="translate(45.58 53.948)" fill="#e6e6e6"/>
          <rect id="Rectángulo_42091" data-name="Rectángulo 42091" width="59.88" height="2.436" transform="translate(45.58 58.336)" fill="#e6e6e6"/>
          <rect id="Rectángulo_42092" data-name="Rectángulo 42092" width="42.608" height="2.436" transform="translate(45.58 68.819)" fill="#e6e6e6"/>
          <rect id="Rectángulo_42093" data-name="Rectángulo 42093" width="52.029" height="2.436" transform="translate(45.58 73.206)" fill="#e6e6e6"/>
          <rect id="Rectángulo_42094" data-name="Rectángulo 42094" width="56.953" height="2.436" transform="translate(45.58 83.689)" fill="#e6e6e6"/>
          <rect id="Rectángulo_42095" data-name="Rectángulo 42095" width="29.94" height="2.436" transform="translate(45.58 88.077)" fill="#e6e6e6"/>
          <rect id="Rectángulo_42096" data-name="Rectángulo 42096" width="1.781" height="6.823" transform="translate(42.122 26.885)" fill="#9f321d"/>
          <rect id="Rectángulo_42097" data-name="Rectángulo 42097" width="1.781" height="6.823" transform="translate(42.122 40.027)" fill="#9f321d"/>
          <rect id="Rectángulo_42098" data-name="Rectángulo 42098" width="1.781" height="6.823" transform="translate(42.122 53.948)" fill="#9f321d"/>
          <rect id="Rectángulo_42099" data-name="Rectángulo 42099" width="1.781" height="6.823" transform="translate(42.122 68.819)" fill="#9f321d"/>
          <rect id="Rectángulo_42100" data-name="Rectángulo 42100" width="1.781" height="6.823" transform="translate(42.122 83.689)" fill="#78c2ff"/>
          <path id="Trazado_208559" data-name="Trazado 208559" d="M147.973,93.125H142.3a2.042,2.042,0,0,1-2.043-2.043V85.407a2.042,2.042,0,0,1,2.043-2.043h5.676a2.042,2.042,0,0,1,2.043,2.043v5.676a2.042,2.042,0,0,1-2.043,2.043" transform="translate(-7.985 -1.143)" fill="#78c2ff"/>
          <path id="Trazado_208560" data-name="Trazado 208560" d="M144.853,90.433l-2.466-2.151a.486.486,0,0,1,.625-.745l.014.012,1.745,1.521,2.488-2.775a.486.486,0,0,1,.738.633l-.014.016Z" transform="translate(-8.012 -1.181)" fill="#f3f3f3"/>
          <path id="Trazado_208561" data-name="Trazado 208561" d="M147.8,78.051H142.47a2.227,2.227,0,0,1-2.224-2.224V70.5a2.227,2.227,0,0,1,2.224-2.225H147.8a2.227,2.227,0,0,1,2.225,2.225v5.326a2.227,2.227,0,0,1-2.225,2.224M142.47,68.9a1.607,1.607,0,0,0-1.6,1.606v5.326a1.607,1.607,0,0,0,1.6,1.6H147.8a1.606,1.606,0,0,0,1.606-1.6V70.506A1.607,1.607,0,0,0,147.8,68.9Z" transform="translate(-7.985 -0.936)" fill="#78c2ff"/>
          <path id="Trazado_208562" data-name="Trazado 208562" d="M162.7,62.975h-5.326a2.228,2.228,0,0,1-2.225-2.225V55.424a2.228,2.228,0,0,1,2.225-2.225H162.7a2.227,2.227,0,0,1,2.224,2.225V60.75a2.227,2.227,0,0,1-2.224,2.225m-5.326-9.152a1.607,1.607,0,0,0-1.606,1.606v5.326a1.607,1.607,0,0,0,1.606,1.606H162.7a1.608,1.608,0,0,0,1.6-1.606V55.429a1.608,1.608,0,0,0-1.6-1.606Z" transform="translate(-8.189 -0.729)" fill="#78c2ff"/>
          <path id="Trazado_208563" data-name="Trazado 208563" d="M162.7,93.13h-5.326a2.227,2.227,0,0,1-2.225-2.224V85.58a2.229,2.229,0,0,1,2.225-2.225H162.7a2.227,2.227,0,0,1,2.224,2.225v5.326A2.227,2.227,0,0,1,162.7,93.13m-5.326-9.152a1.607,1.607,0,0,0-1.606,1.606V90.91a1.608,1.608,0,0,0,1.606,1.6H162.7a1.607,1.607,0,0,0,1.6-1.6V85.584a1.607,1.607,0,0,0-1.6-1.606Z" transform="translate(-8.189 -1.143)" fill="#78c2ff"/>
          <path id="Trazado_208564" data-name="Trazado 208564" d="M162.875,78.047H157.2A2.042,2.042,0,0,1,155.156,76V70.329a2.042,2.042,0,0,1,2.043-2.043h5.676a2.042,2.042,0,0,1,2.043,2.043V76a2.042,2.042,0,0,1-2.043,2.043" transform="translate(-8.189 -0.936)" fill="#78c2ff"/>
          <path id="Trazado_208565" data-name="Trazado 208565" d="M159.755,75.355,157.289,73.2a.486.486,0,0,1,.639-.733l1.745,1.522,2.488-2.775a.486.486,0,1,1,.738.633l-.014.016Z" transform="translate(-8.216 -0.974)" fill="#f3f3f3"/>
          <path id="Trazado_208566" data-name="Trazado 208566" d="M147.973,62.97H142.3a2.042,2.042,0,0,1-2.043-2.043V55.252a2.042,2.042,0,0,1,2.043-2.043h5.676a2.042,2.042,0,0,1,2.043,2.043v5.676a2.042,2.042,0,0,1-2.043,2.043" transform="translate(-7.985 -0.73)" fill="#78c2ff"/>
          <path id="Trazado_208567" data-name="Trazado 208567" d="M144.853,60.277l-2.466-2.151a.486.486,0,1,1,.626-.744l.013.011,1.745,1.521,2.488-2.775a.486.486,0,0,1,.738.633l-.014.016Z" transform="translate(-8.012 -0.767)" fill="#f3f3f3"/>
          <path id="Trazado_208568" data-name="Trazado 208568" d="M166.835,32.743a14.382,14.382,0,1,1-14.382-14.382h0A14.325,14.325,0,0,1,166.835,32.63v.113" transform="translate(-7.955 -0.252)" fill="#eef0f7"/>
          <path id="Trazado_208569" data-name="Trazado 208569" d="M162.782,40.54a1.913,1.913,0,0,0-.242-.142l-.014-.009a30.486,30.486,0,0,0-6.131-2.316c-.662-.2-1.162-.333-1.334-.377l-.31-.493a15.353,15.353,0,0,1-.025-1.731,6.127,6.127,0,0,0,1.238-2.983c.083.063.148-.074.148-.074-.046-.082.69-1.889.56-2.3-.076-.231-.23-.2-.349-.135.018-.106.036-.215.055-.331,0,0,.3-2.77-1.11-4.314a1.55,1.55,0,0,0-.662-.174,6.173,6.173,0,0,0-4.448-.02,4.478,4.478,0,0,0-1.292,3.738c.026.228.051.458.077.681v.007c.011.089.021.176.032.262-.117-.073-.27-.109-.356.119a6.883,6.883,0,0,0,.467,2.318s.117.185.211.1a6.623,6.623,0,0,0,1.214,3.166c-.036.643-.128,1.4-.2,1.883l-.557.582-.089.03c-6.294,1.677-8.075,2.849-8.075,2.849a1.653,1.653,0,0,0-.482.746,14.383,14.383,0,0,0,22.389.459,5.909,5.909,0,0,0-.725-1.542" transform="translate(-7.997 -0.339)" fill="#78c2ff"/>
        </g>
      </g>
      <path id="Trazado_208570" data-name="Trazado 208570" d="M81.3,78.665l.651-9.674,10.513,4.57,2.7,1.182-2.836.8Z" transform="translate(-1.031 -0.946)" fill="#eddad3"/>
      <g id="Grupo_151264" data-name="Grupo 151264" transform="translate(6.146)">
        <g id="Grupo_151263" data-name="Grupo 151263" clip-path="url(#clip-path)">
          <path id="Trazado_208571" data-name="Trazado 208571" d="M81.724,72.216a1.617,1.617,0,0,1,.217-3.224Z" transform="translate(-7.162 -0.946)" fill="#deccc6"/>
          <path id="Trazado_208572" data-name="Trazado 208572" d="M81.5,75.487a1.617,1.617,0,0,1,.216-3.224Z" transform="translate(-7.159 -0.991)" fill="#e3d1ca"/>
          <path id="Trazado_208573" data-name="Trazado 208573" d="M81.285,78.754A1.617,1.617,0,0,1,81.5,75.53Z" transform="translate(-7.156 -1.036)" fill="#eddad3"/>
          <path id="Trazado_208574" data-name="Trazado 208574" d="M81.744,72.216l13.427,2.523-13.21-5.748Z" transform="translate(-7.183 -0.946)" fill="#deccc6"/>
          <path id="Trazado_208575" data-name="Trazado 208575" d="M81.525,75.484l13.643-.7L81.742,72.26Z" transform="translate(-7.18 -0.991)" fill="#e3d1ca"/>
          <path id="Trazado_208576" data-name="Trazado 208576" d="M81.521,75.52l13.643-.7L81.3,78.744Z" transform="translate(-7.177 -1.026)" fill="#eddad3"/>
          <path id="Trazado_208577" data-name="Trazado 208577" d="M92.483,75.6l.133-1.978,2.7,1.182Z" transform="translate(-7.33 -1.01)" fill="#323438"/>
          <path id="Trazado_208578" data-name="Trazado 208578" d="M62.7,70.294s.541,9.821-1.26,11.26c-.832.665-2.8.875-4.919.878-.7,0-1.417-.022-2.113-.056-2.789-.139-5.291-.493-5.291-.493s-7.229.366-6.876-4.119A4.251,4.251,0,0,1,44.165,76.1c1-.286,5.552.5,6.339.535.871.038,7.041,1.409,7.306,1.312a9.952,9.952,0,0,0,1.017-4.135c.062-2.342.053-4.5.053-4.5Z" transform="translate(-6.641 -0.95)" fill="#3c4169"/>
          <path id="Trazado_208579" data-name="Trazado 208579" d="M24.095,164.87a10.035,10.035,0,0,1-1.119,2.044c-.512.58-2.472,1.617-2.48,3.339-.013,1.868,3.306,1.35,4.6,1.281s1.395-1.063,1.94-2.126,1.1-.879,1.2-1.732a10.872,10.872,0,0,0-.417-2.763Z" transform="translate(-6.343 -2.261)" fill="#252840"/>
          <path id="Trazado_208580" data-name="Trazado 208580" d="M50.39,165.205a8.858,8.858,0,0,0,3.639,2.294c1.833.4,3.116.9,3.129,1.992s-5.275,1.8-7.372.709c-3.131-1.637-3.449-1.145-3.8-1.963s.416-3.006.395-3.267c-.029-.322,4.006.236,4.006.236" transform="translate(-6.691 -2.261)" fill="#252840"/>
          <path id="Trazado_208581" data-name="Trazado 208581" d="M49.867,109.64s1.9,13.776,2.671,18.434c.905,5.445,1.213,9.944,1.466,12.763.318,3.544-3.006,22.615-2.784,23.65s-5.984-.431-5.984-.431,1.95-22.691,1-26.465c-.881-3.515-4.06-18.967-4.864-18.008s-5.851,17.917-6.446,20.688-6.337,24.479-6.337,24.479-4.291.923-5.383.053c0,0,3.745-19.941,4.124-25.139.144-1.981,1.319-23.616,4.668-32.381,1.772-4.633,17.866,2.355,17.866,2.355" transform="translate(-6.38 -1.449)" fill="#292c47"/>
          <path id="Trazado_208582" data-name="Trazado 208582" d="M0,70.946l.354-5.175a1.93,1.93,0,0,1,2.055-1.8l11.1.747a1.931,1.931,0,0,1,1.8,2.055l-.348,5.174a1.931,1.931,0,0,1-2.055,1.8L1.807,73A1.93,1.93,0,0,1,0,70.952v-.006" transform="translate(-6.062 -0.877)" fill="#9f321d"/>
          <rect id="Rectángulo_42102" data-name="Rectángulo 42102" width="9.695" height="72.754" transform="translate(1.539 72.84) rotate(-86.156)" fill="#eb4747"/>
          <rect id="Rectángulo_42103" data-name="Rectángulo 42103" width="3.231" height="72.754" transform="matrix(0.067, -0.998, 0.998, 0.067, 1.972, 66.386)" fill="#ffe090"/>
          <rect id="Rectángulo_42104" data-name="Rectángulo 42104" width="3.231" height="72.754" transform="matrix(0.067, -0.998, 0.998, 0.067, 1.755, 69.611)" fill="#fecd4d"/>
          <rect id="Rectángulo_42105" data-name="Rectángulo 42105" width="3.231" height="72.754" transform="translate(1.539 72.836) rotate(-86.15)" fill="#e1b238"/>
          <rect id="Rectángulo_42106" data-name="Rectángulo 42106" width="3.232" height="4.472" transform="translate(-0.525 66.221) rotate(-86.151)" fill="#b39696"/>
          <rect id="Rectángulo_42107" data-name="Rectángulo 42107" width="3.231" height="4.471" transform="translate(-0.741 69.446) rotate(-86.15)" fill="#dbb8b8"/>
          <rect id="Rectángulo_42108" data-name="Rectángulo 42108" width="3.231" height="4.471" transform="translate(-0.958 72.67) rotate(-86.15)" fill="#f2cbcb"/>
          <path id="Trazado_208583" data-name="Trazado 208583" d="M59.859,67.024s-.378,1.67-.017,2.133.532-.131.532-.131-.178.591.28.782.616-.512.616-.512a.5.5,0,0,0,.482.508h.02c.515.026.514-.591.514-.591s.355.7.778.214a2.563,2.563,0,0,0,.426-2.042s-.1-.29-.591-.282a.685.685,0,0,0-.834-.491.672.672,0,0,0-.153.059s-.644-.585-1.038,0a.6.6,0,0,0-1.015.354" transform="translate(-6.88 -0.911)" fill="#efaa88"/>
          <path id="Trazado_208584" data-name="Trazado 208584" d="M24.935,108.967a10.977,10.977,0,0,0,3.341.534c.987-.18.487-12.284.527-14.8A64.13,64.13,0,0,1,29.95,87.27a.017.017,0,0,0,0,.01v.015a51.529,51.529,0,0,1,1.671,8.687c.056,2.789-.363,13.465-.363,13.465l4.156.4,11.945.293,2.492-.294s-.3-4.565-.408-6.733c-.069-1.377-.337-3.845-.268-6.247a22.034,22.034,0,0,1,.208-3.623c.027-4.814.319-9.582.319-9.582q.243-3.274.338-6.127c-.528-.278-1.159-.6-1.667-.844-1.567-.747-3.752-1.752-5.153-2.4-.827-.377-1.624-.652-1.624-.652s-5.6-.538-6.057-.508a14.008,14.008,0,0,0-1.763.6,64.216,64.216,0,0,0-6.427,2.727c-.895.64-2.785,15.858-2.87,16.922-.154,1.919.453,15.579.453,15.579" transform="translate(-6.397 -1.003)" fill="#f99746"/>
          <path id="Trazado_208585" data-name="Trazado 208585" d="M49.628,108.424a99.324,99.324,0,0,1-15.379,0v2.356s10.783,1.558,15.739-.449Z" transform="translate(-6.531 -1.487)" fill="#1d2033"/>
          <path id="Trazado_208586" data-name="Trazado 208586" d="M42.753,74a45.024,45.024,0,0,1,2.334,10.136c.386,2.689,1.1,7.217,1.616,11.837.408,3.642,1.34,7.381,1.636,10.169.308,2.889,1.231,11.4,1.231,11.4l2.245-1.417c.32-.3.768-.681.639-1.1a120.228,120.228,0,0,1-2.493-14.31V100.7c-.034-.277-.066-.552-.1-.827v-.043c-.132-1.147-.236-2.244-.319-3.253a10.229,10.229,0,0,1,.1-2.264c.313-5.149.472-10.578.472-10.578.165-2.223.573-5.1.635-7.034a12.279,12.279,0,0,1-1.986-.4s-4.421-1.653-6-2.319" transform="translate(-6.648 -1.015)" fill="#3c4169"/>
          <path id="Trazado_208587" data-name="Trazado 208587" d="M39.774,59s4.16.7,3.454,7.215S38.85,72.153,38.6,72.145s-3.694.079-3.875-7.884c0,0-.053-5.887,5.044-5.259" transform="translate(-6.538 -0.808)" fill="#eea987"/>
          <path id="Trazado_208588" data-name="Trazado 208588" d="M41.616,70.4s0,2.683.109,3.264c.118.624-3.34,2.429-5.573.327a23,23,0,0,0,.311-3.964c-.14-1.036,5.152.374,5.152.374" transform="translate(-6.557 -0.955)" fill="#eea987"/>
          <path id="Trazado_208589" data-name="Trazado 208589" d="M43.354,64.776s.462-.482.623.013a8.582,8.582,0,0,1-.682,2.79s-.085.19-.193.084a23.987,23.987,0,0,1,.251-2.887" transform="translate(-6.653 -0.885)" fill="#eea987"/>
          <path id="Trazado_208590" data-name="Trazado 208590" d="M34.768,64.268s-.442-.5-.623-.013a8.375,8.375,0,0,0,.565,2.816s.143.224.256.118a24,24,0,0,0-.2-2.926" transform="translate(-6.53 -0.878)" fill="#eea987"/>
          <path id="Trazado_208591" data-name="Trazado 208591" d="M43.575,63.806c-.143.892-.279,1.553-.279,1.553l-.6.791a16.1,16.1,0,0,0-.056-2.023c-.036-.1-.076-.289-.118-.488-.07-.329-.141-.7-.189-.827a8.9,8.9,0,0,0-6.671.214s.027.269.025.569c0,.354-.038.739-.2.8-.3.109-.174,2.047-.174,2.047l-.484-.559s-.141-1.012-.277-2.175V63.7c-.032-.271-.063-.55-.094-.827a5.432,5.432,0,0,1,1.57-4.542,7.5,7.5,0,0,1,5.4.024,1.884,1.884,0,0,1,.8.211c1.7,1.875,1.348,5.241,1.348,5.241" transform="translate(-6.534 -0.793)" fill="#636363"/>
          <path id="Trazado_208592" data-name="Trazado 208592" d="M36.758,71.445a2.646,2.646,0,0,0,2.206.887,3,3,0,0,0,2.212-.838A2.694,2.694,0,0,1,38.957,73a2.723,2.723,0,0,1-2.2-1.559" transform="translate(-6.566 -0.98)" fill="#c78d71"/>
          <path id="Trazado_208593" data-name="Trazado 208593" d="M41.944,75.748,40.392,76.9a16.19,16.19,0,0,0,1.325-3.87Z" transform="translate(-6.616 -1.001)" fill="#a09ea6"/>
          <path id="Trazado_208594" data-name="Trazado 208594" d="M41.736,73.026l1.063.981,1.111,3.307-1.945-1.57Z" transform="translate(-6.634 -1.001)" fill="#eae6f2"/>
          <path id="Trazado_208595" data-name="Trazado 208595" d="M41.494,74.027a18.307,18.307,0,0,1-1.13,2.883s-1.629-1.426-2.141-1.934,3.272-.945,3.272-.945" transform="translate(-6.585 -1.015)" fill="#eea987"/>
          <path id="Trazado_208596" data-name="Trazado 208596" d="M38.655,75.334l1.7,1.595a7.652,7.652,0,0,1-2.391-.472Z" transform="translate(-6.582 -1.033)" fill="#a09ea6"/>
          <path id="Trazado_208597" data-name="Trazado 208597" d="M36.35,72.354A16.137,16.137,0,0,0,38.6,75.3l-1.512,2.51-2.424-4.4Z" transform="translate(-6.537 -0.992)" fill="#eae6f2"/>
          <path id="Trazado_208598" data-name="Trazado 208598" d="M28.966,94.821c-.174,2.337.815,15.265-.172,15.446a22.731,22.731,0,0,1-4.606-.615s-.455-13.938-.31-15.4c.107-1.062,1.8-17.019,2.693-17.659.517-.371,4.344-1.727,6.222-2.468.344-.135,1.431-.59,1.738-.708a44.936,44.936,0,0,1,4.2,14.935,85.164,85.164,0,0,1-.7,9.349c-.368,3.559-.775,6.334-1.074,9.31-.591,5.862-1,10.526-1,10.526l-5.834-2.6c-.945-.472-2.252-2.41-1.9-3.4,1.348-3.779,3.046-10.23,3.049-13.545,0,0-.651-8.115-1.166-9.9a49.88,49.88,0,0,0-1.141,6.732" transform="translate(-6.389 -1.007)" fill="#3c4169"/>
          <path id="Trazado_208599" data-name="Trazado 208599" d="M24.17,116.807a2.363,2.363,0,0,1-.181-.735s.064-.459.092-.787a2.409,2.409,0,0,0,.01-.253,4.332,4.332,0,0,1,.021-1.387c.136-.6.827-2.676.827-2.676l1.874.279,1.627-.221a28.23,28.23,0,0,1,1.152,4.117,1.553,1.553,0,0,1-.027.163,5.557,5.557,0,0,1-.456,1.045c-.031.09-.392.97-.664,1.053a.926.926,0,0,1-.894-.125,2.215,2.215,0,0,1-1.221-.019,1.377,1.377,0,0,1-1.2-.237s-.717.129-.969-.219" transform="translate(-6.391 -1.522)" fill="#efaa88"/>
          <path id="Trazado_208600" data-name="Trazado 208600" d="M29.121,101.671l-.06,10.276a17.877,17.877,0,0,1-4.877-1.135l-.2-14.488Z" transform="translate(-6.391 -1.321)" fill="#3c4169"/>
          <rect id="Rectángulo_42109" data-name="Rectángulo 42109" width="3.865" height="2.873" transform="translate(33.399 107.08)" fill="#3a4066"/>
          <path id="Trazado_208601" data-name="Trazado 208601" d="M125.4,110.789s-.571,2.241-.647,2.58-3.59-.593-3.59-.593v-2.741a21.092,21.092,0,0,1,4.23.754" transform="translate(-7.723 -1.509)" fill="#5c544d"/>
          <path id="Trazado_208602" data-name="Trazado 208602" d="M124.8,113.117a9.717,9.717,0,0,0,2.014,2.21c1.026.717,5,1.642,5.588,2.332.419.5,1,2.379-5.385,1.52-4.533-.611-6.77-.457-7.18-1.246s1.292-5.367,1.292-5.367a8.711,8.711,0,0,0,3.661.551" transform="translate(-7.704 -1.544)" fill="#3c4145"/>
          <path id="Trazado_208603" data-name="Trazado 208603" d="M126.193,173.675,138.927,43.921l-1.6-.155L124.587,173.52Z" transform="translate(-7.77 -0.6)" fill="#f0c141"/>
          <path id="Trazado_208604" data-name="Trazado 208604" d="M99.868,171.115,112.6,41.361l-1.606-.155L98.259,170.96Z" transform="translate(-7.409 -0.565)" fill="#f0c141"/>
          <rect id="Rectángulo_42110" data-name="Rectángulo 42110" width="1.613" height="26.085" transform="translate(104.02 44.509) rotate(-84.457)" fill="#f0c141"/>
          <rect id="Rectángulo_42111" data-name="Rectángulo 42111" width="1.612" height="26.078" transform="translate(102.848 56.579) rotate(-84.419)" fill="#f0c141"/>
          <rect id="Rectángulo_42112" data-name="Rectángulo 42112" width="1.613" height="26.085" transform="matrix(0.097, -0.995, 0.995, 0.097, 101.676, 68.654)" fill="#f0c141"/>
          <rect id="Rectángulo_42113" data-name="Rectángulo 42113" width="1.613" height="26.085" transform="matrix(0.097, -0.995, 0.995, 0.097, 100.504, 80.727)" fill="#f0c141"/>
          <rect id="Rectángulo_42114" data-name="Rectángulo 42114" width="1.613" height="26.085" transform="matrix(0.097, -0.995, 0.995, 0.097, 99.334, 92.8)" fill="#f0c141"/>
          <rect id="Rectángulo_42115" data-name="Rectángulo 42115" width="1.613" height="26.085" transform="matrix(0.097, -0.995, 0.995, 0.097, 98.162, 104.873)" fill="#f0c141"/>
          <rect id="Rectángulo_42116" data-name="Rectángulo 42116" width="1.613" height="26.085" transform="matrix(0.097, -0.995, 0.995, 0.097, 96.99, 116.945)" fill="#f0c141"/>
          <rect id="Rectángulo_42117" data-name="Rectángulo 42117" width="1.613" height="26.085" transform="matrix(0.097, -0.995, 0.995, 0.097, 95.818, 129.018)" fill="#f0c141"/>
          <rect id="Rectángulo_42118" data-name="Rectángulo 42118" width="1.612" height="26.078" transform="translate(94.646 141.087) rotate(-84.419)" fill="#f0c141"/>
          <rect id="Rectángulo_42119" data-name="Rectángulo 42119" width="1.613" height="26.085" transform="matrix(0.097, -0.995, 0.995, 0.097, 93.474, 153.165)" fill="#f0c141"/>
          <rect id="Rectángulo_42120" data-name="Rectángulo 42120" width="1.613" height="26.085" transform="matrix(0.097, -0.995, 0.995, 0.097, 92.304, 165.238)" fill="#f0c141"/>
          <path id="Trazado_208605" data-name="Trazado 208605" d="M129.59,62.925s2.557,9.5,3.232,12.892c.588,2.958,1.769,10.835,1.937,12.709s-7.549,20-8.352,23.275l-7.031-1.128s7.419-18.868,5.484-23.061c-2.878-6.235-3.253-6.048-5.519-11.185s-7.457-5.257-8.847-14.789c0,0,17.216-1.735,19.1,1.281" transform="translate(-7.577 -0.838)" fill="#3c4145"/>
          <path id="Trazado_208606" data-name="Trazado 208606" d="M117.138,16.16s4.668-1.744,6.821,1.811,1.945,10.669-.407,11.539-5.889.418-7.093-1.806a17.819,17.819,0,0,1-2.24-7.588,4.681,4.681,0,0,1,2.92-3.96" transform="translate(-7.628 -0.216)" fill="#eea886"/>
          <path id="Trazado_208607" data-name="Trazado 208607" d="M122.786,29.424a3.912,3.912,0,0,0,.128,1.827c.312.6-5.872.618-5.872.618a40.7,40.7,0,0,0-1.454-6.049c-.952-2.771,7.2,3.6,7.2,3.6" transform="translate(-7.646 -0.344)" fill="#eea886"/>
          <path id="Trazado_208608" data-name="Trazado 208608" d="M115.558,25.685s.427.7,2.17.431,3.868-2.591,4.6-2.845.735-.682.735-.682l.455.665.769.049s-.705-2.073.358-2.919-1.1-6.713-6.691-4.759c0,0-4.291,1.184-4.135,3.624s.781,5.221,1.741,6.437" transform="translate(-7.622 -0.209)" fill="#3a3f47"/>
          <path id="Trazado_208609" data-name="Trazado 208609" d="M123.044,21.778c-.1-.409-1.138-1.58-1.539-.326s.6,2.937,1.161,2.792.624-1.428.377-2.467" transform="translate(-7.727 -0.286)" fill="#eea886"/>
          <path id="Trazado_208610" data-name="Trazado 208610" d="M105.015,47.395a2.748,2.748,0,0,0,1.227,1.6,2,2,0,0,0,1.064.35l.277.009,4.852.166s3.607-11.658-3.158-16.1c-.209.021-4.732,8.358-4.262,13.976" transform="translate(-7.501 -0.458)" fill="#9f321d"/>
          <path id="Trazado_208611" data-name="Trazado 208611" d="M119.848,117.933c.407.79,2.644.641,7.18,1.247a20.8,20.8,0,0,0,2.981.22l.264-2.727a20.47,20.47,0,0,1-3.454-1.345,9.717,9.717,0,0,1-2.014-2.21,8.7,8.7,0,0,1-3.662-.551s-1.7,4.577-1.292,5.367" transform="translate(-7.704 -1.544)" fill="#3c4145"/>
          <path id="Trazado_208612" data-name="Trazado 208612" d="M122.8,30.97s-3.807-.886-5.953-.162l-.325.3s-.651,1.251,1.8,1.358,6.314.286,4.473-1.5" transform="translate(-7.658 -0.419)" fill="#ffd255"/>
          <path id="Trazado_208613" data-name="Trazado 208613" d="M107.747,121.418s-.571,2.241-.647,2.578-3.59-.592-3.59-.592v-2.742a21.093,21.093,0,0,1,4.23.755" transform="translate(-7.481 -1.655)" fill="#5c544d"/>
          <path id="Trazado_208614" data-name="Trazado 208614" d="M110.374,61.637a73.994,73.994,0,0,0-1.667,10.578c-.35,4.89-.989,10.257-1.5,15.369-.565,5.7-2.18,14.921-2.263,17.97s-2.652,16.381-2.652,16.381l6.568.755s4.267-23.557,5.275-25.965,6.006-19.576,6.173-21.5-9.943-13.591-9.943-13.591" transform="translate(-7.464 -0.845)" fill="#3c4145"/>
          <path id="Trazado_208615" data-name="Trazado 208615" d="M107.148,123.744a9.717,9.717,0,0,0,2.014,2.21c1.026.716,5,1.642,5.588,2.332.419.5,1,2.379-5.379,1.52-4.534-.61-6.77-.456-7.18-1.246s1.293-5.367,1.293-5.367a8.7,8.7,0,0,0,3.66.551" transform="translate(-7.462 -1.689)" fill="#3c4145"/>
          <path id="Trazado_208616" data-name="Trazado 208616" d="M130.885,74.375c.558-.08-1.389-16.754-1.24-17.8.1-.7.085-6.116.042-9.488l.611-3.418a15.442,15.442,0,0,1,1.338-.846c.846-.488,1.907-1.047,3.087-1.637-.136-.808-.232-1.444-.268-1.814A6.825,6.825,0,0,0,131,34.108a5.629,5.629,0,0,0-.787-.393c-.435-.184-.862-.363-1.275-.534-2.754-1.133-6.251-2.2-6.251-2.2h-5.62a47.757,47.757,0,0,0-6.828,1.9,4.8,4.8,0,0,0-.92.5l.769,16.027v.031c.343,2.254.706,4.914.827,6.778.05.761-.821,4.848-1.275,8.6L108.049,73.8s.918,3.718,22.836.586" transform="translate(-7.543 -0.425)" fill="#9f321d"/>
          <path id="Trazado_208617" data-name="Trazado 208617" d="M160.191,22.235a2.4,2.4,0,0,1-.565.519s-.439.166-.744.3a2.516,2.516,0,0,0-.231.115,4.384,4.384,0,0,1-1.243.658c-.6.174-3.314.791-3.314.791l-.632-1.611-.453-1.3a27.536,27.536,0,0,1,3.054-3.481,1.506,1.506,0,0,1,.158-.057,5.664,5.664,0,0,1,1.154-.1c.095-.017,1.053-.128,1.26.074a.942.942,0,0,1,.324.856,2.247,2.247,0,0,1,.578,1.093,1.4,1.4,0,0,1,.378,1.176s.464.574.278.969" transform="translate(-8.16 -0.247)" fill="#eea886"/>
          <path id="Trazado_208618" data-name="Trazado 208618" d="M130.748,43.4A37.123,37.123,0,0,1,135,41.046C140.221,38.431,146.677,33.69,147.9,33c1.888-1.052,7.848-8.334,7.848-8.334-.308-1.1-3.133-3.3-3.133-3.3s-9.038,8.561-11.012,9.616c-1.7.905-10.089,1.821-12.4,2.059l-.593.06c-2.412,3.291.782,11.168,2.132,10.3" transform="translate(-7.813 -0.293)" fill="#9f321d"/>
        </g>
      </g>
    </g>
    <g id="Grupo_151266" data-name="Grupo 151266" transform="translate(1105 1211.791)">
      <g id="Grupo_151229" data-name="Grupo 151229" transform="translate(0)">
        <g id="Grupo_151228" data-name="Grupo 151228" clip-path="url(#clip-path-4)">
          <rect id="Rectángulo_42058" data-name="Rectángulo 42058" width="52.538" height="107.079" transform="translate(-7.835)" fill="#25b1b1"/>
        </g>
      </g>
      <g id="Grupo_151231" data-name="Grupo 151231">
        <g id="Grupo_151230" data-name="Grupo 151230" clip-path="url(#clip-path-5)">
          <path id="Trazado_208434" data-name="Trazado 208434" d="M93.5,187.292c-4.4-3.1-9.553-24.668-9.861-37.517-.157-6.582-2.1-9.324-3.819-11.743-1.641-2.313-3.058-4.31-2.232-8.9,1.577-8.764-2.57-12.547-2.612-12.584l.48-.547c.185.161,4.5,4.063,2.849,13.26-.771,4.285.5,6.077,2.11,8.345,1.689,2.38,3.791,5.343,3.954,12.147.33,13.789,5.6,34.158,9.552,36.939Z" transform="translate(-61.755 -95.553)" fill="#fff"/>
        </g>
      </g>
      <g id="Grupo_151233" data-name="Grupo 151233" transform="translate(27.937 50.127)">
        <g id="Grupo_151232" data-name="Grupo 151232" clip-path="url(#clip-path-6)">
          <rect id="Rectángulo_42060" data-name="Rectángulo 42060" width="35.339" height="43.212" transform="translate(-0.901 0)" fill="url(#linear-gradient-2)"/>
        </g>
      </g>
      <g id="Grupo_151235" data-name="Grupo 151235" transform="translate(30.88 55.94)">
        <g id="Grupo_151234" data-name="Grupo 151234" clip-path="url(#clip-path-7)">
          <rect id="Rectángulo_42061" data-name="Rectángulo 42061" width="25.849" height="41.601" fill="url(#linear-gradient-3)"/>
        </g>
      </g>
      <g id="Grupo_151237" data-name="Grupo 151237" transform="translate(21.546 16.223)">
        <g id="Grupo_151236" data-name="Grupo 151236" clip-path="url(#clip-path-8)">
          <rect id="Rectángulo_42062" data-name="Rectángulo 42062" width="39.311" height="82.714" transform="translate(-4.522 0)" fill="#0ad857"/>
        </g>
      </g>
      <g id="Grupo_151239" data-name="Grupo 151239">
        <g id="Grupo_151238" data-name="Grupo 151238" clip-path="url(#clip-path-5)">
          <path id="Trazado_208438" data-name="Trazado 208438" d="M168.012,266.96c-.578-2.451-5.512-24.02-.908-26.627,4.058-2.3,3.958-11.236,3.325-19.676-.56-7.471,9.035-10.963,9.444-11.108l.243.686c-.095.034-9.48,3.452-8.961,10.367.65,8.668.72,17.865-3.692,20.364-3.5,1.98-.277,19.315,1.258,25.827Z" transform="translate(-136.039 -172.604)" fill="#fff"/>
        </g>
      </g>
      <g id="Grupo_151241" data-name="Grupo 151241" transform="translate(14.638 86.676)">
        <g id="Grupo_151240" data-name="Grupo 151240" clip-path="url(#clip-path-10)">
          <rect id="Rectángulo_42064" data-name="Rectángulo 42064" width="27.778" height="24.886" transform="translate(0)" fill="url(#linear-gradient-4)"/>
        </g>
      </g>
      <g id="Grupo_151243" data-name="Grupo 151243" transform="translate(14.638 86.676)">
        <g id="Grupo_151242" data-name="Grupo 151242" clip-path="url(#clip-path-11)">
          <rect id="Rectángulo_42065" data-name="Rectángulo 42065" width="27.778" height="24.886" transform="translate(0 0)" fill="url(#linear-gradient-5)"/>
        </g>
      </g>
    </g>
  </g>
</svg>
