<svg xmlns="http://www.w3.org/2000/svg" xmlns:xlink="http://www.w3.org/1999/xlink" width="295" height="186.31" viewBox="0 0 295 186.31">
  <defs>
    <linearGradient id="linear-gradient" x1="0.962" y1="0.542" x2="-0.073" y2="0.536" gradientUnits="objectBoundingBox">
      <stop offset="0" stop-color="#f3e6e3"/>
      <stop offset="1" stop-color="#fff"/>
    </linearGradient>
    <clipPath id="clip-path">
      <rect id="Rectángulo_42078" data-name="Rectángulo 42078" width="178.296" height="123.6" fill="none"/>
    </clipPath>
    <clipPath id="clip-path-2">
      <rect id="Rectángulo_42079" data-name="Rectángulo 42079" width="150.255" height="120.479" transform="translate(0 0)" fill="none"/>
    </clipPath>
    <clipPath id="clip-path-3">
      <path id="Trazado_208433" data-name="Trazado 208433" d="M3.36,0a1.32,1.32,0,0,0-.574.135C-6.56,4.6,11.117,12.326,5.022,23.095s2.358,10.375,5.867,20.4C13.3,50.391.958,56.418,8.679,61.5S23.887,83,23.887,83c8.5,6.665,1.178-9.554,6.829-23.153s-11.472-6.27-2.378-23.134-10.617-5.791-9.5-21.944c.35-5.059-1.453-4.878-3.924-4.7-2.038.149-4.53.3-6.642-2.494C8.273,7.573,5.906,0,3.364,0Z" transform="translate(0)" fill="none"/>
    </clipPath>
    <clipPath id="clip-path-4">
      <rect id="Rectángulo_42059" data-name="Rectángulo 42059" width="52.229" height="93.415" fill="none"/>
    </clipPath>
    <clipPath id="clip-path-5">
      <path id="Trazado_208435" data-name="Trazado 208435" d="M161.583,319.733a2.828,2.828,0,0,1-2.314-1.831c-.876-2.5,1.219-6.888,3.069-9.09a14.558,14.558,0,0,0,2.966-9.587c-.057-.9-.15-1.732-.232-2.464-.217-1.94-.374-3.341.345-4.15.658-.74,2.1-1.075,4.67-1.087,5.164-.024,7.2-2.159,8.841-3.874a8.329,8.329,0,0,1,1.9-1.648c2.183-1.192,4.524-1.432,5.445-.559.7.664.37,1.8-.03,2.637a12.223,12.223,0,0,1-2.582,3.451c-1.185,1.209-2.12,2.163-1.646,4.017.093.363.2.731.308,1.1.753,2.576,1.464,5.008-2.478,6.78-.926.416-1.774.749-2.523,1.043-3.119,1.224-5.18,2.033-7.389,6.7-.411.868-.773,1.687-1.122,2.479-1.666,3.777-2.755,6.245-5.786,6.245a7.293,7.293,0,0,1-1.44-.158m18.951-34.266a8.9,8.9,0,0,0-2.046,1.762,10.14,10.14,0,0,1-8.4,3.686c-2.8.013-4.329.4-5.122,1.291-.9,1.012-.731,2.526-.5,4.623.081.725.174,1.547.229,2.435a14.206,14.206,0,0,1-2.824,9.157c-1.869,2.225-4.17,6.841-3.177,9.682a3.4,3.4,0,0,0,2.768,2.228,7.855,7.855,0,0,0,1.558.169c3.43,0,4.687-2.846,6.347-6.608.348-.788.708-1.6,1.115-2.464,2.105-4.445,3.971-5.177,7.06-6.389.755-.3,1.611-.632,2.55-1.054,4.426-1.989,3.569-4.921,2.813-7.507-.106-.362-.211-.723-.3-1.079-.389-1.521.359-2.284,1.491-3.44a12.9,12.9,0,0,0,2.7-3.615,4.409,4.409,0,0,0,.5-1.846v-.038a1.947,1.947,0,0,0-.6-1.458,3.072,3.072,0,0,0-2.141-.684,8.713,8.713,0,0,0-4.015,1.15" transform="translate(-158.454 -284.317)" fill="none"/>
    </clipPath>
    <linearGradient id="linear-gradient-2" x1="-0.765" y1="1.422" x2="-0.76" y2="1.422" gradientUnits="objectBoundingBox">
      <stop offset="0" stop-color="#40d5e6"/>
      <stop offset="1" stop-color="#57f"/>
    </linearGradient>
    <clipPath id="clip-path-6">
      <path id="Trazado_208436" data-name="Trazado 208436" d="M190.062,321.992a21.663,21.663,0,0,1-8.7,12.1c-5.413,3.945-6.181,17.426-6.211,18l.609.032c.007-.137.781-13.761,5.961-17.537a22.242,22.242,0,0,0,8.929-12.427c.946-3.312,6.093-4.26,6.145-4.269l-.106-.6c-.227.04-5.575,1.023-6.625,4.7" transform="translate(-175.15 -317.29)" fill="none"/>
    </clipPath>
    <linearGradient id="linear-gradient-3" x1="-1.195" y1="1.337" x2="-1.188" y2="1.337" xlink:href="#linear-gradient-2"/>
    <clipPath id="clip-path-7">
      <path id="Trazado_208437" data-name="Trazado 208437" d="M138.334,103.752c-1.626,5.486-18.084,2.393-11.175,16.131s-8.737,4.594-4.064,16.582.406,24.81,5.486,21.548,2.854-18.358,8.137-20.151,6.145-3.886.914-8.763,13.706-9.718,9.033-19.565.787-15.841-3.657-17.365a2.575,2.575,0,0,0-.832-.154c-2.9,0-2.345,6.685-3.842,11.736" transform="translate(-122.207 -92.016)" fill="none"/>
    </clipPath>
    <clipPath id="clip-path-9">
      <path id="Trazado_208439" data-name="Trazado 208439" d="M83.026,491.619l5.492,20.838h12.275l5.493-20.838Z" transform="translate(-83.026 -491.619)" fill="none"/>
    </clipPath>
    <linearGradient id="linear-gradient-4" x1="-0.527" y1="1" x2="-0.521" y2="1" gradientUnits="objectBoundingBox">
      <stop offset="0" stop-color="#ff9340"/>
      <stop offset="1" stop-color="#ffce45"/>
    </linearGradient>
    <clipPath id="clip-path-10">
      <path id="Trazado_208440" data-name="Trazado 208440" d="M83.026,491.619l5.492,20.838h5.675c0-18.568,12.092-20.838,12.092-20.838Z" transform="translate(-83.026 -491.619)" fill="none"/>
    </clipPath>
    <linearGradient id="linear-gradient-5" x1="-0.527" y1="1" x2="-0.521" y2="1" gradientUnits="objectBoundingBox">
      <stop offset="0" stop-color="#c97332"/>
      <stop offset="1" stop-color="#ffce45"/>
    </linearGradient>
  </defs>
  <g id="Grupo_151269" data-name="Grupo 151269" transform="translate(-915 -1677)">
    <g id="Grupo_151251" data-name="Grupo 151251" transform="translate(-4.923 -96.385)">
      <path id="Trazado_207751" data-name="Trazado 207751" d="M-465.144-9768.9l6.144-15.931h-10.807l-33.787,33.787-13.272,6.784,9.872,7.6,14.521-5.822Z" transform="translate(1673.923 11696.277)" fill="#848580"/>
      <g id="Grupo_150823" data-name="Grupo 150823" transform="translate(919.923 1773.385)">
        <path id="amg3" d="M187,0H-77.29L-108,31.767V181.4H187Z" transform="translate(108)" fill="url(#linear-gradient)"/>
      </g>
      <path id="Trazado_207750" data-name="Trazado 207750" d="M-437.328-9763.085v48.232h-48.1Z" transform="translate(1652.251 11674.547)" fill="#9f321d"/>
    </g>
    <g id="Grupo_151255" data-name="Grupo 151255" transform="translate(946.704 1684.199)">
      <rect id="Rectángulo_42072" data-name="Rectángulo 42072" width="55.211" height="90.493" transform="translate(0 16.553)" fill="#b0c0d2"/>
      <rect id="Rectángulo_42073" data-name="Rectángulo 42073" width="50.504" height="85.201" transform="translate(2.891 18.397)" fill="#fff"/>
      <g id="Grupo_151254" data-name="Grupo 151254" transform="translate(0 -0.803)">
        <g id="Grupo_151253" data-name="Grupo 151253" clip-path="url(#clip-path)">
          <path id="Trazado_208471" data-name="Trazado 208471" d="M141.718,376.78c1.9-4.089,5.118-5.4,10.4-5.4,6.29,0,9.557,2.279,10.483,5.6-11.265.154-20.884-.2-20.884-.2" transform="translate(-123.72 -324.217)" fill="#9bd6e8"/>
          <path id="Trazado_208472" data-name="Trazado 208472" d="M151.673,213.508c-2.663.747-2.546,2.244-3.434,3.633s-2.816,2.315-3.048,3.241.594,2.855-.386,3.935-1.312,1.62-.926,2.7,1.234,2.778,1.312,3.009a4.324,4.324,0,0,0,2.469,2.083,27.829,27.829,0,0,1,5.015,1.157c1.234.54,5.2-.691,7.407-.614s3.7-1.546,3.549-2.626,1.625-3.241,1.62-5.092c0-1.989-2.315-3.472-2.932-4.784s.077-3.626-2.238-5c-1.463-.866-2.469-.789-3.626-1.175a8.585,8.585,0,0,0-4.784-.469" transform="translate(-125.471 -186.234)" fill="#3a384d"/>
          <path id="Trazado_208473" data-name="Trazado 208473" d="M209.563,305.855c-.6.889-1.044.926-1.7,0a8.453,8.453,0,0,1-1.543-3.257v-8.471a1.548,1.548,0,0,1,1.543-1.543h1.7a1.548,1.548,0,0,1,1.543,1.543V302.6a8.572,8.572,0,0,1-1.543,3.257" transform="translate(-180.12 -255.427)" fill="#f09959"/>
          <path id="Trazado_208474" data-name="Trazado 208474" d="M209.563,292.584h-1.7a1.548,1.548,0,0,0-1.543,1.543v7.558c1.906.607,3.646-.6,4.784-1.958v-5.6a1.548,1.548,0,0,0-1.543-1.543" transform="translate(-180.12 -255.427)" fill="#e38540"/>
          <path id="Trazado_208475" data-name="Trazado 208475" d="M195.016,245.2c0,3.861-2.3,6.991-5.131,6.991s-5.131-3.13-5.131-6.991,2.3-6.991,5.131-6.991,5.131,3.13,5.131,6.991" transform="translate(-161.291 -207.957)" fill="#f09959"/>
          <path id="Trazado_208476" data-name="Trazado 208476" d="M188.829,230.475c-3.241,5.478-8.024,4.938-8.024,4.938s.116-7.253,3.916-7.639,6.038,1.139,6.809,3.656a6.211,6.211,0,0,1,0,4.176,6.661,6.661,0,0,1-1.852-2.508,18.017,18.017,0,0,1-.849-2.623" transform="translate(-157.844 -198.796)" fill="#3a384d"/>
          <path id="Trazado_208477" data-name="Trazado 208477" d="M170.21,283.2c.48,1.01.323,2.089-.351,2.409s-1.609-.24-2.089-1.25-.323-2.089.351-2.409,1.609.24,2.089,1.25" transform="translate(-146.222 -246.063)" fill="#f09959"/>
          <path id="Trazado_208478" data-name="Trazado 208478" d="M257.691,283.2c-.48,1.01-.323,2.089.351,2.409s1.609-.24,2.089-1.25.323-2.089-.351-2.409-1.609.24-2.089,1.25" transform="translate(-224.723 -246.063)" fill="#f09959"/>
          <path id="Trazado_208479" data-name="Trazado 208479" d="M213.826,323.118a2.222,2.222,0,0,1-3.858,0Z" transform="translate(-183.303 -282.083)" fill="#fff"/>
          <path id="Trazado_208480" data-name="Trazado 208480" d="M173.82,480.513H160.863a1.507,1.507,0,1,1,0-3.013H173.82a1.507,1.507,0,0,1,0,3.013" transform="translate(-139.118 -416.86)" fill="#9f321d"/>
          <path id="Trazado_208481" data-name="Trazado 208481" d="M159.884,516.965h-17.7a1.507,1.507,0,0,1,0-3.013h17.7a1.507,1.507,0,1,1,0,3.013" transform="translate(-122.81 -448.682)" fill="#afafaf"/>
          <path id="Trazado_208482" data-name="Trazado 208482" d="M89.75,656.755H46.688a.874.874,0,0,1,0-1.749H89.75a.874.874,0,0,1,0,1.749" transform="translate(-39.996 -571.823)" fill="#99bbeb"/>
          <path id="Trazado_208483" data-name="Trazado 208483" d="M89.75,688.751H46.688a.874.874,0,0,1,0-1.749H89.75a.874.874,0,0,1,0,1.749" transform="translate(-39.996 -599.756)" fill="#99bbeb"/>
          <path id="Trazado_208484" data-name="Trazado 208484" d="M89.75,720.747H46.688a.874.874,0,0,1,0-1.749H89.75a.874.874,0,0,1,0,1.749" transform="translate(-39.996 -627.688)" fill="#99bbeb"/>
          <path id="Trazado_208485" data-name="Trazado 208485" d="M120.409,203.844H89.393a1.563,1.563,0,0,1-1.561-1.561V173.7a1.563,1.563,0,0,1,1.561-1.561h31.016a1.563,1.563,0,0,1,1.561,1.561v28.585a1.563,1.563,0,0,1-1.561,1.561M89.393,173.407a.3.3,0,0,0-.291.291v28.585a.3.3,0,0,0,.291.291h31.016a.3.3,0,0,0,.291-.291V173.7a.3.3,0,0,0-.291-.291Z" transform="translate(-76.678 -150.276)" fill="#191a1a"/>
          <path id="Trazado_208486" data-name="Trazado 208486" d="M115.39,568.631l.9,1.82,2.008.292-1.453,1.416.343,2-1.8-.944-1.8.944.343-2-1.453-1.416,2.008-.292Z" transform="translate(-98.199 -496.418)" fill="#fecd4d"/>
          <path id="Trazado_208487" data-name="Trazado 208487" d="M173.3,568.631l.9,1.82,2.008.292-1.453,1.416.343,2-1.8-.944-1.8.944.343-2-1.453-1.416,2.008-.292Z" transform="translate(-148.758 -496.418)" fill="#fecd4d"/>
          <path id="Trazado_208488" data-name="Trazado 208488" d="M231.219,568.631l.9,1.82,2.008.292-1.453,1.416.343,2-1.8-.944-1.8.944.343-2-1.453-1.416,2.008-.292Z" transform="translate(-199.318 -496.418)" fill="#fecd4d"/>
          <path id="Trazado_208489" data-name="Trazado 208489" d="M289.133,568.631l.9,1.82,2.008.292-1.453,1.416.343,2-1.8-.944-1.8.944.343-2-1.453-1.416,2.008-.292Z" transform="translate(-249.877 -496.418)" fill="#fecd4d"/>
          <rect id="Rectángulo_42074" data-name="Rectángulo 42074" width="55.211" height="90.493" transform="translate(123.086 16.553)" fill="#b0c0d2"/>
          <rect id="Rectángulo_42075" data-name="Rectángulo 42075" width="50.504" height="85.201" transform="translate(125.977 18.397)" fill="#fff"/>
          <path id="Trazado_208490" data-name="Trazado 208490" d="M1129.822,289.626c0,4.053,2.44,10.593,8.2,10.383s7.03-6.444,7.253-8.2-15.451-2.18-15.451-2.18" transform="translate(-986.34 -252.845)" fill="#7a4e34"/>
          <path id="Trazado_208491" data-name="Trazado 208491" d="M1110.932,376.78c1.9-4.089,5.118-5.4,10.4-5.4,6.291,0,9.557,2.279,10.483,5.6-11.265.154-20.884-.2-20.884-.2" transform="translate(-969.849 -324.217)" fill="#d54a41"/>
          <path id="Trazado_208492" data-name="Trazado 208492" d="M1178.777,305.855c-.6.889-1.044.926-1.7,0a8.454,8.454,0,0,1-1.543-3.257v-8.471a1.548,1.548,0,0,1,1.543-1.543h1.7a1.548,1.548,0,0,1,1.543,1.543V302.6a8.57,8.57,0,0,1-1.543,3.257" transform="translate(-1026.248 -255.427)" fill="#f09959"/>
          <path id="Trazado_208493" data-name="Trazado 208493" d="M1178.777,292.584h-1.7a1.548,1.548,0,0,0-1.543,1.543v7.558c1.906.607,3.646-.6,4.784-1.958v-5.6a1.548,1.548,0,0,0-1.543-1.543" transform="translate(-1026.248 -255.427)" fill="#e38540"/>
          <path id="Trazado_208494" data-name="Trazado 208494" d="M1164.23,245.2c0,3.861-2.3,6.991-5.131,6.991s-5.131-3.13-5.131-6.991,2.3-6.991,5.131-6.991,5.131,3.13,5.131,6.991" transform="translate(-1007.419 -207.957)" fill="#f09959"/>
          <path id="Trazado_208495" data-name="Trazado 208495" d="M1140.72,221.9c-.61,2.15-1.946,2.125-3.809,2.831s-2.754,1.417-3.363,2.792c-.778,1.754.353,6.868.353,6.868s-4.718-3.53-4.172-9.082,3.819-7.7,6.9-7.7a4.938,4.938,0,0,1,4.252,1.878,4.615,4.615,0,0,1,3.193,1.845c2.086,2.471,1.444,8.472,0,10.622s-2.407,2.824-2.375,2.728,1.348-5.034.642-8.087a19.5,19.5,0,0,0-1.621-4.693" transform="translate(-986.22 -189.974)" fill="#7a4e34"/>
          <path id="Trazado_208496" data-name="Trazado 208496" d="M1183.04,323.118a2.222,2.222,0,0,1-3.858,0Z" transform="translate(-1029.431 -282.083)" fill="#fff"/>
          <path id="Trazado_208497" data-name="Trazado 208497" d="M1143.034,480.513h-12.957a1.507,1.507,0,1,1,0-3.013h12.957a1.507,1.507,0,1,1,0,3.013" transform="translate(-985.247 -416.86)" fill="#9f321d"/>
          <path id="Trazado_208498" data-name="Trazado 208498" d="M1129.1,516.965h-17.7a1.507,1.507,0,1,1,0-3.013h17.7a1.507,1.507,0,0,1,0,3.013" transform="translate(-968.937 -448.682)" fill="#afafaf"/>
          <path id="Trazado_208499" data-name="Trazado 208499" d="M1058.963,656.755H1015.9a.874.874,0,1,1,0-1.749h43.061a.874.874,0,0,1,0,1.749" transform="translate(-886.123 -571.823)" fill="#99bbeb"/>
          <path id="Trazado_208500" data-name="Trazado 208500" d="M1058.963,688.751H1015.9a.874.874,0,1,1,0-1.749h43.061a.874.874,0,1,1,0,1.749" transform="translate(-886.123 -599.756)" fill="#99bbeb"/>
          <path id="Trazado_208501" data-name="Trazado 208501" d="M1058.963,720.747H1015.9a.874.874,0,1,1,0-1.749h43.061a.874.874,0,0,1,0,1.749" transform="translate(-886.123 -627.688)" fill="#99bbeb"/>
          <path id="Trazado_208502" data-name="Trazado 208502" d="M1089.623,203.844h-31.016a1.563,1.563,0,0,1-1.561-1.561V173.7a1.563,1.563,0,0,1,1.561-1.561h31.016a1.563,1.563,0,0,1,1.561,1.561v28.585a1.563,1.563,0,0,1-1.561,1.561m-31.016-30.437a.3.3,0,0,0-.291.291v28.585a.3.3,0,0,0,.291.291h31.016a.3.3,0,0,0,.291-.291V173.7a.3.3,0,0,0-.291-.291Z" transform="translate(-922.806 -150.276)" fill="#191a1a"/>
          <path id="Trazado_208503" data-name="Trazado 208503" d="M1084.6,568.631l.9,1.82,2.008.292-1.453,1.416.343,2-1.8-.944-1.8.944.343-2-1.453-1.416,2.008-.292Z" transform="translate(-944.326 -496.418)" fill="#fecd4d"/>
          <path id="Trazado_208504" data-name="Trazado 208504" d="M1142.518,568.631l.9,1.82,2.008.292-1.453,1.416.343,2-1.8-.944-1.8.944.343-2-1.453-1.416,2.008-.292Z" transform="translate(-994.886 -496.418)" fill="#afafaf"/>
          <path id="Trazado_208505" data-name="Trazado 208505" d="M1200.432,568.631l.9,1.82,2.008.292-1.453,1.416.343,2-1.8-.944-1.8.944.343-2-1.453-1.416,2.008-.292Z" transform="translate(-1045.446 -496.418)" fill="#afafaf"/>
          <path id="Trazado_208506" data-name="Trazado 208506" d="M1258.346,568.631l.9,1.82,2.008.292-1.453,1.416.343,2-1.8-.944-1.8.944.343-2-1.453-1.416,2.008-.292Z" transform="translate(-1096.005 -496.418)" fill="#afafaf"/>
          <rect id="Rectángulo_42076" data-name="Rectángulo 42076" width="75.409" height="123.6" transform="translate(51.314)" fill="#7c92ac"/>
          <rect id="Rectángulo_42077" data-name="Rectángulo 42077" width="68.981" height="116.371" transform="translate(55.263 2.518)" fill="#fff"/>
          <path id="Trazado_208507" data-name="Trazado 208507" d="M646.476,115.35c-.048-.144-1.256-7.076-1.4-9.772s4.332-3.081,4.332-3.081,3.658-1.974,6.306-.963a10.673,10.673,0,0,1,5.653,4.83c1.2,2.118-1.059,8.719-1.059,8.719Z" transform="translate(-563.151 -88.389)" fill="#2e2d3d"/>
          <path id="Trazado_208508" data-name="Trazado 208508" d="M590.765,316.786c-.017-.114.309-2.842.321-2.952.61-5.744,7.69-7.36,14.756-7.36,8.3,0,13.934,1.519,14.832,7.488.026.175.505,2.91.481,3.094-15.386.211-30.391-.27-30.391-.27" transform="translate(-515.74 -267.553)" fill="#d5e1e8"/>
          <path id="Trazado_208509" data-name="Trazado 208509" d="M683.6,216.976c-.823,1.214-1.426,1.265-2.318,0-.71-1.006-3.081-3.3-3.081-4.459l.973-11.56a2.114,2.114,0,0,1,2.108-2.108H683.6a2.114,2.114,0,0,1,2.108,2.108l.452,11.56c0,1.159-1.822,3.37-2.56,4.459" transform="translate(-592.074 -173.597)" fill="#f09959"/>
          <path id="Trazado_208510" data-name="Trazado 208510" d="M684.485,198.85h-2.318a2.114,2.114,0,0,0-2.108,2.108l-.845,10.255c2.6.829,6.119-.856,7.673-2.712l-.295-7.543a2.114,2.114,0,0,0-2.108-2.108" transform="translate(-592.957 -173.597)" fill="#e38540"/>
          <path id="Trazado_208511" data-name="Trazado 208511" d="M648.936,311.584l3.717,6.87s1.99-1.637,2.182-1.316a29.4,29.4,0,0,1-.353,4.371,38.088,38.088,0,0,0,4.621-.132c.193-.193-.9-4.4-.449-4.4s1.8,1.219,1.8,1.219l4.15-6.613-.912-.222-6.8,3.659-7.273-3.578Z" transform="translate(-566.524 -271.82)" fill="#bdccd4"/>
          <path id="Trazado_208512" data-name="Trazado 208512" d="M682.407,331.074l2.76,1.852-.855,4.916,3.723-.208-.93-4.472,2.288-2.089-1.075-1.013h-4.836Z" transform="translate(-595.744 -288.145)" fill="#d54a41"/>
          <path id="Trazado_208513" data-name="Trazado 208513" d="M656.249,284.391l-3.414,3.249s3.478,6.186,3.671,6.186,2.952-3.411,2.952-3.411l1.767-.031,2.791,2.928,3.243-5.737-3.307-3.505s-2.824,5.456-3.338,5.584-.517.193-.932-.128-3.432-5.135-3.432-5.135" transform="translate(-569.928 -247.994)" fill="#d5e1e8"/>
          <path id="Trazado_208514" data-name="Trazado 208514" d="M670.42,134.128c0,5.274-3.138,9.549-7.008,9.549s-7.008-4.275-7.008-9.549,3.138-9.549,7.008-9.549,7.008,4.275,7.008,9.549" transform="translate(-573.044 -108.758)" fill="#f09959"/>
          <path id="Trazado_208515" data-name="Trazado 208515" d="M636.54,186.029c.655,1.38.441,2.853-.479,3.29s-2.2-.328-2.853-1.708-.441-2.853.479-3.29,2.2.328,2.853,1.708" transform="translate(-552.462 -160.806)" fill="#f09959"/>
          <path id="Trazado_208516" data-name="Trazado 208516" d="M756.024,186.029c-.656,1.38-.441,2.853.479,3.29s2.2-.328,2.853-1.708.441-2.853-.479-3.29-2.2.328-2.853,1.708" transform="translate(-659.681 -160.806)" fill="#f09959"/>
          <path id="Trazado_208517" data-name="Trazado 208517" d="M693.324,230.624s-1.392,2.255-3.109,2.255-3.109-2.255-3.109-2.255Z" transform="translate(-599.847 -201.336)" fill="#fff"/>
          <path id="Trazado_208518" data-name="Trazado 208518" d="M659.056,121.641c2.888-2.022,4.188-1.685,6.354,1.637s4.766,3.38,4.766,3.38l.337-3.444s-3.227-6.242-7.558-5.423a11.433,11.433,0,0,0-6.8,4.718s-.211,7.308.394,7.558.674-2.359,1.107-2.888-.433-3.033.144-4.188,1.252-1.348,1.252-1.348" transform="translate(-572.799 -102.766)" fill="#2e2d3d"/>
          <path id="Trazado_208519" data-name="Trazado 208519" d="M752.37,178.188c1.008,1.1.626,5.488,1.155,5.44s.722-4.188.578-4.621-1.733-.818-1.733-.818" transform="translate(-656.822 -155.559)" fill="#2e2d3d"/>
          <path id="Trazado_208520" data-name="Trazado 208520" d="M598.9,478.275H566.713a2.058,2.058,0,1,1,0-4.116H598.9a2.058,2.058,0,0,1,0,4.116" transform="translate(-492.946 -413.943)" fill="#9f321d"/>
          <path id="Trazado_208521" data-name="Trazado 208521" d="M622.436,528.062H598.257a2.058,2.058,0,1,1,0-4.116h24.179a2.058,2.058,0,0,1,0,4.116" transform="translate(-520.484 -457.407)" fill="#afafaf"/>
          <path id="Trazado_208522" data-name="Trazado 208522" d="M526.642,718.993H467.827a1.194,1.194,0,1,1,0-2.388h58.815a1.194,1.194,0,0,1,0,2.388" transform="translate(-407.373 -625.599)" fill="#99bbeb"/>
          <path id="Trazado_208523" data-name="Trazado 208523" d="M526.642,762.7H467.827a1.194,1.194,0,1,1,0-2.388h58.815a1.194,1.194,0,0,1,0,2.388" transform="translate(-407.373 -663.751)" fill="#99bbeb"/>
          <path id="Trazado_208524" data-name="Trazado 208524" d="M526.642,806.4H467.827a1.194,1.194,0,0,1,0-2.388h58.815a1.194,1.194,0,0,1,0,2.388" transform="translate(-407.373 -701.902)" fill="#99bbeb"/>
          <path id="Trazado_208525" data-name="Trazado 208525" d="M570.116,101.752H527.753a1.9,1.9,0,0,1-1.9-1.9V60.809a1.9,1.9,0,0,1,1.9-1.9h42.363a1.9,1.9,0,0,1,1.9,1.9V99.852a1.9,1.9,0,0,1-1.9,1.9M527.753,60.179a.63.63,0,0,0-.63.63V99.852a.63.63,0,0,0,.63.63h42.363a.63.63,0,0,0,.63-.63V60.809a.63.63,0,0,0-.63-.63Z" transform="translate(-459.072 -51.428)" fill="#191a1a"/>
          <path id="Trazado_208526" data-name="Trazado 208526" d="M521.484,598.63l1.227,2.485,2.742.4-1.984,1.934.468,2.731-2.453-1.29-2.453,1.29.469-2.731-1.984-1.934,2.742-.4Z" transform="translate(-451.793 -522.607)" fill="#fecd4d"/>
          <path id="Trazado_208527" data-name="Trazado 208527" d="M600.585,598.63l1.227,2.485,2.742.4-1.985,1.934.469,2.731-2.453-1.29-2.453,1.29.469-2.731-1.985-1.934,2.743-.4Z" transform="translate(-520.849 -522.607)" fill="#fecd4d"/>
          <path id="Trazado_208528" data-name="Trazado 208528" d="M679.688,598.63l1.226,2.485,2.742.4-1.984,1.934.468,2.731-2.453-1.29-2.453,1.29.469-2.731-1.984-1.934,2.742-.4Z" transform="translate(-589.906 -522.607)" fill="#fecd4d"/>
          <path id="Trazado_208529" data-name="Trazado 208529" d="M758.789,598.63l1.226,2.485,2.743.4-1.985,1.934.469,2.731-2.453-1.29-2.453,1.29.468-2.731-1.985-1.934,2.743-.4Z" transform="translate(-658.961 -522.607)" fill="#afafaf"/>
          <path id="Trazado_208530" data-name="Trazado 208530" d="M839.149,598.63l1.227,2.485,2.742.4-1.984,1.934.468,2.731-2.453-1.29-2.453,1.29.469-2.731-1.984-1.934,2.742-.4Z" transform="translate(-729.116 -522.607)" fill="#afafaf"/>
        </g>
      </g>
    </g>
    <g id="Grupo_151257" data-name="Grupo 151257" transform="translate(1020 1737.826)">
      <g id="Grupo_151256" data-name="Grupo 151256" transform="translate(0 0.004)" clip-path="url(#clip-path-2)">
        <path id="Trazado_208531" data-name="Trazado 208531" d="M88.316,499.037H.951A.951.951,0,0,1,0,498.087v-1.425a.951.951,0,0,1,.951-.951H88.316a.951.951,0,0,1,.951.951v1.425a.951.951,0,0,1-.951.951" transform="translate(0 -438.874)" fill="#2e5b9a"/>
        <path id="Trazado_208532" data-name="Trazado 208532" d="M874.406,59.817c1.184,4.173-1.707,8.474-4.892,9.377s-5.458-1.932-6.641-6.106.438-8.289,3.623-9.192,6.727,1.747,7.91,5.921" transform="translate(-763.595 -47.561)" fill="#f09959"/>
        <path id="Trazado_208533" data-name="Trazado 208533" d="M782.236,812.2s8.162,12.678,9.265,13.229,3.858.689,2.825,2.756-1.447,10.2-2.411,10.611-9.233,1.378-7.992,0,2-.689,2.629-3.169,1.505-7.166.334-8.13-8.337-9.646-8.337-9.646Z" transform="translate(-689.281 -719.076)" fill="#f09959"/>
        <path id="Trazado_208534" data-name="Trazado 208534" d="M324.173,859.684s-9.922,16.353-11.76,17.823-7.9,3.675-2.94,4.042,7.35-1.654,10.473-2.572,6.982-1.47,5.512-3.859-.859-7.6,2.309-10.911-3.6-4.524-3.6-4.524" transform="translate(-272.299 -761.115)" fill="#f09959"/>
        <path id="Trazado_208535" data-name="Trazado 208535" d="M470.516,528.86s-24.562-.642-34.3,7.35c-5.7,8.636-19.476,34.116-20.547,36.924.735.735,4.869,2.061,6.707,1.877,5.42-6.463,12.585-12.051,15.434-17.12,3.511-6.247,4.594-9.371,10.289-9.922s18.558-2.389,22.417-2.389,0-16.721,0-16.721" transform="translate(-368.009 -468.211)" fill="#636363"/>
        <path id="Trazado_208536" data-name="Trazado 208536" d="M999.6,753.334h-1.288l-9.233-38.52h2.833Z" transform="translate(-875.675 -632.855)" fill="#2e5b9a"/>
        <path id="Trazado_208537" data-name="Trazado 208537" d="M744.456,742.819h1.287l10.594-39.882h-2.832Z" transform="translate(-659.098 -622.34)" fill="#2e5b9a"/>
        <path id="Trazado_208538" data-name="Trazado 208538" d="M643.163,514.281l-14.28,2.465s-18.977.174-27.651,1.79c-7.892,1.47-9.055,10.437,0,22.784,5.144,7.014,9.493,12.609,18.386,18.918,2.262-1.661,3.128-2.289,3.753-6.286-.644-.883-2.31-6.406-2.827-7.487-4.919-10.283-11.485-14.022-11.576-15.034,1.1-1.791,29.2,9.338,34.788,2.791,5.334-6.25-.593-19.941-.593-19.941" transform="translate(-526.663 -455.315)" fill="#afafaf"/>
        <path id="Trazado_208539" data-name="Trazado 208539" d="M880.543,231.064a14.942,14.942,0,0,0-11.174,2.78c-3.13,3.191-6.673,8.453-6.456,17.133.276,11.024-1.706,11.732.361,14.764,8.621,3.56,23.366,18.856,19.893,2.458-2.514-11.874,5.514-20.724-.962-33.9-.527-1.072-1.186-2.112-1.663-3.24" transform="translate(-763.45 -204.427)" fill="#9f321d"/>
        <path id="Trazado_208540" data-name="Trazado 208540" d="M862.915,276.393c-.168,5.747-.979,7.44-.359,9.242,3.515.359,9.944,1.765,11.55,4.014,1.837,2.572,3.675,2.94,2.817,1.041s-3.123-4.593.368-13.842,5.145-15.5,1.715-21.927Z" transform="translate(-763.454 -225.694)" fill="#7b2515"/>
        <path id="Trazado_208541" data-name="Trazado 208541" d="M934.96,142.422a44.858,44.858,0,0,1-2.885-11.642l-6.063,1.791s3.445,7.717.138,10.473a31.591,31.591,0,0,0-2.364,2.159,14.942,14.942,0,0,1,11.174-2.78" transform="translate(-817.866 -115.785)" fill="#f09959"/>
        <path id="Trazado_208542" data-name="Trazado 208542" d="M949.517,134.746c-.359-.32-.809-.718-1.281-1.136l-4.946,1.461-.01.027a20.2,20.2,0,0,1,1.545,6.04,17.438,17.438,0,0,0,4.932-4.9c-.1-.565-.179-1.069-.241-1.494" transform="translate(-835.125 -118.291)" fill="#e38540"/>
        <path id="Trazado_208543" data-name="Trazado 208543" d="M699.632,246.017c-6.245,2.184-5.552,8.763-11.3,18.465-2.974,5.021-5.737,4.946-5.737,4.946a133.063,133.063,0,0,1-15.413-.976c-5.283-.646-5.619.927-1.944,2.241,7.411,2.65,15.1,5.5,21.3,4.813S703.348,259,703.895,254.877c.756-5.7-1.118-9.96-4.263-8.86" transform="translate(-586.801 -217.656)" fill="#f09959"/>
        <path id="Trazado_208544" data-name="Trazado 208544" d="M786.5,407.509q-.582,0-1.194-.015a59.372,59.372,0,0,1-11.338-1.4c-3.25-.66-5.041-1.024-7.124-.029a1.605,1.605,0,1,1-1.384-2.9c3.054-1.459,5.61-.94,9.148-.221a56.555,56.555,0,0,0,10.778,1.332c5.38.134,8.66-.664,10.322-2.508,1.481-1.642,1.915-4.4,1.364-8.686-.188-1.466-.377-2.685-.543-3.761a26.036,26.036,0,0,1-.4-8.139c.356-2.878,1.31-6.712,3.517-14.145a1.605,1.605,0,1,1,3.078.914c-4.113,13.852-3.9,15.2-3.026,20.88.169,1.095.361,2.335.555,3.842.679,5.282-.009,8.855-2.164,11.245-2.22,2.461-5.822,3.582-11.592,3.582" transform="translate(-676.883 -323.945)" fill="#2e5b9a"/>
        <path id="Trazado_208545" data-name="Trazado 208545" d="M324.847,979.892c-6.584,3.22-10.127,5.065-12.238,4.889-.5-.042-.911-.092-1.257-.146-2.348,1.388-6.1,3.027-1.879,3.34,4.961.367,7.35-1.654,10.473-2.572s6.982-1.47,5.512-3.859a5.026,5.026,0,0,1-.612-1.652" transform="translate(-272.299 -867.54)" fill="#d54a41"/>
        <path id="Trazado_208546" data-name="Trazado 208546" d="M832.739,929.922c-.161,5.213-.877,10.378-4.065,11.354a5.358,5.358,0,0,1-2.3.2c-.5.62-1.113.627-1.934,1.539-1.24,1.378,7.028.413,7.992,0s1.378-8.544,2.411-10.611c.849-1.7-.859-2.094-2.107-2.487" transform="translate(-729.802 -823.299)" fill="#d54a41"/>
        <path id="Trazado_208547" data-name="Trazado 208547" d="M437.447,334.435H416.532a1.605,1.605,0,0,1-1.456-.929l-8.452-18.191a1.605,1.605,0,1,1,2.911-1.353l8.021,17.262h19.891a1.605,1.605,0,1,1,0,3.21" transform="translate(-359.869 -277.142)" fill="#75a1de"/>
        <path id="Trazado_208548" data-name="Trazado 208548" d="M571.168,427.254c-4.226-.061-8.417-2.58-10.5-2.213s-8.881,5.084-8.023,5.267,6.247-2.61,6.431-2.652a9.063,9.063,0,0,0,4.226,2.661c2.878.726.02-2.158,8.943.538,5.8,1.752-1.078-3.6-1.078-3.6" transform="translate(-489.214 -376.275)" fill="#f09959"/>
        <path id="Trazado_208549" data-name="Trazado 208549" d="M905.354,188.684l.622,5s-5.469.325-8.19,1.857-6.737,5.955-6.737,5.955l3.281-5.649.473-3.614Z" transform="translate(-788.882 -167.05)" fill="#f2e5de"/>
        <path id="Trazado_208550" data-name="Trazado 208550" d="M749.543,241.329c-4.062-.761-5.941,2.879-8.575,8.82s-7.13,13.157-8.024,14.087-15.067,0-15.067,0-.429,4.1,0,4.594,2.879.429,2.879.429.98.782,1.9,1.4,8.7,1.783,12.311,1.6,6.921-.49,7.411-1.041,10.351-15.741,10.963-21.192-1.724-8.309-3.8-8.7" transform="translate(-635.399 -213.57)" fill="#f2e5de"/>
        <path id="Trazado_208551" data-name="Trazado 208551" d="M840.5,2.773c-7.682.367-6.477,11.924-6.477,11.924s2,.616,6.175-.073a23.062,23.062,0,0,1-.184-4.41,28.887,28.887,0,0,0,1.1,4.134c.884.405,1.883.046,3.583-.365a7.56,7.56,0,0,0,5.027,5.755c1.866.587,3.841,1.286,6.046.184s.992-12.372-.178-14.638c-1.757-3.4-4.678-6.446-9.731-4.839A37.535,37.535,0,0,0,840.5,2.773" transform="translate(-738.337 -0.004)" fill="#191a1a"/>
        <path id="Trazado_208552" data-name="Trazado 208552" d="M1007.564,137.482l3.141,4.587s-3.481,8.7,6.643,12.638c7.929,3.086,6.995,8.523,3.412,13.991s2.144,10.243,2.144,10.243.873-6.057,8.577-7.2c10.5-1.559,13.478-15.661,5.632-22.713-6.492-5.835-8.467-1-12.862-6.239s-12.691-1.7-12.691-1.7l-3.041-4.434Z" transform="translate(-892.039 -120.987)" fill="#191a1a"/>
        <path id="Trazado_208553" data-name="Trazado 208553" d="M1069.427,182.044a.279.279,0,0,1-.245-.414c2.641-4.827.486-10.675-.6-12.259-.115-.168-.224-.338-.339-.518-1.065-1.662-2.39-3.731-9.463-5a11.254,11.254,0,0,1-4.543-2.391c-3.016-2.214-6.434-4.724-13.861-1.305a.279.279,0,1,1-.234-.507c7.726-3.556,11.285-.943,14.426,1.362a10.855,10.855,0,0,0,4.311,2.292c7.313,1.316,8.711,3.5,9.834,5.253.113.176.22.343.33.5,1.135,1.66,3.394,7.786.627,12.842a.28.28,0,0,1-.245.145" transform="translate(-920.739 -139.796)" fill="#303c60"/>
        <path id="Trazado_208554" data-name="Trazado 208554" d="M929.558,100.491a11.05,11.05,0,0,1-1.632-.131c-2.687-.4-6.293-1.93-6.576-10.507a.279.279,0,1,1,.558-.018c.117,3.535.818,6.151,2.085,7.775a5.859,5.859,0,0,0,4.016,2.2c2.487.372,4.136-.087,4.9-1.365a.279.279,0,1,1,.48.287c-.7,1.172-1.986,1.762-3.831,1.762" transform="translate(-815.71 -79.295)" fill="#303c60"/>
        <path id="Trazado_208555" data-name="Trazado 208555" d="M81.678,576.845h2.064l8.029-61.377H87.23Z" transform="translate(-72.313 -456.366)" fill="#2e5b9a"/>
        <path id="Trazado_208556" data-name="Trazado 208556" d="M614.593,576.845h-2.064L604.5,515.468h4.541Z" transform="translate(-535.189 -456.366)" fill="#2e5b9a"/>
      </g>
    </g>
    <g id="Grupo_151258" data-name="Grupo 151258" transform="translate(957.5 1764.894)">
      <g id="Grupo_151229" data-name="Grupo 151229" transform="translate(0)">
        <g id="Grupo_151228" data-name="Grupo 151228" clip-path="url(#clip-path-3)">
          <rect id="Rectángulo_42058" data-name="Rectángulo 42058" width="43.992" height="89.66" transform="translate(-6.56)" fill="#25b1b1"/>
        </g>
      </g>
      <g id="Grupo_151231" data-name="Grupo 151231">
        <g id="Grupo_151230" data-name="Grupo 151230" clip-path="url(#clip-path-4)">
          <path id="Trazado_208434" data-name="Trazado 208434" d="M90.484,175.7c-3.686-2.592-8-20.655-8.257-31.414-.132-5.511-1.761-7.807-3.2-9.833-1.374-1.936-2.56-3.609-1.869-7.449,1.321-7.338-2.152-10.506-2.187-10.537l.4-.458c.155.135,3.771,3.4,2.385,11.1-.646,3.588.419,5.088,1.766,6.988,1.414,1.993,3.174,4.474,3.31,10.171.276,11.546,4.686,28.6,8,30.93Z" transform="translate(-63.905 -98.879)" fill="#fff"/>
        </g>
      </g>
      <g id="Grupo_151233" data-name="Grupo 151233" transform="translate(23.392 41.973)">
        <g id="Grupo_151232" data-name="Grupo 151232" clip-path="url(#clip-path-5)">
          <rect id="Rectángulo_42060" data-name="Rectángulo 42060" width="29.59" height="36.183" transform="translate(-0.754 0)" fill="url(#linear-gradient-2)"/>
        </g>
      </g>
      <g id="Grupo_151235" data-name="Grupo 151235" transform="translate(25.857 46.841)">
        <g id="Grupo_151234" data-name="Grupo 151234" clip-path="url(#clip-path-6)">
          <rect id="Rectángulo_42061" data-name="Rectángulo 42061" width="21.644" height="34.834" fill="url(#linear-gradient-3)"/>
        </g>
      </g>
      <g id="Grupo_151237" data-name="Grupo 151237" transform="translate(18.041 13.584)">
        <g id="Grupo_151236" data-name="Grupo 151236" clip-path="url(#clip-path-7)">
          <rect id="Rectángulo_42062" data-name="Rectángulo 42062" width="32.917" height="69.259" transform="translate(-3.786 0)" fill="#0ad857"/>
        </g>
      </g>
      <g id="Grupo_151239" data-name="Grupo 151239">
        <g id="Grupo_151238" data-name="Grupo 151238" clip-path="url(#clip-path-4)">
          <path id="Trazado_208438" data-name="Trazado 208438" d="M167.548,257.621c-.484-2.052-4.616-20.113-.76-22.3,3.4-1.924,3.314-9.408,2.784-16.475-.469-6.256,7.565-9.18,7.908-9.3l.2.575c-.079.028-7.938,2.891-7.5,8.681.544,7.258.6,14.959-3.092,17.051-2.927,1.658-.232,16.173,1.053,21.626Z" transform="translate(-140.776 -178.614)" fill="#fff"/>
        </g>
      </g>
      <g id="Grupo_151241" data-name="Grupo 151241" transform="translate(12.257 72.576)">
        <g id="Grupo_151240" data-name="Grupo 151240" clip-path="url(#clip-path-9)">
          <rect id="Rectángulo_42064" data-name="Rectángulo 42064" width="23.26" height="20.838" transform="translate(0)" fill="url(#linear-gradient-4)"/>
        </g>
      </g>
      <g id="Grupo_151243" data-name="Grupo 151243" transform="translate(12.257 72.576)">
        <g id="Grupo_151242" data-name="Grupo 151242" clip-path="url(#clip-path-10)">
          <rect id="Rectángulo_42065" data-name="Rectángulo 42065" width="23.26" height="20.838" transform="translate(0 0)" fill="url(#linear-gradient-5)"/>
        </g>
      </g>
    </g>
  </g>
</svg>
