<svg xmlns="http://www.w3.org/2000/svg" xmlns:xlink="http://www.w3.org/1999/xlink" width="1030" height="366" viewBox="0 0 1030 366">
  <defs>
    <linearGradient id="linear-gradient" x1="0.5" x2="0.5" y2="1" gradientUnits="objectBoundingBox">
      <stop offset="0" stop-color="#fff"/>
      <stop offset="1" stop-color="#ececec"/>
    </linearGradient>
    <clipPath id="clip-path">
      <rect id="Rectángulo_41814" data-name="Rectángulo 41814" width="361.068" height="317.264" fill="none"/>
    </clipPath>
    <clipPath id="clip-path-2">
      <rect id="Rectángulo_41813" data-name="Rectángulo 41813" width="84.559" height="11.785" transform="translate(151.618 53.474)" fill="#fe944d"/>
    </clipPath>
    <clipPath id="clip-path-3">
      <rect id="Rectángulo_42478" data-name="Rectángulo 42478" width="926.649" height="248.916" fill="none"/>
    </clipPath>
  </defs>
  <g id="Grupo_151491" data-name="Grupo 151491" transform="translate(-285 -986)">
    <g id="Grupo_151477" data-name="Grupo 151477">
      <rect id="Rectángulo_42477" data-name="Rectángulo 42477" width="1030" height="366" transform="translate(285 986)" fill="#fff"/>
      <path id="Trazado_207777" data-name="Trazado 207777" d="M0,0H515V317H72Z" transform="translate(800 1006)" fill="url(#linear-gradient)"/>
      <path id="Trazado_207773" data-name="Trazado 207773" d="M0,0H515l57.625,85.867L0,84Z" transform="translate(285 1006)" fill="#f6eae7"/>
      <g id="Grupo_151112" data-name="Grupo 151112" transform="translate(600 1006)">
        <g id="Grupo_151111" data-name="Grupo 151111">
          <g id="Grupo_151110" data-name="Grupo 151110" clip-path="url(#clip-path)">
            <g id="Grupo_151109" data-name="Grupo 151109">
              <g id="Grupo_151108" data-name="Grupo 151108">
                <g id="Grupo_151107" data-name="Grupo 151107" clip-path="url(#clip-path-2)">
                  <path id="Trazado_207754" data-name="Trazado 207754" d="M233.975,59.519l2.2-6.045-50.052.727-34.507,6.532,41.609,4.526Z" fill="#b3622c"/>
                </g>
              </g>
            </g>
          </g>
        </g>
        <path id="Trazado_207755" data-name="Trazado 207755" d="M199.222,58.125l8.7-4.241-15.166.22-22.927,6.5,2.706,2.4,13.751,1.5Z" fill="#636363"/>
        <path id="Trazado_207756" data-name="Trazado 207756" d="M225.093,53.635l-19.937.289L185.227,60.5l7.428,3.815,8.079-.8Z" fill="#172f5d"/>
        <path id="Trazado_207757" data-name="Trazado 207757" d="M220.438,53.7l-21.513,6.7L199.884,62l21.756-.851,14.3-7.671Z" fill="#d4ac43"/>
        <path id="Trazado_207758" data-name="Trazado 207758" d="M151.388,60.733,0,256.177l121.441,27.188L179.822,60.536Z" fill="#fe944d"/>
        <path id="Trazado_207759" data-name="Trazado 207759" d="M211.783,60.316l.059.208,61.013,256.74,88.213-93.478L236.177,53.474Z" fill="#ffdd83"/>
        <path id="Trazado_207760" data-name="Trazado 207760" d="M157.821,291.51,208.8,60.336l-38.972.27L69.863,271.818Z" fill="#afafaf"/>
        <path id="Trazado_207761" data-name="Trazado 207761" d="M136.5,286.736l86.651,19.4L213.21,66.318l-1.427-6-26.556.183Z" fill="#2c53a0"/>
        <path id="Trazado_207762" data-name="Trazado 207762" d="M198.924,60.4l4.431,241.3,69.5,15.56L211.783,60.316Z" fill="#fecd4d"/>
        <path id="Trazado_207763" data-name="Trazado 207763" d="M197.816,0l-37.31,48.115,48.529-.868Z" fill="#9f321d"/>
        <path id="Trazado_207764" data-name="Trazado 207764" d="M209.034,47.248l19.8-4.945L197.815,0Z" fill="#c55d49"/>
      </g>
      <g id="Elipse_4885" data-name="Elipse 4885" transform="translate(824 1281)" fill="none" stroke="#000" stroke-width="1">
        <circle cx="7" cy="7" r="7" stroke="none"/>
        <circle cx="7" cy="7" r="6.5" fill="none"/>
      </g>
      <g id="Elipse_4887" data-name="Elipse 4887" transform="translate(673 1178)" fill="none" stroke="#000" stroke-width="1">
        <circle cx="7" cy="7" r="7" stroke="none"/>
        <circle cx="7" cy="7" r="6.5" fill="none"/>
      </g>
      <g id="Elipse_4888" data-name="Elipse 4888" transform="translate(763 1141) rotate(180)" fill="none" stroke="#000" stroke-width="1">
        <circle cx="7" cy="7" r="7" stroke="none"/>
        <circle cx="7" cy="7" r="6.5" fill="none"/>
      </g>
      <g id="Elipse_4886" data-name="Elipse 4886" transform="translate(770 1238)" fill="none" stroke="#000" stroke-width="1">
        <circle cx="7" cy="7" r="7" stroke="none"/>
        <circle cx="7" cy="7" r="6.5" fill="none"/>
      </g>
      <path id="Trazado_207765" data-name="Trazado 207765" d="M4177-10441h267" transform="translate(-3339 11729)" fill="none" stroke="#000" stroke-width="1" stroke-dasharray="4"/>
      <path id="Trazado_207769" data-name="Trazado 207769" d="M4177-10441h301" transform="translate(-3367 11486)" fill="none" stroke="#000" stroke-width="1" stroke-dasharray="4"/>
      <path id="Trazado_207770" data-name="Trazado 207770" d="M3937.973-10413.653H3624v-86.176l382.041-.08L3939-10413.653Z" transform="translate(-3339 11675.571)" fill="#e9edf5"/>
      <path id="Trazado_207772" data-name="Trazado 207772" d="M3937.973-10413.653H3624v-86.176l448.682,0-66.766,86.181Z" transform="translate(-3339 11589.396)" fill="#fff5db"/>
      <path id="Trazado_207768" data-name="Trazado 207768" d="M4177-10441h223.1" transform="translate(-3414 11575)" fill="none" stroke="#000" stroke-width="1" stroke-dasharray="4"/>
      <path id="Trazado_207766" data-name="Trazado 207766" d="M4177-10441h267" transform="translate(-3393 11686)" fill="none" stroke="#000" stroke-width="1" stroke-dasharray="4"/>
      <path id="Trazado_207771" data-name="Trazado 207771" d="M4177-10441h452.1" transform="translate(-3490 11626)" fill="none" stroke="#000" stroke-width="1" stroke-dasharray="4"/>
      <g id="Grupo_151113" data-name="Grupo 151113" transform="translate(0 -13.908)">
        <path id="Trazado_207774" data-name="Trazado 207774" d="M3648.187-10671.027v68.729" transform="translate(-3339 11700)" fill="none" stroke="#9f321d" stroke-width="1"/>
        <path id="Trazado_207775" data-name="Trazado 207775" d="M7.774,0,3.887,3.889,0,0V3.3L3.887,7.187,7.774,3.3Z" transform="translate(313.074 1033.094) rotate(180)" fill="#9f321d"/>
        <path id="Trazado_207776" data-name="Trazado 207776" d="M7.774,0,3.887,3.889,0,0V3.3L3.887,7.187,7.774,3.3Z" transform="translate(305.299 1091.907)" fill="#9f321d"/>
      </g>
      <g id="Grupo_151114" data-name="Grupo 151114" transform="translate(0 70.5)">
        <path id="Trazado_207774-2" data-name="Trazado 207774" d="M3648.187-10671.027v68.729" transform="translate(-3339 11700)" fill="none" stroke="#c49314" stroke-width="1"/>
        <path id="Trazado_207775-2" data-name="Trazado 207775" d="M7.774,0,3.887,3.889,0,0V3.3L3.887,7.187,7.774,3.3Z" transform="translate(313.074 1033.094) rotate(180)" fill="#c49314"/>
        <path id="Trazado_207776-2" data-name="Trazado 207776" d="M7.774,0,3.887,3.889,0,0V3.3L3.887,7.187,7.774,3.3Z" transform="translate(305.299 1091.907)" fill="#c49314"/>
      </g>
      <g id="Grupo_151115" data-name="Grupo 151115" transform="translate(0 156.289)">
        <path id="Trazado_207774-3" data-name="Trazado 207774" d="M3648.187-10671.027v68.729" transform="translate(-3339 11700)" fill="none" stroke="#636363" stroke-width="1"/>
        <path id="Trazado_207775-3" data-name="Trazado 207775" d="M7.774,0,3.887,3.889,0,0V3.3L3.887,7.187,7.774,3.3Z" transform="translate(313.074 1033.094) rotate(180)" fill="#636363"/>
        <path id="Trazado_207776-3" data-name="Trazado 207776" d="M7.774,0,3.887,3.889,0,0V3.3L3.887,7.187,7.774,3.3Z" transform="translate(305.299 1091.907)" fill="#636363"/>
      </g>
      <g id="Rectángulo_41912" data-name="Rectángulo 41912" transform="translate(1111 1031)" fill="none" stroke="#9f321d" stroke-width="1">
        <rect width="119" height="29" stroke="none"/>
        <rect x="0.5" y="0.5" width="118" height="28" fill="none"/>
      </g>
      <rect id="Rectángulo_42291" data-name="Rectángulo 42291" width="1030" height="359" transform="translate(285 993)" fill="none"/>
      <g id="Grupo_151479" data-name="Grupo 151479" transform="translate(345 1038)">
        <g id="Grupo_151480" data-name="Grupo 151480">
          <g id="Grupo_151479-2" data-name="Grupo 151479" clip-path="url(#clip-path-3)">
            <path id="Trazado_210566" data-name="Trazado 210566" d="M786.149,244.327h-1.982v4.423h-2.491V236.664h4.491a5.073,5.073,0,0,1,3.3.956,3.291,3.291,0,0,1,1.162,2.7,3.715,3.715,0,0,1-.535,2.062,3.655,3.655,0,0,1-1.623,1.317l2.615,4.938v.116h-2.672Zm-1.982-2.018h2.008a2.056,2.056,0,0,0,1.453-.478,1.7,1.7,0,0,0,.514-1.315,1.825,1.825,0,0,0-.486-1.345,2.017,2.017,0,0,0-1.489-.489h-2Z" fill="#12263f"/>
            <path id="Trazado_210567" data-name="Trazado 210567" d="M796.5,248.916a4.407,4.407,0,0,1-3.216-1.212,4.305,4.305,0,0,1-1.242-3.229v-.233a5.421,5.421,0,0,1,.524-2.419,3.829,3.829,0,0,1,1.481-1.643,4.156,4.156,0,0,1,2.188-.578,3.725,3.725,0,0,1,2.9,1.163,4.718,4.718,0,0,1,1.059,3.295v.979h-5.719a2.227,2.227,0,0,0,.7,1.412,2.121,2.121,0,0,0,1.482.531,2.591,2.591,0,0,0,2.167-1L800,247.3a3.591,3.591,0,0,1-1.461,1.191,4.793,4.793,0,0,1-2.042.428m-.274-7.379a1.5,1.5,0,0,0-1.158.483,2.508,2.508,0,0,0-.569,1.384h3.337v-.191a1.781,1.781,0,0,0-.431-1.239,1.549,1.549,0,0,0-1.179-.437" fill="#12263f"/>
            <path id="Trazado_210568" data-name="Trazado 210568" d="M805.292,246.982a1.573,1.573,0,0,0,1.078-.365,1.278,1.278,0,0,0,.432-.972h2.25a3.09,3.09,0,0,1-.5,1.673,3.3,3.3,0,0,1-1.34,1.179,4.211,4.211,0,0,1-1.881.419,3.9,3.9,0,0,1-3.038-1.225,4.841,4.841,0,0,1-1.112-3.383v-.157a4.794,4.794,0,0,1,1.1-3.312,3.853,3.853,0,0,1,3.03-1.237,3.779,3.779,0,0,1,2.7.959,3.4,3.4,0,0,1,1.033,2.552H806.8a1.643,1.643,0,0,0-.432-1.139,1.606,1.606,0,0,0-2.361.173,3.538,3.538,0,0,0-.428,1.982v.25a3.59,3.59,0,0,0,.424,2,1.464,1.464,0,0,0,1.287.607" fill="#12263f"/>
            <path id="Trazado_210569" data-name="Trazado 210569" d="M815.8,247.837a3.006,3.006,0,0,1-2.457,1.079,2.832,2.832,0,0,1-2.2-.83,3.541,3.541,0,0,1-.777-2.432v-5.885h2.4v5.808q0,1.406,1.278,1.406a1.733,1.733,0,0,0,1.677-.849v-6.365h2.407v8.981h-2.258Z" fill="#12263f"/>
            <path id="Trazado_210570" data-name="Trazado 210570" d="M824.981,242.018a6.546,6.546,0,0,0-.863-.066,1.756,1.756,0,0,0-1.784.921v5.877h-2.4v-8.981H822.2l.066,1.071a2.223,2.223,0,0,1,2-1.237,2.507,2.507,0,0,1,.747.108Z" fill="#12263f"/>
            <path id="Trazado_210571" data-name="Trazado 210571" d="M831,246.268a.774.774,0,0,0-.437-.692,4.942,4.942,0,0,0-1.4-.453q-3.2-.674-3.2-2.722a2.471,2.471,0,0,1,.991-2,4,4,0,0,1,2.595-.8,4.3,4.3,0,0,1,2.734.806,2.534,2.534,0,0,1,1.026,2.091h-2.4a1.162,1.162,0,0,0-.331-.851,1.408,1.408,0,0,0-1.038-.336,1.444,1.444,0,0,0-.938.273.869.869,0,0,0-.332.7.739.739,0,0,0,.378.643,3.887,3.887,0,0,0,1.274.424,10.481,10.481,0,0,1,1.511.4,2.482,2.482,0,0,1,1.9,2.415,2.344,2.344,0,0,1-1.054,1.989,4.542,4.542,0,0,1-2.722.759,4.741,4.741,0,0,1-2.005-.4,3.364,3.364,0,0,1-1.374-1.1,2.567,2.567,0,0,1-.5-1.515h2.274a1.254,1.254,0,0,0,.474.979,1.874,1.874,0,0,0,1.178.341,1.748,1.748,0,0,0,1.042-.261.817.817,0,0,0,.354-.686" fill="#12263f"/>
            <path id="Trazado_210572" data-name="Trazado 210572" d="M834.5,244.176a5.314,5.314,0,0,1,.514-2.382,3.761,3.761,0,0,1,1.482-1.618,4.309,4.309,0,0,1,2.245-.573,4.094,4.094,0,0,1,2.968,1.112,4.463,4.463,0,0,1,1.282,3.022l.016.614a4.7,4.7,0,0,1-1.153,3.316,4.472,4.472,0,0,1-6.2,0,4.771,4.771,0,0,1-1.158-3.386Zm2.4.171a3.365,3.365,0,0,0,.481,1.958,1.729,1.729,0,0,0,2.74.008,3.668,3.668,0,0,0,.49-2.141,3.319,3.319,0,0,0-.49-1.945,1.59,1.59,0,0,0-1.378-.69,1.57,1.57,0,0,0-1.362.686,3.742,3.742,0,0,0-.481,2.124" fill="#12263f"/>
            <path id="Trazado_210573" data-name="Trazado 210573" d="M849.352,246.268a.771.771,0,0,0-.436-.692,4.934,4.934,0,0,0-1.4-.453q-3.206-.674-3.2-2.722a2.467,2.467,0,0,1,.992-2,4,4,0,0,1,2.594-.8,4.3,4.3,0,0,1,2.735.806,2.536,2.536,0,0,1,1.025,2.091h-2.4a1.162,1.162,0,0,0-.332-.851,1.407,1.407,0,0,0-1.038-.336,1.441,1.441,0,0,0-.937.273.866.866,0,0,0-.332.7.74.74,0,0,0,.377.643,3.878,3.878,0,0,0,1.274.424,10.48,10.48,0,0,1,1.511.4,2.483,2.483,0,0,1,1.9,2.415,2.343,2.343,0,0,1-1.055,1.989,4.54,4.54,0,0,1-2.722.759,4.737,4.737,0,0,1-2-.4,3.364,3.364,0,0,1-1.374-1.1,2.567,2.567,0,0,1-.5-1.515h2.274a1.25,1.25,0,0,0,.473.979,1.876,1.876,0,0,0,1.178.341,1.746,1.746,0,0,0,1.042-.261.814.814,0,0,0,.353-.686" fill="#12263f"/>
            <path id="Trazado_210574" data-name="Trazado 210574" d="M859.8,240.748a2.993,2.993,0,0,1,2.4-1.146q2.924,0,2.964,3.4v5.752h-2.4v-5.7a1.67,1.67,0,0,0-.332-1.144,1.42,1.42,0,0,0-1.1-.37,1.631,1.631,0,0,0-1.527.815v6.4h-2.4V236h2.4Z" fill="#12263f"/>
            <path id="Trazado_210575" data-name="Trazado 210575" d="M872.354,247.837a3.008,3.008,0,0,1-2.457,1.079,2.835,2.835,0,0,1-2.2-.83,3.541,3.541,0,0,1-.776-2.432v-5.885h2.4v5.808q0,1.406,1.278,1.406a1.734,1.734,0,0,0,1.677-.849v-6.365h2.407v8.981H872.42Z" fill="#12263f"/>
            <path id="Trazado_210576" data-name="Trazado 210576" d="M878.737,239.769l.075,1.005a3.154,3.154,0,0,1,2.581-1.171,2.4,2.4,0,0,1,2.383,1.37,3.082,3.082,0,0,1,2.7-1.37,2.674,2.674,0,0,1,2.175.851,3.9,3.9,0,0,1,.714,2.56v5.736h-2.407v-5.741a1.714,1.714,0,0,0-.3-1.118,1.322,1.322,0,0,0-1.054-.353,1.5,1.5,0,0,0-1.494,1.031l.008,6.181h-2.4v-5.732a1.7,1.7,0,0,0-.307-1.132,1.337,1.337,0,0,0-1.046-.348,1.555,1.555,0,0,0-1.478.847v6.365h-2.4v-8.981Z" fill="#12263f"/>
            <path id="Trazado_210577" data-name="Trazado 210577" d="M896.409,248.75a2.659,2.659,0,0,1-.241-.8,2.9,2.9,0,0,1-2.265.971,3.191,3.191,0,0,1-2.188-.764,2.454,2.454,0,0,1-.867-1.925,2.536,2.536,0,0,1,1.058-2.192,5.22,5.22,0,0,1,3.059-.771h1.1v-.516a1.484,1.484,0,0,0-.32-1,1.26,1.26,0,0,0-1.009-.373,1.429,1.429,0,0,0-.95.291.987.987,0,0,0-.344.8h-2.4a2.409,2.409,0,0,1,.482-1.446,3.179,3.179,0,0,1,1.361-1.041,4.954,4.954,0,0,1,1.975-.377,3.926,3.926,0,0,1,2.636.833,2.92,2.92,0,0,1,.975,2.345v3.894a4.305,4.305,0,0,0,.357,1.934v.141Zm-1.984-1.668a2.059,2.059,0,0,0,.979-.237,1.555,1.555,0,0,0,.665-.635v-1.544h-.9q-1.8,0-1.917,1.245l-.009.142a.959.959,0,0,0,.316.738,1.229,1.229,0,0,0,.863.291" fill="#12263f"/>
            <path id="Trazado_210578" data-name="Trazado 210578" d="M902.527,239.769l.075,1.038a3.134,3.134,0,0,1,2.581-1.2,2.6,2.6,0,0,1,2.125.839,3.906,3.906,0,0,1,.714,2.506v5.8h-2.4v-5.757a1.571,1.571,0,0,0-.332-1.111,1.488,1.488,0,0,0-1.1-.344,1.648,1.648,0,0,0-1.518.864v6.348h-2.4v-8.981Z" fill="#12263f"/>
            <path id="Trazado_210579" data-name="Trazado 210579" d="M909.467,244.176a5.328,5.328,0,0,1,.514-2.382,3.767,3.767,0,0,1,1.482-1.618,4.313,4.313,0,0,1,2.246-.573,4.09,4.09,0,0,1,2.967,1.112,4.468,4.468,0,0,1,1.283,3.022l.016.614a4.691,4.691,0,0,1-1.154,3.316,4.472,4.472,0,0,1-6.2,0,4.771,4.771,0,0,1-1.158-3.386Zm2.4.171a3.357,3.357,0,0,0,.481,1.958,1.729,1.729,0,0,0,2.74.008,3.676,3.676,0,0,0,.489-2.141,3.326,3.326,0,0,0-.489-1.945,1.593,1.593,0,0,0-1.378-.69,1.567,1.567,0,0,0-1.362.686,3.734,3.734,0,0,0-.481,2.124" fill="#12263f"/>
            <path id="Trazado_210580" data-name="Trazado 210580" d="M924.317,246.268a.772.772,0,0,0-.437-.692,4.921,4.921,0,0,0-1.4-.453q-3.2-.674-3.2-2.722a2.47,2.47,0,0,1,.992-2,4,4,0,0,1,2.594-.8,4.3,4.3,0,0,1,2.735.806,2.534,2.534,0,0,1,1.026,2.091h-2.4a1.159,1.159,0,0,0-.332-.851,1.4,1.4,0,0,0-1.037-.336,1.444,1.444,0,0,0-.938.273.869.869,0,0,0-.332.7.74.74,0,0,0,.377.643,3.9,3.9,0,0,0,1.275.424,10.516,10.516,0,0,1,1.511.4,2.483,2.483,0,0,1,1.9,2.415,2.344,2.344,0,0,1-1.054,1.989,4.542,4.542,0,0,1-2.722.759,4.742,4.742,0,0,1-2.005-.4,3.364,3.364,0,0,1-1.374-1.1,2.567,2.567,0,0,1-.5-1.515h2.274a1.251,1.251,0,0,0,.474.979,1.872,1.872,0,0,0,1.178.341,1.742,1.742,0,0,0,1.041-.261.815.815,0,0,0,.354-.686" fill="#12263f"/>
            <path id="Trazado_210581" data-name="Trazado 210581" d="M788.676,12.75V.664H792.4a5.656,5.656,0,0,1,2.851.718,5.013,5.013,0,0,1,1.963,2.042,6.305,6.305,0,0,1,.705,3.01V6.99a6.321,6.321,0,0,1-.692,3,4.981,4.981,0,0,1-1.955,2.033,5.692,5.692,0,0,1-2.848.73Zm2.491-10.068V10.75h1.2A2.7,2.7,0,0,0,794.6,9.8a4.316,4.316,0,0,0,.788-2.73v-.64a4.384,4.384,0,0,0-.763-2.793,2.7,2.7,0,0,0-2.233-.95Z" fill="#9f321d"/>
            <path id="Trazado_210582" data-name="Trazado 210582" d="M799.55,1.444a1.178,1.178,0,0,1,.361-.887,1.553,1.553,0,0,1,1.964,0,1.174,1.174,0,0,1,.365.887,1.176,1.176,0,0,1-.37.9,1.541,1.541,0,0,1-1.951,0,1.179,1.179,0,0,1-.369-.9M802.1,12.75h-2.407V3.769H802.1Z" fill="#9f321d"/>
            <path id="Trazado_210583" data-name="Trazado 210583" d="M809.121,6.018a6.546,6.546,0,0,0-.863-.066,1.756,1.756,0,0,0-1.784.921V12.75h-2.4V3.769h2.267l.066,1.071a2.223,2.223,0,0,1,2-1.237,2.508,2.508,0,0,1,.747.108Z" fill="#9f321d"/>
            <path id="Trazado_210584" data-name="Trazado 210584" d="M814.25,12.916a4.407,4.407,0,0,1-3.215-1.212,4.3,4.3,0,0,1-1.242-3.229V8.242a5.42,5.42,0,0,1,.523-2.419A3.832,3.832,0,0,1,811.8,4.18a4.155,4.155,0,0,1,2.187-.578,3.727,3.727,0,0,1,2.9,1.163,4.718,4.718,0,0,1,1.059,3.3v.979h-5.72a2.233,2.233,0,0,0,.7,1.412,2.121,2.121,0,0,0,1.482.531,2.589,2.589,0,0,0,2.166-1.005l1.178,1.32a3.585,3.585,0,0,1-1.461,1.191,4.79,4.79,0,0,1-2.042.428m-.273-7.379a1.5,1.5,0,0,0-1.158.483A2.508,2.508,0,0,0,812.25,7.4h3.337V7.213a1.79,1.79,0,0,0-.431-1.239,1.552,1.552,0,0,0-1.179-.437" fill="#9f321d"/>
            <path id="Trazado_210585" data-name="Trazado 210585" d="M823.042,10.982a1.576,1.576,0,0,0,1.078-.365,1.288,1.288,0,0,0,.432-.972H826.8a3.073,3.073,0,0,1-.5,1.673,3.293,3.293,0,0,1-1.341,1.179,4.2,4.2,0,0,1-1.88.419,3.9,3.9,0,0,1-3.038-1.225,4.846,4.846,0,0,1-1.112-3.383V8.151a4.789,4.789,0,0,1,1.1-3.312A3.85,3.85,0,0,1,823.065,3.6a3.776,3.776,0,0,1,2.7.959A3.4,3.4,0,0,1,826.8,7.113h-2.249a1.657,1.657,0,0,0-.432-1.139,1.607,1.607,0,0,0-2.362.173,3.548,3.548,0,0,0-.427,1.982v.25a3.591,3.591,0,0,0,.423,2,1.465,1.465,0,0,0,1.288.607" fill="#9f321d"/>
            <path id="Trazado_210586" data-name="Trazado 210586" d="M831.907,10.982a1.577,1.577,0,0,0,1.079-.365,1.288,1.288,0,0,0,.432-.972h2.249a3.073,3.073,0,0,1-.5,1.673,3.293,3.293,0,0,1-1.341,1.179,4.2,4.2,0,0,1-1.88.419,3.9,3.9,0,0,1-3.038-1.225A4.846,4.846,0,0,1,827.8,8.308V8.151a4.79,4.79,0,0,1,1.1-3.312A3.851,3.851,0,0,1,831.931,3.6a3.776,3.776,0,0,1,2.7.959,3.4,3.4,0,0,1,1.033,2.552h-2.249a1.657,1.657,0,0,0-.432-1.139,1.607,1.607,0,0,0-2.362.173,3.548,3.548,0,0,0-.427,1.982v.25a3.591,3.591,0,0,0,.423,2,1.464,1.464,0,0,0,1.287.607" fill="#9f321d"/>
            <path id="Trazado_210587" data-name="Trazado 210587" d="M837.02,1.444a1.181,1.181,0,0,1,.36-.887,1.553,1.553,0,0,1,1.964,0,1.174,1.174,0,0,1,.365.887,1.176,1.176,0,0,1-.37.9,1.54,1.54,0,0,1-1.95,0,1.179,1.179,0,0,1-.369-.9m2.548,11.306h-2.407V3.769h2.407Z" fill="#9f321d"/>
            <path id="Trazado_210588" data-name="Trazado 210588" d="M841.17,8.176a5.312,5.312,0,0,1,.515-2.382,3.765,3.765,0,0,1,1.481-1.618,4.314,4.314,0,0,1,2.245-.573,4.092,4.092,0,0,1,2.968,1.112,4.458,4.458,0,0,1,1.282,3.021l.017.615a4.7,4.7,0,0,1-1.153,3.316,4.473,4.473,0,0,1-6.2,0,4.777,4.777,0,0,1-1.158-3.387Zm2.4.171a3.367,3.367,0,0,0,.481,1.958,1.73,1.73,0,0,0,2.739.008,3.671,3.671,0,0,0,.491-2.141,3.318,3.318,0,0,0-.491-1.945,1.59,1.59,0,0,0-1.378-.69,1.567,1.567,0,0,0-1.361.686,3.742,3.742,0,0,0-.481,2.124M845.885,0H848.5l-2.3,2.573h-1.951Z" fill="#9f321d"/>
            <path id="Trazado_210589" data-name="Trazado 210589" d="M853.364,3.768l.075,1.039a3.131,3.131,0,0,1,2.581-1.2,2.606,2.606,0,0,1,2.125.838,3.907,3.907,0,0,1,.714,2.506v5.8h-2.4V6.993a1.57,1.57,0,0,0-.332-1.111,1.488,1.488,0,0,0-1.105-.344,1.648,1.648,0,0,0-1.518.864v6.347h-2.4V3.768Z" fill="#9f321d"/>
          </g>
        </g>
        <path id="Trazado_210590" data-name="Trazado 210590" d="M7.7.665V10.02L1.6.665H0V12.75H1.6V3.437L7.687,12.75h1.6V.665Z" fill="#12263f"/>
        <g id="Grupo_151482" data-name="Grupo 151482">
          <g id="Grupo_151481" data-name="Grupo 151481" clip-path="url(#clip-path-3)">
            <path id="Trazado_210591" data-name="Trazado 210591" d="M11.887,1.387a.915.915,0,0,1,.228-.631A.856.856,0,0,1,12.792.5a.869.869,0,0,1,.68.258.9.9,0,0,1,.233.631.878.878,0,0,1-.233.622.886.886,0,0,1-.68.249.873.873,0,0,1-.677-.249.887.887,0,0,1-.228-.622m1.66,11.363H12.011V3.769h1.536Z" fill="#12263f"/>
            <path id="Trazado_210592" data-name="Trazado 210592" d="M18.967,10.666l2.225-6.9H22.76L19.54,12.75H18.369L15.115,3.769h1.569Z" fill="#12263f"/>
            <path id="Trazado_210593" data-name="Trazado 210593" d="M27.858,12.916a3.929,3.929,0,0,1-2.973-1.2A4.457,4.457,0,0,1,23.74,8.508V8.226a5.392,5.392,0,0,1,.51-2.386A3.981,3.981,0,0,1,25.678,4.2,3.6,3.6,0,0,1,27.667,3.6a3.366,3.366,0,0,1,2.722,1.154,5,5,0,0,1,.971,3.3V8.7H25.275a3.184,3.184,0,0,0,.777,2.145,2.438,2.438,0,0,0,1.888.818,2.678,2.678,0,0,0,1.378-.332,3.472,3.472,0,0,0,.988-.879l.938.73a3.771,3.771,0,0,1-3.386,1.735m-.191-8.052a2.051,2.051,0,0,0-1.562.677,3.293,3.293,0,0,0-.78,1.9h4.5V7.321a2.916,2.916,0,0,0-.631-1.813,1.927,1.927,0,0,0-1.526-.644" fill="#12263f"/>
            <rect id="Rectángulo_42479" data-name="Rectángulo 42479" width="1.536" height="12.75" transform="translate(33.269)" fill="#12263f"/>
            <path id="Trazado_210594" data-name="Trazado 210594" d="M45.2,12.916a3.928,3.928,0,0,1-2.972-1.2,4.457,4.457,0,0,1-1.145-3.209V8.226a5.392,5.392,0,0,1,.51-2.386A3.981,3.981,0,0,1,43.019,4.2,3.6,3.6,0,0,1,45.007,3.6,3.367,3.367,0,0,1,47.73,4.756a5,5,0,0,1,.971,3.3V8.7H42.616a3.184,3.184,0,0,0,.777,2.145,2.438,2.438,0,0,0,1.888.818,2.681,2.681,0,0,0,1.378-.332,3.472,3.472,0,0,0,.988-.879l.938.73A3.772,3.772,0,0,1,45.2,12.916m-.191-8.052a2.05,2.05,0,0,0-1.561.677,3.293,3.293,0,0,0-.78,1.9h4.5V7.321a2.916,2.916,0,0,0-.631-1.813,1.927,1.927,0,0,0-1.527-.644" fill="#12263f"/>
            <path id="Trazado_210595" data-name="Trazado 210595" d="M55.707,10.367a1.132,1.132,0,0,0-.47-.967A4.531,4.531,0,0,0,53.6,8.806a7.761,7.761,0,0,1-1.852-.6,2.639,2.639,0,0,1-1.013-.83,1.988,1.988,0,0,1-.328-1.145,2.332,2.332,0,0,1,.934-1.868A3.65,3.65,0,0,1,53.73,3.6a3.753,3.753,0,0,1,2.478.788,2.508,2.508,0,0,1,.952,2.018H55.615a1.385,1.385,0,0,0-.536-1.088,2,2,0,0,0-1.349-.456,2.1,2.1,0,0,0-1.311.365,1.15,1.15,0,0,0-.473.954.931.931,0,0,0,.44.839,5.4,5.4,0,0,0,1.59.54,8.268,8.268,0,0,1,1.864.614,2.721,2.721,0,0,1,1.057.859,2.112,2.112,0,0,1,.346,1.225,2.3,2.3,0,0,1-.964,1.929,4.031,4.031,0,0,1-2.5.727,4.518,4.518,0,0,1-1.909-.382,3.122,3.122,0,0,1-1.3-1.066A2.57,2.57,0,0,1,50.1,9.986h1.535a1.6,1.6,0,0,0,.618,1.224,2.4,2.4,0,0,0,1.523.452,2.476,2.476,0,0,0,1.4-.353,1.085,1.085,0,0,0,.527-.942" fill="#12263f"/>
            <path id="Trazado_210596" data-name="Trazado 210596" d="M61.326,1.594V3.769H63V4.955H61.326v5.577a1.249,1.249,0,0,0,.224.811.945.945,0,0,0,.764.271,3.754,3.754,0,0,0,.73-.1v1.237a4.436,4.436,0,0,1-1.178.165,1.912,1.912,0,0,1-1.553-.623,2.674,2.674,0,0,1-.523-1.767V4.955H58.155V3.769H59.79V1.594Z" fill="#12263f"/>
            <path id="Trazado_210597" data-name="Trazado 210597" d="M69.137,5.146a4.678,4.678,0,0,0-.755-.058,2.025,2.025,0,0,0-2.051,1.288v6.375H64.8V3.769H66.29l.025,1.038a2.389,2.389,0,0,1,2.141-1.2,1.578,1.578,0,0,1,.681.116Z" fill="#12263f"/>
            <path id="Trazado_210598" data-name="Trazado 210598" d="M75.761,12.75a3.233,3.233,0,0,1-.215-.946,3.428,3.428,0,0,1-2.557,1.112,3.17,3.17,0,0,1-2.179-.751,2.432,2.432,0,0,1-.851-1.9,2.539,2.539,0,0,1,1.067-2.179,5.023,5.023,0,0,1,3-.776h1.5V6.6a1.728,1.728,0,0,0-.482-1.284A1.935,1.935,0,0,0,73.62,4.84a2.235,2.235,0,0,0-1.378.414,1.224,1.224,0,0,0-.556,1H70.142a2.119,2.119,0,0,1,.477-1.3,3.251,3.251,0,0,1,1.295-.992,4.364,4.364,0,0,1,1.8-.366,3.546,3.546,0,0,1,2.432.777,2.8,2.8,0,0,1,.913,2.137V10.65a5.037,5.037,0,0,0,.316,1.967v.133Zm-2.548-1.17a2.7,2.7,0,0,0,1.37-.374,2.264,2.264,0,0,0,.938-.972V8.392h-1.2q-2.822,0-2.822,1.652a1.4,1.4,0,0,0,.481,1.129,1.853,1.853,0,0,0,1.237.407" fill="#12263f"/>
            <path id="Trazado_210599" data-name="Trazado 210599" d="M81.547,1.594V3.769h1.677V4.955H81.547v5.577a1.249,1.249,0,0,0,.224.811.945.945,0,0,0,.764.271,3.754,3.754,0,0,0,.73-.1v1.237a4.436,4.436,0,0,1-1.178.165,1.912,1.912,0,0,1-1.553-.623,2.674,2.674,0,0,1-.523-1.767V4.955H78.376V3.769h1.635V1.594Z" fill="#12263f"/>
            <path id="Trazado_210600" data-name="Trazado 210600" d="M88.744,12.916a3.924,3.924,0,0,1-2.972-1.2,4.451,4.451,0,0,1-1.145-3.209V8.227a5.393,5.393,0,0,1,.51-2.387A3.978,3.978,0,0,1,86.565,4.2,3.586,3.586,0,0,1,88.553,3.6a3.369,3.369,0,0,1,2.723,1.153,5,5,0,0,1,.971,3.3V8.7H86.162a3.187,3.187,0,0,0,.777,2.145,2.438,2.438,0,0,0,1.888.818,2.671,2.671,0,0,0,1.378-.333,3.453,3.453,0,0,0,.988-.878l.938.73a3.773,3.773,0,0,1-3.387,1.734m-.191-8.051a2.049,2.049,0,0,0-1.561.676,3.3,3.3,0,0,0-.78,1.9h4.5V7.322a2.919,2.919,0,0,0-.631-1.814,1.927,1.927,0,0,0-1.527-.643M89.3.017h1.859l-2.224,2.44-1.237,0Z" fill="#12263f"/>
            <path id="Trazado_210601" data-name="Trazado 210601" d="M93.658,8.184a5.283,5.283,0,0,1,.971-3.341,3.348,3.348,0,0,1,5.138-.079l.075-1h1.4v8.766a3.655,3.655,0,0,1-1.033,2.747,3.815,3.815,0,0,1-2.777,1,4.63,4.63,0,0,1-1.9-.415,3.279,3.279,0,0,1-1.419-1.137l.8-.922a3,3,0,0,0,2.416,1.221,2.353,2.353,0,0,0,1.747-.631,2.414,2.414,0,0,0,.627-1.777v-.772a3.158,3.158,0,0,1-2.515,1.063,3.069,3.069,0,0,1-2.552-1.27,5.549,5.549,0,0,1-.976-3.462m1.544.175a4.027,4.027,0,0,0,.623,2.386,2.024,2.024,0,0,0,1.743.868,2.251,2.251,0,0,0,2.133-1.32v-4.1a2.276,2.276,0,0,0-2.117-1.286,2.039,2.039,0,0,0-1.751.871A4.382,4.382,0,0,0,95.2,8.359" fill="#12263f"/>
            <path id="Trazado_210602" data-name="Trazado 210602" d="M103.569,1.387A.915.915,0,0,1,103.8.756.856.856,0,0,1,104.474.5a.867.867,0,0,1,.68.258.9.9,0,0,1,.233.631.878.878,0,0,1-.233.622.884.884,0,0,1-.68.249.873.873,0,0,1-.677-.249.887.887,0,0,1-.228-.622m1.66,11.363h-1.536V3.769h1.536Z" fill="#12263f"/>
            <path id="Trazado_210603" data-name="Trazado 210603" d="M111.289,11.662a2.213,2.213,0,0,0,1.436-.5,1.751,1.751,0,0,0,.681-1.244h1.452a2.779,2.779,0,0,1-.531,1.469,3.507,3.507,0,0,1-1.308,1.112,3.774,3.774,0,0,1-1.73.415,3.7,3.7,0,0,1-2.918-1.225,4.875,4.875,0,0,1-1.083-3.349V8.085a5.426,5.426,0,0,1,.481-2.333,3.671,3.671,0,0,1,1.382-1.585,3.933,3.933,0,0,1,2.13-.565,3.6,3.6,0,0,1,2.511.906,3.23,3.23,0,0,1,1.066,2.348h-1.452a2.115,2.115,0,0,0-.66-1.431,2.052,2.052,0,0,0-1.465-.561,2.149,2.149,0,0,0-1.814.843,3.951,3.951,0,0,0-.643,2.435v.291a3.876,3.876,0,0,0,.639,2.391,2.158,2.158,0,0,0,1.826.838" fill="#12263f"/>
            <path id="Trazado_210604" data-name="Trazado 210604" d="M116.178,8.175A5.305,5.305,0,0,1,116.7,5.8a3.864,3.864,0,0,1,1.444-1.627,3.93,3.93,0,0,1,2.113-.573,3.786,3.786,0,0,1,2.968,1.271,4.888,4.888,0,0,1,1.132,3.378v.108a5.35,5.35,0,0,1-.5,2.353,3.819,3.819,0,0,1-1.436,1.623,3.979,3.979,0,0,1-2.146.581,3.78,3.78,0,0,1-2.959-1.27,4.862,4.862,0,0,1-1.133-3.362Zm1.544.184a3.84,3.84,0,0,0,.693,2.4,2.349,2.349,0,0,0,3.715-.012,4.206,4.206,0,0,0,.689-2.57,3.832,3.832,0,0,0-.7-2.394,2.229,2.229,0,0,0-1.863-.917,2.206,2.206,0,0,0-1.835.905,4.168,4.168,0,0,0-.7,2.59" fill="#12263f"/>
          </g>
        </g>
        <path id="Trazado_210605" data-name="Trazado 210605" d="M817.993,137.664l1.485,8.74,4.508-8.74h3.237l-2.1,12.086h-2.441l.6-3.445,1.179-5.379-4.632,8.824h-1.668l-1.619-9.131-.78,5.951-.556,3.18h-2.433l2.1-12.086Z" fill="#12263f"/>
        <g id="Grupo_151484" data-name="Grupo 151484">
          <g id="Grupo_151483" data-name="Grupo 151483" clip-path="url(#clip-path-3)">
            <path id="Trazado_210606" data-name="Trazado 210606" d="M832.344,149.75a2.419,2.419,0,0,1-.091-.813,3.037,3.037,0,0,1-2.291.979,2.747,2.747,0,0,1-1.954-.767,2.32,2.32,0,0,1-.727-1.856,2.684,2.684,0,0,1,1.233-2.254,5.6,5.6,0,0,1,3.15-.784l1.095.017.116-.539a1.879,1.879,0,0,0,.026-.524.912.912,0,0,0-.294-.61,1.014,1.014,0,0,0-.669-.228,1.432,1.432,0,0,0-.93.27,1.307,1.307,0,0,0-.49.826l-2.349.008a2.61,2.61,0,0,1,1.183-2.088,4.58,4.58,0,0,1,2.776-.784,3.311,3.311,0,0,1,2.391.909,2.659,2.659,0,0,1,.723,2.254l-.69,4.3-.041.531a2.58,2.58,0,0,0,.14,1l-.007.158Zm-1.8-1.652a2.142,2.142,0,0,0,1.767-.879l.291-1.553-.813-.007a2.27,2.27,0,0,0-1.869.788,1.362,1.362,0,0,0-.256.672.788.788,0,0,0,.186.709.943.943,0,0,0,.694.27" fill="#12263f"/>
            <path id="Trazado_210607" data-name="Trazado 210607" d="M842.222,143.018a4.843,4.843,0,0,0-.788-.082,2.27,2.27,0,0,0-1.984.937l-1.038,5.877h-2.34l1.56-8.981,2.2-.009-.215,1.1a2.47,2.47,0,0,1,2.091-1.27,3.393,3.393,0,0,1,.814.117Z" fill="#12263f"/>
            <path id="Trazado_210608" data-name="Trazado 210608" d="M846.057,146.172l-1.087.947-.457,2.631h-2.341L844.38,137h2.35l-1.212,6.923.456-.489,2.665-2.665h3.005l-3.927,3.86,2.5,5.121h-2.565Z" fill="#12263f"/>
            <path id="Trazado_210609" data-name="Trazado 210609" d="M855.164,149.916a3.913,3.913,0,0,1-2.088-.577,3.494,3.494,0,0,1-1.357-1.561,4.346,4.346,0,0,1-.349-2.186l.025-.332a5.8,5.8,0,0,1,.764-2.409,4.6,4.6,0,0,1,1.644-1.688,4.063,4.063,0,0,1,2.224-.561,3.109,3.109,0,0,1,2.627,1.277,4.375,4.375,0,0,1,.677,3.146l-.133,1.023h-5.5a1.928,1.928,0,0,0,.424,1.394,1.613,1.613,0,0,0,1.245.54,2.873,2.873,0,0,0,2.241-1l1.071,1.328a3.331,3.331,0,0,1-1.461,1.191,4.778,4.778,0,0,1-2.05.411m.747-7.379a1.66,1.66,0,0,0-1.15.406,3.585,3.585,0,0,0-.9,1.469h3.221l.05-.215a2.234,2.234,0,0,0,.009-.631,1.211,1.211,0,0,0-.408-.752,1.275,1.275,0,0,0-.821-.277" fill="#12263f"/>
            <path id="Trazado_210610" data-name="Trazado 210610" d="M864.643,138.561l-.391,2.208h1.495l-.307,1.76h-1.494l-.764,4.5a1.14,1.14,0,0,0,.066.647q.117.225.565.241c.088.005.326-.008.714-.042l-.166,1.835a3.951,3.951,0,0,1-1.345.191,2.113,2.113,0,0,1-1.719-.722,2.615,2.615,0,0,1-.465-1.91l.773-4.739h-1.271l.308-1.76h1.27l.381-2.208Z" fill="#12263f"/>
            <path id="Trazado_210611" data-name="Trazado 210611" d="M868.02,149.75h-2.357l1.561-8.982h2.357Zm-.522-11.264a1.165,1.165,0,0,1,.365-.922,1.406,1.406,0,0,1,1.843-.041,1.16,1.16,0,0,1,.406.879,1.2,1.2,0,0,1-.343.9,1.3,1.3,0,0,1-.943.4,1.309,1.309,0,0,1-.917-.315,1.154,1.154,0,0,1-.411-.9" fill="#12263f"/>
            <path id="Trazado_210612" data-name="Trazado 210612" d="M873.708,140.76l-.2,1.062a3.232,3.232,0,0,1,2.614-1.219,2.152,2.152,0,0,1,1.876.929,3.745,3.745,0,0,1,.44,2.507l-.946,5.711h-2.341l.964-5.736a2.7,2.7,0,0,0,.016-.589.952.952,0,0,0-1.063-.872,2.017,2.017,0,0,0-1.651.855l-1.12,6.342h-2.341l1.56-8.981Z" fill="#12263f"/>
            <path id="Trazado_210613" data-name="Trazado 210613" d="M879.775,145.251a6.214,6.214,0,0,1,1.358-3.383,3.45,3.45,0,0,1,2.793-1.275,2.518,2.518,0,0,1,2.141,1.039l.308-.873,2.149.009-1.469,8.675a4.231,4.231,0,0,1-1.527,2.838,4.76,4.76,0,0,1-3.187,1.014,4.439,4.439,0,0,1-1.777-.4,3.805,3.805,0,0,1-1.394-1.057l1.162-1.428a2.494,2.494,0,0,0,1.959,1.02,2.292,2.292,0,0,0,1.56-.477,2.551,2.551,0,0,0,.88-1.44l.133-.54a2.92,2.92,0,0,1-2.2.947,2.578,2.578,0,0,1-2.083-.976,4.193,4.193,0,0,1-.847-2.494,8.5,8.5,0,0,1,.041-1.195m2.3.985a2.145,2.145,0,0,0,.328,1.251,1.147,1.147,0,0,0,.95.495,2.1,2.1,0,0,0,1.694-.815l.7-3.808a1.378,1.378,0,0,0-1.32-.814,1.833,1.833,0,0,0-1.519.723,3.771,3.771,0,0,0-.78,1.987,8.552,8.552,0,0,0-.05.981" fill="#12263f"/>
            <path id="Trazado_210614" data-name="Trazado 210614" d="M658.167,90.493V94.75h-2.491V82.664h4.715a5.437,5.437,0,0,1,2.394.5,3.663,3.663,0,0,1,1.59,1.415,3.941,3.941,0,0,1,.556,2.087,3.469,3.469,0,0,1-1.216,2.8,5.063,5.063,0,0,1-3.366,1.026Zm0-2.018h2.224a2.186,2.186,0,0,0,1.506-.465,1.69,1.69,0,0,0,.52-1.328,1.994,1.994,0,0,0-.524-1.436,1.954,1.954,0,0,0-1.444-.564h-2.282Z" fill="#12263f"/>
            <path id="Trazado_210615" data-name="Trazado 210615" d="M671.531,88.018a6.56,6.56,0,0,0-.863-.066,1.757,1.757,0,0,0-1.785.921V94.75h-2.4V85.769h2.266l.067,1.071a2.221,2.221,0,0,1,2-1.237,2.508,2.508,0,0,1,.747.108Z" fill="#12263f"/>
            <path id="Trazado_210616" data-name="Trazado 210616" d="M672.012,90.176a5.315,5.315,0,0,1,.515-2.382,3.765,3.765,0,0,1,1.481-1.618,4.315,4.315,0,0,1,2.246-.573,4.09,4.09,0,0,1,2.967,1.112,4.464,4.464,0,0,1,1.283,3.022l.016.614a4.7,4.7,0,0,1-1.153,3.316,4.473,4.473,0,0,1-6.2,0,4.776,4.776,0,0,1-1.158-3.386Zm2.4.171a3.365,3.365,0,0,0,.481,1.958,1.729,1.729,0,0,0,2.74.008,3.677,3.677,0,0,0,.489-2.141,3.326,3.326,0,0,0-.489-1.945,1.593,1.593,0,0,0-1.378-.69,1.567,1.567,0,0,0-1.362.686,3.742,3.742,0,0,0-.481,2.124" fill="#12263f"/>
            <path id="Trazado_210617" data-name="Trazado 210617" d="M681.624,90.193a5.416,5.416,0,0,1,.942-3.346,3.057,3.057,0,0,1,2.578-1.245,2.748,2.748,0,0,1,2.166.98V82h2.407V94.75h-2.166l-.116-.955a2.822,2.822,0,0,1-2.308,1.121,3.047,3.047,0,0,1-2.544-1.249,5.584,5.584,0,0,1-.959-3.474m2.4.17a3.556,3.556,0,0,0,.44,1.943,1.43,1.43,0,0,0,1.278.676,1.6,1.6,0,0,0,1.569-.942V88.478a1.581,1.581,0,0,0-1.552-.941q-1.735,0-1.735,2.826" fill="#12263f"/>
            <path id="Trazado_210618" data-name="Trazado 210618" d="M696.956,93.837a3.006,3.006,0,0,1-2.457,1.079,2.835,2.835,0,0,1-2.2-.83,3.546,3.546,0,0,1-.776-2.432V85.769h2.4v5.808q0,1.405,1.278,1.406a1.733,1.733,0,0,0,1.677-.849V85.769h2.407V94.75h-2.258Z" fill="#12263f"/>
            <path id="Trazado_210619" data-name="Trazado 210619" d="M704.825,92.982a1.575,1.575,0,0,0,1.079-.365,1.281,1.281,0,0,0,.432-.972h2.249a3.073,3.073,0,0,1-.5,1.673,3.286,3.286,0,0,1-1.341,1.179,4.2,4.2,0,0,1-1.879.419,3.9,3.9,0,0,1-3.039-1.225,4.846,4.846,0,0,1-1.112-3.383v-.157a4.789,4.789,0,0,1,1.1-3.312,3.853,3.853,0,0,1,3.03-1.237,3.775,3.775,0,0,1,2.7.959,3.392,3.392,0,0,1,1.033,2.552h-2.249a1.647,1.647,0,0,0-.432-1.139,1.607,1.607,0,0,0-2.362.173,3.548,3.548,0,0,0-.427,1.982v.25a3.591,3.591,0,0,0,.423,2,1.465,1.465,0,0,0,1.287.607" fill="#12263f"/>
            <path id="Trazado_210620" data-name="Trazado 210620" d="M713.69,92.982a1.575,1.575,0,0,0,1.079-.365,1.281,1.281,0,0,0,.432-.972h2.249a3.074,3.074,0,0,1-.5,1.673,3.287,3.287,0,0,1-1.341,1.179,4.2,4.2,0,0,1-1.879.419,3.9,3.9,0,0,1-3.039-1.225,4.846,4.846,0,0,1-1.112-3.383v-.157a4.789,4.789,0,0,1,1.1-3.312,3.853,3.853,0,0,1,3.03-1.237,3.775,3.775,0,0,1,2.7.959,3.392,3.392,0,0,1,1.033,2.552H715.2a1.647,1.647,0,0,0-.432-1.139,1.607,1.607,0,0,0-2.362.173,3.548,3.548,0,0,0-.427,1.982v.25a3.591,3.591,0,0,0,.423,2,1.465,1.465,0,0,0,1.287.607" fill="#12263f"/>
            <path id="Trazado_210621" data-name="Trazado 210621" d="M718.8,83.444a1.178,1.178,0,0,1,.361-.887,1.551,1.551,0,0,1,1.963,0,1.268,1.268,0,0,1,0,1.784,1.541,1.541,0,0,1-1.951,0,1.179,1.179,0,0,1-.369-.9m2.548,11.306h-2.407V85.769h2.407Z" fill="#12263f"/>
            <path id="Trazado_210622" data-name="Trazado 210622" d="M722.954,90.176a5.325,5.325,0,0,1,.515-2.382,3.765,3.765,0,0,1,1.481-1.618A4.315,4.315,0,0,1,727.2,85.6a4.09,4.09,0,0,1,2.967,1.112,4.468,4.468,0,0,1,1.283,3.021l.016.615a4.691,4.691,0,0,1-1.154,3.316,4.472,4.472,0,0,1-6.2,0,4.777,4.777,0,0,1-1.158-3.387Zm2.4.171a3.359,3.359,0,0,0,.482,1.958,1.73,1.73,0,0,0,2.739.008,3.68,3.68,0,0,0,.489-2.141,3.326,3.326,0,0,0-.489-1.945,1.593,1.593,0,0,0-1.378-.69,1.564,1.564,0,0,0-1.361.686,3.733,3.733,0,0,0-.482,2.124M727.669,82h2.615l-2.3,2.573h-1.95Z" fill="#12263f"/>
            <path id="Trazado_210623" data-name="Trazado 210623" d="M735.148,85.768l.074,1.039a3.134,3.134,0,0,1,2.582-1.2,2.607,2.607,0,0,1,2.125.838,3.913,3.913,0,0,1,.714,2.506v5.8h-2.4V88.993a1.565,1.565,0,0,0-.332-1.111,1.484,1.484,0,0,0-1.1-.344,1.65,1.65,0,0,0-1.519.864v6.347h-2.4V85.768Z" fill="#12263f"/>
          </g>
        </g>
        <path id="Trazado_210624" data-name="Trazado 210624" d="M721.948,202.811h-4.781v4.939h-2.49V195.665h7.869v2.017h-5.379V200.8h4.781Z" fill="#12263f"/>
        <g id="Grupo_151486" data-name="Grupo 151486">
          <g id="Grupo_151485" data-name="Grupo 151485" clip-path="url(#clip-path-3)">
            <path id="Trazado_210625" data-name="Trazado 210625" d="M723.815,196.444a1.182,1.182,0,0,1,.361-.887,1.553,1.553,0,0,1,1.964,0,1.266,1.266,0,0,1-.005,1.784,1.54,1.54,0,0,1-1.95,0,1.176,1.176,0,0,1-.37-.9m2.549,11.306h-2.407v-8.981h2.407Z" fill="#12263f"/>
            <path id="Trazado_210626" data-name="Trazado 210626" d="M730.547,198.769l.074,1.038a3.137,3.137,0,0,1,2.582-1.2,2.6,2.6,0,0,1,2.125.839,3.912,3.912,0,0,1,.714,2.506v5.8h-2.4v-5.757a1.567,1.567,0,0,0-.332-1.111,1.484,1.484,0,0,0-1.1-.344,1.65,1.65,0,0,0-1.519.864v6.348h-2.4v-8.981Z" fill="#12263f"/>
            <path id="Trazado_210627" data-name="Trazado 210627" d="M743.065,207.75a2.661,2.661,0,0,1-.241-.8,2.9,2.9,0,0,1-2.265.971,3.191,3.191,0,0,1-2.188-.764,2.455,2.455,0,0,1-.867-1.925,2.536,2.536,0,0,1,1.058-2.192,5.22,5.22,0,0,1,3.059-.771h1.1v-.516a1.484,1.484,0,0,0-.32-1,1.26,1.26,0,0,0-1.009-.373,1.429,1.429,0,0,0-.95.291.987.987,0,0,0-.344.8h-2.4a2.409,2.409,0,0,1,.482-1.446,3.179,3.179,0,0,1,1.361-1.041,4.954,4.954,0,0,1,1.975-.377,3.926,3.926,0,0,1,2.636.833,2.92,2.92,0,0,1,.975,2.345v3.894a4.305,4.305,0,0,0,.357,1.934v.141Zm-1.984-1.668a2.059,2.059,0,0,0,.979-.237,1.555,1.555,0,0,0,.665-.635v-1.544h-.9q-1.8,0-1.917,1.245l-.009.142a.959.959,0,0,0,.316.738,1.229,1.229,0,0,0,.863.291" fill="#12263f"/>
            <path id="Trazado_210628" data-name="Trazado 210628" d="M749.182,198.769l.075,1.038a3.134,3.134,0,0,1,2.581-1.2,2.6,2.6,0,0,1,2.125.839,3.907,3.907,0,0,1,.714,2.506v5.8h-2.4v-5.757a1.571,1.571,0,0,0-.332-1.111,1.488,1.488,0,0,0-1.105-.344,1.648,1.648,0,0,0-1.518.864v6.348h-2.4v-8.981Z" fill="#12263f"/>
            <path id="Trazado_210629" data-name="Trazado 210629" d="M759.252,205.816h4.391v1.934h-7.454v-1.461l4.225-5.586h-4.1v-1.935h7.2v1.413Z" fill="#12263f"/>
            <path id="Trazado_210630" data-name="Trazado 210630" d="M770.349,207.75a2.69,2.69,0,0,1-.24-.8,2.9,2.9,0,0,1-2.266.971,3.193,3.193,0,0,1-2.188-.764,2.454,2.454,0,0,1-.867-1.925,2.536,2.536,0,0,1,1.058-2.192,5.222,5.222,0,0,1,3.059-.771h1.1v-.516a1.479,1.479,0,0,0-.321-1,1.26,1.26,0,0,0-1.008-.373,1.432,1.432,0,0,0-.951.291.987.987,0,0,0-.343.8h-2.4a2.416,2.416,0,0,1,.482-1.446,3.191,3.191,0,0,1,1.361-1.041,4.958,4.958,0,0,1,1.975-.377,3.924,3.924,0,0,1,2.636.833,2.918,2.918,0,0,1,.976,2.345v3.894a4.294,4.294,0,0,0,.356,1.934v.141Zm-1.983-1.668a2.059,2.059,0,0,0,.979-.237,1.561,1.561,0,0,0,.665-.635v-1.544h-.9q-1.8,0-1.918,1.245l-.008.142a.956.956,0,0,0,.316.738,1.228,1.228,0,0,0,.863.291" fill="#12263f"/>
            <path id="Trazado_210631" data-name="Trazado 210631" d="M779.123,205.268a.772.772,0,0,0-.437-.692,4.921,4.921,0,0,0-1.4-.453q-3.2-.674-3.2-2.722a2.47,2.47,0,0,1,.992-2,4,4,0,0,1,2.594-.8,4.3,4.3,0,0,1,2.735.806,2.534,2.534,0,0,1,1.026,2.091h-2.4a1.158,1.158,0,0,0-.332-.851,1.4,1.4,0,0,0-1.037-.336,1.444,1.444,0,0,0-.938.273.869.869,0,0,0-.332.7.74.74,0,0,0,.377.643,3.9,3.9,0,0,0,1.275.424,10.515,10.515,0,0,1,1.511.4,2.483,2.483,0,0,1,1.9,2.415,2.344,2.344,0,0,1-1.054,1.989,4.542,4.542,0,0,1-2.722.759,4.741,4.741,0,0,1-2.005-.4,3.365,3.365,0,0,1-1.374-1.1,2.567,2.567,0,0,1-.5-1.515h2.274a1.251,1.251,0,0,0,.474.979,1.873,1.873,0,0,0,1.178.341,1.742,1.742,0,0,0,1.041-.261.815.815,0,0,0,.354-.686" fill="#12263f"/>
          </g>
        </g>
        <path id="Trazado_210632" data-name="Trazado 210632" d="M7.7,88.664v9.355L1.6,88.664H0V100.75H1.6V91.437l6.085,9.313h1.6V88.664Z" fill="#12263f"/>
        <g id="Grupo_151488" data-name="Grupo 151488">
          <g id="Grupo_151487" data-name="Grupo 151487" clip-path="url(#clip-path-3)">
            <path id="Trazado_210633" data-name="Trazado 210633" d="M11.887,89.387a.915.915,0,0,1,.228-.631.856.856,0,0,1,.677-.258.869.869,0,0,1,.68.258.9.9,0,0,1,.233.631.951.951,0,0,1-1.59.622.887.887,0,0,1-.228-.622m1.66,11.363H12.011V91.769h1.536Z" fill="#12263f"/>
            <path id="Trazado_210634" data-name="Trazado 210634" d="M18.967,98.666l2.225-6.9H22.76l-3.22,8.981H18.369l-3.254-8.981h1.569Z" fill="#12263f"/>
            <path id="Trazado_210635" data-name="Trazado 210635" d="M27.858,100.916a3.929,3.929,0,0,1-2.973-1.2,4.457,4.457,0,0,1-1.145-3.209v-.282a5.392,5.392,0,0,1,.51-2.386A3.981,3.981,0,0,1,25.678,92.2a3.6,3.6,0,0,1,1.989-.594,3.366,3.366,0,0,1,2.722,1.154,5,5,0,0,1,.971,3.3V96.7H25.275a3.184,3.184,0,0,0,.777,2.145,2.438,2.438,0,0,0,1.888.818,2.678,2.678,0,0,0,1.378-.332,3.472,3.472,0,0,0,.988-.879l.938.73a3.771,3.771,0,0,1-3.386,1.735m-.191-8.052a2.051,2.051,0,0,0-1.562.677,3.293,3.293,0,0,0-.78,1.9h4.5v-.116a2.916,2.916,0,0,0-.631-1.813,1.927,1.927,0,0,0-1.526-.644" fill="#12263f"/>
            <rect id="Rectángulo_42483" data-name="Rectángulo 42483" width="1.536" height="12.75" transform="translate(33.269 88)" fill="#12263f"/>
            <path id="Trazado_210636" data-name="Trazado 210636" d="M43.554,89.594v2.175h1.677v1.186H43.554v5.577a1.249,1.249,0,0,0,.224.811.945.945,0,0,0,.764.271,3.753,3.753,0,0,0,.73-.1v1.237a4.436,4.436,0,0,1-1.178.165,1.912,1.912,0,0,1-1.553-.623,2.674,2.674,0,0,1-.523-1.767V92.955H40.383V91.769h1.635V89.594Z" fill="#12263f"/>
            <path id="Trazado_210637" data-name="Trazado 210637" d="M52.569,100.75a3.217,3.217,0,0,1-.216-.946,3.428,3.428,0,0,1-2.557,1.112,3.167,3.167,0,0,1-2.178-.751,2.427,2.427,0,0,1-.851-1.9,2.538,2.538,0,0,1,1.067-2.179,5.026,5.026,0,0,1,3-.776h1.494V94.6a1.725,1.725,0,0,0-.481-1.283,1.932,1.932,0,0,0-1.42-.477,2.244,2.244,0,0,0-1.378.414,1.229,1.229,0,0,0-.556,1.005H46.949a2.121,2.121,0,0,1,.477-1.3,3.258,3.258,0,0,1,1.3-.992,4.371,4.371,0,0,1,1.8-.365,3.554,3.554,0,0,1,2.432.776,2.8,2.8,0,0,1,.913,2.137v4.135a5.064,5.064,0,0,0,.315,1.967v.132Zm-2.548-1.17a2.7,2.7,0,0,0,1.369-.374,2.261,2.261,0,0,0,.938-.971V96.393h-1.2q-2.823,0-2.823,1.651a1.4,1.4,0,0,0,.482,1.129,1.846,1.846,0,0,0,1.237.407M51.44,88.017H53.3l-2.224,2.44-1.237,0Z" fill="#12263f"/>
            <path id="Trazado_210638" data-name="Trazado 210638" d="M59.874,99.662a2.212,2.212,0,0,0,1.435-.5,1.751,1.751,0,0,0,.681-1.244h1.452a2.771,2.771,0,0,1-.531,1.469A3.512,3.512,0,0,1,61.6,100.5a3.78,3.78,0,0,1-1.73.415,3.7,3.7,0,0,1-2.919-1.225,4.875,4.875,0,0,1-1.083-3.349v-.257a5.426,5.426,0,0,1,.482-2.333,3.658,3.658,0,0,1,1.382-1.585,3.927,3.927,0,0,1,2.129-.565,3.6,3.6,0,0,1,2.511.906,3.23,3.23,0,0,1,1.066,2.348H61.99a2.115,2.115,0,0,0-.66-1.431,2.052,2.052,0,0,0-1.465-.561,2.149,2.149,0,0,0-1.814.843,3.952,3.952,0,0,0-.642,2.435v.291a3.869,3.869,0,0,0,.639,2.391,2.155,2.155,0,0,0,1.826.838" fill="#12263f"/>
            <path id="Trazado_210639" data-name="Trazado 210639" d="M67.253,89.594v2.175H68.93v1.186H67.253v5.577a1.249,1.249,0,0,0,.224.811.945.945,0,0,0,.764.271,3.753,3.753,0,0,0,.73-.1v1.237a4.436,4.436,0,0,1-1.178.165,1.912,1.912,0,0,1-1.553-.623,2.674,2.674,0,0,1-.523-1.767V92.955H64.082V91.769h1.635V89.594Z" fill="#12263f"/>
            <path id="Trazado_210640" data-name="Trazado 210640" d="M70.731,89.387a.915.915,0,0,1,.228-.631.856.856,0,0,1,.677-.258.866.866,0,0,1,.68.258.9.9,0,0,1,.233.631.951.951,0,0,1-1.59.622.887.887,0,0,1-.228-.622m1.66,11.363H70.855V91.769h1.536Z" fill="#12263f"/>
            <path id="Trazado_210641" data-name="Trazado 210641" d="M78.451,99.662a2.213,2.213,0,0,0,1.436-.5,1.751,1.751,0,0,0,.681-1.244H82.02a2.779,2.779,0,0,1-.531,1.469,3.507,3.507,0,0,1-1.308,1.112,3.774,3.774,0,0,1-1.73.415,3.7,3.7,0,0,1-2.918-1.225,4.875,4.875,0,0,1-1.083-3.349v-.257a5.426,5.426,0,0,1,.481-2.333,3.671,3.671,0,0,1,1.382-1.585,3.933,3.933,0,0,1,2.13-.565,3.6,3.6,0,0,1,2.511.906,3.23,3.23,0,0,1,1.066,2.348H80.568a2.115,2.115,0,0,0-.66-1.431,2.052,2.052,0,0,0-1.465-.561,2.149,2.149,0,0,0-1.814.843,3.951,3.951,0,0,0-.643,2.435v.291a3.876,3.876,0,0,0,.639,2.391,2.158,2.158,0,0,0,1.826.838" fill="#12263f"/>
            <path id="Trazado_210642" data-name="Trazado 210642" d="M83.34,96.175a5.305,5.305,0,0,1,.519-2.373A3.864,3.864,0,0,1,85.3,92.175a3.93,3.93,0,0,1,2.113-.573,3.786,3.786,0,0,1,2.968,1.271,4.888,4.888,0,0,1,1.132,3.378v.108a5.35,5.35,0,0,1-.5,2.353,3.819,3.819,0,0,1-1.436,1.623,3.979,3.979,0,0,1-2.146.581,3.78,3.78,0,0,1-2.959-1.27,4.862,4.862,0,0,1-1.133-3.362Zm1.544.184a3.84,3.84,0,0,0,.693,2.4,2.349,2.349,0,0,0,3.715-.012,4.206,4.206,0,0,0,.689-2.57,3.832,3.832,0,0,0-.7-2.394,2.229,2.229,0,0,0-1.863-.917,2.206,2.206,0,0,0-1.835.9,4.168,4.168,0,0,0-.7,2.59" fill="#12263f"/>
          </g>
        </g>
        <path id="Trazado_210643" data-name="Trazado 210643" d="M7.7,174.664v9.355l-6.1-9.355H0V186.75H1.6v-9.314l6.085,9.314h1.6V174.664Z" fill="#12263f"/>
        <g id="Grupo_151490" data-name="Grupo 151490">
          <g id="Grupo_151489" data-name="Grupo 151489" clip-path="url(#clip-path-3)">
            <path id="Trazado_210644" data-name="Trazado 210644" d="M11.887,175.387a.915.915,0,0,1,.228-.631.856.856,0,0,1,.677-.258.869.869,0,0,1,.68.258.9.9,0,0,1,.233.631.951.951,0,0,1-1.59.622.887.887,0,0,1-.228-.622m1.66,11.363H12.011v-8.981h1.536Z" fill="#12263f"/>
            <path id="Trazado_210645" data-name="Trazado 210645" d="M18.967,184.666l2.225-6.9H22.76l-3.22,8.981H18.369l-3.254-8.981h1.569Z" fill="#12263f"/>
            <path id="Trazado_210646" data-name="Trazado 210646" d="M27.858,186.916a3.929,3.929,0,0,1-2.973-1.2,4.457,4.457,0,0,1-1.145-3.209v-.282a5.392,5.392,0,0,1,.51-2.386,3.981,3.981,0,0,1,1.428-1.644,3.6,3.6,0,0,1,1.989-.594,3.366,3.366,0,0,1,2.722,1.154,5,5,0,0,1,.971,3.3v.639H25.275a3.184,3.184,0,0,0,.777,2.145,2.438,2.438,0,0,0,1.888.818,2.678,2.678,0,0,0,1.378-.332,3.472,3.472,0,0,0,.988-.879l.938.73a3.771,3.771,0,0,1-3.386,1.735m-.191-8.052a2.051,2.051,0,0,0-1.562.677,3.293,3.293,0,0,0-.78,1.9h4.5v-.116a2.916,2.916,0,0,0-.631-1.813,1.927,1.927,0,0,0-1.526-.644" fill="#12263f"/>
            <rect id="Rectángulo_42485" data-name="Rectángulo 42485" width="1.536" height="12.75" transform="translate(33.269 174)" fill="#12263f"/>
            <path id="Trazado_210647" data-name="Trazado 210647" d="M41.064,182.175a5.305,5.305,0,0,1,.519-2.373,3.864,3.864,0,0,1,1.444-1.627,3.93,3.93,0,0,1,2.113-.573,3.786,3.786,0,0,1,2.968,1.271,4.888,4.888,0,0,1,1.132,3.378v.108a5.35,5.35,0,0,1-.5,2.353,3.819,3.819,0,0,1-1.436,1.623,3.979,3.979,0,0,1-2.146.581,3.78,3.78,0,0,1-2.959-1.27,4.862,4.862,0,0,1-1.133-3.362Zm1.544.184a3.84,3.84,0,0,0,.693,2.4,2.349,2.349,0,0,0,3.715-.012,4.206,4.206,0,0,0,.689-2.57,3.832,3.832,0,0,0-.7-2.394,2.229,2.229,0,0,0-1.863-.917,2.206,2.206,0,0,0-1.835.9,4.168,4.168,0,0,0-.7,2.59" fill="#12263f"/>
            <path id="Trazado_210648" data-name="Trazado 210648" d="M58.753,182.36a5.378,5.378,0,0,1-.938,3.3,3.01,3.01,0,0,1-2.54,1.253,3.294,3.294,0,0,1-2.574-1.037V190.2H51.166V177.769h1.4l.074,1A3.167,3.167,0,0,1,55.25,177.6a3.062,3.062,0,0,1,2.56,1.22,5.432,5.432,0,0,1,.943,3.4Zm-1.536-.175a3.973,3.973,0,0,0-.647-2.4,2.087,2.087,0,0,0-1.777-.879,2.258,2.258,0,0,0-2.092,1.236v4.291a2.263,2.263,0,0,0,2.109,1.229,2.073,2.073,0,0,0,1.755-.875,4.33,4.33,0,0,0,.652-2.6" fill="#12263f"/>
            <path id="Trazado_210649" data-name="Trazado 210649" d="M64.431,186.916a3.928,3.928,0,0,1-2.972-1.2,4.457,4.457,0,0,1-1.145-3.209v-.282a5.392,5.392,0,0,1,.51-2.386,3.981,3.981,0,0,1,1.428-1.644,3.6,3.6,0,0,1,1.988-.594,3.367,3.367,0,0,1,2.723,1.154,5,5,0,0,1,.971,3.3v.639H61.849a3.184,3.184,0,0,0,.777,2.145,2.438,2.438,0,0,0,1.888.818,2.681,2.681,0,0,0,1.378-.332,3.472,3.472,0,0,0,.988-.879l.938.73a3.772,3.772,0,0,1-3.387,1.735m-.191-8.052a2.05,2.05,0,0,0-1.561.677,3.293,3.293,0,0,0-.78,1.9h4.5v-.116a2.916,2.916,0,0,0-.631-1.813,1.927,1.927,0,0,0-1.527-.644" fill="#12263f"/>
            <path id="Trazado_210650" data-name="Trazado 210650" d="M74.051,179.146a4.678,4.678,0,0,0-.755-.058,2.025,2.025,0,0,0-2.051,1.288v6.374H69.71v-8.981H71.2l.025,1.038a2.389,2.389,0,0,1,2.141-1.2,1.578,1.578,0,0,1,.681.116Z" fill="#12263f"/>
            <path id="Trazado_210651" data-name="Trazado 210651" d="M80.675,186.75a3.233,3.233,0,0,1-.215-.946,3.428,3.428,0,0,1-2.557,1.112,3.17,3.17,0,0,1-2.179-.751,2.432,2.432,0,0,1-.851-1.9,2.539,2.539,0,0,1,1.067-2.179,5.023,5.023,0,0,1,3-.776h1.495v-.7a1.728,1.728,0,0,0-.482-1.284,1.935,1.935,0,0,0-1.419-.476,2.235,2.235,0,0,0-1.378.414,1.224,1.224,0,0,0-.556,1.005H75.056a2.119,2.119,0,0,1,.477-1.3,3.251,3.251,0,0,1,1.3-.992,4.364,4.364,0,0,1,1.8-.366,3.546,3.546,0,0,1,2.432.777,2.8,2.8,0,0,1,.913,2.137v4.134a5.036,5.036,0,0,0,.316,1.967v.133Zm-2.548-1.17a2.7,2.7,0,0,0,1.37-.374,2.263,2.263,0,0,0,.938-.972v-1.842h-1.2q-2.822,0-2.822,1.652a1.4,1.4,0,0,0,.481,1.129,1.853,1.853,0,0,0,1.237.407" fill="#12263f"/>
            <path id="Trazado_210652" data-name="Trazado 210652" d="M86.461,175.594v2.175h1.677v1.186H86.461v5.577a1.249,1.249,0,0,0,.224.811.945.945,0,0,0,.764.271,3.754,3.754,0,0,0,.73-.1v1.237a4.436,4.436,0,0,1-1.178.165,1.912,1.912,0,0,1-1.553-.623,2.674,2.674,0,0,1-.523-1.767v-5.571H83.29v-1.186h1.635v-2.175Z" fill="#12263f"/>
            <path id="Trazado_210653" data-name="Trazado 210653" d="M89.939,175.387a.915.915,0,0,1,.228-.631.856.856,0,0,1,.677-.258.866.866,0,0,1,.68.258.9.9,0,0,1,.233.631.951.951,0,0,1-1.59.622.887.887,0,0,1-.228-.622M91.6,186.75H90.063v-8.981H91.6Z" fill="#12263f"/>
            <path id="Trazado_210654" data-name="Trazado 210654" d="M97.02,184.666l2.225-6.9h1.568l-3.22,8.981H96.421l-3.254-8.981h1.569Z" fill="#12263f"/>
            <path id="Trazado_210655" data-name="Trazado 210655" d="M101.759,182.175a5.305,5.305,0,0,1,.519-2.373,3.864,3.864,0,0,1,1.444-1.627,3.93,3.93,0,0,1,2.113-.573,3.786,3.786,0,0,1,2.968,1.271,4.888,4.888,0,0,1,1.132,3.378v.108a5.35,5.35,0,0,1-.5,2.353A3.819,3.819,0,0,1,108,186.335a3.979,3.979,0,0,1-2.146.581,3.78,3.78,0,0,1-2.959-1.27,4.862,4.862,0,0,1-1.133-3.362Zm1.544.184a3.84,3.84,0,0,0,.693,2.4,2.349,2.349,0,0,0,3.715-.012,4.206,4.206,0,0,0,.689-2.57,3.832,3.832,0,0,0-.7-2.394,2.229,2.229,0,0,0-1.863-.917,2.206,2.206,0,0,0-1.835.9,4.168,4.168,0,0,0-.7,2.59" fill="#12263f"/>
          </g>
        </g>
      </g>
    </g>
  </g>
</svg>
