<svg xmlns="http://www.w3.org/2000/svg" xmlns:xlink="http://www.w3.org/1999/xlink" width="295" height="186.31" viewBox="0 0 295 186.31">
  <defs>
    <linearGradient id="linear-gradient" x1="0.038" y1="0.542" x2="1.073" y2="0.536" gradientUnits="objectBoundingBox">
      <stop offset="0" stop-color="#f3e6e3"/>
      <stop offset="1" stop-color="#fff"/>
    </linearGradient>
    <clipPath id="clip-path">
      <path id="Trazado_208433" data-name="Trazado 208433" d="M3.36,0a1.32,1.32,0,0,0-.574.135C-6.56,4.6,11.117,12.326,5.022,23.095s2.358,10.375,5.867,20.4C13.3,50.391.958,56.418,8.679,61.5S23.887,83,23.887,83c8.5,6.665,1.178-9.554,6.829-23.153s-11.472-6.27-2.378-23.134-10.617-5.791-9.5-21.944c.35-5.059-1.453-4.878-3.924-4.7-2.038.149-4.53.3-6.642-2.494C8.273,7.573,5.906,0,3.364,0Z" transform="translate(0)" fill="none"/>
    </clipPath>
    <clipPath id="clip-path-2">
      <rect id="Rectángulo_42059" data-name="Rectángulo 42059" width="52.229" height="93.415" fill="none"/>
    </clipPath>
    <clipPath id="clip-path-3">
      <path id="Trazado_208435" data-name="Trazado 208435" d="M161.583,319.733a2.828,2.828,0,0,1-2.314-1.831c-.876-2.5,1.219-6.888,3.069-9.09a14.558,14.558,0,0,0,2.966-9.587c-.057-.9-.15-1.732-.232-2.464-.217-1.94-.374-3.341.345-4.15.658-.74,2.1-1.075,4.67-1.087,5.164-.024,7.2-2.159,8.841-3.874a8.329,8.329,0,0,1,1.9-1.648c2.183-1.192,4.524-1.432,5.445-.559.7.664.37,1.8-.03,2.637a12.223,12.223,0,0,1-2.582,3.451c-1.185,1.209-2.12,2.163-1.646,4.017.093.363.2.731.308,1.1.753,2.576,1.464,5.008-2.478,6.78-.926.416-1.774.749-2.523,1.043-3.119,1.224-5.18,2.033-7.389,6.7-.411.868-.773,1.687-1.122,2.479-1.666,3.777-2.755,6.245-5.786,6.245a7.293,7.293,0,0,1-1.44-.158m18.951-34.266a8.9,8.9,0,0,0-2.046,1.762,10.14,10.14,0,0,1-8.4,3.686c-2.8.013-4.329.4-5.122,1.291-.9,1.012-.731,2.526-.5,4.623.081.725.174,1.547.229,2.435a14.206,14.206,0,0,1-2.824,9.157c-1.869,2.225-4.17,6.841-3.177,9.682a3.4,3.4,0,0,0,2.768,2.228,7.855,7.855,0,0,0,1.558.169c3.43,0,4.687-2.846,6.347-6.608.348-.788.708-1.6,1.115-2.464,2.105-4.445,3.971-5.177,7.06-6.389.755-.3,1.611-.632,2.55-1.054,4.426-1.989,3.569-4.921,2.813-7.507-.106-.362-.211-.723-.3-1.079-.389-1.521.359-2.284,1.491-3.44a12.9,12.9,0,0,0,2.7-3.615,4.409,4.409,0,0,0,.5-1.846v-.038a1.947,1.947,0,0,0-.6-1.458,3.072,3.072,0,0,0-2.141-.684,8.713,8.713,0,0,0-4.015,1.15" transform="translate(-158.454 -284.317)" fill="none"/>
    </clipPath>
    <linearGradient id="linear-gradient-2" x1="-0.765" y1="1.422" x2="-0.76" y2="1.422" gradientUnits="objectBoundingBox">
      <stop offset="0" stop-color="#40d5e6"/>
      <stop offset="1" stop-color="#57f"/>
    </linearGradient>
    <clipPath id="clip-path-4">
      <path id="Trazado_208436" data-name="Trazado 208436" d="M190.062,321.992a21.663,21.663,0,0,1-8.7,12.1c-5.413,3.945-6.181,17.426-6.211,18l.609.032c.007-.137.781-13.761,5.961-17.537a22.242,22.242,0,0,0,8.929-12.427c.946-3.312,6.093-4.26,6.145-4.269l-.106-.6c-.227.04-5.575,1.023-6.625,4.7" transform="translate(-175.15 -317.29)" fill="none"/>
    </clipPath>
    <linearGradient id="linear-gradient-3" x1="-1.195" y1="1.337" x2="-1.188" y2="1.337" xlink:href="#linear-gradient-2"/>
    <clipPath id="clip-path-5">
      <path id="Trazado_208437" data-name="Trazado 208437" d="M138.334,103.752c-1.626,5.486-18.084,2.393-11.175,16.131s-8.737,4.594-4.064,16.582.406,24.81,5.486,21.548,2.854-18.358,8.137-20.151,6.145-3.886.914-8.763,13.706-9.718,9.033-19.565.787-15.841-3.657-17.365a2.575,2.575,0,0,0-.832-.154c-2.9,0-2.345,6.685-3.842,11.736" transform="translate(-122.207 -92.016)" fill="none"/>
    </clipPath>
    <clipPath id="clip-path-7">
      <path id="Trazado_208439" data-name="Trazado 208439" d="M83.026,491.619l5.492,20.838h12.275l5.493-20.838Z" transform="translate(-83.026 -491.619)" fill="none"/>
    </clipPath>
    <linearGradient id="linear-gradient-4" x1="-0.527" y1="1" x2="-0.521" y2="1" gradientUnits="objectBoundingBox">
      <stop offset="0" stop-color="#ff9340"/>
      <stop offset="1" stop-color="#ffce45"/>
    </linearGradient>
    <clipPath id="clip-path-8">
      <path id="Trazado_208440" data-name="Trazado 208440" d="M83.026,491.619l5.492,20.838h5.675c0-18.568,12.092-20.838,12.092-20.838Z" transform="translate(-83.026 -491.619)" fill="none"/>
    </clipPath>
    <linearGradient id="linear-gradient-5" x1="-0.527" y1="1" x2="-0.521" y2="1" gradientUnits="objectBoundingBox">
      <stop offset="0" stop-color="#c97332"/>
      <stop offset="1" stop-color="#ffce45"/>
    </linearGradient>
    <clipPath id="clip-path-9">
      <rect id="Rectángulo_42070" data-name="Rectángulo 42070" width="92.356" height="136.201" transform="translate(0 0)" fill="none"/>
    </clipPath>
  </defs>
  <g id="Grupo_151268" data-name="Grupo 151268" transform="translate(-390 -1404)">
    <g id="Grupo_151225" data-name="Grupo 151225" transform="translate(390 1404)">
      <path id="Trazado_207751" data-name="Trazado 207751" d="M-510.722-9768.9l-6.144-15.931h10.807l33.787,33.787,13.272,6.784-9.872,7.6-14.521-5.822Z" transform="translate(516.866 9922.893)" fill="#848580"/>
      <g id="Grupo_150823" data-name="Grupo 150823" transform="translate(0 0)">
        <path id="amg3" d="M-108,0H156.29L187,31.766V181.4H-108Z" transform="translate(108)" fill="url(#linear-gradient)"/>
      </g>
      <path id="Trazado_207750" data-name="Trazado 207750" d="M-485.431-9763.085v48.232h48.1Z" transform="translate(485.43 9901.162)" fill="#9f321d"/>
    </g>
    <g id="Grupo_151228" data-name="Grupo 151228" transform="translate(407.771 1461.793)">
      <g id="Grupo_151229" data-name="Grupo 151229" transform="translate(0)">
        <g id="Grupo_151228-2" data-name="Grupo 151228" clip-path="url(#clip-path)">
          <rect id="Rectángulo_42058" data-name="Rectángulo 42058" width="43.992" height="89.66" transform="translate(-6.56)" fill="#25b1b1"/>
        </g>
      </g>
      <g id="Grupo_151231" data-name="Grupo 151231">
        <g id="Grupo_151230" data-name="Grupo 151230" clip-path="url(#clip-path-2)">
          <path id="Trazado_208434" data-name="Trazado 208434" d="M90.484,175.7c-3.686-2.592-8-20.655-8.257-31.414-.132-5.511-1.761-7.807-3.2-9.833-1.374-1.936-2.56-3.609-1.869-7.449,1.321-7.338-2.152-10.506-2.187-10.537l.4-.458c.155.135,3.771,3.4,2.385,11.1-.646,3.588.419,5.088,1.766,6.988,1.414,1.993,3.174,4.474,3.31,10.171.276,11.546,4.686,28.6,8,30.93Z" transform="translate(-63.905 -98.879)" fill="#fff"/>
        </g>
      </g>
      <g id="Grupo_151233" data-name="Grupo 151233" transform="translate(23.392 41.973)">
        <g id="Grupo_151232" data-name="Grupo 151232" clip-path="url(#clip-path-3)">
          <rect id="Rectángulo_42060" data-name="Rectángulo 42060" width="29.59" height="36.183" transform="translate(-0.754 0)" fill="url(#linear-gradient-2)"/>
        </g>
      </g>
      <g id="Grupo_151235" data-name="Grupo 151235" transform="translate(25.857 46.841)">
        <g id="Grupo_151234" data-name="Grupo 151234" clip-path="url(#clip-path-4)">
          <rect id="Rectángulo_42061" data-name="Rectángulo 42061" width="21.644" height="34.834" fill="url(#linear-gradient-3)"/>
        </g>
      </g>
      <g id="Grupo_151237" data-name="Grupo 151237" transform="translate(18.041 13.584)">
        <g id="Grupo_151236" data-name="Grupo 151236" clip-path="url(#clip-path-5)">
          <rect id="Rectángulo_42062" data-name="Rectángulo 42062" width="32.917" height="69.259" transform="translate(-3.786 0)" fill="#0ad857"/>
        </g>
      </g>
      <g id="Grupo_151239" data-name="Grupo 151239">
        <g id="Grupo_151238" data-name="Grupo 151238" clip-path="url(#clip-path-2)">
          <path id="Trazado_208438" data-name="Trazado 208438" d="M167.548,257.621c-.484-2.052-4.616-20.113-.76-22.3,3.4-1.924,3.314-9.408,2.784-16.475-.469-6.256,7.565-9.18,7.908-9.3l.2.575c-.079.028-7.938,2.891-7.5,8.681.544,7.258.6,14.959-3.092,17.051-2.927,1.658-.232,16.173,1.053,21.626Z" transform="translate(-140.776 -178.614)" fill="#fff"/>
        </g>
      </g>
      <g id="Grupo_151241" data-name="Grupo 151241" transform="translate(12.257 72.576)">
        <g id="Grupo_151240" data-name="Grupo 151240" clip-path="url(#clip-path-7)">
          <rect id="Rectángulo_42064" data-name="Rectángulo 42064" width="23.26" height="20.838" transform="translate(0)" fill="url(#linear-gradient-4)"/>
        </g>
      </g>
      <g id="Grupo_151243" data-name="Grupo 151243" transform="translate(12.257 72.576)">
        <g id="Grupo_151242" data-name="Grupo 151242" clip-path="url(#clip-path-8)">
          <rect id="Rectángulo_42065" data-name="Rectángulo 42065" width="23.26" height="20.838" transform="translate(0 0)" fill="url(#linear-gradient-5)"/>
        </g>
      </g>
    </g>
    <g id="Grupo_151248" data-name="Grupo 151248" transform="translate(477.603 27.31)">
      <g id="Grupo_151246" data-name="Grupo 151246" transform="translate(139.397 1413.382)">
        <g id="Grupo_151247" data-name="Grupo 151247" transform="translate(0 0)">
          <path id="Trazado_208370" data-name="Trazado 208370" d="M891.335,34.23H861.1a2.531,2.531,0,0,1-2.524-2.524V2.524A2.531,2.531,0,0,1,861.1,0h30.236a2.531,2.531,0,0,1,2.524,2.524V31.707a2.531,2.531,0,0,1-2.524,2.524" transform="translate(-858.575 0)" fill="#c0d8fb"/>
          <path id="Trazado_208371" data-name="Trazado 208371" d="M897.819,40.311H870.2a2.312,2.312,0,0,1-2.305-2.3V11.352a2.312,2.312,0,0,1,2.305-2.3h27.616a2.312,2.312,0,0,1,2.305,2.3V38.006a2.312,2.312,0,0,1-2.305,2.3" transform="translate(-866.37 -7.564)" fill="#dfebfd"/>
          <path id="Trazado_208372" data-name="Trazado 208372" d="M961.728,24.376a.731.731,0,1,1,.731.731.731.731,0,0,1-.731-.731" transform="translate(-944.817 -19.769)" fill="#b7d3f3"/>
          <path id="Trazado_208373" data-name="Trazado 208373" d="M997.232,32.487a.731.731,0,1,1,.284.994.731.731,0,0,1-.284-.994" transform="translate(-974.424 -26.847)" fill="#b7d3f3"/>
          <path id="Trazado_208374" data-name="Trazado 208374" d="M1026.814,58.294a.731.731,0,1,1-.218,1.011.731.731,0,0,1,.218-1.011" transform="translate(-998.954 -48.64)" fill="#b7d3f3"/>
          <path id="Trazado_208375" data-name="Trazado 208375" d="M1040.06,96.788a.731.731,0,1,1-.731.731.731.731,0,0,1,.731-.731" transform="translate(-1009.696 -80.921)" fill="#b7d3f3"/>
          <path id="Trazado_208376" data-name="Trazado 208376" d="M1029.63,139.677a.731.731,0,1,1-1.033,0,.731.731,0,0,1,1.033,0" transform="translate(-1000.544 -116.6)" fill="#b7d3f3"/>
          <path id="Trazado_208377" data-name="Trazado 208377" d="M1001.634,167.746a.731.731,0,1,1-1.034,0,.731.731,0,0,1,1.034,0" transform="translate(-977.138 -140.067)" fill="#b7d3f3"/>
          <path id="Trazado_208378" data-name="Trazado 208378" d="M961.728,179.579a.731.731,0,1,1,.731.731.731.731,0,0,1-.731-.731" transform="translate(-944.817 -149.528)" fill="#b7d3f3"/>
          <path id="Trazado_208379" data-name="Trazado 208379" d="M927.542,32.487a.731.731,0,1,0-.284.994.731.731,0,0,0,.284-.994" transform="translate(-915.091 -26.847)" fill="#b7d3f3"/>
          <path id="Trazado_208380" data-name="Trazado 208380" d="M897.96,58.294a.731.731,0,1,0,.218,1.011.731.731,0,0,0-.218-1.011" transform="translate(-890.561 -48.64)" fill="#b7d3f3"/>
          <path id="Trazado_208381" data-name="Trazado 208381" d="M884.715,96.788a.731.731,0,1,0,.731.731.731.731,0,0,0-.731-.731" transform="translate(-879.818 -80.921)" fill="#b7d3f3"/>
          <path id="Trazado_208382" data-name="Trazado 208382" d="M895.145,139.677a.731.731,0,1,0,1.033,0,.731.731,0,0,0-1.033,0" transform="translate(-888.971 -116.6)" fill="#b7d3f3"/>
          <path id="Trazado_208383" data-name="Trazado 208383" d="M923.141,167.746a.731.731,0,1,0,1.034,0,.731.731,0,0,0-1.034,0" transform="translate(-912.377 -140.067)" fill="#b7d3f3"/>
          <path id="Trazado_208384" data-name="Trazado 208384" d="M964.984,97.519a.731.731,0,1,1,.731.731.731.731,0,0,1-.731-.731" transform="translate(-947.539 -80.921)" fill="#b7d3f3"/>
          <rect id="Rectángulo_42055" data-name="Rectángulo 42055" width="0.2" height="9.131" transform="translate(18.076 7.468)" fill="#b7d3f3"/>
          <rect id="Rectángulo_42056" data-name="Rectángulo 42056" width="6.154" height="0.599" transform="translate(17.898 16.35) rotate(-38.129)" fill="#b7d3f3"/>
        </g>
      </g>
    </g>
    <g id="Grupo_151250" data-name="Grupo 151250" transform="translate(512 1409.223)">
      <g id="Grupo_151249" data-name="Grupo 151249" transform="translate(0 -0.002)" clip-path="url(#clip-path-9)">
        <path id="Trazado_208442" data-name="Trazado 208442" d="M6.281,74.922H86.075A6.292,6.292,0,0,1,92.356,81.2V197.372a6.311,6.311,0,0,1-6.281,6.281H6.281A6.311,6.311,0,0,1,0,197.372V81.2a6.292,6.292,0,0,1,6.281-6.281" transform="translate(0 -67.452)" fill="#191a1a" fill-rule="evenodd"/>
        <path id="Trazado_208443" data-name="Trazado 208443" d="M43.425,122.018h68.116L127.122,137.6V239.254h-83.7Z" transform="translate(-39.096 -109.852)" fill="#fff" fill-rule="evenodd"/>
        <path id="Trazado_208444" data-name="Trazado 208444" d="M742.745,137.874h-15.52v-15.55Z" transform="translate(-654.719 -110.128)" fill="#dfe6ff" fill-rule="evenodd"/>
        <rect id="Rectángulo_42066" data-name="Rectángulo 42066" width="12.227" height="12.196" transform="translate(13.995 52.261)" fill="#e8e8e8"/>
        <rect id="Rectángulo_42067" data-name="Rectángulo 42067" width="12.227" height="12.196" transform="translate(13.995 71.378)" fill="#e8e8e8"/>
        <rect id="Rectángulo_42068" data-name="Rectángulo 42068" width="12.227" height="12.196" transform="translate(13.995 90.527)" fill="#e8e8e8"/>
        <rect id="Rectángulo_42069" data-name="Rectángulo 42069" width="12.227" height="12.196" transform="translate(13.995 109.644)" fill="#e8e8e8"/>
        <path id="Trazado_208445" data-name="Trazado 208445" d="M151.372,546.2l-4.909-2.622c-.274-.122-.335.152-.213.274l4.452,4.879c.457.4.793.4,1.342,0q5.671-5.077,11.342-10.123c.122-.152.031-.366-.183-.274Z" transform="translate(-131.614 -484.644)" fill="#9f321d" fill-rule="evenodd"/>
        <path id="Trazado_208446" data-name="Trazado 208446" d="M151.372,738.562l-4.909-2.622c-.274-.122-.335.152-.213.274l4.452,4.879c.457.4.793.4,1.342,0q5.671-5.077,11.342-10.123c.122-.152.031-.366-.183-.274Z" transform="translate(-131.614 -657.822)" fill="#9f321d" fill-rule="evenodd"/>
        <path id="Trazado_208447" data-name="Trazado 208447" d="M151.372,930.643l-4.909-2.653c-.274-.122-.335.152-.213.274l4.452,4.878c.457.427.793.4,1.342,0q5.671-5.077,11.342-10.123c.122-.153.031-.366-.183-.274Z" transform="translate(-131.614 -830.726)" fill="#9f321d" fill-rule="evenodd"/>
        <path id="Trazado_208448" data-name="Trazado 208448" d="M151.372,1122.389l-4.909-2.653c-.274-.122-.335.153-.213.274l4.452,4.879c.457.427.793.4,1.342,0q5.671-5.077,11.342-10.123c.122-.152.031-.366-.183-.274Z" transform="translate(-131.614 -1003.354)" fill="#9f321d" fill-rule="evenodd"/>
        <path id="Trazado_208449" data-name="Trazado 208449" d="M254.313,4.907H259.1A5.2,5.2,0,0,1,264.253,0H284.01a5.21,5.21,0,0,1,5.183,4.909h4.757A1.119,1.119,0,0,1,295.078,6v8.11a1.145,1.145,0,0,1-1.128,1.128H254.313a1.119,1.119,0,0,1-1.1-1.128V6a1.093,1.093,0,0,1,1.1-1.1M274.132,1.37a2.363,2.363,0,1,1-2.348,2.348,2.375,2.375,0,0,1,2.348-2.348" transform="translate(-227.969 0.002)" fill="#0643a3" fill-rule="evenodd"/>
        <path id="Trazado_208450" data-name="Trazado 208450" d="M376.019,8.255,352.3,22.677h9.056L378.4,12.341a5.182,5.182,0,0,0-2.378-4.086" transform="translate(-317.172 -7.432)" fill="#0e50af" fill-rule="evenodd"/>
        <path id="Trazado_208451" data-name="Trazado 208451" d="M508.458,49.234,491.444,59.57h13.08l5.031-3.049v-6.19a1.134,1.134,0,0,0-1.1-1.1" transform="translate(-442.446 -44.325)" fill="#0e50af" fill-rule="evenodd"/>
        <path id="Trazado_208452" data-name="Trazado 208452" d="M88.126,223.928a13.187,13.187,0,1,0-13.2-13.172,13.195,13.195,0,0,0,13.2,13.172" transform="translate(-67.454 -177.857)" fill="#fecd4d" fill-rule="evenodd"/>
        <path id="Trazado_208453" data-name="Trazado 208453" d="M163.015,256.3a4.909,4.909,0,1,0-4.909-4.909,4.925,4.925,0,0,0,4.909,4.909" transform="translate(-142.342 -221.909)" fill="#fff" fill-rule="evenodd"/>
        <path id="Trazado_208454" data-name="Trazado 208454" d="M127.116,342.816a9.524,9.524,0,0,1,4.818,7.013H113.151a9.367,9.367,0,0,1,4.818-7.013,5.812,5.812,0,0,0,9.147,0" transform="translate(-101.87 -308.636)" fill="#fff" fill-rule="evenodd"/>
        <path id="Trazado_208455" data-name="Trazado 208455" d="M357.372,524.163H398.6a.762.762,0,0,1,0,1.525H357.372a.763.763,0,1,1,0-1.525" transform="translate(-321.027 -471.902)" fill="#afafaf" fill-rule="evenodd"/>
        <path id="Trazado_208456" data-name="Trazado 208456" d="M357.372,630.893h23.966a.778.778,0,0,1,0,1.555H357.372a.778.778,0,1,1,0-1.555" transform="translate(-321.027 -567.991)" fill="#afafaf" fill-rule="evenodd"/>
        <path id="Trazado_208457" data-name="Trazado 208457" d="M357.372,577.375H398.6a.781.781,0,0,1,.762.793.755.755,0,0,1-.762.762H357.372a.781.781,0,0,1-.793-.762.807.807,0,0,1,.793-.793" transform="translate(-321.027 -519.809)" fill="#afafaf" fill-rule="evenodd"/>
        <path id="Trazado_208458" data-name="Trazado 208458" d="M357.372,715.909H398.6a.762.762,0,0,1,0,1.525H357.372a.763.763,0,1,1,0-1.525" transform="translate(-321.027 -644.531)" fill="#afafaf" fill-rule="evenodd"/>
        <path id="Trazado_208459" data-name="Trazado 208459" d="M357.372,822.638h23.966a.778.778,0,0,1,0,1.555H357.372a.778.778,0,1,1,0-1.555" transform="translate(-321.027 -740.618)" fill="#afafaf" fill-rule="evenodd"/>
        <path id="Trazado_208460" data-name="Trazado 208460" d="M357.372,769.121H398.6a.781.781,0,0,1,.762.793.755.755,0,0,1-.762.762H357.372a.781.781,0,0,1-.793-.762.807.807,0,0,1,.793-.793" transform="translate(-321.027 -692.437)" fill="#afafaf" fill-rule="evenodd"/>
        <path id="Trazado_208461" data-name="Trazado 208461" d="M357.372,907.96H398.6a.762.762,0,0,1,0,1.525H357.372a.763.763,0,1,1,0-1.525" transform="translate(-321.027 -817.433)" fill="#afafaf" fill-rule="evenodd"/>
        <path id="Trazado_208462" data-name="Trazado 208462" d="M357.372,1014.689h23.966a.781.781,0,0,1,.762.793.755.755,0,0,1-.762.762H357.372a.781.781,0,0,1-.793-.762.807.807,0,0,1,.793-.793" transform="translate(-321.027 -913.521)" fill="#afafaf" fill-rule="evenodd"/>
        <path id="Trazado_208463" data-name="Trazado 208463" d="M357.372,961.478H398.6a.762.762,0,0,1,0,1.525H357.372a.763.763,0,1,1,0-1.525" transform="translate(-321.027 -865.616)" fill="#afafaf" fill-rule="evenodd"/>
        <path id="Trazado_208464" data-name="Trazado 208464" d="M357.372,1099.706H398.6a.762.762,0,1,1,0,1.524H357.372a.763.763,0,1,1,0-1.524" transform="translate(-321.027 -990.062)" fill="#afafaf" fill-rule="evenodd"/>
        <path id="Trazado_208465" data-name="Trazado 208465" d="M357.372,1206.435h23.966a.781.781,0,0,1,.762.793.755.755,0,0,1-.762.762H357.372a.781.781,0,0,1-.793-.762.807.807,0,0,1,.793-.793" transform="translate(-321.027 -1086.15)" fill="#afafaf" fill-rule="evenodd"/>
        <path id="Trazado_208466" data-name="Trazado 208466" d="M357.372,1153.223H398.6a.762.762,0,0,1,0,1.525H357.372a.763.763,0,1,1,0-1.525" transform="translate(-321.027 -1038.243)" fill="#afafaf" fill-rule="evenodd"/>
        <path id="Trazado_208467" data-name="Trazado 208467" d="M376.669,272.172h30.4a.534.534,0,0,1,.518.518v.854a.534.534,0,0,1-.518.518h-30.4a.534.534,0,0,1-.518-.518v-.854a.534.534,0,0,1,.518-.518" transform="translate(-338.648 -245.035)" fill="#afafaf" fill-rule="evenodd"/>
        <path id="Trazado_208468" data-name="Trazado 208468" d="M376.669,321.1h30.4a.534.534,0,0,1,.518.518v.854a.534.534,0,0,1-.518.518h-30.4a.534.534,0,0,1-.518-.518v-.854a.534.534,0,0,1,.518-.518" transform="translate(-338.648 -289.088)" fill="#afafaf" fill-rule="evenodd"/>
        <path id="Trazado_208469" data-name="Trazado 208469" d="M376.669,368.81h30.4a.508.508,0,0,1,.518.488v.854a.514.514,0,0,1-.518.518h-30.4a.514.514,0,0,1-.518-.518V369.3a.508.508,0,0,1,.518-.488" transform="translate(-338.648 -332.038)" fill="#afafaf" fill-rule="evenodd"/>
      </g>
    </g>
    <g id="Grupo_151244" data-name="Grupo 151244" transform="translate(479 1448.98)">
      <g id="Grupo_151245" data-name="Grupo 151245" transform="translate(0 0.001)">
        <path id="Trazado_208363" data-name="Trazado 208363" d="M363.927,1048.772h.066a.9.9,0,0,0,.907-.96l-3.6-36-3.145.281,5.175,36.189a.586.586,0,0,0,.6.486" transform="translate(-323.779 -914.713)" fill="#8cb4f4"/>
        <path id="Trazado_208364" data-name="Trazado 208364" d="M47.513,1048.772h-.066a.9.9,0,0,1-.907-.96l3.6-36,3.145.281-5.175,36.189a.586.586,0,0,1-.6.486" transform="translate(-42.07 -914.713)" fill="#8cb4f4"/>
        <path id="Trazado_208365" data-name="Trazado 208365" d="M628.879,1048.772h.066a.9.9,0,0,0,.907-.96l-3.6-36-3.145.281,5.175,36.189a.586.586,0,0,0,.6.486" transform="translate(-563.304 -914.713)" fill="#8cb4f4"/>
        <path id="Trazado_208366" data-name="Trazado 208366" d="M6.516,583.477l-6.4-31.594A7,7,0,0,1,7.444,543.8l12.338.282a9.746,9.746,0,0,1,9.14,7.036l9.36,32.36Z" transform="translate(0 -491.609)" fill="#8cb4f4"/>
        <path id="Trazado_208367" data-name="Trazado 208367" d="M46.847,583.477l-6.4-31.594a7,7,0,0,1,7.326-8.084l12.338.282a9.747,9.747,0,0,1,9.14,7.036l9.36,32.36Z" transform="translate(-36.46 -491.609)" fill="#8cb4f4"/>
        <path id="Trazado_208368" data-name="Trazado 208368" d="M69.684,963.019H118.5a1.788,1.788,0,0,0,1.783-1.783v-2.2a1.788,1.788,0,0,0-1.783-1.783H67.9v3.979a1.788,1.788,0,0,0,1.783,1.783" transform="translate(-61.385 -865.39)" fill="#8cb4f4"/>
        <path id="Trazado_208369" data-name="Trazado 208369" d="M311.649,963.019h31.119a1.441,1.441,0,0,0,1.436-1.436v-2.889a1.441,1.441,0,0,0-1.436-1.436H311.649a1.441,1.441,0,0,0-1.436,1.436v2.889a1.441,1.441,0,0,0,1.436,1.436" transform="translate(-280.442 -865.39)" fill="#8cb4f4"/>
        <path id="Trazado_208385" data-name="Trazado 208385" d="M324.684,881.27a17.147,17.147,0,0,1-5.962,6.371H304.9s21.8-9.877,19.781-6.371" transform="translate(-275.642 -796.015)" fill="#233862"/>
        <path id="Trazado_208386" data-name="Trazado 208386" d="M682.106,1267.234c-.149,1.45,1.867,1.824,4.206,1.966s1.626.613,4.827,1.229,4.5-.249,4.732-.679c.211-.382-1.274-1-2.855-1.7-.2-.087-.4-.177-.6-.266-1.78-.806-2.766-2.42-4.144-3.922-1.306-1.423-2.511-5.946-2.511-5.946l-4.348-.977s1.18,4.072,1.586,5.809a5.367,5.367,0,0,1-.479,3.021,5.7,5.7,0,0,0-.417,1.462" transform="translate(-616.02 -1136.314)" fill="#ffb27d"/>
        <path id="Trazado_208387" data-name="Trazado 208387" d="M692.748,1352.378c2.339.142,1.626.613,4.827,1.229s4.5-.249,4.732-.68c.211-.382-1.274-1-2.855-1.7l-.025.027a9.134,9.134,0,0,1-4.858.006c-2.115-.6-4.153-1.889-5.61-2.314a5.7,5.7,0,0,0-.417,1.462c-.149,1.45,1.867,1.824,4.206,1.966" transform="translate(-622.456 -1219.492)" fill="#0f2549"/>
        <path id="Trazado_208388" data-name="Trazado 208388" d="M224.98,716.881c-2.34-1.643-17.815-4.572-25.713-5.419l-8.729-7.578s-7.43,11.005-7.489,19.424c-.027,3.926,1.781,4.316,1.781,4.316s27.983.208,29.21.334c2.008.207,4.656,5.209,5.318,9.765s12.331,23.085,12.331,23.085a14.633,14.633,0,0,0,3.559.714,3.555,3.555,0,0,0,1.771-.477s-6.762-40.46-12.038-44.165" transform="translate(-165.482 -636.334)" fill="#233862"/>
        <path id="Trazado_208389" data-name="Trazado 208389" d="M606.684,1267.234c-.149,1.45,1.867,1.824,4.206,1.966s1.627.613,4.827,1.229,4.5-.249,4.732-.679c.211-.382-1.274-1-2.855-1.7-.2-.087-.4-.177-.6-.266-1.78-.806-2.766-2.42-4.144-3.922-1.305-1.423-2.511-5.946-2.511-5.946l-4.348-.977s1.18,4.072,1.586,5.809a5.368,5.368,0,0,1-.479,3.021,5.7,5.7,0,0,0-.417,1.462" transform="translate(-547.836 -1136.314)" fill="#ffb27d"/>
        <path id="Trazado_208390" data-name="Trazado 208390" d="M617.328,1352.378c2.339.142,1.626.613,4.827,1.229s4.5-.249,4.732-.68c.211-.382-1.274-1-2.855-1.7l-.025.027a9.134,9.134,0,0,1-4.858.006c-2.115-.6-4.153-1.889-5.61-2.314a5.7,5.7,0,0,0-.417,1.462c-.149,1.45,1.867,1.824,4.206,1.966" transform="translate(-554.274 -1219.492)" fill="#233862"/>
        <path id="Trazado_208391" data-name="Trazado 208391" d="M148.892,716.881c-2.033-1.427-8.146-2.534-14.894-3.355a4.539,4.539,0,0,1-3.853-3.407l-15.7-6.234s-7.43,11.005-7.489,19.424c-.027,3.926,1.781,4.316,1.781,4.316s27.983.208,29.21.334c2.008.207,4.656,5.209,5.318,9.765S155.6,760.809,155.6,760.809a14.631,14.631,0,0,0,3.559.714,3.555,3.555,0,0,0,1.771-.477s-6.762-40.46-12.038-44.165" transform="translate(-96.696 -636.334)" fill="#2b478b"/>
        <path id="Trazado_208392" data-name="Trazado 208392" d="M56.2,214.124a17.752,17.752,0,0,0-5.972-1.357c-6.38-.857-10.22,8.414-10.446,11.223-.416,5.178-3.155,5.967-7.011,9.21-7.731,6.5-5.464,14.058-1.237,16.865,2.536,1.684,7.007,0,7.007,0,.063.044,12.226-6.8,18.222-10.1,8.988-1.278,4.933-22.953-.563-25.84" transform="translate(-25.004 -192.297)" fill="#233862"/>
        <path id="Trazado_208393" data-name="Trazado 208393" d="M230.812,380.311c.028.014-2.835,1.316-4.9.634-1.944-.641-3.657-3.568-3.629-3.572.844-.122,1.7-.955,1.941-5.888l.374.094,6.283,1.588s-.249,1.99-.351,3.872c-.087,1.58-.069,3.084.284,3.271" transform="translate(-200.948 -335.834)" fill="#ffb27d"/>
        <path id="Trazado_208394" data-name="Trazado 208394" d="M251.02,378.068s0,.41-.235,2.261c-3.553-.9-5.12-2.075-6.225-3.423Z" transform="translate(-221.09 -340.735)" fill="#ed975d"/>
        <path id="Trazado_208395" data-name="Trazado 208395" d="M232.564,262.111s-8.308,1.353-9.071-3.834-2.349-8.506,2.924-9.589,6.6.744,7.272,2.414,1.017,10.524-1.125,11.009" transform="translate(-201.293 -224.527)" fill="#ffb27d"/>
        <path id="Trazado_208396" data-name="Trazado 208396" d="M211.334,240.749s-3.773,5.956-7.141,7.366-5.023.694-5.023.694a14.186,14.186,0,0,0,1.932-5.443,2.554,2.554,0,0,1,1.577-2.053c2.417-.968,7.093-2.495,8.655-.565" transform="translate(-180.056 -216.806)" fill="#233862"/>
        <path id="Trazado_208397" data-name="Trazado 208397" d="M291.387,240.484a13.151,13.151,0,0,1,3.122,2.2,10.1,10.1,0,0,1,1.822,5.057s1.091-5.988-1.181-8.047c-2.409-2.183-3.762.793-3.762.793" transform="translate(-263.423 -215.965)" fill="#233862"/>
        <path id="Trazado_208398" data-name="Trazado 208398" d="M169.537,442.437c-.252,16.888-.069,13.359-1.917,14.962a7.093,7.093,0,0,1-3.344.725c-5.178.344-14.282-.509-14.628-1.466-1.194-3.311-.351-4.34-1.348-9.41-.1-.539-.232-1.123-.383-1.758-.831-3.482-1.64-4.667,1.308-10.261,2.673-5.067,5.817-9.184,6.067-9.035,7.053,4.187,7.295.677,7.295.677s7.073,7.329,6.95,15.567" transform="translate(-133.027 -385.288)" fill="#fff"/>
        <path id="Trazado_208399" data-name="Trazado 208399" d="M308.021,433.287s7.218,1.224,8.071,4.348,5.867,21.494,5.867,21.494-3.689.663-5.394-1.042-5.931-15.813-5.931-15.813Z" transform="translate(-278.46 -391.705)" fill="#fff"/>
        <path id="Trazado_208400" data-name="Trazado 208400" d="M175.135,590.237c-5.179.344-14.282-.509-14.628-1.466-1.195-3.311-.351-4.34-1.348-9.41l2.5-7.033s-.413,7.832,1.9,9.892,9.457,3.977,10.58,5.7a6.3,6.3,0,0,1,1,2.32" transform="translate(-143.885 -517.401)" fill="#ebf3ff"/>
        <path id="Trazado_208401" data-name="Trazado 208401" d="M263.8,717.169s5.109-1.138,5.933-.684a12,12,0,0,1,3.091,2.679c.252.574-1.835-.436-2.514-.618a6.047,6.047,0,0,0-2.17.475,7.211,7.211,0,0,1-3.889.39Z" transform="translate(-238.483 -647.628)" fill="#ffb27d"/>
        <path id="Trazado_208402" data-name="Trazado 208402" d="M72.62,426.23s-7.231.423-9.605,3.735c-3.343,4.662-9.974,24.533-6.174,27.183,4.28,2.984,19.479.781,19.479.781s.506-2.364-.2-3.508-12.14-2.991-12.668-3.519,6.6-10.293,6.6-11.876,2.568-12.8,2.568-12.8" transform="translate(-50.354 -385.325)" fill="#fff"/>
        <path id="Trazado_208403" data-name="Trazado 208403" d="M328.2,732.308a9.878,9.878,0,0,0,1.421,1.546,1.048,1.048,0,0,0,.578.124l-.721-1.3Z" transform="translate(-296.705 -662.029)" fill="#ffb27d"/>
        <path id="Trazado_208404" data-name="Trazado 208404" d="M325.625,717.491,328.737,719a.554.554,0,0,1-.516.2,7.406,7.406,0,0,1-1.35-.371Z" transform="translate(-294.375 -648.634)" fill="#ffb27d"/>
        <path id="Trazado_208405" data-name="Trazado 208405" d="M308.926,743.97H294.471a1.152,1.152,0,0,1,1.152-1.152h13.3Z" transform="translate(-266.211 -671.53)" fill="#ed7d2b"/>
        <path id="Trazado_208406" data-name="Trazado 208406" d="M392.8,590.788h22.348l-5.36,15.743H387.291Z" transform="translate(-350.123 -534.09)" fill="#ed7d2b"/>
        <path id="Trazado_208407" data-name="Trazado 208407" d="M418.572,590.785l-5.36,15.743H390.719l5.506-15.743Z" transform="translate(-353.222 -534.088)" fill="#f99746"/>
        <path id="Trazado_208408" data-name="Trazado 208408" d="M534.613,661.03a1.453,1.453,0,0,1-1.341,1.089.839.839,0,0,1-.838-1.089,1.453,1.453,0,0,1,1.341-1.089.839.839,0,0,1,.838,1.089" transform="translate(-481.311 -596.607)" fill="#fff"/>
        <path id="Trazado_208409" data-name="Trazado 208409" d="M235.386,758.367h97.936a.746.746,0,0,0,.746-.746v-2.05a.746.746,0,0,0-.746-.746H235.386a.746.746,0,0,0-.746.746v2.05a.746.746,0,0,0,.746.746" transform="translate(-212.122 -682.385)" fill="#182d4f"/>
        <path id="Trazado_208410" data-name="Trazado 208410" d="M1183.448,833.682l.042-.005a.9.9,0,0,0,.794-1l-8.727-59.075-3.2.091,10.268,59.395a.734.734,0,0,0,.818.594" transform="translate(-1059.85 -699.359)" fill="#182d4f"/>
        <path id="Trazado_208411" data-name="Trazado 208411" d="M200.3,833.682l-.042-.005a.9.9,0,0,1-.794-1l8.727-59.075,3.2.091-10.268,59.395a.734.734,0,0,1-.818.594" transform="translate(-180.313 -699.359)" fill="#182d4f"/>
        <path id="Trazado_208412" data-name="Trazado 208412" d="M410.823,833.682l-.042-.005a.9.9,0,0,1-.794-1l8.727-59.075,3.2.091-10.268,59.395a.734.734,0,0,1-.818.594" transform="translate(-370.634 -699.359)" fill="#182d4f"/>
        <path id="Trazado_208413" data-name="Trazado 208413" d="M955.263,1315.719h17.318c.833-1.016.526-4.767.4-5.992-.026-.247-.044-.39-.044-.39s-5.914-4.73-6.726-1.108c-.025.114-.055.225-.088.334-1.023,3.388-5.614,4.927-8.265,5.356a3,3,0,0,0-2.6,1.8" transform="translate(-863.587 -1181.444)" fill="#233862"/>
        <path id="Trazado_208414" data-name="Trazado 208414" d="M1097,812.78c-.625,0-29.665,5.452-34.469,11.4-2.4,2.97-2.756,37.275-2.756,37.275s2.969,3.681,9.38,1.544c0,0,4.7-23.471,4.354-30.59-.1-1.969,19.841-.285,23.49-1.229s12.565-8.883,10.6-12.75-10.6-5.648-10.6-5.648" transform="translate(-958.07 -734.778)" fill="#233862"/>
        <path id="Trazado_208415" data-name="Trazado 208415" d="M987.945,725.248s-5.858.079-7.243.673-4.2,1.956-3.444,2.166,4.34-.086,5.116.033a13.083,13.083,0,0,0,2.207-.033h2.691Z" transform="translate(-883.357 -655.646)" fill="#ffb27d"/>
        <path id="Trazado_208416" data-name="Trazado 208416" d="M906.507,505.287a10.7,10.7,0,0,0-3.936-1.7,17.052,17.052,0,0,1-2.832-.584c-1.79-.631-5.37-3.85-5.1-4.228.868-1.21,5.049,1.351,5.778,1.076s-1.4-1.791-.661-2.324c.387-.278,1.293,1.117,2.034,1.257,1,.19,1.785,1.6,2.087,1.678a23.431,23.431,0,0,1,3.159,2.056Z" transform="translate(-808.768 -449.743)" fill="#ffb27d"/>
        <path id="Trazado_208417" data-name="Trazado 208417" d="M1114.9,405.11s-4.459,1.382-8.852,13.48-6.062,12.751-7.659,13.226-15.614,3.265-15.614,3.265v3.59h21.6s8.1-7.7,10.527-12.89,0-20.671,0-20.671" transform="translate(-978.861 -366.232)" fill="#ed7d2b"/>
        <path id="Trazado_208418" data-name="Trazado 208418" d="M875.51,1315.719h17.318c.833-1.016.526-4.767.4-5.992-.026-.247-.044-.39-.044-.39s-5.914-4.73-6.726-1.108c-.025.114-.055.225-.088.334-1.023,3.388-5.614,4.927-8.265,5.356a3,3,0,0,0-2.6,1.8" transform="translate(-791.488 -1181.444)" fill="#1b3051"/>
        <path id="Trazado_208419" data-name="Trazado 208419" d="M1007.831,812.78c-.625,0-29.665,5.452-34.469,11.4-2.4,2.97-2.756,37.275-2.756,37.275s2.969,3.681,9.38,1.544c0,0,4.7-23.471,4.354-30.59-.1-1.969,19.842-.285,23.491-1.229s12.565-8.883,10.6-12.75-10.6-5.648-10.6-5.648" transform="translate(-877.457 -734.778)" fill="#2b478b"/>
        <path id="Trazado_208420" data-name="Trazado 208420" d="M1360.306,298.749a28.186,28.186,0,0,0,6.173-1.344c2.366-.768,4.274-1.89,3.045-4.053-1.133-1.993-2.966-6.446-2.843-10.135l-4.4,3.549-2.991,2.41a35.791,35.791,0,0,0,.339,3.911q.089.681.212,1.468a1.067,1.067,0,0,1-.492,1.071l-.067.042a1.67,1.67,0,0,0,1.028,3.081" transform="translate(-1228.115 -256.037)" fill="#ffb27d"/>
        <path id="Trazado_208421" data-name="Trazado 208421" d="M1366.382,321.743a7.272,7.272,0,0,0,.11,2.421,12.508,12.508,0,0,0,5.16-2.562c-1.358-.373-1.852-1.84-2.863-1.7Z" transform="translate(-1235.211 -289.191)" fill="#ed975d"/>
        <path id="Trazado_208422" data-name="Trazado 208422" d="M1322.244,183.865s10.258,1.7,11.221-4.7,2.935-10.5-3.573-11.856-8.151.893-8.993,2.953-1.3,13,1.345,13.6" transform="translate(-1193.539 -150.878)" fill="#ffb27d"/>
        <path id="Trazado_208423" data-name="Trazado 208423" d="M1310.493,154.594c-.441,1.542.738,3.421,2.717,4.039,2.938.918,2.288,4.521,3.61,4.472s1.855-2.071,3.036-.455c1.007,1.378-.838,3.012-.711,3.768.218,1.3,2.25,3.952,4.082,3.819s5.259-8.837,4.573-11.53-3.427-5.532-6.022-5.924-6.2.729-7.031.729-4.016.25-4.254,1.083" transform="translate(-1184.642 -138.045)" fill="#2b478b"/>
        <path id="Trazado_208424" data-name="Trazado 208424" d="M1318.041,382.582c-1.483-5.967-5.58-12.229-8.351-12.223-4.721.009-11.508,1.255-14.249,8.015-2.018,4.979-4.71,33.619-1.668,35.656,6.955,4.656,23.077,14.161,25.941,4.468,2.624-8.882.9-25.559-1.673-35.915" transform="translate(-1168.373 -334.816)" fill="#f99746"/>
        <path id="Trazado_208425" data-name="Trazado 208425" d="M1025.868,402.03a5.592,5.592,0,0,0-8.654-2.41,52.9,52.9,0,0,0-5.935,5.546c-8.811,9.383-10.6,9.324-12.256,9.131s-15.636-3.161-15.636-3.161a4.228,4.228,0,0,0-1.137,1.382,2.6,2.6,0,0,0-.28,1.917c-.548-.354,4.956,3.44,7.7,4.952a75.278,75.278,0,0,0,11.24,4.581,2.9,2.9,0,0,0,1.888-.028c3.222-1.162,14.045-5.394,22.854-12.738,2.321-1.935,1.468-5.923.219-9.172" transform="translate(-887.667 -360.202)" fill="#f99746"/>
        <path id="Trazado_208426" data-name="Trazado 208426" d="M1362.125,348.273l-1.069-2.408s-9.568.78-11.176,6.226c0,0,7.417-3.7,12.245-3.818" transform="translate(-1220.333 -312.673)" fill="#fff"/>
        <path id="Trazado_208427" data-name="Trazado 208427" d="M1665.115,1048.772h.066a.9.9,0,0,0,.907-.96l-3.6-36-3.145.281,5.175,36.189a.586.586,0,0,0,.6.486" transform="translate(-1500.093 -914.713)" fill="#8cb4f4"/>
        <path id="Trazado_208428" data-name="Trazado 208428" d="M1471.811,1048.772h.066a.9.9,0,0,0,.907-.96l-3.6-36-3.145.281,5.175,36.189a.586.586,0,0,0,.6.486" transform="translate(-1325.339 -914.713)" fill="#8cb4f4"/>
        <path id="Trazado_208429" data-name="Trazado 208429" d="M1154.121,1048.772h-.066a.9.9,0,0,1-.907-.96l3.6-36,3.145.281-5.175,36.189a.586.586,0,0,1-.6.486" transform="translate(-1042.477 -914.713)" fill="#73a2e5"/>
        <path id="Trazado_208430" data-name="Trazado 208430" d="M1410.794,585.217l3.421-30.064c.448-4.333-1-8.575-7.253-8.9l-11-.67c-6.519-.269-9.462,5.157-10.287,9.333l-6.529,33.047Z" transform="translate(-1246.79 -493.213)" fill="#8cb4f4"/>
        <path id="Trazado_208431" data-name="Trazado 208431" d="M1213.125,963.019h-48.816a1.788,1.788,0,0,1-1.783-1.783v-2.2a1.788,1.788,0,0,1,1.783-1.783h50.6v3.979a1.788,1.788,0,0,1-1.783,1.783" transform="translate(-1050.959 -865.39)" fill="#73a2e5"/>
        <path id="Trazado_208432" data-name="Trazado 208432" d="M1409.354,963.019H1380.53a1.389,1.389,0,0,1-1.385-1.385v-2.993a1.389,1.389,0,0,1,1.385-1.385h30.208v4.377a1.389,1.389,0,0,1-1.385,1.385" transform="translate(-1246.789 -865.39)" fill="#8cb4f4"/>
      </g>
    </g>
  </g>
</svg>
