<svg xmlns="http://www.w3.org/2000/svg" width="63" height="63" viewBox="0 0 63 63">
  <g id="Grupo_151434" data-name="Grupo 151434" transform="translate(-285 -1351)">
    <circle id="Elipse_4903" data-name="Elipse 4903" cx="31.5" cy="31.5" r="31.5" transform="translate(285 1351)" fill="#9f321d"/>
    <g id="empleado" transform="translate(272.617 1356.425)">
      <path id="Trazado_209675" data-name="Trazado 209675" d="M59.586,253l-5.659-2.226H33.839L28.18,253a5.478,5.478,0,0,0-3.468,5.317l.687,17.154a1.826,1.826,0,0,0,1.825,1.753H60.543a1.826,1.826,0,0,0,1.825-1.753l.687-17.154A5.478,5.478,0,0,0,59.586,253Z" transform="translate(0 -220.618)" fill="#fdfdfd"/>
      <path id="Trazado_209676" data-name="Trazado 209676" d="M164.519,303.684l-1.168,20.088h5l-1.168-20.088Z" transform="translate(-121.97 -267.161)" fill="#fecd4d"/>
      <path id="Trazado_209677" data-name="Trazado 209677" d="M171.626,284.56H169.96a.993.993,0,0,1-.993-.993v-2.659h3.652v2.659A.993.993,0,0,1,171.626,284.56Z" transform="translate(-126.91 -247.124)" fill="#fea25b"/>
      <rect id="Rectángulo_42336" data-name="Rectángulo 42336" width="12.783" height="10.957" transform="translate(37.492 22.827)" fill="#e6af78"/>
      <path id="Trazado_209678" data-name="Trazado 209678" d="M131.006,193.213a10.908,10.908,0,0,0,12.783,0V189.8H131.006Z" transform="translate(-93.515 -166.976)" fill="#d29b6e"/>
      <path id="Trazado_209679" data-name="Trazado 209679" d="M104,.029a11.811,11.811,0,0,0-7.152,2.739s-3.8,0-3.8,4.565a34.112,34.112,0,0,0,.913,7.276h21C116.786,4.566,112.449-.428,104,.029Z" transform="translate(-60.12 0)" fill="#6e4b53"/>
      <path id="Trazado_209680" data-name="Trazado 209680" d="M98.524,31.088c-3.354-4.194-1.674-8.073-1.674-8.073s-3.8,0-3.8,4.565a34.112,34.112,0,0,0,.913,7.276h4.565V31.088Z" transform="translate(-60.119 -20.247)" fill="#5c414b"/>
      <path id="Trazado_209681" data-name="Trazado 209681" d="M107.367,86.586h-.913l-1.2-2.2a.919.919,0,0,0-.975-.453c-6.013,1.1-9.965-.3-11.463-1a.9.9,0,0,0-1.111.289A19.29,19.29,0,0,1,89.147,86.1a1.829,1.829,0,0,1-1.242.486h-.658a1.783,1.783,0,0,0-.306.032,1.93,1.93,0,0,0-1.487,1.926v.662a1.918,1.918,0,0,0,1.41,1.9,1.809,1.809,0,0,0,.556.043.889.889,0,0,1,.932.742,9.12,9.12,0,0,0,17.944,0,.887.887,0,0,1,.884-.737h.188a1.826,1.826,0,0,0,1.826-1.826v-.913A1.826,1.826,0,0,0,107.367,86.586Z" transform="translate(-53.44 -72.89)" fill="#f0c087"/>
      <path id="Trazado_209682" data-name="Trazado 209682" d="M91.845,91.958V84.809a.868.868,0,0,0-.143.139,19.29,19.29,0,0,1-2.555,2.871,1.829,1.829,0,0,1-1.242.486h-.658a1.785,1.785,0,0,0-.306.032,1.93,1.93,0,0,0-1.487,1.926v.662a1.918,1.918,0,0,0,1.41,1.9,1.809,1.809,0,0,0,.556.043.889.889,0,0,1,.932.742,9.1,9.1,0,0,0,10.782,7.3A9.133,9.133,0,0,1,91.845,91.958Z" transform="translate(-53.44 -74.609)" fill="#e6af78"/>
      <g id="Grupo_151431" data-name="Grupo 151431" transform="translate(24.707 27.758)">
        <path id="Trazado_209683" data-name="Trazado 209683" d="M110.682,236.855l-6.662-5.829a.913.913,0,0,0-1.247.041l-2.135,2.135,4.243,6.364a1.826,1.826,0,0,0,2.811.278Z" transform="translate(-91.506 -230.801)" fill="#dbd9dc"/>
        <path id="Trazado_209684" data-name="Trazado 209684" d="M184.151,236.855l6.662-5.829a.913.913,0,0,1,1.247.041l2.135,2.135-4.243,6.364a1.826,1.826,0,0,1-2.811.278Z" transform="translate(-164.975 -230.801)" fill="#dbd9dc"/>
        <path id="Trazado_209685" data-name="Trazado 209685" d="M29.5,291.89l-3.972-3.972a5.462,5.462,0,0,0-.811,3.077l.687,17.154a1.826,1.826,0,0,0,1.825,1.753H31.1V295.764A5.479,5.479,0,0,0,29.5,291.89Z" transform="translate(-24.707 -281.049)" fill="#dbd9dc"/>
        <path id="Trazado_209686" data-name="Trazado 209686" d="M26.312,291.89l3.972-3.972a5.462,5.462,0,0,1,.811,3.077l-.687,17.154a1.826,1.826,0,0,1-1.825,1.753H24.707V295.764A5.479,5.479,0,0,1,26.312,291.89Z" transform="translate(7.17 -281.048)" fill="#dbd9dc"/>
      </g>
    </g>
    <path id="Trazado_209699" data-name="Trazado 209699" d="M109.438,497.411H67.028a.964.964,0,0,1,0-1.928h42.41a.964.964,0,1,1,0,1.928Z" transform="translate(227.936 916.589)" fill="#c39772"/>
  </g>
</svg>
