<svg xmlns="http://www.w3.org/2000/svg" width="22.008" height="13.04" viewBox="0 0 22.008 13.04">
  <g id="Grupo_80221" data-name="Grupo 80221" transform="translate(0 0)">
    <path id="Trazado_190764" data-name="Trazado 190764" d="M312.117,291.415a1.83,1.83,0,1,1-1.83-1.83,1.83,1.83,0,0,1,1.83,1.83" transform="translate(-308.456 -280.205)" fill="#9f321d"/>
    <path id="Trazado_190765" data-name="Trazado 190765" d="M312.117,276.756a1.83,1.83,0,1,1-1.83-1.83,1.83,1.83,0,0,1,1.83,1.83" transform="translate(-308.456 -274.926)" fill="#9f321d"/>
    <path id="Trazado_190766" data-name="Trazado 190766" d="M327.167,291.415a1.83,1.83,0,1,1-1.83-1.83,1.83,1.83,0,0,1,1.83,1.83" transform="translate(-313.876 -280.205)" fill="#9f321d"/>
    <path id="Trazado_190767" data-name="Trazado 190767" d="M327.167,276.756a1.83,1.83,0,1,1-1.83-1.83,1.83,1.83,0,0,1,1.83,1.83" transform="translate(-313.876 -274.926)" fill="#9f321d"/>
    <path id="Trazado_190768" data-name="Trazado 190768" d="M340.79,291.415a1.83,1.83,0,1,1-1.83-1.83,1.83,1.83,0,0,1,1.83,1.83" transform="translate(-318.782 -280.205)" fill="#9f321d"/>
    <path id="Trazado_190769" data-name="Trazado 190769" d="M340.79,276.756a1.83,1.83,0,1,1-1.83-1.83,1.83,1.83,0,0,1,1.83,1.83" transform="translate(-318.782 -274.926)" fill="#9f321d"/>
  </g>
</svg>
