<svg xmlns="http://www.w3.org/2000/svg" width="63" height="63" viewBox="0 0 63 63">
  <g id="Grupo_151437" data-name="Grupo 151437" transform="translate(-285 -1455)">
    <circle id="Elipse_4904" data-name="Elipse 4904" cx="31.5" cy="31.5" r="31.5" transform="translate(285 1455)" fill="#9f321d"/>
    <g id="empleado_2_" data-name="empleado (2)" transform="translate(231.049 1459.271)">
      <rect id="Rectángulo_42338" data-name="Rectángulo 42338" width="13.479" height="11.553" transform="translate(78.835 23.106)" fill="#b48764"/>
      <path id="Trazado_209701" data-name="Trazado 209701" d="M201.432,205.037a11.5,11.5,0,0,0,13.478,0v-3.6H201.432Z" transform="translate(-122.597 -178.336)" fill="#966d50"/>
      <path id="Trazado_209702" data-name="Trazado 209702" d="M123.607,290.471l.759-18.943a5.776,5.776,0,0,0-3.693-5.621l-8.764-3.007a.775.775,0,0,0-.939.35,7.7,7.7,0,0,1-13.634,0,.775.775,0,0,0-.939-.35l-8.764,3.007a5.776,5.776,0,0,0-3.693,5.621l.759,18.943Z" transform="translate(-18.577 -232.706)" fill="#e8e8e8"/>
      <g id="Grupo_151436" data-name="Grupo 151436" transform="translate(65.358 35.56)">
        <path id="Trazado_209703" data-name="Trazado 209703" d="M92.6,317.776,84.8,310.023a5.758,5.758,0,0,0-.866,3.261l.759,18.943h7.9Z" transform="translate(-83.934 -310.023)" fill="#dbdbdb"/>
        <path id="Trazado_209704" data-name="Trazado 209704" d="M360.918,317.776l7.794-7.753a5.758,5.758,0,0,1,.866,3.261l-.759,18.943h-7.9V317.776Z" transform="translate(-329.147 -310.023)" fill="#dbdbdb"/>
      </g>
      <path id="Trazado_209705" data-name="Trazado 209705" d="M174.179,13.479V10.59a10.59,10.59,0,0,0-21.181,0v2.888h-.035a1.882,1.882,0,0,0-.323.034,2.035,2.035,0,0,0-1.568,2.031v.7a2.022,2.022,0,0,0,1.486,2,1.906,1.906,0,0,0,.587.046.938.938,0,0,1,.983.783,9.616,9.616,0,0,0,18.92,0,.935.935,0,0,1,.932-.777h.2a1.926,1.926,0,0,0,1.926-1.926V15.4A1.926,1.926,0,0,0,174.179,13.479Z" transform="translate(-78.013)" fill="#c39772"/>
      <path id="Trazado_209706" data-name="Trazado 209706" d="M157.812,17.329v-7.7A10.583,10.583,0,0,1,163.97.019c-.127,0-.252-.019-.381-.019A10.59,10.59,0,0,0,153,10.59v2.888h-.035a1.882,1.882,0,0,0-.323.034,2.035,2.035,0,0,0-1.568,2.031v.7a2.022,2.022,0,0,0,1.486,2,1.906,1.906,0,0,0,.587.046.938.938,0,0,1,.983.783,9.62,9.62,0,0,0,9.46,7.888c.13,0,.257-.012.386-.017A10.582,10.582,0,0,1,157.812,17.329Z" transform="translate(-78.013)" fill="#b48764"/>
      <path id="Trazado_209708" data-name="Trazado 209708" d="M164.57,368.891h-23.4a1.926,1.926,0,0,1-1.922-1.812l.264-12.516a1.926,1.926,0,0,1,1.922-2.039h22.873a1.926,1.926,0,0,1,1.922,2.039l.264,12.516A1.926,1.926,0,0,1,164.57,368.891Z" transform="translate(-67.775 -312.089)" fill="#f0c087"/>
      <path id="Trazado_209709" data-name="Trazado 209709" d="M174.563,263.609a10.583,10.583,0,0,0,19.645,0l-2.067-.709a.775.775,0,0,0-.939.35,7.7,7.7,0,0,1-13.634,0,.775.775,0,0,0-.939-.35Z" transform="translate(-98.81 -232.706)" fill="#dbdbdb"/>
      <path id="Trazado_209710" data-name="Trazado 209710" d="M178.459,0a10.59,10.59,0,0,0-10.59,10.59v2.888h1.274a.963.963,0,0,0,.894-.605l1.2-3a1.925,1.925,0,0,1,1.788-1.21h10.871a1.925,1.925,0,0,1,1.788,1.21l1.2,3a.963.963,0,0,0,.894.605h1.274V10.59A10.59,10.59,0,0,0,178.459,0Z" transform="translate(-92.884)" fill="#b48764"/>
      <path id="Trazado_209711" data-name="Trazado 209711" d="M167.869,10.59v2.888h1.274a.963.963,0,0,0,.894-.605l1.2-3a1.909,1.909,0,0,1,1.49-1.165A10.588,10.588,0,0,1,178.84.019c-.127,0-.252-.019-.381-.019A10.59,10.59,0,0,0,167.869,10.59Z" transform="translate(-92.884)" fill="#966d50"/>
    </g>
    <path id="Trazado_209700" data-name="Trazado 209700" d="M109.438,497.411H67.028a.964.964,0,0,1,0-1.928h42.41a.964.964,0,1,1,0,1.928Z" transform="translate(227.936 1020.589)" fill="#c39772"/>
    <path id="verificado" d="M13.908,3.979A1.479,1.479,0,0,0,12.429,2.5H3.98A1.479,1.479,0,0,0,2.5,3.979v8.45A1.479,1.479,0,0,0,3.98,13.908h8.45a1.479,1.479,0,0,0,1.479-1.479ZM5.814,8.8l1.2,1.2a.632.632,0,0,0,.9,0L10.6,7.308a.634.634,0,1,0-.9-.9L7.458,8.653,6.71,7.9a.634.634,0,1,0-.9.9Z" transform="translate(307.965 1499.631)" fill="#9f321d" fill-rule="evenodd"/>
  </g>
</svg>
