<svg xmlns="http://www.w3.org/2000/svg" xmlns:xlink="http://www.w3.org/1999/xlink" width="161.063" height="96.353" viewBox="0 0 161.063 96.353">
  <defs>
    <clipPath id="clip-path">
      <rect id="Rectángulo_42122" data-name="Rectángulo 42122" width="133.864" height="96.353" fill="none"/>
    </clipPath>
  </defs>
  <g id="Grupo_151282" data-name="Grupo 151282" transform="translate(-1068.937 -3749)">
    <g id="Grupo_151281" data-name="Grupo 151281" transform="translate(1068.937 3749)">
      <g id="Grupo_151270" data-name="Grupo 151270" clip-path="url(#clip-path)">
        <path id="Trazado_208619" data-name="Trazado 208619" d="M793.463,395.831h0" transform="translate(-746.685 -372.497)" fill="#ebf3fa"/>
        <path id="Trazado_208620" data-name="Trazado 208620" d="M27.27,96.309a24.7,24.7,0,0,1-16.544-6.425C.784,81.071-3.411,64.684,3.19,50.318c3.227-7,7.718-13.459,14.47-17.314a29.5,29.5,0,0,1,4.24-1.984c6.19-2.336,12.812-2.655,17.913-4.271a20.247,20.247,0,0,0,12.8-10.388C69.467-14.523,124.942.373,115.219,43.8c-2.1,9.363,4,14.064,9.771,19.4,3.332,3.084,6.557,6.381,8.034,10.911a17.288,17.288,0,0,1,.836,5.041c.155,7.52-4.043,13.958-9.9,16.271-2.718,1.074-4.527.914-7.382.913Z" transform="translate(0 0)" fill="#fff"/>
        <path id="Trazado_208621" data-name="Trazado 208621" d="M567.68,976.195v38.795H567.1l-7.514,0H548.576l-7.307,0H530.828l-5.462,0h-3.9l-13.824-.005h-4.27l-7.493,0h-.261l-4.956,0h-1.942V976.195Z" transform="translate(-459.913 -918.649)" fill="#071e42"/>
        <path id="Trazado_208622" data-name="Trazado 208622" d="M604.868,1184.885l-17.862-.007h-.232l-7.493,0c-.213-2.706-.429-5.432-.635-8.03-.567-7.123-1.066-13.279-1.237-15.391l-.063-.779,7.493-.457,12.431-3.467s.1.84.233,2.082c.252,2.318.63,6.037.726,8.309.148,3.487,3.3,13.461,5.977,16.785a8.754,8.754,0,0,1,.663.958" transform="translate(-543.311 -1088.563)" fill="#1c468a"/>
        <path id="Trazado_208623" data-name="Trazado 208623" d="M680.661,401.85s-7.29,3.517-11.492,2.212a9.917,9.917,0,0,1,2.845-2.276c-.145-.844-.259-1.576-.323-2.2a20.289,20.289,0,0,1-.178-2.244l2.812-2.212,2.667-2.117a10.747,10.747,0,0,0,3.669,8.833" transform="translate(-629.722 -369.849)" fill="#ffb27d"/>
        <path id="Trazado_208624" data-name="Trazado 208624" d="M714.456,429.087a9.661,9.661,0,0,1-5.35,4.3,20.288,20.288,0,0,1-.178-2.244l2.812-2.212Z" transform="translate(-667.138 -403.643)" fill="#ed985f"/>
        <path id="Trazado_208625" data-name="Trazado 208625" d="M665.513,283.964s6.954,1.138,7.607-3.138,1.99-7.008-2.422-7.915-5.526.6-6.1,1.971-.88,8.675.912,9.081" transform="translate(-625.005 -256.564)" fill="#ffb27d"/>
        <path id="Trazado_208626" data-name="Trazado 208626" d="M639.769,230.941c.063-.072.209-.131.533-.148a1.314,1.314,0,0,0-.605-.171,1.63,1.63,0,0,0-1.083-1.442.972.972,0,0,1,.471.7c-.9-.922-2.823-1.594-8.152-1.173-7.024.554-4.709,5.052-3.8,5.588s3.2-.934,4.892-.8,1.96,2.706,2.591,2.918c.357.121.631-.1,1.408-.451s.57.779.345,1.617.844,1.943.844,1.943l1.08-1.163c1.08-1.163,2.1-6.088,1.606-7.138l-.131-.281" transform="translate(-589.126 -215.105)" fill="#a9453d"/>
        <path id="Trazado_208627" data-name="Trazado 208627" d="M596.665,542.669c-.07-1.677-3.863-19.785-7.136-24.753-2.11-3.2-6.49-5.392-6.49-5.392-.291-.223-2.118.794-3.8,1.605a5.269,5.269,0,0,1-3.916.445s-1.576.988-2.065,1.369A13.093,13.093,0,0,0,568.7,523.1a79.418,79.418,0,0,0-1.358,13.273c-.113,2.419-.194,4.839-.226,7.146v.08c-.016.239-.016.478-.016.715-.081,5.905,0,10.6.113,10.68a.657.657,0,0,0,.436.175c1.584-.032,6.191.844,10.086.445a29.741,29.741,0,0,0,9.326-2.642c.421-.19,1.374-.7,1.358-1.146-.016-.509-.065-1.225-.129-2.148-.037-.523-.08-1.108-.121-1.749-.169-2.586-.341-6.084-.24-10.06,1.4,2.038,2.449,3.5,2.555,3.721.365.782-.211,12.945-.211,12.945.743,1.453,3.622,1.643,3.622,1.643s2.839-11.838,2.769-13.515" transform="translate(-533.641 -482.281)" fill="#1c468a"/>
        <path id="Trazado_208628" data-name="Trazado 208628" d="M663.958,367.694a13.045,13.045,0,0,0,5.972-.707l.312,3.539a5.464,5.464,0,0,1-2.142,1.854c-1.551.711-3.348,1.03-3.928-.739a19.916,19.916,0,0,1-.215-3.946" transform="translate(-624.807 -345.354)" fill="#d2e4ff"/>
        <path id="Trazado_208629" data-name="Trazado 208629" d="M762.681,360.049l-.043-.132a8.659,8.659,0,0,0,2.371-2.974c.183-.439.369-1.136.143-1.206-1.086-.341-2.78,1.013-2.59.8l.029-.2a3.847,3.847,0,0,1,2.693-.667c.262.082.046.915-.153,1.393a5.514,5.514,0,0,1-.892,1.563,6.8,6.8,0,0,1-1.559,1.425" transform="translate(-717.596 -334.628)" fill="#d2e4ff"/>
        <path id="Trazado_208630" data-name="Trazado 208630" d="M778.613,352.578c.118-1.245,1.332-1.659,1.73-1.273a1.72,1.72,0,0,1,.267.977,1.392,1.392,0,0,1-1.4,1.55s-.64-.825-.6-1.254" transform="translate(-732.714 -330.465)" fill="#ffb27d"/>
        <path id="Trazado_208631" data-name="Trazado 208631" d="M1485.1,131.619a3.368,3.368,0,0,0,1.24-.138,6.707,6.707,0,0,1,6.228.516c2.885,1.625,5.96,11.577,7.217,12.545s2.954,1.406,2.766,3.387-2.451,3.3-.943,4.558-.432,5.841-4.71,5.749-15.084-4.9-14.992-7.24.721-2.491,1.946-4.334-3.461-4.611-3.192-8.35c.243-3.385,2.759-6.814,4.44-6.694" transform="translate(-1393.364 -123.227)" fill="#a9453d"/>
        <path id="Trazado_208632" data-name="Trazado 208632" d="M1476.37,393.74c-2.2-4.934-3.252-6.329-3.289-7.881-.029-1.228.576-2.552,1.752-5.8a12.108,12.108,0,0,0,.586-2.348c.93-6.261-2.691-13.03-4.941-13.491-.626-.166-1.687-2.427-1.674-6.071l-.282.056-4.739.938s.108,1.491.111,2.9c0,1.171-.068,2.28-.333,2.42-.341.031-.542.051-.542.051s-3.951,5.487-4.283,10.59,3.164,7.32-.026,17.518c-3.257,10.416,18.877,3.848,17.661,1.121" transform="translate(-1372.411 -337.037)" fill="#ffb27d"/>
        <path id="Trazado_208633" data-name="Trazado 208633" d="M1550.007,360.028s.108,1.491.111,2.9c2.651-.075,4.053-2.494,4.627-3.834Z" transform="translate(-1458.636 -337.922)" fill="#e8945b"/>
        <path id="Trazado_208634" data-name="Trazado 208634" d="M1501.629,228.578s6.274.1,6.278-3.8.817-6.526-3.188-6.758-4.785,1.259-5.1,2.563.383,7.871,2.014,8" transform="translate(-1411.144 -205.142)" fill="#ffb27d"/>
        <path id="Trazado_208635" data-name="Trazado 208635" d="M1500.7,202.641s-3.795-3.118-5.855-1.056c-.43-.245-1.079-.273-1.9.718-1.454,1.763-.16,4.879-.16,4.879-.53-2.639.149-3.306.7-3.94a4,4,0,0,1,1.356-.833c.543,1.365,2.213,5.032,4.9,6.274a14.659,14.659,0,0,1-2.179-2.714,4.075,4.075,0,0,0,1.8,1.111c2.636.678,3.291-1.193,3.291-1.193s-1.534-.441-1.953-3.245" transform="translate(-1404.293 -189.038)" fill="#a9453d"/>
        <path id="Trazado_208636" data-name="Trazado 208636" d="M1437.155,494.827c-.251.79-1.114,1.15-3.2.935-1.274-.133-1.842-2.268-2.1-4.09-.766,2.607-1.837,4.07-3.223,4.377-2.021.45-12.218,1.69-12.885-3.157-.734-5.331-.514-23.338-.482-24.684.085-3.626.827-5.9,5.058-6.818.472-.1,1.134-.174,2.068-.3,0,0,.551-.065.542-.051-.172.309-2.652,3.827-2.472,4.727.189.941,8.379.094,8.944-.424s.386-4.563.386-4.563,7.222.27,8,1.841c3.473,7-.631,30.051-.571,31.261a2.8,2.8,0,0,1-.073.943" transform="translate(-1331.79 -433.619)" fill="#071e42"/>
        <path id="Trazado_208637" data-name="Trazado 208637" d="M1502.591,316.42a16.546,16.546,0,0,0,6.307-.3l.056,3.23s-5.185,3.248-5.913.594a32.57,32.57,0,0,1-.45-3.526" transform="translate(-1414.015 -297.488)" fill="#d2e4ff"/>
        <path id="Trazado_208638" data-name="Trazado 208638" d="M1604.372,311.82l-.03-.122a7.875,7.875,0,0,0,2.341-2.544c.193-.386.407-1.006.208-1.085-.963-.379-2.587.74-2.4.558l.039-.181a3.5,3.5,0,0,1,2.485-.432c.232.092-.017.833-.229,1.253a5.014,5.014,0,0,1-.909,1.36,6.191,6.191,0,0,1-1.505,1.192" transform="translate(-1509.768 -289.752)" fill="#d2e4ff"/>
        <path id="Trazado_208639" data-name="Trazado 208639" d="M1626.18,297.182c.187-1.121,1.315-1.419,1.651-1.043a1.564,1.564,0,0,1,.179.9,1.265,1.265,0,0,1-1.366,1.316s-.528-.789-.463-1.176" transform="translate(-1530.314 -278.537)" fill="#ffb27d"/>
        <path id="Trazado_208640" data-name="Trazado 208640" d="M942.733,82.934c-.367-.721-3.115-5.658-8.33-3.135-7.359,3.56-7.934,12.981-10.468,14.539-4.51,2.772.213,10.827,4.658,11.016s9.044-6.657,9.044-6.657l2.75-8.39,2.156-.152.432-1.393c1.348-3.341.627-4.962-.243-5.828" transform="translate(-867.751 -74.425)" fill="#071e42"/>
        <path id="Trazado_208641" data-name="Trazado 208641" d="M1066.56,318.056c-2.823-.033-10.5-.179-12.351-.795a4.243,4.243,0,0,1-2.8-3.222c0-.051.186-1.1.482-2.714a6.932,6.932,0,0,0,.9-2.775,4.5,4.5,0,0,0-.166-1.247c-.244-.951-.751-2.2-1.5-4.271a11.462,11.462,0,0,1-.557-2.233c-.885-5.957,2.56-12.4,4.7-12.834.6-.158,1.6-2.31,1.592-5.775l.269.053,4.508.893s-.1,1.419-.105,2.755c0,1.113.064,2.169.317,2.3.324.028.516.048.516.048l.013.017c.859.056,3.137.259,3.438.874l-.833,2.53-.242.736a19.348,19.348,0,0,1,1.527,4.559,12.111,12.111,0,0,1,.17,1.359,9.66,9.66,0,0,1,.01,1.107c-.18,4.129-2.779,6.625.016,15.558a4.6,4.6,0,0,1,.089,3.075" transform="translate(-988.51 -265.555)" fill="#ffb27d"/>
        <path id="Trazado_208642" data-name="Trazado 208642" d="M1164.64,294.882s-.1,1.419-.106,2.755a5.2,5.2,0,0,1-4.654-2.964Z" transform="translate(-1091.507 -277.302)" fill="#e8945b"/>
        <path id="Trazado_208643" data-name="Trazado 208643" d="M1154.134,164.595s-5.968.1-5.972-3.619-.777-6.209,3.033-6.429,4.552,1.2,4.855,2.438-.364,7.488-1.916,7.61" transform="translate(-1080.416 -145.415)" fill="#ffb27d"/>
        <path id="Trazado_208644" data-name="Trazado 208644" d="M933.513,425.476s5.4-13.048,5.112-22.525c-.032-1.069.023-3.9-.116-5.059.011-6.568-4.417-17.7-6.254-18.71a12.89,12.89,0,0,0-3.854-.6s.713,1.33,1.381,2.889a2.1,2.1,0,0,1-1.364,2.848l-.075.021a3.728,3.728,0,0,1-2-.109,5.37,5.37,0,0,1-3.566-3.487c-.582-1.767-.761-2.5-.761-2.5l-3.1.564h0a5.757,5.757,0,0,0-3.23,2.028c-1.376,2.071-5.429,12.69-7.061,23.041-.451,2.859,24.889,21.606,24.889,21.606" transform="translate(-855.056 -355.941)" fill="#a9453d"/>
        <path id="Trazado_208645" data-name="Trazado 208645" d="M1184.644,247.075a15.749,15.749,0,0,1-6-.283l-.053,3.074s4.935,3.091,5.628.565a31.038,31.038,0,0,0,.428-3.356" transform="translate(-1109.112 -232.244)" fill="#b6d7ff"/>
        <path id="Trazado_208646" data-name="Trazado 208646" d="M1142.871,235.733l.029-.116a7.494,7.494,0,0,1-2.228-2.422c-.185-.367-.47-1.479-.28-1.554.917-.361,2.544,1.226,2.367,1.052l-.037-.172c-.082-.037-1.365-1.26-2.329-.881-.221.087-.02,1.263.181,1.663a4.771,4.771,0,0,0,.866,1.294,5.886,5.886,0,0,0,1.433,1.135" transform="translate(-1073.076 -217.918)" fill="#b6d7ff"/>
        <path id="Trazado_208647" data-name="Trazado 208647" d="M1135.786,228.763c-.178-1.067-1.251-1.35-1.571-.993a1.49,1.49,0,0,0-.17.86,1.2,1.2,0,0,0,1.3,1.252s.5-.751.441-1.119" transform="translate(-1067.192 -214.205)" fill="#ffb27d"/>
        <path id="Trazado_208648" data-name="Trazado 208648" d="M1121.584,128.966c-.991-1.2-1.722-.829-2.092-.461.106-.247.162-.4.162-.4-1.317-2.219-5.787.838-5.787.838a7.59,7.59,0,0,1-2.483,4.484s1.163.718,3.843.029a5.382,5.382,0,0,0,2.752-2.231,13.258,13.258,0,0,1-2.862,3.806c3-1.385,4.2-5.551,4.318-5.992a4.679,4.679,0,0,1,1.3,1.735c.3.947.431,2.9,1,2.829,0,0,1.231-2.965-.153-4.642" transform="translate(-1045.87 -119.797)" fill="#071e42"/>
        <path id="Trazado_208649" data-name="Trazado 208649" d="M1281.473,770.624s-3.308,3.924-7.521,2.283a12.762,12.762,0,0,1-.919-3.807c0-.2,0-.392-.007-.575-.022-1.819-.084-2.84-.084-2.84h0c.192-.08,6.44-2.645,6.435-2.432-.107,4.921,2.092,7.373,2.092,7.373" transform="translate(-1197.904 -718.247)" fill="#ffb27d"/>
        <path id="Trazado_208650" data-name="Trazado 208650" d="M1278.754,782.623a9.773,9.773,0,0,1-5.728,4.1c-.022-1.819-.084-2.84-.084-2.84h0c.173-.046,5.987-1.588,5.807-1.259" transform="translate(-1197.904 -736.445)" fill="#ed975d"/>
        <path id="Trazado_208651" data-name="Trazado 208651" d="M1233.295,616.64s7.027,1.652,7.988-2.74,2.516-7.136-1.93-8.377-5.687.244-6.365,1.632-1.5,8.942.306,9.485" transform="translate(-1159.565 -569.392)" fill="#ffb27d"/>
        <path id="Trazado_208652" data-name="Trazado 208652" d="M1203.512,560.129c.1.061,1.608.526,4.471-5.178a4.968,4.968,0,0,0-.292-4.544c-1.048-1.712-4.763-3.057-7.85-3.643s-3.828,1.151-4.555,2.9A9.424,9.424,0,0,1,1192.32,553c2.662,1.487,5.868-.64,6.978-.29s1.5,2.1,1.586,2.661.342,1.235,2,.427c1.334-.649.236,2.078.012,2.553,0,0-.19,1.263.611,1.777" transform="translate(-1122.034 -514.424)" fill="#2a4e96"/>
        <path id="Trazado_208653" data-name="Trazado 208653" d="M1186.232,871.232c.042,2.327.177,4.943.36,7.6l.033.473c.117,1.646.243,3.3.388,4.9.058.645.12,1.283.185,1.909l.01.084c0,.234.033.489.059.721.593,6.026,1.214,10.787,1.33,10.86a.677.677,0,0,0,.463.118c1.58-.2,6.3.16,10.156-.68a29.268,29.268,0,0,0,9.034-3.746c.395-.233,1.294-.851,1.221-1.312-.072-.507-1.826-26.291-2.538-28.856-1.324-4.766-4.912-8.944-7.351-10.371-.319-.179-2.034.913-3.61,1.924a6.955,6.955,0,0,1-4.477,1.061l-1.311,1.45a14.643,14.643,0,0,0-3.74,7.8q-.052.387-.089.824a51.252,51.252,0,0,0-.123,5.241" transform="translate(-1116.292 -802.639)" fill="#2a4e96"/>
        <path id="Trazado_208654" data-name="Trazado 208654" d="M1231.1,711.839a15.435,15.435,0,0,0,6.45-.409l.119,3.551a5.465,5.465,0,0,1-2.24,1.735c-1.588.625-3.8.562-4.252-.976a19.266,19.266,0,0,1-.076-3.9" transform="translate(-1158.466 -669.492)" fill="#d2e4ff"/>
        <path id="Trazado_208655" data-name="Trazado 208655" d="M1336.885,706.2l-.036-.134a8.655,8.655,0,0,0,2.53-2.84c.206-.428.43-1.114.209-1.2-1.066-.4-2.832.86-2.63.656l.04-.2a3.848,3.848,0,0,1,2.726-.519c.257.1,0,.917-.229,1.383a5.51,5.51,0,0,1-.976,1.512,6.811,6.811,0,0,1-1.634,1.338" transform="translate(-1258.043 -660.486)" fill="#d2e4ff"/>
        <path id="Trazado_208656" data-name="Trazado 208656" d="M1354.248,698.9c.186-1.236,1.42-1.584,1.8-1.177a1.721,1.721,0,0,1,.213.99,1.392,1.392,0,0,1-1.479,1.471s-.594-.858-.531-1.285" transform="translate(-1274.413 -656.439)" fill="#ffb27d"/>
        <path id="Trazado_208657" data-name="Trazado 208657" d="M346.07,663.814s3.308,3.925,7.521,2.283a12.762,12.762,0,0,0,.919-3.808c0-.2,0-.392.007-.575.023-1.819.084-2.84.084-2.84h0c-.192-.08-6.44-2.645-6.435-2.432.107,4.921-2.092,7.373-2.092,7.373" transform="translate(-325.67 -617.733)" fill="#ffb27d"/>
        <path id="Trazado_208658" data-name="Trazado 208658" d="M392.131,675.813a9.773,9.773,0,0,0,5.728,4.1c.023-1.819.084-2.84.084-2.84h0c-.173-.046-5.987-1.588-5.807-1.259" transform="translate(-369.012 -635.931)" fill="#ed975d"/>
        <path id="Trazado_208659" data-name="Trazado 208659" d="M368.456,509.831s-7.027,1.652-7.988-2.74-2.516-7.136,1.93-8.377,5.687.244,6.365,1.632,1.5,8.942-.306,9.485" transform="translate(-338.216 -468.878)" fill="#ffb27d"/>
        <path id="Trazado_208660" data-name="Trazado 208660" d="M303.539,449.5c-.1.061-1.608.526-4.471-5.178a4.968,4.968,0,0,1,.292-4.544c1.048-1.712,5.066-5.1,7.85-3.643a13.927,13.927,0,0,0,4.805,1.563c1.281,3.979-3.151,4.035-4.262,4.384s-1.5,2.1-1.586,2.661-.211,1.027-1.608.526-.632,1.979-.408,2.453c0,0,.19,1.263-.611,1.777" transform="translate(-281.047 -410.091)" fill="#071e42"/>
        <path id="Trazado_208661" data-name="Trazado 208661" d="M269.744,1406.493s-.157,1.959-.405,5.079c-.161,2.029-.361,4.549-.58,7.341a48.329,48.329,0,0,1-6.443-.181,24.041,24.041,0,0,1-6.434-1.71,24.743,24.743,0,0,1-2.388-1.159c-.158-2.793-.295-5.236-.395-7.052-.116-2.1-.184-3.36-.184-3.36l9.278.574Z" transform="translate(-238.007 -1322.603)" fill="#2b478b"/>
        <path id="Trazado_208662" data-name="Trazado 208662" d="M200.209,1359.906s-.619,1.553-1.66,4.092c-.792,1.931-1.827,4.433-3.018,7.255a24.912,24.912,0,0,1-13.583-6.245c.1-1.711.3-3.974.5-5.917.228-2.265.439-4.093.439-4.093l12.526,3.548Z" transform="translate(-171.221 -1275.123)" fill="#2b478b"/>
        <path id="Trazado_208663" data-name="Trazado 208663" d="M206.218,760.407c-.042,2.327-.177,4.943-.36,7.6l-.033.473c-.117,1.646-.243,3.3-.388,4.9q-.087.968-.185,1.909l-.01.084c-.005.234-.033.489-.06.721-.593,6.026-1.214,10.787-1.33,10.86a.676.676,0,0,1-.463.118c-1.58-.2-6.3.16-10.156-.68a29.269,29.269,0,0,1-9.034-3.746c-.394-.233-1.294-.851-1.221-1.312.072-.507,1.6-25.466,2.284-28.039a18.077,18.077,0,0,1,8.619-11.459,13.139,13.139,0,0,0,2.6,2.195c1.455.933,2.777.628,4.267.5l1.521,2.013a14.644,14.644,0,0,1,3.74,7.8q.052.387.089.824a51.237,51.237,0,0,1,.123,5.241" transform="translate(-172.188 -698.11)" fill="#a9453d"/>
        <path id="Trazado_208664" data-name="Trazado 208664" d="M425.53,604.331a15.72,15.72,0,0,1-6.488-.419l-.119,3.551a5.464,5.464,0,0,0,2.24,1.735c1.588.625,3.8.562,4.252-.975a19.887,19.887,0,0,0,.115-3.891" transform="translate(-394.228 -568.312)" fill="#d2e4ff"/>
        <path id="Trazado_208665" data-name="Trazado 208665" d="M378.085,598.686l.035-.134a8.657,8.657,0,0,1-2.529-2.84c-.206-.428-.43-1.114-.209-1.2,1.066-.4,2.831.86,2.63.656l-.04-.2a3.847,3.847,0,0,0-2.726-.519c-.257.1,0,.917.229,1.383a5.516,5.516,0,0,0,.976,1.512,6.8,6.8,0,0,0,1.634,1.338" transform="translate(-353.025 -559.306)" fill="#d2e4ff"/>
        <path id="Trazado_208666" data-name="Trazado 208666" d="M376.14,591.38c-.185-1.236-1.42-1.584-1.8-1.177a1.72,1.72,0,0,0-.213.99,1.392,1.392,0,0,0,1.479,1.471s.594-.858.53-1.285" transform="translate(-352.075 -555.259)" fill="#ffb27d"/>
        <path id="Trazado_208667" data-name="Trazado 208667" d="M499.133,762.81c.149-.289,1.869-3.346,6.768-1.239,0,0-2.5-.835-3.4.014,0,0,2.221-.527,3.341.507s.806,3.7.456,4.462-2.231,2.859-3.163,2.673a2.815,2.815,0,0,1-1.011-.475,12.574,12.574,0,0,1,.1,1.461c.062,4.856-3.741,7.78-5.169,6.585-.915-.766-2.051.877-2.051.877l-6.274-13s7.363-5.955,10.407-1.867" transform="translate(-459.916 -715.984)" fill="#071e42"/>
        <path id="Trazado_208668" data-name="Trazado 208668" d="M244.087,1178.088a24.337,24.337,0,0,1-13.688-4.212c2.094-6.32,7.431-22.049,9.059-23.17,1.123-.774,3.722-1.049,6.015-1.132,2.237-.081,4.182.021,4.182.021s1.668,0,3.8.243h0l.071.008h.011c2.4.276,5.364.852,7.193,2.059,1.612,1.063,7.31,22.623,8.243,26.191Z" transform="translate(-216.817 -1081.779)" fill="#fecd4d"/>
        <path id="Trazado_208669" data-name="Trazado 208669" d="M480.911,1022.563c-.778-1.28-1.329-4.273-1.066-8.269l-.5.837-5.919.8s.019,1.849-.085,3.582a9.185,9.185,0,0,1-.535,2.919c-.022,0-.022,0,0,.006-.09.153-2.01,3.474.538,4.082,6.918,1.653,7.539-3.684,7.565-3.943.022,0,.024-.006,0-.011" transform="translate(-444.203 -954.503)" fill="#ffb27d"/>
        <path id="Trazado_208670" data-name="Trazado 208670" d="M494.438,1029.3s.019,1.848-.085,3.582c3.278.111,5.192-2.767,6-4.378Z" transform="translate(-465.212 -967.871)" fill="#ed975d"/>
        <path id="Trazado_208671" data-name="Trazado 208671" d="M447.288,852.5s7.582,1.641,8.531-3.1,2.567-7.716-2.234-8.964-6.106.371-6.808,1.875-1.437,9.637.51,10.186" transform="translate(-419.745 -790.481)" fill="#ffb27d"/>
        <path id="Trazado_208672" data-name="Trazado 208672" d="M445.39,949.8a17.486,17.486,0,0,0,7.326-.456l.135,4.026a6.2,6.2,0,0,1-2.54,1.966c-1.8.709-4.312.637-4.821-1.106a22.15,22.15,0,0,1-.1-4.43" transform="translate(-419.069 -893.382)" fill="#d2e4ff"/>
        <path id="Trazado_208673" data-name="Trazado 208673" d="M565.416,943.421l-.04-.152a9.815,9.815,0,0,0,2.868-3.22c.234-.485.487-1.263.237-1.357-1.208-.454-3.21.975-2.982.744l.045-.226c.106-.05,1.82-1.066,3.09-.588.292.109,0,1.039-.259,1.567a6.246,6.246,0,0,1-1.107,1.714,7.713,7.713,0,0,1-1.853,1.517" transform="translate(-532.048 -883.172)" fill="#d2e4ff"/>
        <path id="Trazado_208674" data-name="Trazado 208674" d="M447.037,823.665c1.46-1.191,2.286-.7,2.7-.174a5.422,5.422,0,0,1,6.619,2.456,9.23,9.23,0,0,0,1.9,5.938s-1.557.58-4.59-.879a5.54,5.54,0,0,1-2.233-2.3,18.1,18.1,0,0,0,2.311,4.339c-3.466-2.526-3.942-8.141-3.983-8.733a6.078,6.078,0,0,0-2.1,1.88c-.62,1.131-1.285,3.581-1.992,3.352,0,0-.816-4.091,1.373-5.877" transform="translate(-419.253 -774.418)" fill="#071e42"/>
        <path id="Trazado_208675" data-name="Trazado 208675" d="M912.992,824.423c0,.059.187,2.529.128,4.559-.01.359-.028.7-.057,1h7.542a9.226,9.226,0,0,1-.913-2.54,16.613,16.613,0,0,1-.3-1.765,21.164,21.164,0,0,1-.135-2.5Z" transform="translate(-859.172 -774.659)" fill="#ffb27d"/>
        <path id="Trazado_208676" data-name="Trazado 208676" d="M857.987,607.273h0a6.969,6.969,0,0,0-2.627-.077,6.832,6.832,0,0,0-4.771,2.329c-1.036,1.263.613,10.388-.835,13.221-.129.252.726.358,1.076.358,0,0,.512-.2.613-.478a1.823,1.823,0,0,1-.232.586s2.817.267,4.223-.8a8.344,8.344,0,0,0,2.142-3.317l2.13.15a4.271,4.271,0,0,1-1.33,3.059s2.628.258,3.517-.47a2.449,2.449,0,0,1-.337.514s2.938.106,4.151-.811.434-15.948-7.721-14.267" transform="translate(-799.65 -571.321)" fill="#071e42"/>
        <path id="Trazado_208677" data-name="Trazado 208677" d="M912.993,825.479s.135,1.862.139,3.617c3.312-.093,5.062-3.114,5.779-4.789Z" transform="translate(-859.173 -775.715)" fill="#ed975d"/>
        <path id="Trazado_208678" data-name="Trazado 208678" d="M852.573,661.311s7.835.129,7.841-4.751,1.02-8.151-3.982-8.44-5.976,1.572-6.374,3.2.478,9.831,2.516,9.99" transform="translate(-799.859 -609.886)" fill="#ffb27d"/>
        <path id="Trazado_208679" data-name="Trazado 208679" d="M844.84,639.548a6.919,6.919,0,0,0-1.993,2.521c-.391,1.243-.566,3.8-1.312,3.714,0,0-1.616-3.892.2-6.093,1.926-2.335,3.1-.142,3.1-.142" transform="translate(-791.304 -600.969)" fill="#071e42"/>
        <path id="Trazado_208680" data-name="Trazado 208680" d="M802.742,1423.39l-5.462,0h-3.9l-13.824-.005H777.67a26.094,26.094,0,0,1,.871-4.775c1.264-4.14,2.017-6.638,2.306-7.6l.091-.3h0l.045-.152a35.708,35.708,0,0,0,12.4.553,23.955,23.955,0,0,0,2.752-.571h0q.567-.154,1.127-.34h0l.07.15c.552,1.178,4.194,9.008,5.255,12.518q.076.253.157.529" transform="translate(-731.827 -1327.064)" fill="#031530"/>
        <path id="Trazado_208681" data-name="Trazado 208681" d="M827.9,936.054a11.28,11.28,0,0,1-2.276-3.373c-.427-1.419-3.3-11.407-3.883-14.2-.105-.506-.165-.8-.165-.8v0l0,.009,0,.006-.011.026-.015.035-.013.033-.009.021c-.294.7-1.311,3.163-1.518,3.785a1.26,1.26,0,0,0-.081.288c-.044.342-.064.732-.077.95v0c0,.011,0,.018,0,.018s-8.679,4.38-16.277.357c0,0-.023-.188-.065-.531h0c-.044-.364-.109-.9-.188-1.578-.322-2.752-.882-7.762-1.258-12.387a.005.005,0,0,1,0,0c-.1-1.264-.192-2.5-.258-3.65h0s0,0,0,0a25.294,25.294,0,0,1,.1-6.411c.443-1.313,4.038-2.137,5.469-2.416a1.7,1.7,0,0,0,.142-1.444.639.639,0,0,1,.782-.758l.065.016a8.363,8.363,0,0,0,4.162-.39,10.2,10.2,0,0,0,2.585-1.263.394.394,0,0,1,.612.279c.131,1.065.453,3.008,1.04,3.008.808,0,6.326.673,6.731,1.355.141.238,1.575,3.483,3.386,7.783a.053.053,0,0,1,0,.011l.1.243c3.433,8.107,10.227,22.156,10.227,24.732,0,1.353-1.52,4.267-3.192,6.247Z" transform="translate(-754.411 -839.727)" fill="#d2e4ff"/>
        <path id="Trazado_208682" data-name="Trazado 208682" d="M1010.046,1147.818s-1.6,3.817-1.649,4.172c-.023.16-.042.38-.057.574a7.881,7.881,0,0,1-2.66,1.4c-2.705.82-3.881-4.366-3.719-6.954s3.988-9.973,5.262-10.127,2.823,10.935,2.823,10.935" transform="translate(-942.883 -1069.864)" fill="#b6dbff"/>
        <path id="Trazado_208683" data-name="Trazado 208683" d="M1139.525,1323.215c-.105-.506-.165-.8-.165-.8a4.073,4.073,0,0,1,.165.8" transform="translate(-1072.196 -1244.458)" fill="#e58638"/>
        <path id="Trazado_208684" data-name="Trazado 208684" d="M835.063,1383.5c-4.939,0-6.92-1.67-7.071-1.786l-.319-2.326c.047.035,6.674,4.014,16.93.2l-.217,1.762c-3.944,1.466-6.757,2.146-9.322,2.146" transform="translate(-778.883 -1298.073)" fill="#a9453d"/>
        <path id="Trazado_208685" data-name="Trazado 208685" d="M1239.643,1129.459c0,1.353-1.52,4.267-3.192,6.247h-1.607c.317-8.6-5.384-30.737-5.531-31.221l.1.243c3.433,8.107,10.228,22.156,10.228,24.732" transform="translate(-1156.847 -1039.376)" fill="#b6dbff"/>
        <path id="Trazado_208686" data-name="Trazado 208686" d="M937.579,895.686s-4.132,2.617-7.258,2c0,0-.75-.474.285-.951.972-.446,3.233-1.768,2.736-3.071a10.2,10.2,0,0,0,2.584-1.263.4.4,0,0,1,.613.28c.131,1.064.453,3.008,1.04,3.008" transform="translate(-875.232 -839.729)" fill="#b6dbff"/>
        <path id="Trazado_208687" data-name="Trazado 208687" d="M855.339,770.456a19.9,19.9,0,0,0,7.519-1.074l.434,3.861s-5.839,4.479-7.013,1.385a39.215,39.215,0,0,1-.94-4.172" transform="translate(-804.918 -724.028)" fill="#eef6ff"/>
        <path id="Trazado_208688" data-name="Trazado 208688" d="M980.063,760.944l-.05-.143a9.469,9.469,0,0,0,2.514-3.313c.188-.484.373-1.251.125-1.323-1.2-.345-3.013,1.181-2.811.941l.026-.221c.1-.056,1.669-1.162,2.927-.8.289.083.074,1-.131,1.527a6.028,6.028,0,0,1-.934,1.732,7.434,7.434,0,0,1-1.667,1.6" transform="translate(-922.066 -711.448)" fill="#eef6ff"/>
        <path id="Trazado_208689" data-name="Trazado 208689" d="M1002.863,742.482c.1-1.364,1.413-1.849,1.858-1.437a1.881,1.881,0,0,1,.317,1.061,1.522,1.522,0,0,1-1.486,1.731s-.722-.885-.689-1.355" transform="translate(-943.745 -697.228)" fill="#ffb27d"/>
        <path id="Trazado_208690" data-name="Trazado 208690" d="M903.122,632.848s1.528,6,5.682,7.916c0,0-4.154-3.684-4.507-7.642s-1.176-.274-1.176-.274" transform="translate(-849.884 -594.076)" fill="#071e42"/>
        <path id="Trazado_208691" data-name="Trazado 208691" d="M899.151,630.733s2.145,5.726,5.438,6.573,4.72-.036,4.72-.036a9.323,9.323,0,0,1-3.049-5.508s-5.49-3.754-7.108-1.029" transform="translate(-846.147 -592.618)" fill="#071e42"/>
        <path id="Trazado_208692" data-name="Trazado 208692" d="M1615.923,617.058s-6.179.359-6.349,7.255,7.625,23.643,7.625,23.643l14.865-1.659s-4.594-31.863-16.141-29.239" transform="translate(-1514.69 -580.538)" fill="#1c468a"/>
        <path id="Trazado_208693" data-name="Trazado 208693" d="M1598.981,887.448l-13.941-.005-2.669,0h-3.781a6.439,6.439,0,0,1,.235-3.7,35.758,35.758,0,0,0,1.537-7.635q.039-.445.064-.879c.474-7.874-2-13.357-1.677-18.167.283-4.176,4.153-7.392,5.118-8.132.139-.107.217-.162.217-.162s.388-.078.814-.116c.259-.137.364-1.079.4-2.183.009-.306.012-.625.011-.943,0-.65-.021-1.314-.045-1.894,0-.04,0-.078-.005-.117-.04-.927-.089-1.609-.089-1.609l4.433-.878.545-.108h0l.387-.076.556-.11.352-.07v0a19.252,19.252,0,0,0,.43,4.264,6.289,6.289,0,0,0,1.426,3.191.722.722,0,0,0,.187.113.4.4,0,0,0,.05.017c1.858.381,4.464,4.2,5.684,9.009a20.225,20.225,0,0,1,.492,7.852,15.128,15.128,0,0,1-.732,2.934c-.164.452-.318.875-.464,1.271l-.078.211a32.175,32.175,0,0,0-1.564,4.755.082.082,0,0,1,0,.009,5.37,5.37,0,0,0-.072.586c-.009.135-.013.267-.01.4v0a.16.16,0,0,0,0,.017c.046,1.94,1.361,3.683,4.111,9.849.291.654-.491,1.484-1.917,2.307" transform="translate(-1485.37 -791.105)" fill="#ffb27d"/>
        <path id="Trazado_208694" data-name="Trazado 208694" d="M1692.929,843.012s.135,1.864.139,3.619c3.314-.093,5.065-3.116,5.783-4.792Z" transform="translate(-1593.133 -792.214)" fill="#ed975d"/>
        <path id="Trazado_208695" data-name="Trazado 208695" d="M1632.467,678.729s7.84.129,7.846-4.755,1.021-8.156-3.985-8.446-5.98,1.573-6.379,3.2.478,9.837,2.518,10" transform="translate(-1533.778 -626.269)" fill="#ffb27d"/>
        <path id="Trazado_208696" data-name="Trazado 208696" d="M1844.352,1005.314a12.98,12.98,0,0,1-3.519.852c-.6-1.055-1.241-2.2-1.866-3.341-1.747-3.2-3.373-6.436-3.678-7.886-.231-1.091-.795-3.276-1.454-5.722-.1-.37-.2-.746-.3-1.125h0q-.127-.469-.257-.942c-1.24-4.541-2.562-9.2-2.562-9.2h0l-.342-1.482-.237-1.028-1.91-8.271-.067-.289.159.017h0l.313.038a24.732,24.732,0,0,1,5.526,1.257,2.752,2.752,0,0,1,1.487,1.1,37.989,37.989,0,0,1,1.915,6.373c.93,3.994,1.791,8.8,2.476,12.665.636,3.588,1.121,6.373,1.374,6.963.332.776.987,3.2,1.781,6.011q.117.418.24.848c.3,1.039.606,2.113.924,3.163" transform="translate(-1720.389 -909.883)" fill="#d9935c"/>
        <path id="Trazado_208697" data-name="Trazado 208697" d="M1584.213,1440.294c-1.337-4.032-5.164-12.157-5.164-12.157h0l0,0c-.371.124-.745.236-1.121.337h0a23.845,23.845,0,0,1-2.757.573,35.739,35.739,0,0,1-12.4-.554l-.137.455c-.289.963-1.042,3.464-2.307,7.606a23.362,23.362,0,0,0-.75,3.729Z" transform="translate(-1467.632 -1343.95)" fill="#a9453d"/>
        <path id="Trazado_208698" data-name="Trazado 208698" d="M1597.849,922.424a.046.046,0,0,0,0-.011c-1.812-4.3-3.248-7.551-3.388-7.789-.4-.683-5.926-1.361-6.735-1.356-.587,0-.909-1.945-1.04-3.01a.4.4,0,0,0-.614-.28,10.2,10.2,0,0,1-2.586,1.264,8.245,8.245,0,0,1-4.23.374.64.64,0,0,0-.783.759,1.693,1.693,0,0,1-.142,1.445c-1.433.279-5.03,1.1-5.473,2.418a16.176,16.176,0,0,0-.343,8.776c.374,6.336,2.012,15.8,2.012,15.8,7.6,4.026,16.288-.358,16.288-.358s.01-.194.026-.429c.015-.194.034-.414.057-.574.05-.356,1.651-4.175,1.651-4.175s.06.3.165.8c.586,2.793,2.593,11.969,3.824,12.794.714.477,3,.486,5.138-.1,2.228-.608,4.3-1.859,4.3-3.9,0-2.6-4.724-14.385-8.125-22.457" transform="translate(-1479.393 -856.272)" fill="#f99746"/>
        <path id="Trazado_208699" data-name="Trazado 208699" d="M1790.05,1165.576s-1.6,3.819-1.651,4.175c-.023.16-.042.38-.057.574a7.888,7.888,0,0,1-2.662,1.4c-2.708.821-3.884-4.369-3.722-6.958s3.991-9.98,5.266-10.134,2.826,10.943,2.826,10.943" transform="translate(-1676.901 -1086.568)" fill="#e58033"/>
        <path id="Trazado_208700" data-name="Trazado 208700" d="M1919.619,1341.095c-.105-.507-.165-.8-.165-.8a4.1,4.1,0,0,1,.165.8" transform="translate(-1806.305 -1261.284)" fill="#e58638"/>
        <path id="Trazado_208701" data-name="Trazado 208701" d="M2017.6,1144.667c0,2.036-2.076,3.287-4.3,3.9,3.071-3.657-3.649-25.787-3.821-26.352,3.4,8.072,8.125,19.853,8.125,22.457" transform="translate(-1891.016 -1056.057)" fill="#e58033"/>
        <path id="Trazado_208702" data-name="Trazado 208702" d="M1717.532,913.268s-4.135,2.618-7.263,2c0,0-.751-.474.285-.952.972-.447,3.235-1.769,2.738-3.073a10.2,10.2,0,0,0,2.586-1.264.4.4,0,0,1,.613.28c.131,1.065.453,3.01,1.04,3.01" transform="translate(-1609.204 -856.271)" fill="#e58033"/>
        <path id="Trazado_208703" data-name="Trazado 208703" d="M1629.857,637.616s1.448-3.062,5.272,3.308a4.039,4.039,0,0,0,3.292,1.248c3.591-1.208,2.589,3.587,2.589,3.587s.347-12.312-2.666-12.538-8.487,4.4-8.487,4.4" transform="translate(-1533.779 -595.886)" fill="#1c468a"/>
        <path id="Trazado_208704" data-name="Trazado 208704" d="M1627.085,666.557s-1.681,1.087-4.12,4.816c0,0-.151-3.428,1.281-4.295a4.061,4.061,0,0,1,2.839-.522" transform="translate(-1527.289 -627.201)" fill="#1c468a"/>
        <path id="Trazado_208705" data-name="Trazado 208705" d="M1633.823,792.885s4.1,1.387,7.516,0l.481,3.809s-5.837,3.938-7.039.9a40.613,40.613,0,0,1-.958-4.705" transform="translate(-1537.511 -746.146)" fill="#d2e4ff"/>
        <path id="Trazado_208706" data-name="Trazado 208706" d="M1758.657,784.056l-.051-.14a9.363,9.363,0,0,0,2.439-3.308c.179-.481.352-1.241.105-1.308-1.187-.325-2.961,1.208-2.764.968l.023-.219c.1-.057,1.633-1.171,2.881-.83.286.078.087.987-.108,1.51a5.96,5.96,0,0,1-.9,1.724,7.351,7.351,0,0,1-1.625,1.6" transform="translate(-1654.717 -733.225)" fill="#d2e4ff"/>
        <path id="Trazado_208707" data-name="Trazado 208707" d="M1775.145,769.791c.077-1.349,1.371-1.846,1.816-1.445a1.858,1.858,0,0,1,.328,1.044,1.5,1.5,0,0,1-1.445,1.73s-.725-.864-.7-1.329" transform="translate(-1670.502 -722.926)" fill="#ffb27d"/>
        <path id="Trazado_208708" data-name="Trazado 208708" d="M1283.448,1007.7a10.018,10.018,0,0,0-6.616,1.4c-3.039,2.026-3.479,12-5.012,13.013s-8.1,3.662-6.572,7.636-1.135,5.767-.23,8.492,23.312,5.379,25.043,3.431,3.143-8.432,2.2-10.177-5.072-3.281-3.568-5.047c4.21-4.942,2.634-19.243-5.249-18.75" transform="translate(-1190.265 -948.211)" fill="#a9453d"/>
        <path id="Trazado_208709" data-name="Trazado 208709" d="M1432.759,1278.245a13.858,13.858,0,0,1-4.5,2.736c-7.143,2.78-10.881-3.056-12.567-7.19a6.419,6.419,0,0,1,2.392-1.132l.328-.085a2.822,2.822,0,0,0,2.023-1.923,16.919,16.919,0,0,0,.475-5.962l.361.043,6.056.749s0,1.89.125,3.659a18.2,18.2,0,0,0,.238,2.052,1.22,1.22,0,0,0,1.09.983h0a.015.015,0,0,0,0,.005,37.861,37.861,0,0,1,3.972,6.064" transform="translate(-1332.24 -1190.137)" fill="#ffb27d"/>
        <path id="Trazado_208710" data-name="Trazado 208710" d="M1290.809,1405.984c.59-2.211,2.814-10.139,4.437-11.712,1.566-1.517,5.2-2.077,5.315-2.094h0s.059.194.16.51a33.124,33.124,0,0,0,1.69,4.446,1.944,1.944,0,0,0,.4.56,15.5,15.5,0,0,0,4.474.512c.176.005.354.009.533.012,2.991.057,6.216-.143,6.3-.808.149-1.182-2.746-5.545-2.855-5.71a.016.016,0,0,1,0-.005,14.172,14.172,0,0,1,5.456,1.246c3.332,3.37,4.752,8.191,5.184,13.055Z" transform="translate(-1214.718 -1309.656)" fill="#071e42"/>
        <path id="Trazado_208711" data-name="Trazado 208711" d="M1516.424,1266.186s0,1.889.125,3.659c-3.348.148-5.335-2.771-6.181-4.408Z" transform="translate(-1421.334 -1190.841)" fill="#ed985f"/>
        <path id="Trazado_208712" data-name="Trazado 208712" d="M1495.736,1095.044s-7.9.7-8.258-4.22-1.626-8.149,3.4-8.806,6.145,1.149,6.665,2.763.238,9.953-1.807,10.263" transform="translate(-1399.408 -1018.104)" fill="#ffb27d"/>
        <path id="Trazado_208713" data-name="Trazado 208713" d="M1538.067,1200.132a17.291,17.291,0,0,1-7.949-.333l-.148,4.409a6.18,6.18,0,0,0,2.481,1.609c1.971.776,4.221.746,4.949-1.1a18.124,18.124,0,0,0,.667-4.58" transform="translate(-1439.78 -1129.073)" fill="#d2e4ff"/>
        <path id="Trazado_208714" data-name="Trazado 208714" d="M1479.266,1193.311l.044-.166a10.75,10.75,0,0,1-3.14-3.526c-.256-.531-.534-1.383-.26-1.486,1.323-.5,3.516,1.068,3.265.815l-.05-.248c-.116-.055-1.993-1.167-3.384-.645-.319.12.005,1.138.284,1.717a6.851,6.851,0,0,0,1.212,1.877,8.444,8.444,0,0,0,2.029,1.661" transform="translate(-1388.623 -1117.89)" fill="#d2e4ff"/>
        <path id="Trazado_208715" data-name="Trazado 208715" d="M1476.851,1184.24c-.23-1.535-1.763-1.967-2.231-1.461a2.136,2.136,0,0,0-.265,1.229,1.728,1.728,0,0,0,1.837,1.827s.738-1.066.659-1.595" transform="translate(-1387.444 -1112.866)" fill="#ffb27d"/>
        <path id="Trazado_208716" data-name="Trazado 208716" d="M1459.284,1066.734c-1.329-1.393-2.229-1-2.714-.518a5.54,5.54,0,0,0-7.022,1.652,9.432,9.432,0,0,1-2.673,5.78s1.505.785,4.765-.31a5.66,5.66,0,0,0,2.556-2.052,18.5,18.5,0,0,1-2.893,4.107c3.835-2.122,5.027-7.756,5.144-8.351a3.345,3.345,0,0,1,3.051,2.335,10.855,10.855,0,0,1,.435,3.488s1.346-4.045-.648-6.133" transform="translate(-1361.583 -1002.778)" fill="#a9453d"/>
      </g>
    </g>
    <g id="office-building" transform="translate(1135.869 3751.247)">
      <path id="Trazado_208737" data-name="Trazado 208737" d="M2.059,382.112c.906-.005,1.872-.008,2.907-.008,2.886,0,5.529,1.279,6.6,4.438a6.569,6.569,0,1,1,0,13.139h-9.5V382.112Z" transform="translate(75.622 -311.909)" fill="#89c627"/>
      <path id="Trazado_208738" data-name="Trazado 208738" d="M438.6,382.112c-.906-.005-1.872-.008-2.907-.008-2.886,0-5.529,1.279-6.6,4.438a6.569,6.569,0,1,0,0,13.139h9.5V382.112Z" transform="translate(-422.147 -311.909)" fill="#89c627"/>
      <path id="Trazado_208739" data-name="Trazado 208739" d="M203.828,196.945h43.728V136.551a2.465,2.465,0,0,0-2.465-2.465h-38.8a2.465,2.465,0,0,0-2.465,2.465v60.393Z" transform="translate(-190.899 -109.489)" fill="#688b96"/>
      <path id="Trazado_208740" data-name="Trazado 208740" d="M316.5,190.314h15.213v-9.375H316.5a1.264,1.264,0,0,0-1.264,1.264v6.847A1.265,1.265,0,0,0,316.5,190.314Z" transform="translate(-295.539 -147.728)" fill="#97e4f9"/>
      <path id="Trazado_208741" data-name="Trazado 208741" d="M316.5,284.9h15.213v-9.375H316.5a1.264,1.264,0,0,0-1.264,1.264v6.847A1.265,1.265,0,0,0,316.5,284.9Z" transform="translate(-295.539 -224.923)" fill="#97e4f9"/>
      <path id="Trazado_208742" data-name="Trazado 208742" d="M316.5,379.482h15.213v-9.375H316.5a1.264,1.264,0,0,0-1.264,1.264v6.847a1.265,1.265,0,0,0,1.264,1.264Z" transform="translate(-295.539 -302.117)" fill="#97e4f9"/>
      <path id="Trazado_208743" data-name="Trazado 208743" d="M393.917,134.086h6.768a2.465,2.465,0,0,0-2.465,2.465v60.393h-6.768V136.551A2.465,2.465,0,0,1,393.917,134.086Z" transform="translate(-378.523 -109.489)" fill="#557981"/>
      <path id="Trazado_208744" data-name="Trazado 208744" d="M83.93,87.752h44.086V2.761A2.465,2.465,0,0,0,125.551.3H86.4A2.465,2.465,0,0,0,83.93,2.761Z" transform="translate(-49.316 -0.296)" fill="#daeaef"/>
      <path id="Trazado_208745" data-name="Trazado 208745" d="M276.023.3h6.758a2.465,2.465,0,0,0-2.465,2.465v84.99h-6.758V2.761A2.465,2.465,0,0,1,276.023.3Z" transform="translate(-238.944 -0.296)" fill="#c9e2e7"/>
      <path id="Trazado_208746" data-name="Trazado 208746" d="M1.964,464.909h90.2a1.964,1.964,0,0,1,1.964,1.964v4.675a1.964,1.964,0,0,1-1.964,1.964H1.964A1.964,1.964,0,0,1,0,471.548v-4.675A1.964,1.964,0,0,1,1.964,464.909Z" transform="translate(0 -379.49)" fill="#0e80ac"/>
      <path id="Trazado_208747" data-name="Trazado 208747" d="M169.417,364.7h11.148a.825.825,0,0,1,.825.825v17.6h-12.8v-17.6A.825.825,0,0,1,169.417,364.7Z" transform="translate(-118.254 -297.706)" fill="#557981"/>
      <g id="Grupo_151280" data-name="Grupo 151280" transform="translate(41.366 7.199)">
        <path id="Trazado_208748" data-name="Trazado 208748" d="M186.819,45.854h4.749a.825.825,0,0,0,.825-.825V40.28a.825.825,0,0,0-.825-.825h-4.749a.825.825,0,0,0-.825.825v4.749A.825.825,0,0,0,186.819,45.854Z" transform="translate(-173.823 -39.455)" fill="#97e4f9"/>
        <path id="Trazado_208749" data-name="Trazado 208749" d="M253.018,45.854h4.749a.825.825,0,0,0,.825-.825V40.28a.825.825,0,0,0-.825-.825h-4.749a.825.825,0,0,0-.825.825v4.749A.825.825,0,0,0,253.018,45.854Z" transform="translate(-252.193 -39.455)" fill="#97e4f9"/>
        <path id="Trazado_208750" data-name="Trazado 208750" d="M186.819,127.165h4.749a.825.825,0,0,0,.825-.825v-4.749a.825.825,0,0,0-.825-.825h-4.749a.825.825,0,0,0-.825.825v4.749a.825.825,0,0,0,.825.825Z" transform="translate(-173.823 -105.817)" fill="#97e4f9"/>
        <path id="Trazado_208751" data-name="Trazado 208751" d="M253.018,127.165h4.749a.825.825,0,0,0,.825-.825v-4.749a.825.825,0,0,0-.825-.825h-4.749a.825.825,0,0,0-.825.825v4.749a.825.825,0,0,0,.825.825Z" transform="translate(-252.193 -105.817)" fill="#fecd4d"/>
        <path id="Trazado_208752" data-name="Trazado 208752" d="M186.819,208.477h4.749a.825.825,0,0,0,.825-.825V202.9a.825.825,0,0,0-.825-.825h-4.749a.825.825,0,0,0-.825.825v4.749A.825.825,0,0,0,186.819,208.477Z" transform="translate(-173.823 -172.18)" fill="#97e4f9"/>
        <path id="Trazado_208753" data-name="Trazado 208753" d="M253.018,208.477h4.749a.825.825,0,0,0,.825-.825V202.9a.825.825,0,0,0-.825-.825h-4.749a.825.825,0,0,0-.825.825v4.749A.825.825,0,0,0,253.018,208.477Z" transform="translate(-252.193 -172.18)" fill="#97e4f9"/>
        <path id="Trazado_208754" data-name="Trazado 208754" d="M186.819,289.788h4.749a.825.825,0,0,0,.825-.825v-4.749a.825.825,0,0,0-.825-.825h-4.749a.825.825,0,0,0-.825.825v4.749A.825.825,0,0,0,186.819,289.788Z" transform="translate(-173.823 -238.542)" fill="#97e4f9"/>
        <path id="Trazado_208755" data-name="Trazado 208755" d="M253.018,289.788h4.749a.825.825,0,0,0,.825-.825v-4.749a.825.825,0,0,0-.825-.825h-4.749a.825.825,0,0,0-.825.825v4.749A.825.825,0,0,0,253.018,289.788Z" transform="translate(-252.193 -238.542)" fill="#97e4f9"/>
        <path id="Trazado_208756" data-name="Trazado 208756" d="M120.619,45.854h4.749a.825.825,0,0,0,.825-.825V40.28a.825.825,0,0,0-.825-.825h-4.749a.825.825,0,0,0-.825.825v4.749A.825.825,0,0,0,120.619,45.854Z" transform="translate(-95.453 -39.455)" fill="#97e4f9"/>
        <path id="Trazado_208757" data-name="Trazado 208757" d="M120.619,127.165h4.749a.825.825,0,0,0,.825-.825v-4.749a.825.825,0,0,0-.825-.825h-4.749a.825.825,0,0,0-.825.825v4.749a.825.825,0,0,0,.825.825Z" transform="translate(-95.453 -105.817)" fill="#97e4f9"/>
        <path id="Trazado_208758" data-name="Trazado 208758" d="M120.619,208.477h4.749a.825.825,0,0,0,.825-.825V202.9a.825.825,0,0,0-.825-.825h-4.749a.825.825,0,0,0-.825.825v4.749A.825.825,0,0,0,120.619,208.477Z" transform="translate(-95.453 -172.18)" fill="#97e4f9"/>
        <path id="Trazado_208759" data-name="Trazado 208759" d="M120.619,289.788h4.749a.825.825,0,0,0,.825-.825v-4.749a.825.825,0,0,0-.825-.825h-4.749a.825.825,0,0,0-.825.825v4.749A.825.825,0,0,0,120.619,289.788Z" transform="translate(-95.453 -238.542)" fill="#97e4f9"/>
      </g>
    </g>
  </g>
</svg>
